M48
; DRILL file {KiCad (5.1.2-1)-1} date Friday, 24 May 2019 at 20:07:46
; FORMAT={-:-/ absolute / inch / decimal}
; #@! TF.CreationDate,2019-05-24T20:07:46+01:00
; #@! TF.GenerationSoftware,Kicad,Pcbnew,(5.1.2-1)-1
; #@! TF.FileFunction,Plated,1,2,PTH
FMAT,2
INCH
T1C0.0118
T2C0.0315
T3C0.0320
%
G90
G05
T1
X4.1Y-2.775
X4.125Y-3.45
X4.175Y-3.425
X4.2Y-3.475
X4.2057Y-2.625
X4.2279Y-3.6721
X4.2405Y-3.7655
X4.325Y-2.85
X4.375Y-3.575
X4.3836Y-2.956
X4.45Y-2.4
X4.45Y-2.75
X4.45Y-3.875
X4.5Y-4.025
X4.525Y-3.625
X4.575Y-4.125
X4.6Y-3.525
X4.625Y-4.225
X4.6456Y-4.1761
X4.6664Y-2.7836
X4.667Y-4.2746
X4.725Y-2.475
X4.75Y-3.725
X4.775Y-4.075
X4.8076Y-3.3251
X4.85Y-3.825
X4.9Y-3.975
X4.925Y-3.925
X4.95Y-3.175
X5.025Y-3.075
X5.075Y-2.6
X5.1Y-2.7
X5.1Y-3.025
X5.125Y-2.275
X5.125Y-2.375
X5.125Y-2.625
X5.125Y-2.925
X5.3Y-2.625
X5.3Y-3.575
X5.6Y-2.375
X5.625Y-2.275
X5.65Y-2.325
X5.65Y-3.275
X5.675Y-2.775
X5.675Y-2.925
X5.7Y-2.425
X5.7Y-3.475
T2
X5.2Y-2.325
X5.2Y-2.425
X5.2Y-2.525
X5.2Y-2.625
X5.2Y-2.725
X5.2Y-2.825
X5.2Y-2.925
X5.2Y-3.025
X5.2Y-3.125
X5.2Y-3.225
X5.2Y-3.325
X5.2Y-3.425
X5.2Y-3.525
X5.2Y-3.625
X5.2Y-3.725
X5.2Y-3.825
X5.2Y-3.925
X5.2Y-4.025
X5.2Y-4.125
X5.2Y-4.225
X5.8Y-2.325
X5.8Y-2.425
X5.8Y-2.525
X5.8Y-2.625
X5.8Y-2.725
X5.8Y-2.825
X5.8Y-2.925
X5.8Y-3.025
X5.8Y-3.125
X5.8Y-3.225
X5.8Y-3.325
X5.8Y-3.425
X5.8Y-3.525
X5.8Y-3.625
X5.8Y-3.725
X5.8Y-3.825
X5.8Y-3.925
X5.8Y-4.025
X5.8Y-4.125
X5.8Y-4.225
T3
X4.1007Y-2.8543
X4.1007Y-2.9957
X4.1714Y-2.7836
X4.1714Y-2.925
X4.1714Y-3.0664
X4.2422Y-2.7129
X4.2422Y-2.8543
X4.2422Y-2.9957
X4.2422Y-3.1371
X4.3129Y-2.6422
X4.3129Y-2.7836
X4.3129Y-3.0664
X4.3129Y-3.2078
X4.3836Y-2.5714
X4.3836Y-2.7129
X4.3836Y-3.1371
X4.3836Y-3.2786
X4.4543Y-2.5007
X4.4543Y-2.6422
X4.4543Y-3.2078
X4.4543Y-3.3493
X4.525Y-2.5714
X4.525Y-3.2786
X4.5957Y-2.5007
X4.5957Y-2.6422
X4.5957Y-3.2078
X4.5957Y-3.3493
X4.6664Y-2.5714
X4.6664Y-2.7129
X4.6664Y-3.1371
X4.6664Y-3.2786
X4.7371Y-2.6422
X4.7371Y-2.7836
X4.7371Y-3.0664
X4.7371Y-3.2078
X4.8078Y-2.7129
X4.8078Y-2.8543
X4.8078Y-2.9957
X4.8078Y-3.1371
X4.8786Y-2.7836
X4.8786Y-2.925
X4.8786Y-3.0664
X4.9493Y-2.8543
X4.9493Y-2.9957
T0
M30
