G04 #@! TF.GenerationSoftware,KiCad,Pcbnew,(5.1.2-1)-1*
G04 #@! TF.CreationDate,2019-05-24T20:07:40+01:00*
G04 #@! TF.ProjectId,8840A_CPU,38383430-415f-4435-9055-2e6b69636164,rev?*
G04 #@! TF.SameCoordinates,Original*
G04 #@! TF.FileFunction,Soldermask,Top*
G04 #@! TF.FilePolarity,Negative*
%FSLAX46Y46*%
G04 Gerber Fmt 4.6, Leading zero omitted, Abs format (unit mm)*
G04 Created by KiCad (PCBNEW (5.1.2-1)-1) date 2019-05-24 20:07:40*
%MOMM*%
%LPD*%
G04 APERTURE LIST*
%ADD10C,0.100000*%
G04 APERTURE END LIST*
D10*
G36*
X147486823Y-106476313D02*
G01*
X147647242Y-106524976D01*
X147779906Y-106595886D01*
X147795078Y-106603996D01*
X147924659Y-106710341D01*
X148031004Y-106839922D01*
X148031005Y-106839924D01*
X148110024Y-106987758D01*
X148158687Y-107148177D01*
X148175117Y-107315000D01*
X148158687Y-107481823D01*
X148110024Y-107642242D01*
X148039114Y-107774906D01*
X148031004Y-107790078D01*
X147924659Y-107919659D01*
X147795078Y-108026004D01*
X147795076Y-108026005D01*
X147647242Y-108105024D01*
X147486823Y-108153687D01*
X147361804Y-108166000D01*
X147278196Y-108166000D01*
X147153177Y-108153687D01*
X146992758Y-108105024D01*
X146844924Y-108026005D01*
X146844922Y-108026004D01*
X146715341Y-107919659D01*
X146608996Y-107790078D01*
X146600886Y-107774906D01*
X146529976Y-107642242D01*
X146481313Y-107481823D01*
X146464883Y-107315000D01*
X146481313Y-107148177D01*
X146529976Y-106987758D01*
X146608995Y-106839924D01*
X146608996Y-106839922D01*
X146715341Y-106710341D01*
X146844922Y-106603996D01*
X146860094Y-106595886D01*
X146992758Y-106524976D01*
X147153177Y-106476313D01*
X147278196Y-106464000D01*
X147361804Y-106464000D01*
X147486823Y-106476313D01*
X147486823Y-106476313D01*
G37*
G36*
X132246823Y-106476313D02*
G01*
X132407242Y-106524976D01*
X132539906Y-106595886D01*
X132555078Y-106603996D01*
X132684659Y-106710341D01*
X132791004Y-106839922D01*
X132791005Y-106839924D01*
X132870024Y-106987758D01*
X132918687Y-107148177D01*
X132935117Y-107315000D01*
X132918687Y-107481823D01*
X132870024Y-107642242D01*
X132799114Y-107774906D01*
X132791004Y-107790078D01*
X132684659Y-107919659D01*
X132555078Y-108026004D01*
X132555076Y-108026005D01*
X132407242Y-108105024D01*
X132246823Y-108153687D01*
X132121804Y-108166000D01*
X132038196Y-108166000D01*
X131913177Y-108153687D01*
X131752758Y-108105024D01*
X131604924Y-108026005D01*
X131604922Y-108026004D01*
X131475341Y-107919659D01*
X131368996Y-107790078D01*
X131360886Y-107774906D01*
X131289976Y-107642242D01*
X131241313Y-107481823D01*
X131224883Y-107315000D01*
X131241313Y-107148177D01*
X131289976Y-106987758D01*
X131368995Y-106839924D01*
X131368996Y-106839922D01*
X131475341Y-106710341D01*
X131604922Y-106603996D01*
X131620094Y-106595886D01*
X131752758Y-106524976D01*
X131913177Y-106476313D01*
X132038196Y-106464000D01*
X132121804Y-106464000D01*
X132246823Y-106476313D01*
X132246823Y-106476313D01*
G37*
G36*
X147486823Y-103936313D02*
G01*
X147647242Y-103984976D01*
X147779906Y-104055886D01*
X147795078Y-104063996D01*
X147924659Y-104170341D01*
X148031004Y-104299922D01*
X148031005Y-104299924D01*
X148110024Y-104447758D01*
X148158687Y-104608177D01*
X148175117Y-104775000D01*
X148158687Y-104941823D01*
X148110024Y-105102242D01*
X148039114Y-105234906D01*
X148031004Y-105250078D01*
X147924659Y-105379659D01*
X147795078Y-105486004D01*
X147795076Y-105486005D01*
X147647242Y-105565024D01*
X147486823Y-105613687D01*
X147361804Y-105626000D01*
X147278196Y-105626000D01*
X147153177Y-105613687D01*
X146992758Y-105565024D01*
X146844924Y-105486005D01*
X146844922Y-105486004D01*
X146715341Y-105379659D01*
X146608996Y-105250078D01*
X146600886Y-105234906D01*
X146529976Y-105102242D01*
X146481313Y-104941823D01*
X146464883Y-104775000D01*
X146481313Y-104608177D01*
X146529976Y-104447758D01*
X146608995Y-104299924D01*
X146608996Y-104299922D01*
X146715341Y-104170341D01*
X146844922Y-104063996D01*
X146860094Y-104055886D01*
X146992758Y-103984976D01*
X147153177Y-103936313D01*
X147278196Y-103924000D01*
X147361804Y-103924000D01*
X147486823Y-103936313D01*
X147486823Y-103936313D01*
G37*
G36*
X132246823Y-103936313D02*
G01*
X132407242Y-103984976D01*
X132539906Y-104055886D01*
X132555078Y-104063996D01*
X132684659Y-104170341D01*
X132791004Y-104299922D01*
X132791005Y-104299924D01*
X132870024Y-104447758D01*
X132918687Y-104608177D01*
X132935117Y-104775000D01*
X132918687Y-104941823D01*
X132870024Y-105102242D01*
X132799114Y-105234906D01*
X132791004Y-105250078D01*
X132684659Y-105379659D01*
X132555078Y-105486004D01*
X132555076Y-105486005D01*
X132407242Y-105565024D01*
X132246823Y-105613687D01*
X132121804Y-105626000D01*
X132038196Y-105626000D01*
X131913177Y-105613687D01*
X131752758Y-105565024D01*
X131604924Y-105486005D01*
X131604922Y-105486004D01*
X131475341Y-105379659D01*
X131368996Y-105250078D01*
X131360886Y-105234906D01*
X131289976Y-105102242D01*
X131241313Y-104941823D01*
X131224883Y-104775000D01*
X131241313Y-104608177D01*
X131289976Y-104447758D01*
X131368995Y-104299924D01*
X131368996Y-104299922D01*
X131475341Y-104170341D01*
X131604922Y-104063996D01*
X131620094Y-104055886D01*
X131752758Y-103984976D01*
X131913177Y-103936313D01*
X132038196Y-103924000D01*
X132121804Y-103924000D01*
X132246823Y-103936313D01*
X132246823Y-103936313D01*
G37*
G36*
X147486823Y-101396313D02*
G01*
X147647242Y-101444976D01*
X147779906Y-101515886D01*
X147795078Y-101523996D01*
X147924659Y-101630341D01*
X148031004Y-101759922D01*
X148031005Y-101759924D01*
X148110024Y-101907758D01*
X148158687Y-102068177D01*
X148175117Y-102235000D01*
X148158687Y-102401823D01*
X148110024Y-102562242D01*
X148039114Y-102694906D01*
X148031004Y-102710078D01*
X147924659Y-102839659D01*
X147795078Y-102946004D01*
X147795076Y-102946005D01*
X147647242Y-103025024D01*
X147486823Y-103073687D01*
X147361804Y-103086000D01*
X147278196Y-103086000D01*
X147153177Y-103073687D01*
X146992758Y-103025024D01*
X146844924Y-102946005D01*
X146844922Y-102946004D01*
X146715341Y-102839659D01*
X146608996Y-102710078D01*
X146600886Y-102694906D01*
X146529976Y-102562242D01*
X146481313Y-102401823D01*
X146464883Y-102235000D01*
X146481313Y-102068177D01*
X146529976Y-101907758D01*
X146608995Y-101759924D01*
X146608996Y-101759922D01*
X146715341Y-101630341D01*
X146844922Y-101523996D01*
X146860094Y-101515886D01*
X146992758Y-101444976D01*
X147153177Y-101396313D01*
X147278196Y-101384000D01*
X147361804Y-101384000D01*
X147486823Y-101396313D01*
X147486823Y-101396313D01*
G37*
G36*
X132246823Y-101396313D02*
G01*
X132407242Y-101444976D01*
X132539906Y-101515886D01*
X132555078Y-101523996D01*
X132684659Y-101630341D01*
X132791004Y-101759922D01*
X132791005Y-101759924D01*
X132870024Y-101907758D01*
X132918687Y-102068177D01*
X132935117Y-102235000D01*
X132918687Y-102401823D01*
X132870024Y-102562242D01*
X132799114Y-102694906D01*
X132791004Y-102710078D01*
X132684659Y-102839659D01*
X132555078Y-102946004D01*
X132555076Y-102946005D01*
X132407242Y-103025024D01*
X132246823Y-103073687D01*
X132121804Y-103086000D01*
X132038196Y-103086000D01*
X131913177Y-103073687D01*
X131752758Y-103025024D01*
X131604924Y-102946005D01*
X131604922Y-102946004D01*
X131475341Y-102839659D01*
X131368996Y-102710078D01*
X131360886Y-102694906D01*
X131289976Y-102562242D01*
X131241313Y-102401823D01*
X131224883Y-102235000D01*
X131241313Y-102068177D01*
X131289976Y-101907758D01*
X131368995Y-101759924D01*
X131368996Y-101759922D01*
X131475341Y-101630341D01*
X131604922Y-101523996D01*
X131620094Y-101515886D01*
X131752758Y-101444976D01*
X131913177Y-101396313D01*
X132038196Y-101384000D01*
X132121804Y-101384000D01*
X132246823Y-101396313D01*
X132246823Y-101396313D01*
G37*
G36*
X147486823Y-98856313D02*
G01*
X147647242Y-98904976D01*
X147779906Y-98975886D01*
X147795078Y-98983996D01*
X147924659Y-99090341D01*
X148031004Y-99219922D01*
X148031005Y-99219924D01*
X148110024Y-99367758D01*
X148158687Y-99528177D01*
X148175117Y-99695000D01*
X148158687Y-99861823D01*
X148110024Y-100022242D01*
X148039114Y-100154906D01*
X148031004Y-100170078D01*
X147924659Y-100299659D01*
X147795078Y-100406004D01*
X147795076Y-100406005D01*
X147647242Y-100485024D01*
X147486823Y-100533687D01*
X147361804Y-100546000D01*
X147278196Y-100546000D01*
X147153177Y-100533687D01*
X146992758Y-100485024D01*
X146844924Y-100406005D01*
X146844922Y-100406004D01*
X146715341Y-100299659D01*
X146608996Y-100170078D01*
X146600886Y-100154906D01*
X146529976Y-100022242D01*
X146481313Y-99861823D01*
X146464883Y-99695000D01*
X146481313Y-99528177D01*
X146529976Y-99367758D01*
X146608995Y-99219924D01*
X146608996Y-99219922D01*
X146715341Y-99090341D01*
X146844922Y-98983996D01*
X146860094Y-98975886D01*
X146992758Y-98904976D01*
X147153177Y-98856313D01*
X147278196Y-98844000D01*
X147361804Y-98844000D01*
X147486823Y-98856313D01*
X147486823Y-98856313D01*
G37*
G36*
X132246823Y-98856313D02*
G01*
X132407242Y-98904976D01*
X132539906Y-98975886D01*
X132555078Y-98983996D01*
X132684659Y-99090341D01*
X132791004Y-99219922D01*
X132791005Y-99219924D01*
X132870024Y-99367758D01*
X132918687Y-99528177D01*
X132935117Y-99695000D01*
X132918687Y-99861823D01*
X132870024Y-100022242D01*
X132799114Y-100154906D01*
X132791004Y-100170078D01*
X132684659Y-100299659D01*
X132555078Y-100406004D01*
X132555076Y-100406005D01*
X132407242Y-100485024D01*
X132246823Y-100533687D01*
X132121804Y-100546000D01*
X132038196Y-100546000D01*
X131913177Y-100533687D01*
X131752758Y-100485024D01*
X131604924Y-100406005D01*
X131604922Y-100406004D01*
X131475341Y-100299659D01*
X131368996Y-100170078D01*
X131360886Y-100154906D01*
X131289976Y-100022242D01*
X131241313Y-99861823D01*
X131224883Y-99695000D01*
X131241313Y-99528177D01*
X131289976Y-99367758D01*
X131368995Y-99219924D01*
X131368996Y-99219922D01*
X131475341Y-99090341D01*
X131604922Y-98983996D01*
X131620094Y-98975886D01*
X131752758Y-98904976D01*
X131913177Y-98856313D01*
X132038196Y-98844000D01*
X132121804Y-98844000D01*
X132246823Y-98856313D01*
X132246823Y-98856313D01*
G37*
G36*
X132246823Y-96316313D02*
G01*
X132407242Y-96364976D01*
X132539906Y-96435886D01*
X132555078Y-96443996D01*
X132684659Y-96550341D01*
X132791004Y-96679922D01*
X132791005Y-96679924D01*
X132870024Y-96827758D01*
X132918687Y-96988177D01*
X132935117Y-97155000D01*
X132918687Y-97321823D01*
X132870024Y-97482242D01*
X132799114Y-97614906D01*
X132791004Y-97630078D01*
X132684659Y-97759659D01*
X132555078Y-97866004D01*
X132555076Y-97866005D01*
X132407242Y-97945024D01*
X132246823Y-97993687D01*
X132121804Y-98006000D01*
X132038196Y-98006000D01*
X131913177Y-97993687D01*
X131752758Y-97945024D01*
X131604924Y-97866005D01*
X131604922Y-97866004D01*
X131475341Y-97759659D01*
X131368996Y-97630078D01*
X131360886Y-97614906D01*
X131289976Y-97482242D01*
X131241313Y-97321823D01*
X131224883Y-97155000D01*
X131241313Y-96988177D01*
X131289976Y-96827758D01*
X131368995Y-96679924D01*
X131368996Y-96679922D01*
X131475341Y-96550341D01*
X131604922Y-96443996D01*
X131620094Y-96435886D01*
X131752758Y-96364976D01*
X131913177Y-96316313D01*
X132038196Y-96304000D01*
X132121804Y-96304000D01*
X132246823Y-96316313D01*
X132246823Y-96316313D01*
G37*
G36*
X147486823Y-96316313D02*
G01*
X147647242Y-96364976D01*
X147779906Y-96435886D01*
X147795078Y-96443996D01*
X147924659Y-96550341D01*
X148031004Y-96679922D01*
X148031005Y-96679924D01*
X148110024Y-96827758D01*
X148158687Y-96988177D01*
X148175117Y-97155000D01*
X148158687Y-97321823D01*
X148110024Y-97482242D01*
X148039114Y-97614906D01*
X148031004Y-97630078D01*
X147924659Y-97759659D01*
X147795078Y-97866004D01*
X147795076Y-97866005D01*
X147647242Y-97945024D01*
X147486823Y-97993687D01*
X147361804Y-98006000D01*
X147278196Y-98006000D01*
X147153177Y-97993687D01*
X146992758Y-97945024D01*
X146844924Y-97866005D01*
X146844922Y-97866004D01*
X146715341Y-97759659D01*
X146608996Y-97630078D01*
X146600886Y-97614906D01*
X146529976Y-97482242D01*
X146481313Y-97321823D01*
X146464883Y-97155000D01*
X146481313Y-96988177D01*
X146529976Y-96827758D01*
X146608995Y-96679924D01*
X146608996Y-96679922D01*
X146715341Y-96550341D01*
X146844922Y-96443996D01*
X146860094Y-96435886D01*
X146992758Y-96364976D01*
X147153177Y-96316313D01*
X147278196Y-96304000D01*
X147361804Y-96304000D01*
X147486823Y-96316313D01*
X147486823Y-96316313D01*
G37*
G36*
X132246823Y-93776313D02*
G01*
X132407242Y-93824976D01*
X132539906Y-93895886D01*
X132555078Y-93903996D01*
X132684659Y-94010341D01*
X132791004Y-94139922D01*
X132791005Y-94139924D01*
X132870024Y-94287758D01*
X132918687Y-94448177D01*
X132935117Y-94615000D01*
X132918687Y-94781823D01*
X132870024Y-94942242D01*
X132799114Y-95074906D01*
X132791004Y-95090078D01*
X132684659Y-95219659D01*
X132555078Y-95326004D01*
X132555076Y-95326005D01*
X132407242Y-95405024D01*
X132246823Y-95453687D01*
X132121804Y-95466000D01*
X132038196Y-95466000D01*
X131913177Y-95453687D01*
X131752758Y-95405024D01*
X131604924Y-95326005D01*
X131604922Y-95326004D01*
X131475341Y-95219659D01*
X131368996Y-95090078D01*
X131360886Y-95074906D01*
X131289976Y-94942242D01*
X131241313Y-94781823D01*
X131224883Y-94615000D01*
X131241313Y-94448177D01*
X131289976Y-94287758D01*
X131368995Y-94139924D01*
X131368996Y-94139922D01*
X131475341Y-94010341D01*
X131604922Y-93903996D01*
X131620094Y-93895886D01*
X131752758Y-93824976D01*
X131913177Y-93776313D01*
X132038196Y-93764000D01*
X132121804Y-93764000D01*
X132246823Y-93776313D01*
X132246823Y-93776313D01*
G37*
G36*
X147486823Y-93776313D02*
G01*
X147647242Y-93824976D01*
X147779906Y-93895886D01*
X147795078Y-93903996D01*
X147924659Y-94010341D01*
X148031004Y-94139922D01*
X148031005Y-94139924D01*
X148110024Y-94287758D01*
X148158687Y-94448177D01*
X148175117Y-94615000D01*
X148158687Y-94781823D01*
X148110024Y-94942242D01*
X148039114Y-95074906D01*
X148031004Y-95090078D01*
X147924659Y-95219659D01*
X147795078Y-95326004D01*
X147795076Y-95326005D01*
X147647242Y-95405024D01*
X147486823Y-95453687D01*
X147361804Y-95466000D01*
X147278196Y-95466000D01*
X147153177Y-95453687D01*
X146992758Y-95405024D01*
X146844924Y-95326005D01*
X146844922Y-95326004D01*
X146715341Y-95219659D01*
X146608996Y-95090078D01*
X146600886Y-95074906D01*
X146529976Y-94942242D01*
X146481313Y-94781823D01*
X146464883Y-94615000D01*
X146481313Y-94448177D01*
X146529976Y-94287758D01*
X146608995Y-94139924D01*
X146608996Y-94139922D01*
X146715341Y-94010341D01*
X146844922Y-93903996D01*
X146860094Y-93895886D01*
X146992758Y-93824976D01*
X147153177Y-93776313D01*
X147278196Y-93764000D01*
X147361804Y-93764000D01*
X147486823Y-93776313D01*
X147486823Y-93776313D01*
G37*
G36*
X132246823Y-91236313D02*
G01*
X132407242Y-91284976D01*
X132539906Y-91355886D01*
X132555078Y-91363996D01*
X132684659Y-91470341D01*
X132791004Y-91599922D01*
X132791005Y-91599924D01*
X132870024Y-91747758D01*
X132918687Y-91908177D01*
X132935117Y-92075000D01*
X132918687Y-92241823D01*
X132870024Y-92402242D01*
X132799114Y-92534906D01*
X132791004Y-92550078D01*
X132684659Y-92679659D01*
X132555078Y-92786004D01*
X132555076Y-92786005D01*
X132407242Y-92865024D01*
X132246823Y-92913687D01*
X132121804Y-92926000D01*
X132038196Y-92926000D01*
X131913177Y-92913687D01*
X131752758Y-92865024D01*
X131604924Y-92786005D01*
X131604922Y-92786004D01*
X131475341Y-92679659D01*
X131368996Y-92550078D01*
X131360886Y-92534906D01*
X131289976Y-92402242D01*
X131241313Y-92241823D01*
X131224883Y-92075000D01*
X131241313Y-91908177D01*
X131289976Y-91747758D01*
X131368995Y-91599924D01*
X131368996Y-91599922D01*
X131475341Y-91470341D01*
X131604922Y-91363996D01*
X131620094Y-91355886D01*
X131752758Y-91284976D01*
X131913177Y-91236313D01*
X132038196Y-91224000D01*
X132121804Y-91224000D01*
X132246823Y-91236313D01*
X132246823Y-91236313D01*
G37*
G36*
X147486823Y-91236313D02*
G01*
X147647242Y-91284976D01*
X147779906Y-91355886D01*
X147795078Y-91363996D01*
X147924659Y-91470341D01*
X148031004Y-91599922D01*
X148031005Y-91599924D01*
X148110024Y-91747758D01*
X148158687Y-91908177D01*
X148175117Y-92075000D01*
X148158687Y-92241823D01*
X148110024Y-92402242D01*
X148039114Y-92534906D01*
X148031004Y-92550078D01*
X147924659Y-92679659D01*
X147795078Y-92786004D01*
X147795076Y-92786005D01*
X147647242Y-92865024D01*
X147486823Y-92913687D01*
X147361804Y-92926000D01*
X147278196Y-92926000D01*
X147153177Y-92913687D01*
X146992758Y-92865024D01*
X146844924Y-92786005D01*
X146844922Y-92786004D01*
X146715341Y-92679659D01*
X146608996Y-92550078D01*
X146600886Y-92534906D01*
X146529976Y-92402242D01*
X146481313Y-92241823D01*
X146464883Y-92075000D01*
X146481313Y-91908177D01*
X146529976Y-91747758D01*
X146608995Y-91599924D01*
X146608996Y-91599922D01*
X146715341Y-91470341D01*
X146844922Y-91363996D01*
X146860094Y-91355886D01*
X146992758Y-91284976D01*
X147153177Y-91236313D01*
X147278196Y-91224000D01*
X147361804Y-91224000D01*
X147486823Y-91236313D01*
X147486823Y-91236313D01*
G37*
G36*
X132246823Y-88696313D02*
G01*
X132407242Y-88744976D01*
X132539906Y-88815886D01*
X132555078Y-88823996D01*
X132684659Y-88930341D01*
X132791004Y-89059922D01*
X132791005Y-89059924D01*
X132870024Y-89207758D01*
X132918687Y-89368177D01*
X132935117Y-89535000D01*
X132918687Y-89701823D01*
X132870024Y-89862242D01*
X132799114Y-89994906D01*
X132791004Y-90010078D01*
X132684659Y-90139659D01*
X132555078Y-90246004D01*
X132555076Y-90246005D01*
X132407242Y-90325024D01*
X132246823Y-90373687D01*
X132121804Y-90386000D01*
X132038196Y-90386000D01*
X131913177Y-90373687D01*
X131752758Y-90325024D01*
X131604924Y-90246005D01*
X131604922Y-90246004D01*
X131475341Y-90139659D01*
X131368996Y-90010078D01*
X131360886Y-89994906D01*
X131289976Y-89862242D01*
X131241313Y-89701823D01*
X131224883Y-89535000D01*
X131241313Y-89368177D01*
X131289976Y-89207758D01*
X131368995Y-89059924D01*
X131368996Y-89059922D01*
X131475341Y-88930341D01*
X131604922Y-88823996D01*
X131620094Y-88815886D01*
X131752758Y-88744976D01*
X131913177Y-88696313D01*
X132038196Y-88684000D01*
X132121804Y-88684000D01*
X132246823Y-88696313D01*
X132246823Y-88696313D01*
G37*
G36*
X147486823Y-88696313D02*
G01*
X147647242Y-88744976D01*
X147779906Y-88815886D01*
X147795078Y-88823996D01*
X147924659Y-88930341D01*
X148031004Y-89059922D01*
X148031005Y-89059924D01*
X148110024Y-89207758D01*
X148158687Y-89368177D01*
X148175117Y-89535000D01*
X148158687Y-89701823D01*
X148110024Y-89862242D01*
X148039114Y-89994906D01*
X148031004Y-90010078D01*
X147924659Y-90139659D01*
X147795078Y-90246004D01*
X147795076Y-90246005D01*
X147647242Y-90325024D01*
X147486823Y-90373687D01*
X147361804Y-90386000D01*
X147278196Y-90386000D01*
X147153177Y-90373687D01*
X146992758Y-90325024D01*
X146844924Y-90246005D01*
X146844922Y-90246004D01*
X146715341Y-90139659D01*
X146608996Y-90010078D01*
X146600886Y-89994906D01*
X146529976Y-89862242D01*
X146481313Y-89701823D01*
X146464883Y-89535000D01*
X146481313Y-89368177D01*
X146529976Y-89207758D01*
X146608995Y-89059924D01*
X146608996Y-89059922D01*
X146715341Y-88930341D01*
X146844922Y-88823996D01*
X146860094Y-88815886D01*
X146992758Y-88744976D01*
X147153177Y-88696313D01*
X147278196Y-88684000D01*
X147361804Y-88684000D01*
X147486823Y-88696313D01*
X147486823Y-88696313D01*
G37*
G36*
X132246823Y-86156313D02*
G01*
X132407242Y-86204976D01*
X132539906Y-86275886D01*
X132555078Y-86283996D01*
X132684659Y-86390341D01*
X132791004Y-86519922D01*
X132791005Y-86519924D01*
X132870024Y-86667758D01*
X132918687Y-86828177D01*
X132935117Y-86995000D01*
X132918687Y-87161823D01*
X132870024Y-87322242D01*
X132799114Y-87454906D01*
X132791004Y-87470078D01*
X132684659Y-87599659D01*
X132555078Y-87706004D01*
X132555076Y-87706005D01*
X132407242Y-87785024D01*
X132246823Y-87833687D01*
X132121804Y-87846000D01*
X132038196Y-87846000D01*
X131913177Y-87833687D01*
X131752758Y-87785024D01*
X131604924Y-87706005D01*
X131604922Y-87706004D01*
X131475341Y-87599659D01*
X131368996Y-87470078D01*
X131360886Y-87454906D01*
X131289976Y-87322242D01*
X131241313Y-87161823D01*
X131224883Y-86995000D01*
X131241313Y-86828177D01*
X131289976Y-86667758D01*
X131368995Y-86519924D01*
X131368996Y-86519922D01*
X131475341Y-86390341D01*
X131604922Y-86283996D01*
X131620094Y-86275886D01*
X131752758Y-86204976D01*
X131913177Y-86156313D01*
X132038196Y-86144000D01*
X132121804Y-86144000D01*
X132246823Y-86156313D01*
X132246823Y-86156313D01*
G37*
G36*
X147486823Y-86156313D02*
G01*
X147647242Y-86204976D01*
X147779906Y-86275886D01*
X147795078Y-86283996D01*
X147924659Y-86390341D01*
X148031004Y-86519922D01*
X148031005Y-86519924D01*
X148110024Y-86667758D01*
X148158687Y-86828177D01*
X148175117Y-86995000D01*
X148158687Y-87161823D01*
X148110024Y-87322242D01*
X148039114Y-87454906D01*
X148031004Y-87470078D01*
X147924659Y-87599659D01*
X147795078Y-87706004D01*
X147795076Y-87706005D01*
X147647242Y-87785024D01*
X147486823Y-87833687D01*
X147361804Y-87846000D01*
X147278196Y-87846000D01*
X147153177Y-87833687D01*
X146992758Y-87785024D01*
X146844924Y-87706005D01*
X146844922Y-87706004D01*
X146715341Y-87599659D01*
X146608996Y-87470078D01*
X146600886Y-87454906D01*
X146529976Y-87322242D01*
X146481313Y-87161823D01*
X146464883Y-86995000D01*
X146481313Y-86828177D01*
X146529976Y-86667758D01*
X146608995Y-86519924D01*
X146608996Y-86519922D01*
X146715341Y-86390341D01*
X146844922Y-86283996D01*
X146860094Y-86275886D01*
X146992758Y-86204976D01*
X147153177Y-86156313D01*
X147278196Y-86144000D01*
X147361804Y-86144000D01*
X147486823Y-86156313D01*
X147486823Y-86156313D01*
G37*
G36*
X116825476Y-84325906D02*
G01*
X116949672Y-84350609D01*
X117086073Y-84407108D01*
X117208830Y-84489132D01*
X117313226Y-84593528D01*
X117395250Y-84716285D01*
X117451749Y-84852686D01*
X117480551Y-84997488D01*
X117480551Y-85145126D01*
X117451749Y-85289928D01*
X117395250Y-85426329D01*
X117313226Y-85549086D01*
X117208830Y-85653482D01*
X117086073Y-85735506D01*
X116949672Y-85792005D01*
X116825476Y-85816708D01*
X116804871Y-85820807D01*
X116657231Y-85820807D01*
X116636626Y-85816708D01*
X116512430Y-85792005D01*
X116376029Y-85735506D01*
X116253272Y-85653482D01*
X116148876Y-85549086D01*
X116066852Y-85426329D01*
X116010353Y-85289928D01*
X115981551Y-85145126D01*
X115981551Y-84997488D01*
X116010353Y-84852686D01*
X116066852Y-84716285D01*
X116148876Y-84593528D01*
X116253272Y-84489132D01*
X116376029Y-84407108D01*
X116512430Y-84350609D01*
X116636626Y-84325906D01*
X116657231Y-84321807D01*
X116804871Y-84321807D01*
X116825476Y-84325906D01*
X116825476Y-84325906D01*
G37*
G36*
X113233374Y-84325906D02*
G01*
X113357570Y-84350609D01*
X113493971Y-84407108D01*
X113616728Y-84489132D01*
X113721124Y-84593528D01*
X113803148Y-84716285D01*
X113859647Y-84852686D01*
X113888449Y-84997488D01*
X113888449Y-85145126D01*
X113859647Y-85289928D01*
X113803148Y-85426329D01*
X113721124Y-85549086D01*
X113616728Y-85653482D01*
X113493971Y-85735506D01*
X113357570Y-85792005D01*
X113233374Y-85816708D01*
X113212769Y-85820807D01*
X113065129Y-85820807D01*
X113044524Y-85816708D01*
X112920328Y-85792005D01*
X112783927Y-85735506D01*
X112661170Y-85653482D01*
X112556774Y-85549086D01*
X112474750Y-85426329D01*
X112418251Y-85289928D01*
X112389449Y-85145126D01*
X112389449Y-84997488D01*
X112418251Y-84852686D01*
X112474750Y-84716285D01*
X112556774Y-84593528D01*
X112661170Y-84489132D01*
X112783927Y-84407108D01*
X112920328Y-84350609D01*
X113044524Y-84325906D01*
X113065129Y-84321807D01*
X113212769Y-84321807D01*
X113233374Y-84325906D01*
X113233374Y-84325906D01*
G37*
G36*
X147486823Y-83616313D02*
G01*
X147647242Y-83664976D01*
X147779906Y-83735886D01*
X147795078Y-83743996D01*
X147924659Y-83850341D01*
X148031004Y-83979922D01*
X148031005Y-83979924D01*
X148110024Y-84127758D01*
X148158687Y-84288177D01*
X148175117Y-84455000D01*
X148158687Y-84621823D01*
X148110024Y-84782242D01*
X148072371Y-84852686D01*
X148031004Y-84930078D01*
X147924659Y-85059659D01*
X147795078Y-85166004D01*
X147795076Y-85166005D01*
X147647242Y-85245024D01*
X147486823Y-85293687D01*
X147361804Y-85306000D01*
X147278196Y-85306000D01*
X147153177Y-85293687D01*
X146992758Y-85245024D01*
X146844924Y-85166005D01*
X146844922Y-85166004D01*
X146715341Y-85059659D01*
X146608996Y-84930078D01*
X146567629Y-84852686D01*
X146529976Y-84782242D01*
X146481313Y-84621823D01*
X146464883Y-84455000D01*
X146481313Y-84288177D01*
X146529976Y-84127758D01*
X146608995Y-83979924D01*
X146608996Y-83979922D01*
X146715341Y-83850341D01*
X146844922Y-83743996D01*
X146860094Y-83735886D01*
X146992758Y-83664976D01*
X147153177Y-83616313D01*
X147278196Y-83604000D01*
X147361804Y-83604000D01*
X147486823Y-83616313D01*
X147486823Y-83616313D01*
G37*
G36*
X132246823Y-83616313D02*
G01*
X132407242Y-83664976D01*
X132539906Y-83735886D01*
X132555078Y-83743996D01*
X132684659Y-83850341D01*
X132791004Y-83979922D01*
X132791005Y-83979924D01*
X132870024Y-84127758D01*
X132918687Y-84288177D01*
X132935117Y-84455000D01*
X132918687Y-84621823D01*
X132870024Y-84782242D01*
X132832371Y-84852686D01*
X132791004Y-84930078D01*
X132684659Y-85059659D01*
X132555078Y-85166004D01*
X132555076Y-85166005D01*
X132407242Y-85245024D01*
X132246823Y-85293687D01*
X132121804Y-85306000D01*
X132038196Y-85306000D01*
X131913177Y-85293687D01*
X131752758Y-85245024D01*
X131604924Y-85166005D01*
X131604922Y-85166004D01*
X131475341Y-85059659D01*
X131368996Y-84930078D01*
X131327629Y-84852686D01*
X131289976Y-84782242D01*
X131241313Y-84621823D01*
X131224883Y-84455000D01*
X131241313Y-84288177D01*
X131289976Y-84127758D01*
X131368995Y-83979924D01*
X131368996Y-83979922D01*
X131475341Y-83850341D01*
X131604922Y-83743996D01*
X131620094Y-83735886D01*
X131752758Y-83664976D01*
X131913177Y-83616313D01*
X132038196Y-83604000D01*
X132121804Y-83604000D01*
X132246823Y-83616313D01*
X132246823Y-83616313D01*
G37*
G36*
X106703280Y-83522271D02*
G01*
X105747271Y-84478280D01*
X104614486Y-83345495D01*
X105570495Y-82389486D01*
X106703280Y-83522271D01*
X106703280Y-83522271D01*
G37*
G36*
X118621527Y-82529855D02*
G01*
X118745723Y-82554558D01*
X118882124Y-82611057D01*
X119004881Y-82693081D01*
X119109277Y-82797477D01*
X119191301Y-82920234D01*
X119247800Y-83056635D01*
X119276602Y-83201437D01*
X119276602Y-83349075D01*
X119247800Y-83493877D01*
X119191301Y-83630278D01*
X119109277Y-83753035D01*
X119004881Y-83857431D01*
X118882124Y-83939455D01*
X118745723Y-83995954D01*
X118621527Y-84020657D01*
X118600922Y-84024756D01*
X118453282Y-84024756D01*
X118432677Y-84020657D01*
X118308481Y-83995954D01*
X118172080Y-83939455D01*
X118049323Y-83857431D01*
X117944927Y-83753035D01*
X117862903Y-83630278D01*
X117806404Y-83493877D01*
X117777602Y-83349075D01*
X117777602Y-83201437D01*
X117806404Y-83056635D01*
X117862903Y-82920234D01*
X117944927Y-82797477D01*
X118049323Y-82693081D01*
X118172080Y-82611057D01*
X118308481Y-82554558D01*
X118432677Y-82529855D01*
X118453282Y-82525756D01*
X118600922Y-82525756D01*
X118621527Y-82529855D01*
X118621527Y-82529855D01*
G37*
G36*
X115029425Y-82529855D02*
G01*
X115153621Y-82554558D01*
X115290022Y-82611057D01*
X115412779Y-82693081D01*
X115517175Y-82797477D01*
X115599199Y-82920234D01*
X115655698Y-83056635D01*
X115684500Y-83201437D01*
X115684500Y-83349075D01*
X115655698Y-83493877D01*
X115599199Y-83630278D01*
X115517175Y-83753035D01*
X115412779Y-83857431D01*
X115290022Y-83939455D01*
X115153621Y-83995954D01*
X115029425Y-84020657D01*
X115008820Y-84024756D01*
X114861180Y-84024756D01*
X114840575Y-84020657D01*
X114716379Y-83995954D01*
X114579978Y-83939455D01*
X114457221Y-83857431D01*
X114352825Y-83753035D01*
X114270801Y-83630278D01*
X114214302Y-83493877D01*
X114185500Y-83349075D01*
X114185500Y-83201437D01*
X114214302Y-83056635D01*
X114270801Y-82920234D01*
X114352825Y-82797477D01*
X114457221Y-82693081D01*
X114579978Y-82611057D01*
X114716379Y-82554558D01*
X114840575Y-82529855D01*
X114861180Y-82525756D01*
X115008820Y-82525756D01*
X115029425Y-82529855D01*
X115029425Y-82529855D01*
G37*
G36*
X111437323Y-82529855D02*
G01*
X111561519Y-82554558D01*
X111697920Y-82611057D01*
X111820677Y-82693081D01*
X111925073Y-82797477D01*
X112007097Y-82920234D01*
X112063596Y-83056635D01*
X112092398Y-83201437D01*
X112092398Y-83349075D01*
X112063596Y-83493877D01*
X112007097Y-83630278D01*
X111925073Y-83753035D01*
X111820677Y-83857431D01*
X111697920Y-83939455D01*
X111561519Y-83995954D01*
X111437323Y-84020657D01*
X111416718Y-84024756D01*
X111269078Y-84024756D01*
X111248473Y-84020657D01*
X111124277Y-83995954D01*
X110987876Y-83939455D01*
X110865119Y-83857431D01*
X110760723Y-83753035D01*
X110678699Y-83630278D01*
X110622200Y-83493877D01*
X110593398Y-83349075D01*
X110593398Y-83201437D01*
X110622200Y-83056635D01*
X110678699Y-82920234D01*
X110760723Y-82797477D01*
X110865119Y-82693081D01*
X110987876Y-82611057D01*
X111124277Y-82554558D01*
X111248473Y-82529855D01*
X111269078Y-82525756D01*
X111416718Y-82525756D01*
X111437323Y-82529855D01*
X111437323Y-82529855D01*
G37*
G36*
X147486823Y-81076313D02*
G01*
X147647242Y-81124976D01*
X147779906Y-81195886D01*
X147795078Y-81203996D01*
X147924659Y-81310341D01*
X148031004Y-81439922D01*
X148031005Y-81439924D01*
X148110024Y-81587758D01*
X148158687Y-81748177D01*
X148175117Y-81915000D01*
X148158687Y-82081823D01*
X148110024Y-82242242D01*
X148039114Y-82374906D01*
X148031004Y-82390078D01*
X147924659Y-82519659D01*
X147795078Y-82626004D01*
X147795076Y-82626005D01*
X147647242Y-82705024D01*
X147486823Y-82753687D01*
X147361804Y-82766000D01*
X147278196Y-82766000D01*
X147153177Y-82753687D01*
X146992758Y-82705024D01*
X146844924Y-82626005D01*
X146844922Y-82626004D01*
X146715341Y-82519659D01*
X146608996Y-82390078D01*
X146600886Y-82374906D01*
X146529976Y-82242242D01*
X146481313Y-82081823D01*
X146464883Y-81915000D01*
X146481313Y-81748177D01*
X146529976Y-81587758D01*
X146608995Y-81439924D01*
X146608996Y-81439922D01*
X146715341Y-81310341D01*
X146844922Y-81203996D01*
X146860094Y-81195886D01*
X146992758Y-81124976D01*
X147153177Y-81076313D01*
X147278196Y-81064000D01*
X147361804Y-81064000D01*
X147486823Y-81076313D01*
X147486823Y-81076313D01*
G37*
G36*
X132246823Y-81076313D02*
G01*
X132407242Y-81124976D01*
X132539906Y-81195886D01*
X132555078Y-81203996D01*
X132684659Y-81310341D01*
X132791004Y-81439922D01*
X132791005Y-81439924D01*
X132870024Y-81587758D01*
X132918687Y-81748177D01*
X132935117Y-81915000D01*
X132918687Y-82081823D01*
X132870024Y-82242242D01*
X132799114Y-82374906D01*
X132791004Y-82390078D01*
X132684659Y-82519659D01*
X132555078Y-82626004D01*
X132555076Y-82626005D01*
X132407242Y-82705024D01*
X132246823Y-82753687D01*
X132121804Y-82766000D01*
X132038196Y-82766000D01*
X131913177Y-82753687D01*
X131752758Y-82705024D01*
X131604924Y-82626005D01*
X131604922Y-82626004D01*
X131475341Y-82519659D01*
X131368996Y-82390078D01*
X131360886Y-82374906D01*
X131289976Y-82242242D01*
X131241313Y-82081823D01*
X131224883Y-81915000D01*
X131241313Y-81748177D01*
X131289976Y-81587758D01*
X131368995Y-81439924D01*
X131368996Y-81439922D01*
X131475341Y-81310341D01*
X131604922Y-81203996D01*
X131620094Y-81195886D01*
X131752758Y-81124976D01*
X131913177Y-81076313D01*
X132038196Y-81064000D01*
X132121804Y-81064000D01*
X132246823Y-81076313D01*
X132246823Y-81076313D01*
G37*
G36*
X104935514Y-81754505D02*
G01*
X103979505Y-82710514D01*
X102846720Y-81577729D01*
X103802729Y-80621720D01*
X104935514Y-81754505D01*
X104935514Y-81754505D01*
G37*
G36*
X120417579Y-80733804D02*
G01*
X120541775Y-80758507D01*
X120678176Y-80815006D01*
X120800933Y-80897030D01*
X120905329Y-81001426D01*
X120987353Y-81124183D01*
X121043852Y-81260584D01*
X121072654Y-81405386D01*
X121072654Y-81553024D01*
X121043852Y-81697826D01*
X120987353Y-81834227D01*
X120905329Y-81956984D01*
X120800933Y-82061380D01*
X120678176Y-82143404D01*
X120541775Y-82199903D01*
X120417579Y-82224606D01*
X120396974Y-82228705D01*
X120249334Y-82228705D01*
X120228729Y-82224606D01*
X120104533Y-82199903D01*
X119968132Y-82143404D01*
X119845375Y-82061380D01*
X119740979Y-81956984D01*
X119658955Y-81834227D01*
X119602456Y-81697826D01*
X119573654Y-81553024D01*
X119573654Y-81405386D01*
X119602456Y-81260584D01*
X119658955Y-81124183D01*
X119740979Y-81001426D01*
X119845375Y-80897030D01*
X119968132Y-80815006D01*
X120104533Y-80758507D01*
X120228729Y-80733804D01*
X120249334Y-80729705D01*
X120396974Y-80729705D01*
X120417579Y-80733804D01*
X120417579Y-80733804D01*
G37*
G36*
X116825476Y-80733804D02*
G01*
X116949672Y-80758507D01*
X117086073Y-80815006D01*
X117208830Y-80897030D01*
X117313226Y-81001426D01*
X117395250Y-81124183D01*
X117451749Y-81260584D01*
X117480551Y-81405386D01*
X117480551Y-81553024D01*
X117451749Y-81697826D01*
X117395250Y-81834227D01*
X117313226Y-81956984D01*
X117208830Y-82061380D01*
X117086073Y-82143404D01*
X116949672Y-82199903D01*
X116825476Y-82224606D01*
X116804871Y-82228705D01*
X116657231Y-82228705D01*
X116636626Y-82224606D01*
X116512430Y-82199903D01*
X116376029Y-82143404D01*
X116253272Y-82061380D01*
X116148876Y-81956984D01*
X116066852Y-81834227D01*
X116010353Y-81697826D01*
X115981551Y-81553024D01*
X115981551Y-81405386D01*
X116010353Y-81260584D01*
X116066852Y-81124183D01*
X116148876Y-81001426D01*
X116253272Y-80897030D01*
X116376029Y-80815006D01*
X116512430Y-80758507D01*
X116636626Y-80733804D01*
X116657231Y-80729705D01*
X116804871Y-80729705D01*
X116825476Y-80733804D01*
X116825476Y-80733804D01*
G37*
G36*
X113233374Y-80733804D02*
G01*
X113357570Y-80758507D01*
X113493971Y-80815006D01*
X113616728Y-80897030D01*
X113721124Y-81001426D01*
X113803148Y-81124183D01*
X113859647Y-81260584D01*
X113888449Y-81405386D01*
X113888449Y-81553024D01*
X113859647Y-81697826D01*
X113803148Y-81834227D01*
X113721124Y-81956984D01*
X113616728Y-82061380D01*
X113493971Y-82143404D01*
X113357570Y-82199903D01*
X113233374Y-82224606D01*
X113212769Y-82228705D01*
X113065129Y-82228705D01*
X113044524Y-82224606D01*
X112920328Y-82199903D01*
X112783927Y-82143404D01*
X112661170Y-82061380D01*
X112556774Y-81956984D01*
X112474750Y-81834227D01*
X112418251Y-81697826D01*
X112389449Y-81553024D01*
X112389449Y-81405386D01*
X112418251Y-81260584D01*
X112474750Y-81124183D01*
X112556774Y-81001426D01*
X112661170Y-80897030D01*
X112783927Y-80815006D01*
X112920328Y-80758507D01*
X113044524Y-80733804D01*
X113065129Y-80729705D01*
X113212769Y-80729705D01*
X113233374Y-80733804D01*
X113233374Y-80733804D01*
G37*
G36*
X109641271Y-80733804D02*
G01*
X109765467Y-80758507D01*
X109901868Y-80815006D01*
X110024625Y-80897030D01*
X110129021Y-81001426D01*
X110211045Y-81124183D01*
X110267544Y-81260584D01*
X110296346Y-81405386D01*
X110296346Y-81553024D01*
X110267544Y-81697826D01*
X110211045Y-81834227D01*
X110129021Y-81956984D01*
X110024625Y-82061380D01*
X109901868Y-82143404D01*
X109765467Y-82199903D01*
X109641271Y-82224606D01*
X109620666Y-82228705D01*
X109473026Y-82228705D01*
X109452421Y-82224606D01*
X109328225Y-82199903D01*
X109191824Y-82143404D01*
X109069067Y-82061380D01*
X108964671Y-81956984D01*
X108882647Y-81834227D01*
X108826148Y-81697826D01*
X108797346Y-81553024D01*
X108797346Y-81405386D01*
X108826148Y-81260584D01*
X108882647Y-81124183D01*
X108964671Y-81001426D01*
X109069067Y-80897030D01*
X109191824Y-80815006D01*
X109328225Y-80758507D01*
X109452421Y-80733804D01*
X109473026Y-80729705D01*
X109620666Y-80729705D01*
X109641271Y-80733804D01*
X109641271Y-80733804D01*
G37*
G36*
X119587055Y-79683154D02*
G01*
X118527102Y-80743107D01*
X117467149Y-79683154D01*
X118527102Y-78623201D01*
X119587055Y-79683154D01*
X119587055Y-79683154D01*
G37*
G36*
X122213630Y-78937753D02*
G01*
X122337826Y-78962456D01*
X122474227Y-79018955D01*
X122596984Y-79100979D01*
X122701380Y-79205375D01*
X122783404Y-79328132D01*
X122839903Y-79464533D01*
X122868705Y-79609335D01*
X122868705Y-79756973D01*
X122839903Y-79901775D01*
X122783404Y-80038176D01*
X122701380Y-80160933D01*
X122596984Y-80265329D01*
X122474227Y-80347353D01*
X122337826Y-80403852D01*
X122213630Y-80428555D01*
X122193025Y-80432654D01*
X122045385Y-80432654D01*
X122024780Y-80428555D01*
X121900584Y-80403852D01*
X121764183Y-80347353D01*
X121641426Y-80265329D01*
X121537030Y-80160933D01*
X121455006Y-80038176D01*
X121398507Y-79901775D01*
X121369705Y-79756973D01*
X121369705Y-79609335D01*
X121398507Y-79464533D01*
X121455006Y-79328132D01*
X121537030Y-79205375D01*
X121641426Y-79100979D01*
X121764183Y-79018955D01*
X121900584Y-78962456D01*
X122024780Y-78937753D01*
X122045385Y-78933654D01*
X122193025Y-78933654D01*
X122213630Y-78937753D01*
X122213630Y-78937753D01*
G37*
G36*
X111437323Y-78937753D02*
G01*
X111561519Y-78962456D01*
X111697920Y-79018955D01*
X111820677Y-79100979D01*
X111925073Y-79205375D01*
X112007097Y-79328132D01*
X112063596Y-79464533D01*
X112092398Y-79609335D01*
X112092398Y-79756973D01*
X112063596Y-79901775D01*
X112007097Y-80038176D01*
X111925073Y-80160933D01*
X111820677Y-80265329D01*
X111697920Y-80347353D01*
X111561519Y-80403852D01*
X111437323Y-80428555D01*
X111416718Y-80432654D01*
X111269078Y-80432654D01*
X111248473Y-80428555D01*
X111124277Y-80403852D01*
X110987876Y-80347353D01*
X110865119Y-80265329D01*
X110760723Y-80160933D01*
X110678699Y-80038176D01*
X110622200Y-79901775D01*
X110593398Y-79756973D01*
X110593398Y-79609335D01*
X110622200Y-79464533D01*
X110678699Y-79328132D01*
X110760723Y-79205375D01*
X110865119Y-79100979D01*
X110987876Y-79018955D01*
X111124277Y-78962456D01*
X111248473Y-78937753D01*
X111269078Y-78933654D01*
X111416718Y-78933654D01*
X111437323Y-78937753D01*
X111437323Y-78937753D01*
G37*
G36*
X107845220Y-78937753D02*
G01*
X107969416Y-78962456D01*
X108105817Y-79018955D01*
X108228574Y-79100979D01*
X108332970Y-79205375D01*
X108414994Y-79328132D01*
X108471493Y-79464533D01*
X108500295Y-79609335D01*
X108500295Y-79756973D01*
X108471493Y-79901775D01*
X108414994Y-80038176D01*
X108332970Y-80160933D01*
X108228574Y-80265329D01*
X108105817Y-80347353D01*
X107969416Y-80403852D01*
X107845220Y-80428555D01*
X107824615Y-80432654D01*
X107676975Y-80432654D01*
X107656370Y-80428555D01*
X107532174Y-80403852D01*
X107395773Y-80347353D01*
X107273016Y-80265329D01*
X107168620Y-80160933D01*
X107086596Y-80038176D01*
X107030097Y-79901775D01*
X107001295Y-79756973D01*
X107001295Y-79609335D01*
X107030097Y-79464533D01*
X107086596Y-79328132D01*
X107168620Y-79205375D01*
X107273016Y-79100979D01*
X107395773Y-79018955D01*
X107532174Y-78962456D01*
X107656370Y-78937753D01*
X107676975Y-78933654D01*
X107824615Y-78933654D01*
X107845220Y-78937753D01*
X107845220Y-78937753D01*
G37*
G36*
X147486823Y-78536313D02*
G01*
X147647242Y-78584976D01*
X147743827Y-78636602D01*
X147795078Y-78663996D01*
X147924659Y-78770341D01*
X148031004Y-78899922D01*
X148031005Y-78899924D01*
X148110024Y-79047758D01*
X148158687Y-79208177D01*
X148175117Y-79375000D01*
X148158687Y-79541823D01*
X148110024Y-79702242D01*
X148080769Y-79756974D01*
X148031004Y-79850078D01*
X147924659Y-79979659D01*
X147795078Y-80086004D01*
X147795076Y-80086005D01*
X147647242Y-80165024D01*
X147486823Y-80213687D01*
X147361804Y-80226000D01*
X147278196Y-80226000D01*
X147153177Y-80213687D01*
X146992758Y-80165024D01*
X146844924Y-80086005D01*
X146844922Y-80086004D01*
X146715341Y-79979659D01*
X146608996Y-79850078D01*
X146559231Y-79756974D01*
X146529976Y-79702242D01*
X146481313Y-79541823D01*
X146464883Y-79375000D01*
X146481313Y-79208177D01*
X146529976Y-79047758D01*
X146608995Y-78899924D01*
X146608996Y-78899922D01*
X146715341Y-78770341D01*
X146844922Y-78663996D01*
X146896173Y-78636602D01*
X146992758Y-78584976D01*
X147153177Y-78536313D01*
X147278196Y-78524000D01*
X147361804Y-78524000D01*
X147486823Y-78536313D01*
X147486823Y-78536313D01*
G37*
G36*
X132246823Y-78536313D02*
G01*
X132407242Y-78584976D01*
X132503827Y-78636602D01*
X132555078Y-78663996D01*
X132684659Y-78770341D01*
X132791004Y-78899922D01*
X132791005Y-78899924D01*
X132870024Y-79047758D01*
X132918687Y-79208177D01*
X132935117Y-79375000D01*
X132918687Y-79541823D01*
X132870024Y-79702242D01*
X132840769Y-79756974D01*
X132791004Y-79850078D01*
X132684659Y-79979659D01*
X132555078Y-80086004D01*
X132555076Y-80086005D01*
X132407242Y-80165024D01*
X132246823Y-80213687D01*
X132121804Y-80226000D01*
X132038196Y-80226000D01*
X131913177Y-80213687D01*
X131752758Y-80165024D01*
X131604924Y-80086005D01*
X131604922Y-80086004D01*
X131475341Y-79979659D01*
X131368996Y-79850078D01*
X131319231Y-79756974D01*
X131289976Y-79702242D01*
X131241313Y-79541823D01*
X131224883Y-79375000D01*
X131241313Y-79208177D01*
X131289976Y-79047758D01*
X131368995Y-78899924D01*
X131368996Y-78899922D01*
X131475341Y-78770341D01*
X131604922Y-78663996D01*
X131656173Y-78636602D01*
X131752758Y-78584976D01*
X131913177Y-78536313D01*
X132038196Y-78524000D01*
X132121804Y-78524000D01*
X132246823Y-78536313D01*
X132246823Y-78536313D01*
G37*
G36*
X106049169Y-77141701D02*
G01*
X106173365Y-77166404D01*
X106309766Y-77222903D01*
X106432523Y-77304927D01*
X106536919Y-77409323D01*
X106618943Y-77532080D01*
X106675442Y-77668481D01*
X106704244Y-77813283D01*
X106704244Y-77960921D01*
X106675442Y-78105723D01*
X106618943Y-78242124D01*
X106536919Y-78364881D01*
X106432523Y-78469277D01*
X106309766Y-78551301D01*
X106173365Y-78607800D01*
X106049169Y-78632503D01*
X106028564Y-78636602D01*
X105880924Y-78636602D01*
X105860319Y-78632503D01*
X105736123Y-78607800D01*
X105599722Y-78551301D01*
X105476965Y-78469277D01*
X105372569Y-78364881D01*
X105290545Y-78242124D01*
X105234046Y-78105723D01*
X105205244Y-77960921D01*
X105205244Y-77813283D01*
X105234046Y-77668481D01*
X105290545Y-77532080D01*
X105372569Y-77409323D01*
X105476965Y-77304927D01*
X105599722Y-77222903D01*
X105736123Y-77166404D01*
X105860319Y-77141701D01*
X105880924Y-77137602D01*
X106028564Y-77137602D01*
X106049169Y-77141701D01*
X106049169Y-77141701D01*
G37*
G36*
X109641271Y-77141701D02*
G01*
X109765467Y-77166404D01*
X109901868Y-77222903D01*
X110024625Y-77304927D01*
X110129021Y-77409323D01*
X110211045Y-77532080D01*
X110267544Y-77668481D01*
X110296346Y-77813283D01*
X110296346Y-77960921D01*
X110267544Y-78105723D01*
X110211045Y-78242124D01*
X110129021Y-78364881D01*
X110024625Y-78469277D01*
X109901868Y-78551301D01*
X109765467Y-78607800D01*
X109641271Y-78632503D01*
X109620666Y-78636602D01*
X109473026Y-78636602D01*
X109452421Y-78632503D01*
X109328225Y-78607800D01*
X109191824Y-78551301D01*
X109069067Y-78469277D01*
X108964671Y-78364881D01*
X108882647Y-78242124D01*
X108826148Y-78105723D01*
X108797346Y-77960921D01*
X108797346Y-77813283D01*
X108826148Y-77668481D01*
X108882647Y-77532080D01*
X108964671Y-77409323D01*
X109069067Y-77304927D01*
X109191824Y-77222903D01*
X109328225Y-77166404D01*
X109452421Y-77141701D01*
X109473026Y-77137602D01*
X109620666Y-77137602D01*
X109641271Y-77141701D01*
X109641271Y-77141701D01*
G37*
G36*
X120417579Y-77141701D02*
G01*
X120541775Y-77166404D01*
X120678176Y-77222903D01*
X120800933Y-77304927D01*
X120905329Y-77409323D01*
X120987353Y-77532080D01*
X121043852Y-77668481D01*
X121072654Y-77813283D01*
X121072654Y-77960921D01*
X121043852Y-78105723D01*
X120987353Y-78242124D01*
X120905329Y-78364881D01*
X120800933Y-78469277D01*
X120678176Y-78551301D01*
X120541775Y-78607800D01*
X120417579Y-78632503D01*
X120396974Y-78636602D01*
X120249334Y-78636602D01*
X120228729Y-78632503D01*
X120104533Y-78607800D01*
X119968132Y-78551301D01*
X119845375Y-78469277D01*
X119740979Y-78364881D01*
X119658955Y-78242124D01*
X119602456Y-78105723D01*
X119573654Y-77960921D01*
X119573654Y-77813283D01*
X119602456Y-77668481D01*
X119658955Y-77532080D01*
X119740979Y-77409323D01*
X119845375Y-77304927D01*
X119968132Y-77222903D01*
X120104533Y-77166404D01*
X120228729Y-77141701D01*
X120249334Y-77137602D01*
X120396974Y-77137602D01*
X120417579Y-77141701D01*
X120417579Y-77141701D01*
G37*
G36*
X124009681Y-77141701D02*
G01*
X124133877Y-77166404D01*
X124270278Y-77222903D01*
X124393035Y-77304927D01*
X124497431Y-77409323D01*
X124579455Y-77532080D01*
X124635954Y-77668481D01*
X124664756Y-77813283D01*
X124664756Y-77960921D01*
X124635954Y-78105723D01*
X124579455Y-78242124D01*
X124497431Y-78364881D01*
X124393035Y-78469277D01*
X124270278Y-78551301D01*
X124133877Y-78607800D01*
X124009681Y-78632503D01*
X123989076Y-78636602D01*
X123841436Y-78636602D01*
X123820831Y-78632503D01*
X123696635Y-78607800D01*
X123560234Y-78551301D01*
X123437477Y-78469277D01*
X123333081Y-78364881D01*
X123251057Y-78242124D01*
X123194558Y-78105723D01*
X123165756Y-77960921D01*
X123165756Y-77813283D01*
X123194558Y-77668481D01*
X123251057Y-77532080D01*
X123333081Y-77409323D01*
X123437477Y-77304927D01*
X123560234Y-77222903D01*
X123696635Y-77166404D01*
X123820831Y-77141701D01*
X123841436Y-77137602D01*
X123989076Y-77137602D01*
X124009681Y-77141701D01*
X124009681Y-77141701D01*
G37*
G36*
X132246823Y-75996313D02*
G01*
X132407242Y-76044976D01*
X132539906Y-76115886D01*
X132555078Y-76123996D01*
X132684659Y-76230341D01*
X132791004Y-76359922D01*
X132791005Y-76359924D01*
X132870024Y-76507758D01*
X132918687Y-76668177D01*
X132935117Y-76835000D01*
X132918687Y-77001823D01*
X132870024Y-77162242D01*
X132837600Y-77222903D01*
X132791004Y-77310078D01*
X132684659Y-77439659D01*
X132555078Y-77546004D01*
X132555076Y-77546005D01*
X132407242Y-77625024D01*
X132246823Y-77673687D01*
X132121804Y-77686000D01*
X132038196Y-77686000D01*
X131913177Y-77673687D01*
X131752758Y-77625024D01*
X131604924Y-77546005D01*
X131604922Y-77546004D01*
X131475341Y-77439659D01*
X131368996Y-77310078D01*
X131322400Y-77222903D01*
X131289976Y-77162242D01*
X131241313Y-77001823D01*
X131224883Y-76835000D01*
X131241313Y-76668177D01*
X131289976Y-76507758D01*
X131368995Y-76359924D01*
X131368996Y-76359922D01*
X131475341Y-76230341D01*
X131604922Y-76123996D01*
X131620094Y-76115886D01*
X131752758Y-76044976D01*
X131913177Y-75996313D01*
X132038196Y-75984000D01*
X132121804Y-75984000D01*
X132246823Y-75996313D01*
X132246823Y-75996313D01*
G37*
G36*
X147486823Y-75996313D02*
G01*
X147647242Y-76044976D01*
X147779906Y-76115886D01*
X147795078Y-76123996D01*
X147924659Y-76230341D01*
X148031004Y-76359922D01*
X148031005Y-76359924D01*
X148110024Y-76507758D01*
X148158687Y-76668177D01*
X148175117Y-76835000D01*
X148158687Y-77001823D01*
X148110024Y-77162242D01*
X148077600Y-77222903D01*
X148031004Y-77310078D01*
X147924659Y-77439659D01*
X147795078Y-77546004D01*
X147795076Y-77546005D01*
X147647242Y-77625024D01*
X147486823Y-77673687D01*
X147361804Y-77686000D01*
X147278196Y-77686000D01*
X147153177Y-77673687D01*
X146992758Y-77625024D01*
X146844924Y-77546005D01*
X146844922Y-77546004D01*
X146715341Y-77439659D01*
X146608996Y-77310078D01*
X146562400Y-77222903D01*
X146529976Y-77162242D01*
X146481313Y-77001823D01*
X146464883Y-76835000D01*
X146481313Y-76668177D01*
X146529976Y-76507758D01*
X146608995Y-76359924D01*
X146608996Y-76359922D01*
X146715341Y-76230341D01*
X146844922Y-76123996D01*
X146860094Y-76115886D01*
X146992758Y-76044976D01*
X147153177Y-75996313D01*
X147278196Y-75984000D01*
X147361804Y-75984000D01*
X147486823Y-75996313D01*
X147486823Y-75996313D01*
G37*
G36*
X125805732Y-75345650D02*
G01*
X125929928Y-75370353D01*
X126066329Y-75426852D01*
X126189086Y-75508876D01*
X126293482Y-75613272D01*
X126375506Y-75736029D01*
X126432005Y-75872430D01*
X126460807Y-76017232D01*
X126460807Y-76164870D01*
X126432005Y-76309672D01*
X126375506Y-76446073D01*
X126293482Y-76568830D01*
X126189086Y-76673226D01*
X126066329Y-76755250D01*
X125929928Y-76811749D01*
X125805732Y-76836452D01*
X125785127Y-76840551D01*
X125637487Y-76840551D01*
X125616882Y-76836452D01*
X125492686Y-76811749D01*
X125356285Y-76755250D01*
X125233528Y-76673226D01*
X125129132Y-76568830D01*
X125047108Y-76446073D01*
X124990609Y-76309672D01*
X124961807Y-76164870D01*
X124961807Y-76017232D01*
X124990609Y-75872430D01*
X125047108Y-75736029D01*
X125129132Y-75613272D01*
X125233528Y-75508876D01*
X125356285Y-75426852D01*
X125492686Y-75370353D01*
X125616882Y-75345650D01*
X125637487Y-75341551D01*
X125785127Y-75341551D01*
X125805732Y-75345650D01*
X125805732Y-75345650D01*
G37*
G36*
X122213630Y-75345650D02*
G01*
X122337826Y-75370353D01*
X122474227Y-75426852D01*
X122596984Y-75508876D01*
X122701380Y-75613272D01*
X122783404Y-75736029D01*
X122839903Y-75872430D01*
X122868705Y-76017232D01*
X122868705Y-76164870D01*
X122839903Y-76309672D01*
X122783404Y-76446073D01*
X122701380Y-76568830D01*
X122596984Y-76673226D01*
X122474227Y-76755250D01*
X122337826Y-76811749D01*
X122213630Y-76836452D01*
X122193025Y-76840551D01*
X122045385Y-76840551D01*
X122024780Y-76836452D01*
X121900584Y-76811749D01*
X121764183Y-76755250D01*
X121641426Y-76673226D01*
X121537030Y-76568830D01*
X121455006Y-76446073D01*
X121398507Y-76309672D01*
X121369705Y-76164870D01*
X121369705Y-76017232D01*
X121398507Y-75872430D01*
X121455006Y-75736029D01*
X121537030Y-75613272D01*
X121641426Y-75508876D01*
X121764183Y-75426852D01*
X121900584Y-75370353D01*
X122024780Y-75345650D01*
X122045385Y-75341551D01*
X122193025Y-75341551D01*
X122213630Y-75345650D01*
X122213630Y-75345650D01*
G37*
G36*
X104253118Y-75345650D02*
G01*
X104377314Y-75370353D01*
X104513715Y-75426852D01*
X104636472Y-75508876D01*
X104740868Y-75613272D01*
X104822892Y-75736029D01*
X104879391Y-75872430D01*
X104908193Y-76017232D01*
X104908193Y-76164870D01*
X104879391Y-76309672D01*
X104822892Y-76446073D01*
X104740868Y-76568830D01*
X104636472Y-76673226D01*
X104513715Y-76755250D01*
X104377314Y-76811749D01*
X104253118Y-76836452D01*
X104232513Y-76840551D01*
X104084873Y-76840551D01*
X104064268Y-76836452D01*
X103940072Y-76811749D01*
X103803671Y-76755250D01*
X103680914Y-76673226D01*
X103576518Y-76568830D01*
X103494494Y-76446073D01*
X103437995Y-76309672D01*
X103409193Y-76164870D01*
X103409193Y-76017232D01*
X103437995Y-75872430D01*
X103494494Y-75736029D01*
X103576518Y-75613272D01*
X103680914Y-75508876D01*
X103803671Y-75426852D01*
X103940072Y-75370353D01*
X104064268Y-75345650D01*
X104084873Y-75341551D01*
X104232513Y-75341551D01*
X104253118Y-75345650D01*
X104253118Y-75345650D01*
G37*
G36*
X107845220Y-75345650D02*
G01*
X107969416Y-75370353D01*
X108105817Y-75426852D01*
X108228574Y-75508876D01*
X108332970Y-75613272D01*
X108414994Y-75736029D01*
X108471493Y-75872430D01*
X108500295Y-76017232D01*
X108500295Y-76164870D01*
X108471493Y-76309672D01*
X108414994Y-76446073D01*
X108332970Y-76568830D01*
X108228574Y-76673226D01*
X108105817Y-76755250D01*
X107969416Y-76811749D01*
X107845220Y-76836452D01*
X107824615Y-76840551D01*
X107676975Y-76840551D01*
X107656370Y-76836452D01*
X107532174Y-76811749D01*
X107395773Y-76755250D01*
X107273016Y-76673226D01*
X107168620Y-76568830D01*
X107086596Y-76446073D01*
X107030097Y-76309672D01*
X107001295Y-76164870D01*
X107001295Y-76017232D01*
X107030097Y-75872430D01*
X107086596Y-75736029D01*
X107168620Y-75613272D01*
X107273016Y-75508876D01*
X107395773Y-75426852D01*
X107532174Y-75370353D01*
X107656370Y-75345650D01*
X107676975Y-75341551D01*
X107824615Y-75341551D01*
X107845220Y-75345650D01*
X107845220Y-75345650D01*
G37*
G36*
X132246823Y-73456313D02*
G01*
X132407242Y-73504976D01*
X132483057Y-73545500D01*
X132555078Y-73583996D01*
X132684659Y-73690341D01*
X132791004Y-73819922D01*
X132791005Y-73819924D01*
X132870024Y-73967758D01*
X132918687Y-74128177D01*
X132935117Y-74295000D01*
X132918687Y-74461823D01*
X132870024Y-74622242D01*
X132855175Y-74650022D01*
X132791004Y-74770078D01*
X132684659Y-74899659D01*
X132555078Y-75006004D01*
X132555076Y-75006005D01*
X132407242Y-75085024D01*
X132246823Y-75133687D01*
X132121804Y-75146000D01*
X132038196Y-75146000D01*
X131913177Y-75133687D01*
X131752758Y-75085024D01*
X131604924Y-75006005D01*
X131604922Y-75006004D01*
X131475341Y-74899659D01*
X131368996Y-74770078D01*
X131304825Y-74650022D01*
X131289976Y-74622242D01*
X131241313Y-74461823D01*
X131224883Y-74295000D01*
X131241313Y-74128177D01*
X131289976Y-73967758D01*
X131368995Y-73819924D01*
X131368996Y-73819922D01*
X131475341Y-73690341D01*
X131604922Y-73583996D01*
X131676943Y-73545500D01*
X131752758Y-73504976D01*
X131913177Y-73456313D01*
X132038196Y-73444000D01*
X132121804Y-73444000D01*
X132246823Y-73456313D01*
X132246823Y-73456313D01*
G37*
G36*
X147486823Y-73456313D02*
G01*
X147647242Y-73504976D01*
X147723057Y-73545500D01*
X147795078Y-73583996D01*
X147924659Y-73690341D01*
X148031004Y-73819922D01*
X148031005Y-73819924D01*
X148110024Y-73967758D01*
X148158687Y-74128177D01*
X148175117Y-74295000D01*
X148158687Y-74461823D01*
X148110024Y-74622242D01*
X148095175Y-74650022D01*
X148031004Y-74770078D01*
X147924659Y-74899659D01*
X147795078Y-75006004D01*
X147795076Y-75006005D01*
X147647242Y-75085024D01*
X147486823Y-75133687D01*
X147361804Y-75146000D01*
X147278196Y-75146000D01*
X147153177Y-75133687D01*
X146992758Y-75085024D01*
X146844924Y-75006005D01*
X146844922Y-75006004D01*
X146715341Y-74899659D01*
X146608996Y-74770078D01*
X146544825Y-74650022D01*
X146529976Y-74622242D01*
X146481313Y-74461823D01*
X146464883Y-74295000D01*
X146481313Y-74128177D01*
X146529976Y-73967758D01*
X146608995Y-73819924D01*
X146608996Y-73819922D01*
X146715341Y-73690341D01*
X146844922Y-73583996D01*
X146916943Y-73545500D01*
X146992758Y-73504976D01*
X147153177Y-73456313D01*
X147278196Y-73444000D01*
X147361804Y-73444000D01*
X147486823Y-73456313D01*
X147486823Y-73456313D01*
G37*
G36*
X124009681Y-73549599D02*
G01*
X124133877Y-73574302D01*
X124270278Y-73630801D01*
X124393035Y-73712825D01*
X124497431Y-73817221D01*
X124579455Y-73939978D01*
X124635954Y-74076379D01*
X124664756Y-74221181D01*
X124664756Y-74368819D01*
X124635954Y-74513621D01*
X124579455Y-74650022D01*
X124497431Y-74772779D01*
X124393035Y-74877175D01*
X124270278Y-74959199D01*
X124133877Y-75015698D01*
X124009681Y-75040401D01*
X123989076Y-75044500D01*
X123841436Y-75044500D01*
X123820831Y-75040401D01*
X123696635Y-75015698D01*
X123560234Y-74959199D01*
X123437477Y-74877175D01*
X123333081Y-74772779D01*
X123251057Y-74650022D01*
X123194558Y-74513621D01*
X123165756Y-74368819D01*
X123165756Y-74221181D01*
X123194558Y-74076379D01*
X123251057Y-73939978D01*
X123333081Y-73817221D01*
X123437477Y-73712825D01*
X123560234Y-73630801D01*
X123696635Y-73574302D01*
X123820831Y-73549599D01*
X123841436Y-73545500D01*
X123989076Y-73545500D01*
X124009681Y-73549599D01*
X124009681Y-73549599D01*
G37*
G36*
X106049169Y-73549599D02*
G01*
X106173365Y-73574302D01*
X106309766Y-73630801D01*
X106432523Y-73712825D01*
X106536919Y-73817221D01*
X106618943Y-73939978D01*
X106675442Y-74076379D01*
X106704244Y-74221181D01*
X106704244Y-74368819D01*
X106675442Y-74513621D01*
X106618943Y-74650022D01*
X106536919Y-74772779D01*
X106432523Y-74877175D01*
X106309766Y-74959199D01*
X106173365Y-75015698D01*
X106049169Y-75040401D01*
X106028564Y-75044500D01*
X105880924Y-75044500D01*
X105860319Y-75040401D01*
X105736123Y-75015698D01*
X105599722Y-74959199D01*
X105476965Y-74877175D01*
X105372569Y-74772779D01*
X105290545Y-74650022D01*
X105234046Y-74513621D01*
X105205244Y-74368819D01*
X105205244Y-74221181D01*
X105234046Y-74076379D01*
X105290545Y-73939978D01*
X105372569Y-73817221D01*
X105476965Y-73712825D01*
X105599722Y-73630801D01*
X105736123Y-73574302D01*
X105860319Y-73549599D01*
X105880924Y-73545500D01*
X106028564Y-73545500D01*
X106049169Y-73549599D01*
X106049169Y-73549599D01*
G37*
G36*
X122213630Y-71753548D02*
G01*
X122337826Y-71778251D01*
X122474227Y-71834750D01*
X122596984Y-71916774D01*
X122701380Y-72021170D01*
X122783404Y-72143927D01*
X122839903Y-72280328D01*
X122868705Y-72425130D01*
X122868705Y-72572768D01*
X122839903Y-72717570D01*
X122783404Y-72853971D01*
X122701380Y-72976728D01*
X122596984Y-73081124D01*
X122474227Y-73163148D01*
X122337826Y-73219647D01*
X122213630Y-73244350D01*
X122193025Y-73248449D01*
X122045385Y-73248449D01*
X122024780Y-73244350D01*
X121900584Y-73219647D01*
X121764183Y-73163148D01*
X121641426Y-73081124D01*
X121537030Y-72976728D01*
X121455006Y-72853971D01*
X121398507Y-72717570D01*
X121369705Y-72572768D01*
X121369705Y-72425130D01*
X121398507Y-72280328D01*
X121455006Y-72143927D01*
X121537030Y-72021170D01*
X121641426Y-71916774D01*
X121764183Y-71834750D01*
X121900584Y-71778251D01*
X122024780Y-71753548D01*
X122045385Y-71749449D01*
X122193025Y-71749449D01*
X122213630Y-71753548D01*
X122213630Y-71753548D01*
G37*
G36*
X125805732Y-71753548D02*
G01*
X125929928Y-71778251D01*
X126066329Y-71834750D01*
X126189086Y-71916774D01*
X126293482Y-72021170D01*
X126375506Y-72143927D01*
X126432005Y-72280328D01*
X126460807Y-72425130D01*
X126460807Y-72572768D01*
X126432005Y-72717570D01*
X126375506Y-72853971D01*
X126293482Y-72976728D01*
X126189086Y-73081124D01*
X126066329Y-73163148D01*
X125929928Y-73219647D01*
X125805732Y-73244350D01*
X125785127Y-73248449D01*
X125637487Y-73248449D01*
X125616882Y-73244350D01*
X125492686Y-73219647D01*
X125356285Y-73163148D01*
X125233528Y-73081124D01*
X125129132Y-72976728D01*
X125047108Y-72853971D01*
X124990609Y-72717570D01*
X124961807Y-72572768D01*
X124961807Y-72425130D01*
X124990609Y-72280328D01*
X125047108Y-72143927D01*
X125129132Y-72021170D01*
X125233528Y-71916774D01*
X125356285Y-71834750D01*
X125492686Y-71778251D01*
X125616882Y-71753548D01*
X125637487Y-71749449D01*
X125785127Y-71749449D01*
X125805732Y-71753548D01*
X125805732Y-71753548D01*
G37*
G36*
X107845220Y-71753548D02*
G01*
X107969416Y-71778251D01*
X108105817Y-71834750D01*
X108228574Y-71916774D01*
X108332970Y-72021170D01*
X108414994Y-72143927D01*
X108471493Y-72280328D01*
X108500295Y-72425130D01*
X108500295Y-72572768D01*
X108471493Y-72717570D01*
X108414994Y-72853971D01*
X108332970Y-72976728D01*
X108228574Y-73081124D01*
X108105817Y-73163148D01*
X107969416Y-73219647D01*
X107845220Y-73244350D01*
X107824615Y-73248449D01*
X107676975Y-73248449D01*
X107656370Y-73244350D01*
X107532174Y-73219647D01*
X107395773Y-73163148D01*
X107273016Y-73081124D01*
X107168620Y-72976728D01*
X107086596Y-72853971D01*
X107030097Y-72717570D01*
X107001295Y-72572768D01*
X107001295Y-72425130D01*
X107030097Y-72280328D01*
X107086596Y-72143927D01*
X107168620Y-72021170D01*
X107273016Y-71916774D01*
X107395773Y-71834750D01*
X107532174Y-71778251D01*
X107656370Y-71753548D01*
X107676975Y-71749449D01*
X107824615Y-71749449D01*
X107845220Y-71753548D01*
X107845220Y-71753548D01*
G37*
G36*
X104253118Y-71753548D02*
G01*
X104377314Y-71778251D01*
X104513715Y-71834750D01*
X104636472Y-71916774D01*
X104740868Y-72021170D01*
X104822892Y-72143927D01*
X104879391Y-72280328D01*
X104908193Y-72425130D01*
X104908193Y-72572768D01*
X104879391Y-72717570D01*
X104822892Y-72853971D01*
X104740868Y-72976728D01*
X104636472Y-73081124D01*
X104513715Y-73163148D01*
X104377314Y-73219647D01*
X104253118Y-73244350D01*
X104232513Y-73248449D01*
X104084873Y-73248449D01*
X104064268Y-73244350D01*
X103940072Y-73219647D01*
X103803671Y-73163148D01*
X103680914Y-73081124D01*
X103576518Y-72976728D01*
X103494494Y-72853971D01*
X103437995Y-72717570D01*
X103409193Y-72572768D01*
X103409193Y-72425130D01*
X103437995Y-72280328D01*
X103494494Y-72143927D01*
X103576518Y-72021170D01*
X103680914Y-71916774D01*
X103803671Y-71834750D01*
X103940072Y-71778251D01*
X104064268Y-71753548D01*
X104084873Y-71749449D01*
X104232513Y-71749449D01*
X104253118Y-71753548D01*
X104253118Y-71753548D01*
G37*
G36*
X132246823Y-70916313D02*
G01*
X132407242Y-70964976D01*
X132539906Y-71035886D01*
X132555078Y-71043996D01*
X132684659Y-71150341D01*
X132791004Y-71279922D01*
X132791005Y-71279924D01*
X132870024Y-71427758D01*
X132918687Y-71588177D01*
X132935117Y-71755000D01*
X132918687Y-71921823D01*
X132870024Y-72082242D01*
X132837051Y-72143930D01*
X132791004Y-72230078D01*
X132684659Y-72359659D01*
X132555078Y-72466004D01*
X132555076Y-72466005D01*
X132407242Y-72545024D01*
X132246823Y-72593687D01*
X132121804Y-72606000D01*
X132038196Y-72606000D01*
X131913177Y-72593687D01*
X131752758Y-72545024D01*
X131604924Y-72466005D01*
X131604922Y-72466004D01*
X131475341Y-72359659D01*
X131368996Y-72230078D01*
X131322949Y-72143930D01*
X131289976Y-72082242D01*
X131241313Y-71921823D01*
X131224883Y-71755000D01*
X131241313Y-71588177D01*
X131289976Y-71427758D01*
X131368995Y-71279924D01*
X131368996Y-71279922D01*
X131475341Y-71150341D01*
X131604922Y-71043996D01*
X131620094Y-71035886D01*
X131752758Y-70964976D01*
X131913177Y-70916313D01*
X132038196Y-70904000D01*
X132121804Y-70904000D01*
X132246823Y-70916313D01*
X132246823Y-70916313D01*
G37*
G36*
X147486823Y-70916313D02*
G01*
X147647242Y-70964976D01*
X147779906Y-71035886D01*
X147795078Y-71043996D01*
X147924659Y-71150341D01*
X148031004Y-71279922D01*
X148031005Y-71279924D01*
X148110024Y-71427758D01*
X148158687Y-71588177D01*
X148175117Y-71755000D01*
X148158687Y-71921823D01*
X148110024Y-72082242D01*
X148077051Y-72143930D01*
X148031004Y-72230078D01*
X147924659Y-72359659D01*
X147795078Y-72466004D01*
X147795076Y-72466005D01*
X147647242Y-72545024D01*
X147486823Y-72593687D01*
X147361804Y-72606000D01*
X147278196Y-72606000D01*
X147153177Y-72593687D01*
X146992758Y-72545024D01*
X146844924Y-72466005D01*
X146844922Y-72466004D01*
X146715341Y-72359659D01*
X146608996Y-72230078D01*
X146562949Y-72143930D01*
X146529976Y-72082242D01*
X146481313Y-71921823D01*
X146464883Y-71755000D01*
X146481313Y-71588177D01*
X146529976Y-71427758D01*
X146608995Y-71279924D01*
X146608996Y-71279922D01*
X146715341Y-71150341D01*
X146844922Y-71043996D01*
X146860094Y-71035886D01*
X146992758Y-70964976D01*
X147153177Y-70916313D01*
X147278196Y-70904000D01*
X147361804Y-70904000D01*
X147486823Y-70916313D01*
X147486823Y-70916313D01*
G37*
G36*
X106049169Y-69957497D02*
G01*
X106173365Y-69982200D01*
X106309766Y-70038699D01*
X106432523Y-70120723D01*
X106536919Y-70225119D01*
X106618943Y-70347876D01*
X106675442Y-70484277D01*
X106704244Y-70629079D01*
X106704244Y-70776717D01*
X106675442Y-70921519D01*
X106618943Y-71057920D01*
X106536919Y-71180677D01*
X106432523Y-71285073D01*
X106309766Y-71367097D01*
X106173365Y-71423596D01*
X106049169Y-71448299D01*
X106028564Y-71452398D01*
X105880924Y-71452398D01*
X105860319Y-71448299D01*
X105736123Y-71423596D01*
X105599722Y-71367097D01*
X105476965Y-71285073D01*
X105372569Y-71180677D01*
X105290545Y-71057920D01*
X105234046Y-70921519D01*
X105205244Y-70776717D01*
X105205244Y-70629079D01*
X105234046Y-70484277D01*
X105290545Y-70347876D01*
X105372569Y-70225119D01*
X105476965Y-70120723D01*
X105599722Y-70038699D01*
X105736123Y-69982200D01*
X105860319Y-69957497D01*
X105880924Y-69953398D01*
X106028564Y-69953398D01*
X106049169Y-69957497D01*
X106049169Y-69957497D01*
G37*
G36*
X120417579Y-69957497D02*
G01*
X120541775Y-69982200D01*
X120678176Y-70038699D01*
X120800933Y-70120723D01*
X120905329Y-70225119D01*
X120987353Y-70347876D01*
X121043852Y-70484277D01*
X121072654Y-70629079D01*
X121072654Y-70776717D01*
X121043852Y-70921519D01*
X120987353Y-71057920D01*
X120905329Y-71180677D01*
X120800933Y-71285073D01*
X120678176Y-71367097D01*
X120541775Y-71423596D01*
X120417579Y-71448299D01*
X120396974Y-71452398D01*
X120249334Y-71452398D01*
X120228729Y-71448299D01*
X120104533Y-71423596D01*
X119968132Y-71367097D01*
X119845375Y-71285073D01*
X119740979Y-71180677D01*
X119658955Y-71057920D01*
X119602456Y-70921519D01*
X119573654Y-70776717D01*
X119573654Y-70629079D01*
X119602456Y-70484277D01*
X119658955Y-70347876D01*
X119740979Y-70225119D01*
X119845375Y-70120723D01*
X119968132Y-70038699D01*
X120104533Y-69982200D01*
X120228729Y-69957497D01*
X120249334Y-69953398D01*
X120396974Y-69953398D01*
X120417579Y-69957497D01*
X120417579Y-69957497D01*
G37*
G36*
X124009681Y-69957497D02*
G01*
X124133877Y-69982200D01*
X124270278Y-70038699D01*
X124393035Y-70120723D01*
X124497431Y-70225119D01*
X124579455Y-70347876D01*
X124635954Y-70484277D01*
X124664756Y-70629079D01*
X124664756Y-70776717D01*
X124635954Y-70921519D01*
X124579455Y-71057920D01*
X124497431Y-71180677D01*
X124393035Y-71285073D01*
X124270278Y-71367097D01*
X124133877Y-71423596D01*
X124009681Y-71448299D01*
X123989076Y-71452398D01*
X123841436Y-71452398D01*
X123820831Y-71448299D01*
X123696635Y-71423596D01*
X123560234Y-71367097D01*
X123437477Y-71285073D01*
X123333081Y-71180677D01*
X123251057Y-71057920D01*
X123194558Y-70921519D01*
X123165756Y-70776717D01*
X123165756Y-70629079D01*
X123194558Y-70484277D01*
X123251057Y-70347876D01*
X123333081Y-70225119D01*
X123437477Y-70120723D01*
X123560234Y-70038699D01*
X123696635Y-69982200D01*
X123820831Y-69957497D01*
X123841436Y-69953398D01*
X123989076Y-69953398D01*
X124009681Y-69957497D01*
X124009681Y-69957497D01*
G37*
G36*
X109641271Y-69957497D02*
G01*
X109765467Y-69982200D01*
X109901868Y-70038699D01*
X110024625Y-70120723D01*
X110129021Y-70225119D01*
X110211045Y-70347876D01*
X110267544Y-70484277D01*
X110296346Y-70629079D01*
X110296346Y-70776717D01*
X110267544Y-70921519D01*
X110211045Y-71057920D01*
X110129021Y-71180677D01*
X110024625Y-71285073D01*
X109901868Y-71367097D01*
X109765467Y-71423596D01*
X109641271Y-71448299D01*
X109620666Y-71452398D01*
X109473026Y-71452398D01*
X109452421Y-71448299D01*
X109328225Y-71423596D01*
X109191824Y-71367097D01*
X109069067Y-71285073D01*
X108964671Y-71180677D01*
X108882647Y-71057920D01*
X108826148Y-70921519D01*
X108797346Y-70776717D01*
X108797346Y-70629079D01*
X108826148Y-70484277D01*
X108882647Y-70347876D01*
X108964671Y-70225119D01*
X109069067Y-70120723D01*
X109191824Y-70038699D01*
X109328225Y-69982200D01*
X109452421Y-69957497D01*
X109473026Y-69953398D01*
X109620666Y-69953398D01*
X109641271Y-69957497D01*
X109641271Y-69957497D01*
G37*
G36*
X147486823Y-68376313D02*
G01*
X147647242Y-68424976D01*
X147779906Y-68495886D01*
X147795078Y-68503996D01*
X147924659Y-68610341D01*
X148031004Y-68739922D01*
X148031005Y-68739924D01*
X148110024Y-68887758D01*
X148158687Y-69048177D01*
X148175117Y-69215000D01*
X148158687Y-69381823D01*
X148110024Y-69542242D01*
X148064429Y-69627544D01*
X148031004Y-69690078D01*
X147924659Y-69819659D01*
X147795078Y-69926004D01*
X147795076Y-69926005D01*
X147647242Y-70005024D01*
X147486823Y-70053687D01*
X147361804Y-70066000D01*
X147278196Y-70066000D01*
X147153177Y-70053687D01*
X146992758Y-70005024D01*
X146844924Y-69926005D01*
X146844922Y-69926004D01*
X146715341Y-69819659D01*
X146608996Y-69690078D01*
X146575571Y-69627544D01*
X146529976Y-69542242D01*
X146481313Y-69381823D01*
X146464883Y-69215000D01*
X146481313Y-69048177D01*
X146529976Y-68887758D01*
X146608995Y-68739924D01*
X146608996Y-68739922D01*
X146715341Y-68610341D01*
X146844922Y-68503996D01*
X146860094Y-68495886D01*
X146992758Y-68424976D01*
X147153177Y-68376313D01*
X147278196Y-68364000D01*
X147361804Y-68364000D01*
X147486823Y-68376313D01*
X147486823Y-68376313D01*
G37*
G36*
X132246823Y-68376313D02*
G01*
X132407242Y-68424976D01*
X132539906Y-68495886D01*
X132555078Y-68503996D01*
X132684659Y-68610341D01*
X132791004Y-68739922D01*
X132791005Y-68739924D01*
X132870024Y-68887758D01*
X132918687Y-69048177D01*
X132935117Y-69215000D01*
X132918687Y-69381823D01*
X132870024Y-69542242D01*
X132824429Y-69627544D01*
X132791004Y-69690078D01*
X132684659Y-69819659D01*
X132555078Y-69926004D01*
X132555076Y-69926005D01*
X132407242Y-70005024D01*
X132246823Y-70053687D01*
X132121804Y-70066000D01*
X132038196Y-70066000D01*
X131913177Y-70053687D01*
X131752758Y-70005024D01*
X131604924Y-69926005D01*
X131604922Y-69926004D01*
X131475341Y-69819659D01*
X131368996Y-69690078D01*
X131335571Y-69627544D01*
X131289976Y-69542242D01*
X131241313Y-69381823D01*
X131224883Y-69215000D01*
X131241313Y-69048177D01*
X131289976Y-68887758D01*
X131368995Y-68739924D01*
X131368996Y-68739922D01*
X131475341Y-68610341D01*
X131604922Y-68503996D01*
X131620094Y-68495886D01*
X131752758Y-68424976D01*
X131913177Y-68376313D01*
X132038196Y-68364000D01*
X132121804Y-68364000D01*
X132246823Y-68376313D01*
X132246823Y-68376313D01*
G37*
G36*
X122213630Y-68161445D02*
G01*
X122337826Y-68186148D01*
X122474227Y-68242647D01*
X122596984Y-68324671D01*
X122701380Y-68429067D01*
X122783404Y-68551824D01*
X122839903Y-68688225D01*
X122868705Y-68833027D01*
X122868705Y-68980665D01*
X122839903Y-69125467D01*
X122783404Y-69261868D01*
X122701380Y-69384625D01*
X122596984Y-69489021D01*
X122474227Y-69571045D01*
X122337826Y-69627544D01*
X122213630Y-69652247D01*
X122193025Y-69656346D01*
X122045385Y-69656346D01*
X122024780Y-69652247D01*
X121900584Y-69627544D01*
X121764183Y-69571045D01*
X121641426Y-69489021D01*
X121537030Y-69384625D01*
X121455006Y-69261868D01*
X121398507Y-69125467D01*
X121369705Y-68980665D01*
X121369705Y-68833027D01*
X121398507Y-68688225D01*
X121455006Y-68551824D01*
X121537030Y-68429067D01*
X121641426Y-68324671D01*
X121764183Y-68242647D01*
X121900584Y-68186148D01*
X122024780Y-68161445D01*
X122045385Y-68157346D01*
X122193025Y-68157346D01*
X122213630Y-68161445D01*
X122213630Y-68161445D01*
G37*
G36*
X111437323Y-68161445D02*
G01*
X111561519Y-68186148D01*
X111697920Y-68242647D01*
X111820677Y-68324671D01*
X111925073Y-68429067D01*
X112007097Y-68551824D01*
X112063596Y-68688225D01*
X112092398Y-68833027D01*
X112092398Y-68980665D01*
X112063596Y-69125467D01*
X112007097Y-69261868D01*
X111925073Y-69384625D01*
X111820677Y-69489021D01*
X111697920Y-69571045D01*
X111561519Y-69627544D01*
X111437323Y-69652247D01*
X111416718Y-69656346D01*
X111269078Y-69656346D01*
X111248473Y-69652247D01*
X111124277Y-69627544D01*
X110987876Y-69571045D01*
X110865119Y-69489021D01*
X110760723Y-69384625D01*
X110678699Y-69261868D01*
X110622200Y-69125467D01*
X110593398Y-68980665D01*
X110593398Y-68833027D01*
X110622200Y-68688225D01*
X110678699Y-68551824D01*
X110760723Y-68429067D01*
X110865119Y-68324671D01*
X110987876Y-68242647D01*
X111124277Y-68186148D01*
X111248473Y-68161445D01*
X111269078Y-68157346D01*
X111416718Y-68157346D01*
X111437323Y-68161445D01*
X111437323Y-68161445D01*
G37*
G36*
X107845220Y-68161445D02*
G01*
X107969416Y-68186148D01*
X108105817Y-68242647D01*
X108228574Y-68324671D01*
X108332970Y-68429067D01*
X108414994Y-68551824D01*
X108471493Y-68688225D01*
X108500295Y-68833027D01*
X108500295Y-68980665D01*
X108471493Y-69125467D01*
X108414994Y-69261868D01*
X108332970Y-69384625D01*
X108228574Y-69489021D01*
X108105817Y-69571045D01*
X107969416Y-69627544D01*
X107845220Y-69652247D01*
X107824615Y-69656346D01*
X107676975Y-69656346D01*
X107656370Y-69652247D01*
X107532174Y-69627544D01*
X107395773Y-69571045D01*
X107273016Y-69489021D01*
X107168620Y-69384625D01*
X107086596Y-69261868D01*
X107030097Y-69125467D01*
X107001295Y-68980665D01*
X107001295Y-68833027D01*
X107030097Y-68688225D01*
X107086596Y-68551824D01*
X107168620Y-68429067D01*
X107273016Y-68324671D01*
X107395773Y-68242647D01*
X107532174Y-68186148D01*
X107656370Y-68161445D01*
X107676975Y-68157346D01*
X107824615Y-68157346D01*
X107845220Y-68161445D01*
X107845220Y-68161445D01*
G37*
G36*
X118621527Y-68161445D02*
G01*
X118745723Y-68186148D01*
X118882124Y-68242647D01*
X119004881Y-68324671D01*
X119109277Y-68429067D01*
X119191301Y-68551824D01*
X119247800Y-68688225D01*
X119276602Y-68833027D01*
X119276602Y-68980665D01*
X119247800Y-69125467D01*
X119191301Y-69261868D01*
X119109277Y-69384625D01*
X119004881Y-69489021D01*
X118882124Y-69571045D01*
X118745723Y-69627544D01*
X118621527Y-69652247D01*
X118600922Y-69656346D01*
X118453282Y-69656346D01*
X118432677Y-69652247D01*
X118308481Y-69627544D01*
X118172080Y-69571045D01*
X118049323Y-69489021D01*
X117944927Y-69384625D01*
X117862903Y-69261868D01*
X117806404Y-69125467D01*
X117777602Y-68980665D01*
X117777602Y-68833027D01*
X117806404Y-68688225D01*
X117862903Y-68551824D01*
X117944927Y-68429067D01*
X118049323Y-68324671D01*
X118172080Y-68242647D01*
X118308481Y-68186148D01*
X118432677Y-68161445D01*
X118453282Y-68157346D01*
X118600922Y-68157346D01*
X118621527Y-68161445D01*
X118621527Y-68161445D01*
G37*
G36*
X116825476Y-66365394D02*
G01*
X116949672Y-66390097D01*
X117086073Y-66446596D01*
X117208830Y-66528620D01*
X117313226Y-66633016D01*
X117395250Y-66755773D01*
X117451749Y-66892174D01*
X117480551Y-67036976D01*
X117480551Y-67184614D01*
X117451749Y-67329416D01*
X117395250Y-67465817D01*
X117313226Y-67588574D01*
X117208830Y-67692970D01*
X117086073Y-67774994D01*
X116949672Y-67831493D01*
X116825476Y-67856196D01*
X116804871Y-67860295D01*
X116657231Y-67860295D01*
X116636626Y-67856196D01*
X116512430Y-67831493D01*
X116376029Y-67774994D01*
X116253272Y-67692970D01*
X116148876Y-67588574D01*
X116066852Y-67465817D01*
X116010353Y-67329416D01*
X115981551Y-67184614D01*
X115981551Y-67036976D01*
X116010353Y-66892174D01*
X116066852Y-66755773D01*
X116148876Y-66633016D01*
X116253272Y-66528620D01*
X116376029Y-66446596D01*
X116512430Y-66390097D01*
X116636626Y-66365394D01*
X116657231Y-66361295D01*
X116804871Y-66361295D01*
X116825476Y-66365394D01*
X116825476Y-66365394D01*
G37*
G36*
X120417579Y-66365394D02*
G01*
X120541775Y-66390097D01*
X120678176Y-66446596D01*
X120800933Y-66528620D01*
X120905329Y-66633016D01*
X120987353Y-66755773D01*
X121043852Y-66892174D01*
X121072654Y-67036976D01*
X121072654Y-67184614D01*
X121043852Y-67329416D01*
X120987353Y-67465817D01*
X120905329Y-67588574D01*
X120800933Y-67692970D01*
X120678176Y-67774994D01*
X120541775Y-67831493D01*
X120417579Y-67856196D01*
X120396974Y-67860295D01*
X120249334Y-67860295D01*
X120228729Y-67856196D01*
X120104533Y-67831493D01*
X119968132Y-67774994D01*
X119845375Y-67692970D01*
X119740979Y-67588574D01*
X119658955Y-67465817D01*
X119602456Y-67329416D01*
X119573654Y-67184614D01*
X119573654Y-67036976D01*
X119602456Y-66892174D01*
X119658955Y-66755773D01*
X119740979Y-66633016D01*
X119845375Y-66528620D01*
X119968132Y-66446596D01*
X120104533Y-66390097D01*
X120228729Y-66365394D01*
X120249334Y-66361295D01*
X120396974Y-66361295D01*
X120417579Y-66365394D01*
X120417579Y-66365394D01*
G37*
G36*
X113233374Y-66365394D02*
G01*
X113357570Y-66390097D01*
X113493971Y-66446596D01*
X113616728Y-66528620D01*
X113721124Y-66633016D01*
X113803148Y-66755773D01*
X113859647Y-66892174D01*
X113888449Y-67036976D01*
X113888449Y-67184614D01*
X113859647Y-67329416D01*
X113803148Y-67465817D01*
X113721124Y-67588574D01*
X113616728Y-67692970D01*
X113493971Y-67774994D01*
X113357570Y-67831493D01*
X113233374Y-67856196D01*
X113212769Y-67860295D01*
X113065129Y-67860295D01*
X113044524Y-67856196D01*
X112920328Y-67831493D01*
X112783927Y-67774994D01*
X112661170Y-67692970D01*
X112556774Y-67588574D01*
X112474750Y-67465817D01*
X112418251Y-67329416D01*
X112389449Y-67184614D01*
X112389449Y-67036976D01*
X112418251Y-66892174D01*
X112474750Y-66755773D01*
X112556774Y-66633016D01*
X112661170Y-66528620D01*
X112783927Y-66446596D01*
X112920328Y-66390097D01*
X113044524Y-66365394D01*
X113065129Y-66361295D01*
X113212769Y-66361295D01*
X113233374Y-66365394D01*
X113233374Y-66365394D01*
G37*
G36*
X109641271Y-66365394D02*
G01*
X109765467Y-66390097D01*
X109901868Y-66446596D01*
X110024625Y-66528620D01*
X110129021Y-66633016D01*
X110211045Y-66755773D01*
X110267544Y-66892174D01*
X110296346Y-67036976D01*
X110296346Y-67184614D01*
X110267544Y-67329416D01*
X110211045Y-67465817D01*
X110129021Y-67588574D01*
X110024625Y-67692970D01*
X109901868Y-67774994D01*
X109765467Y-67831493D01*
X109641271Y-67856196D01*
X109620666Y-67860295D01*
X109473026Y-67860295D01*
X109452421Y-67856196D01*
X109328225Y-67831493D01*
X109191824Y-67774994D01*
X109069067Y-67692970D01*
X108964671Y-67588574D01*
X108882647Y-67465817D01*
X108826148Y-67329416D01*
X108797346Y-67184614D01*
X108797346Y-67036976D01*
X108826148Y-66892174D01*
X108882647Y-66755773D01*
X108964671Y-66633016D01*
X109069067Y-66528620D01*
X109191824Y-66446596D01*
X109328225Y-66390097D01*
X109452421Y-66365394D01*
X109473026Y-66361295D01*
X109620666Y-66361295D01*
X109641271Y-66365394D01*
X109641271Y-66365394D01*
G37*
G36*
X132246823Y-65836313D02*
G01*
X132407242Y-65884976D01*
X132539906Y-65955886D01*
X132555078Y-65963996D01*
X132684659Y-66070341D01*
X132791004Y-66199922D01*
X132791005Y-66199924D01*
X132870024Y-66347758D01*
X132918687Y-66508177D01*
X132935117Y-66675000D01*
X132918687Y-66841823D01*
X132870024Y-67002242D01*
X132851458Y-67036976D01*
X132791004Y-67150078D01*
X132684659Y-67279659D01*
X132555078Y-67386004D01*
X132555076Y-67386005D01*
X132407242Y-67465024D01*
X132246823Y-67513687D01*
X132121804Y-67526000D01*
X132038196Y-67526000D01*
X131913177Y-67513687D01*
X131752758Y-67465024D01*
X131604924Y-67386005D01*
X131604922Y-67386004D01*
X131475341Y-67279659D01*
X131368996Y-67150078D01*
X131308542Y-67036976D01*
X131289976Y-67002242D01*
X131241313Y-66841823D01*
X131224883Y-66675000D01*
X131241313Y-66508177D01*
X131289976Y-66347758D01*
X131368995Y-66199924D01*
X131368996Y-66199922D01*
X131475341Y-66070341D01*
X131604922Y-65963996D01*
X131620094Y-65955886D01*
X131752758Y-65884976D01*
X131913177Y-65836313D01*
X132038196Y-65824000D01*
X132121804Y-65824000D01*
X132246823Y-65836313D01*
X132246823Y-65836313D01*
G37*
G36*
X147486823Y-65836313D02*
G01*
X147647242Y-65884976D01*
X147779906Y-65955886D01*
X147795078Y-65963996D01*
X147924659Y-66070341D01*
X148031004Y-66199922D01*
X148031005Y-66199924D01*
X148110024Y-66347758D01*
X148158687Y-66508177D01*
X148175117Y-66675000D01*
X148158687Y-66841823D01*
X148110024Y-67002242D01*
X148091458Y-67036976D01*
X148031004Y-67150078D01*
X147924659Y-67279659D01*
X147795078Y-67386004D01*
X147795076Y-67386005D01*
X147647242Y-67465024D01*
X147486823Y-67513687D01*
X147361804Y-67526000D01*
X147278196Y-67526000D01*
X147153177Y-67513687D01*
X146992758Y-67465024D01*
X146844924Y-67386005D01*
X146844922Y-67386004D01*
X146715341Y-67279659D01*
X146608996Y-67150078D01*
X146548542Y-67036976D01*
X146529976Y-67002242D01*
X146481313Y-66841823D01*
X146464883Y-66675000D01*
X146481313Y-66508177D01*
X146529976Y-66347758D01*
X146608995Y-66199924D01*
X146608996Y-66199922D01*
X146715341Y-66070341D01*
X146844922Y-65963996D01*
X146860094Y-65955886D01*
X146992758Y-65884976D01*
X147153177Y-65836313D01*
X147278196Y-65824000D01*
X147361804Y-65824000D01*
X147486823Y-65836313D01*
X147486823Y-65836313D01*
G37*
G36*
X118621527Y-64569343D02*
G01*
X118745723Y-64594046D01*
X118882124Y-64650545D01*
X119004881Y-64732569D01*
X119109277Y-64836965D01*
X119191301Y-64959722D01*
X119247800Y-65096123D01*
X119276602Y-65240925D01*
X119276602Y-65388563D01*
X119247800Y-65533365D01*
X119191301Y-65669766D01*
X119109277Y-65792523D01*
X119004881Y-65896919D01*
X118882124Y-65978943D01*
X118745723Y-66035442D01*
X118621527Y-66060145D01*
X118600922Y-66064244D01*
X118453282Y-66064244D01*
X118432677Y-66060145D01*
X118308481Y-66035442D01*
X118172080Y-65978943D01*
X118049323Y-65896919D01*
X117944927Y-65792523D01*
X117862903Y-65669766D01*
X117806404Y-65533365D01*
X117777602Y-65388563D01*
X117777602Y-65240925D01*
X117806404Y-65096123D01*
X117862903Y-64959722D01*
X117944927Y-64836965D01*
X118049323Y-64732569D01*
X118172080Y-64650545D01*
X118308481Y-64594046D01*
X118432677Y-64569343D01*
X118453282Y-64565244D01*
X118600922Y-64565244D01*
X118621527Y-64569343D01*
X118621527Y-64569343D01*
G37*
G36*
X115029425Y-64569343D02*
G01*
X115153621Y-64594046D01*
X115290022Y-64650545D01*
X115412779Y-64732569D01*
X115517175Y-64836965D01*
X115599199Y-64959722D01*
X115655698Y-65096123D01*
X115684500Y-65240925D01*
X115684500Y-65388563D01*
X115655698Y-65533365D01*
X115599199Y-65669766D01*
X115517175Y-65792523D01*
X115412779Y-65896919D01*
X115290022Y-65978943D01*
X115153621Y-66035442D01*
X115029425Y-66060145D01*
X115008820Y-66064244D01*
X114861180Y-66064244D01*
X114840575Y-66060145D01*
X114716379Y-66035442D01*
X114579978Y-65978943D01*
X114457221Y-65896919D01*
X114352825Y-65792523D01*
X114270801Y-65669766D01*
X114214302Y-65533365D01*
X114185500Y-65388563D01*
X114185500Y-65240925D01*
X114214302Y-65096123D01*
X114270801Y-64959722D01*
X114352825Y-64836965D01*
X114457221Y-64732569D01*
X114579978Y-64650545D01*
X114716379Y-64594046D01*
X114840575Y-64569343D01*
X114861180Y-64565244D01*
X115008820Y-64565244D01*
X115029425Y-64569343D01*
X115029425Y-64569343D01*
G37*
G36*
X111437323Y-64569343D02*
G01*
X111561519Y-64594046D01*
X111697920Y-64650545D01*
X111820677Y-64732569D01*
X111925073Y-64836965D01*
X112007097Y-64959722D01*
X112063596Y-65096123D01*
X112092398Y-65240925D01*
X112092398Y-65388563D01*
X112063596Y-65533365D01*
X112007097Y-65669766D01*
X111925073Y-65792523D01*
X111820677Y-65896919D01*
X111697920Y-65978943D01*
X111561519Y-66035442D01*
X111437323Y-66060145D01*
X111416718Y-66064244D01*
X111269078Y-66064244D01*
X111248473Y-66060145D01*
X111124277Y-66035442D01*
X110987876Y-65978943D01*
X110865119Y-65896919D01*
X110760723Y-65792523D01*
X110678699Y-65669766D01*
X110622200Y-65533365D01*
X110593398Y-65388563D01*
X110593398Y-65240925D01*
X110622200Y-65096123D01*
X110678699Y-64959722D01*
X110760723Y-64836965D01*
X110865119Y-64732569D01*
X110987876Y-64650545D01*
X111124277Y-64594046D01*
X111248473Y-64569343D01*
X111269078Y-64565244D01*
X111416718Y-64565244D01*
X111437323Y-64569343D01*
X111437323Y-64569343D01*
G37*
G36*
X132246823Y-63296313D02*
G01*
X132407242Y-63344976D01*
X132539906Y-63415886D01*
X132555078Y-63423996D01*
X132684659Y-63530341D01*
X132791004Y-63659922D01*
X132791005Y-63659924D01*
X132870024Y-63807758D01*
X132918687Y-63968177D01*
X132935117Y-64135000D01*
X132918687Y-64301823D01*
X132870024Y-64462242D01*
X132814968Y-64565244D01*
X132791004Y-64610078D01*
X132684659Y-64739659D01*
X132555078Y-64846004D01*
X132555076Y-64846005D01*
X132407242Y-64925024D01*
X132246823Y-64973687D01*
X132121804Y-64986000D01*
X132038196Y-64986000D01*
X131913177Y-64973687D01*
X131752758Y-64925024D01*
X131604924Y-64846005D01*
X131604922Y-64846004D01*
X131475341Y-64739659D01*
X131368996Y-64610078D01*
X131345032Y-64565244D01*
X131289976Y-64462242D01*
X131241313Y-64301823D01*
X131224883Y-64135000D01*
X131241313Y-63968177D01*
X131289976Y-63807758D01*
X131368995Y-63659924D01*
X131368996Y-63659922D01*
X131475341Y-63530341D01*
X131604922Y-63423996D01*
X131620094Y-63415886D01*
X131752758Y-63344976D01*
X131913177Y-63296313D01*
X132038196Y-63284000D01*
X132121804Y-63284000D01*
X132246823Y-63296313D01*
X132246823Y-63296313D01*
G37*
G36*
X147486823Y-63296313D02*
G01*
X147647242Y-63344976D01*
X147779906Y-63415886D01*
X147795078Y-63423996D01*
X147924659Y-63530341D01*
X148031004Y-63659922D01*
X148031005Y-63659924D01*
X148110024Y-63807758D01*
X148158687Y-63968177D01*
X148175117Y-64135000D01*
X148158687Y-64301823D01*
X148110024Y-64462242D01*
X148054968Y-64565244D01*
X148031004Y-64610078D01*
X147924659Y-64739659D01*
X147795078Y-64846004D01*
X147795076Y-64846005D01*
X147647242Y-64925024D01*
X147486823Y-64973687D01*
X147361804Y-64986000D01*
X147278196Y-64986000D01*
X147153177Y-64973687D01*
X146992758Y-64925024D01*
X146844924Y-64846005D01*
X146844922Y-64846004D01*
X146715341Y-64739659D01*
X146608996Y-64610078D01*
X146585032Y-64565244D01*
X146529976Y-64462242D01*
X146481313Y-64301823D01*
X146464883Y-64135000D01*
X146481313Y-63968177D01*
X146529976Y-63807758D01*
X146608995Y-63659924D01*
X146608996Y-63659922D01*
X146715341Y-63530341D01*
X146844922Y-63423996D01*
X146860094Y-63415886D01*
X146992758Y-63344976D01*
X147153177Y-63296313D01*
X147278196Y-63284000D01*
X147361804Y-63284000D01*
X147486823Y-63296313D01*
X147486823Y-63296313D01*
G37*
G36*
X116825476Y-62773292D02*
G01*
X116949672Y-62797995D01*
X117086073Y-62854494D01*
X117208830Y-62936518D01*
X117313226Y-63040914D01*
X117395250Y-63163671D01*
X117451749Y-63300072D01*
X117480551Y-63444874D01*
X117480551Y-63592512D01*
X117451749Y-63737314D01*
X117395250Y-63873715D01*
X117313226Y-63996472D01*
X117208830Y-64100868D01*
X117086073Y-64182892D01*
X116949672Y-64239391D01*
X116825476Y-64264094D01*
X116804871Y-64268193D01*
X116657231Y-64268193D01*
X116636626Y-64264094D01*
X116512430Y-64239391D01*
X116376029Y-64182892D01*
X116253272Y-64100868D01*
X116148876Y-63996472D01*
X116066852Y-63873715D01*
X116010353Y-63737314D01*
X115981551Y-63592512D01*
X115981551Y-63444874D01*
X116010353Y-63300072D01*
X116066852Y-63163671D01*
X116148876Y-63040914D01*
X116253272Y-62936518D01*
X116376029Y-62854494D01*
X116512430Y-62797995D01*
X116636626Y-62773292D01*
X116657231Y-62769193D01*
X116804871Y-62769193D01*
X116825476Y-62773292D01*
X116825476Y-62773292D01*
G37*
G36*
X113233374Y-62773292D02*
G01*
X113357570Y-62797995D01*
X113493971Y-62854494D01*
X113616728Y-62936518D01*
X113721124Y-63040914D01*
X113803148Y-63163671D01*
X113859647Y-63300072D01*
X113888449Y-63444874D01*
X113888449Y-63592512D01*
X113859647Y-63737314D01*
X113803148Y-63873715D01*
X113721124Y-63996472D01*
X113616728Y-64100868D01*
X113493971Y-64182892D01*
X113357570Y-64239391D01*
X113233374Y-64264094D01*
X113212769Y-64268193D01*
X113065129Y-64268193D01*
X113044524Y-64264094D01*
X112920328Y-64239391D01*
X112783927Y-64182892D01*
X112661170Y-64100868D01*
X112556774Y-63996472D01*
X112474750Y-63873715D01*
X112418251Y-63737314D01*
X112389449Y-63592512D01*
X112389449Y-63444874D01*
X112418251Y-63300072D01*
X112474750Y-63163671D01*
X112556774Y-63040914D01*
X112661170Y-62936518D01*
X112783927Y-62854494D01*
X112920328Y-62797995D01*
X113044524Y-62773292D01*
X113065129Y-62769193D01*
X113212769Y-62769193D01*
X113233374Y-62773292D01*
X113233374Y-62773292D01*
G37*
G36*
X147486823Y-60756313D02*
G01*
X147647242Y-60804976D01*
X147779906Y-60875886D01*
X147795078Y-60883996D01*
X147924659Y-60990341D01*
X148031004Y-61119922D01*
X148031005Y-61119924D01*
X148110024Y-61267758D01*
X148158687Y-61428177D01*
X148175117Y-61595000D01*
X148158687Y-61761823D01*
X148110024Y-61922242D01*
X148039114Y-62054906D01*
X148031004Y-62070078D01*
X147924659Y-62199659D01*
X147795078Y-62306004D01*
X147795076Y-62306005D01*
X147647242Y-62385024D01*
X147486823Y-62433687D01*
X147361804Y-62446000D01*
X147278196Y-62446000D01*
X147153177Y-62433687D01*
X146992758Y-62385024D01*
X146844924Y-62306005D01*
X146844922Y-62306004D01*
X146715341Y-62199659D01*
X146608996Y-62070078D01*
X146600886Y-62054906D01*
X146529976Y-61922242D01*
X146481313Y-61761823D01*
X146464883Y-61595000D01*
X146481313Y-61428177D01*
X146529976Y-61267758D01*
X146608995Y-61119924D01*
X146608996Y-61119922D01*
X146715341Y-60990341D01*
X146844922Y-60883996D01*
X146860094Y-60875886D01*
X146992758Y-60804976D01*
X147153177Y-60756313D01*
X147278196Y-60744000D01*
X147361804Y-60744000D01*
X147486823Y-60756313D01*
X147486823Y-60756313D01*
G37*
G36*
X132246823Y-60756313D02*
G01*
X132407242Y-60804976D01*
X132539906Y-60875886D01*
X132555078Y-60883996D01*
X132684659Y-60990341D01*
X132791004Y-61119922D01*
X132791005Y-61119924D01*
X132870024Y-61267758D01*
X132918687Y-61428177D01*
X132935117Y-61595000D01*
X132918687Y-61761823D01*
X132870024Y-61922242D01*
X132799114Y-62054906D01*
X132791004Y-62070078D01*
X132684659Y-62199659D01*
X132555078Y-62306004D01*
X132555076Y-62306005D01*
X132407242Y-62385024D01*
X132246823Y-62433687D01*
X132121804Y-62446000D01*
X132038196Y-62446000D01*
X131913177Y-62433687D01*
X131752758Y-62385024D01*
X131604924Y-62306005D01*
X131604922Y-62306004D01*
X131475341Y-62199659D01*
X131368996Y-62070078D01*
X131360886Y-62054906D01*
X131289976Y-61922242D01*
X131241313Y-61761823D01*
X131224883Y-61595000D01*
X131241313Y-61428177D01*
X131289976Y-61267758D01*
X131368995Y-61119924D01*
X131368996Y-61119922D01*
X131475341Y-60990341D01*
X131604922Y-60883996D01*
X131620094Y-60875886D01*
X131752758Y-60804976D01*
X131913177Y-60756313D01*
X132038196Y-60744000D01*
X132121804Y-60744000D01*
X132246823Y-60756313D01*
X132246823Y-60756313D01*
G37*
G36*
X147486823Y-58216313D02*
G01*
X147647242Y-58264976D01*
X147779906Y-58335886D01*
X147795078Y-58343996D01*
X147924659Y-58450341D01*
X148031004Y-58579922D01*
X148031005Y-58579924D01*
X148110024Y-58727758D01*
X148158687Y-58888177D01*
X148175117Y-59055000D01*
X148158687Y-59221823D01*
X148110024Y-59382242D01*
X148039114Y-59514906D01*
X148031004Y-59530078D01*
X147924659Y-59659659D01*
X147795078Y-59766004D01*
X147795076Y-59766005D01*
X147647242Y-59845024D01*
X147486823Y-59893687D01*
X147361804Y-59906000D01*
X147278196Y-59906000D01*
X147153177Y-59893687D01*
X146992758Y-59845024D01*
X146844924Y-59766005D01*
X146844922Y-59766004D01*
X146715341Y-59659659D01*
X146608996Y-59530078D01*
X146600886Y-59514906D01*
X146529976Y-59382242D01*
X146481313Y-59221823D01*
X146464883Y-59055000D01*
X146481313Y-58888177D01*
X146529976Y-58727758D01*
X146608995Y-58579924D01*
X146608996Y-58579922D01*
X146715341Y-58450341D01*
X146844922Y-58343996D01*
X146860094Y-58335886D01*
X146992758Y-58264976D01*
X147153177Y-58216313D01*
X147278196Y-58204000D01*
X147361804Y-58204000D01*
X147486823Y-58216313D01*
X147486823Y-58216313D01*
G37*
G36*
X132931000Y-59906000D02*
G01*
X131229000Y-59906000D01*
X131229000Y-58204000D01*
X132931000Y-58204000D01*
X132931000Y-59906000D01*
X132931000Y-59906000D01*
G37*
M02*
