G04 #@! TF.GenerationSoftware,KiCad,Pcbnew,(5.1.2-1)-1*
G04 #@! TF.CreationDate,2019-05-24T20:07:40+01:00*
G04 #@! TF.ProjectId,8840A_CPU,38383430-415f-4435-9055-2e6b69636164,rev?*
G04 #@! TF.SameCoordinates,Original*
G04 #@! TF.FileFunction,Copper,L1,Top*
G04 #@! TF.FilePolarity,Positive*
%FSLAX46Y46*%
G04 Gerber Fmt 4.6, Leading zero omitted, Abs format (unit mm)*
G04 Created by KiCad (PCBNEW (5.1.2-1)-1) date 2019-05-24 20:07:40*
%MOMM*%
%LPD*%
G04 APERTURE LIST*
%ADD10C,1.250000*%
%ADD11C,0.100000*%
%ADD12R,1.600000X1.600000*%
%ADD13O,1.600000X1.600000*%
%ADD14C,1.397000*%
%ADD15C,0.600000*%
%ADD16C,0.203200*%
G04 APERTURE END LIST*
D10*
X105658883Y-83433883D03*
D11*
G36*
X106631155Y-83522271D02*
G01*
X105747271Y-84406155D01*
X104686611Y-83345495D01*
X105570495Y-82461611D01*
X106631155Y-83522271D01*
X106631155Y-83522271D01*
G37*
D10*
X103891117Y-81666117D03*
D11*
G36*
X104863389Y-81754505D02*
G01*
X103979505Y-82638389D01*
X102918845Y-81577729D01*
X103802729Y-80693845D01*
X104863389Y-81754505D01*
X104863389Y-81754505D01*
G37*
D12*
X132080000Y-59055000D03*
D13*
X147320000Y-107315000D03*
X132080000Y-61595000D03*
X147320000Y-104775000D03*
X132080000Y-64135000D03*
X147320000Y-102235000D03*
X132080000Y-66675000D03*
X147320000Y-99695000D03*
X132080000Y-69215000D03*
X147320000Y-97155000D03*
X132080000Y-71755000D03*
X147320000Y-94615000D03*
X132080000Y-74295000D03*
X147320000Y-92075000D03*
X132080000Y-76835000D03*
X147320000Y-89535000D03*
X132080000Y-79375000D03*
X147320000Y-86995000D03*
X132080000Y-81915000D03*
X147320000Y-84455000D03*
X132080000Y-84455000D03*
X147320000Y-81915000D03*
X132080000Y-86995000D03*
X147320000Y-79375000D03*
X132080000Y-89535000D03*
X147320000Y-76835000D03*
X132080000Y-92075000D03*
X147320000Y-74295000D03*
X132080000Y-94615000D03*
X147320000Y-71755000D03*
X132080000Y-97155000D03*
X147320000Y-69215000D03*
X132080000Y-99695000D03*
X147320000Y-66675000D03*
X132080000Y-102235000D03*
X147320000Y-64135000D03*
X132080000Y-104775000D03*
X147320000Y-61595000D03*
X132080000Y-107315000D03*
X147320000Y-59055000D03*
D14*
X118527102Y-79683154D03*
D11*
G36*
X119514930Y-79683154D02*
G01*
X118527102Y-80670982D01*
X117539274Y-79683154D01*
X118527102Y-78695326D01*
X119514930Y-79683154D01*
X119514930Y-79683154D01*
G37*
D14*
X122119205Y-79683154D03*
X120323154Y-77887102D03*
X123915256Y-77887102D03*
X122119205Y-76091051D03*
X125711307Y-76091051D03*
X125711307Y-72498949D03*
X123915256Y-74295000D03*
X123915256Y-70702898D03*
X122119205Y-72498949D03*
X122119205Y-68906846D03*
X120323154Y-70702898D03*
X120323154Y-67110795D03*
X118527102Y-68906846D03*
X118527102Y-65314744D03*
X116731051Y-67110795D03*
X116731051Y-63518693D03*
X113138949Y-63518693D03*
X114935000Y-65314744D03*
X111342898Y-65314744D03*
X113138949Y-67110795D03*
X109546846Y-67110795D03*
X111342898Y-68906846D03*
X107750795Y-68906846D03*
X109546846Y-70702898D03*
X105954744Y-70702898D03*
X107750795Y-72498949D03*
X104158693Y-72498949D03*
X104158693Y-76091051D03*
X105954744Y-74295000D03*
X105954744Y-77887102D03*
X107750795Y-76091051D03*
X107750795Y-79683154D03*
X109546846Y-77887102D03*
X109546846Y-81479205D03*
X111342898Y-79683154D03*
X111342898Y-83275256D03*
X113138949Y-81479205D03*
X113138949Y-85071307D03*
X116731051Y-85071307D03*
X114935000Y-83275256D03*
X118527102Y-83275256D03*
X116731051Y-81479205D03*
X120323154Y-81479205D03*
D15*
X113030000Y-60960000D03*
X111342898Y-75083613D03*
X118541311Y-108575325D03*
X106823694Y-66675000D03*
X117998492Y-106071866D03*
X104140000Y-70485000D03*
X121285000Y-103505000D03*
X134620000Y-66675000D03*
X134620000Y-90805000D03*
X111125000Y-90805000D03*
X124460000Y-100965000D03*
X113030000Y-69850000D03*
X128905000Y-66040000D03*
X130175000Y-60325000D03*
X142240000Y-60325000D03*
X109855000Y-72390000D03*
X113030000Y-98425000D03*
X130175000Y-74295000D03*
X130175000Y-66675000D03*
X118525871Y-70702898D03*
X130175000Y-57785000D03*
X142875000Y-57785000D03*
X129540000Y-76835000D03*
X129540000Y-68580000D03*
X107708601Y-95643601D03*
X106680000Y-88265000D03*
X106045000Y-86995000D03*
X122112218Y-84457634D03*
X125730000Y-80645000D03*
X104775000Y-87630000D03*
X127635000Y-78105000D03*
X116840000Y-89535000D03*
X114935000Y-92075000D03*
X144145000Y-74295000D03*
X144145000Y-70485000D03*
X120650000Y-94615000D03*
X123190000Y-97155000D03*
X125095000Y-99695000D03*
X114300000Y-102235000D03*
X120015000Y-62865000D03*
X116205000Y-104775000D03*
X144780000Y-61595000D03*
X144780000Y-88265000D03*
X107388785Y-93271215D03*
X117475000Y-107315000D03*
X143510000Y-59055000D03*
X143510000Y-83185000D03*
D16*
X107750795Y-68906846D02*
X111342898Y-68906846D01*
X132080000Y-59055000D02*
X128270000Y-59055000D01*
X128270000Y-59055000D02*
X126365000Y-60960000D01*
X113030000Y-60960000D02*
X126365000Y-60960000D01*
X111342898Y-76091050D02*
X111342898Y-75083613D01*
X109546846Y-77887102D02*
X111342898Y-76091050D01*
X147320000Y-107315000D02*
X146520001Y-108114999D01*
X146050000Y-108585000D02*
X119380000Y-108585000D01*
X146520001Y-108114999D02*
X146050000Y-108585000D01*
X119370325Y-108575325D02*
X119380000Y-108585000D01*
X118541311Y-108575325D02*
X119370325Y-108575325D01*
X111760000Y-61595000D02*
X132080000Y-61595000D01*
X106823694Y-66675000D02*
X111760000Y-61595000D01*
X147320000Y-104775000D02*
X146023134Y-106071866D01*
X118422756Y-106071866D02*
X117998492Y-106071866D01*
X146023134Y-106071866D02*
X118422756Y-106071866D01*
X120015000Y-64135000D02*
X132080000Y-64135000D01*
X118110000Y-62230000D02*
X120015000Y-64135000D01*
X112395000Y-62230000D02*
X118110000Y-62230000D01*
X104140000Y-70485000D02*
X112395000Y-62230000D01*
X146050000Y-103505000D02*
X147320000Y-102235000D01*
X121285000Y-103505000D02*
X146050000Y-103505000D01*
X132080000Y-66675000D02*
X134620000Y-66675000D01*
X134620000Y-90805000D02*
X111125000Y-90805000D01*
X146050000Y-100965000D02*
X124460000Y-100965000D01*
X147320000Y-99695000D02*
X146050000Y-100965000D01*
X118956058Y-69850000D02*
X113030000Y-69850000D01*
X121192104Y-69351855D02*
X119454203Y-69351855D01*
X121674196Y-69833947D02*
X121192104Y-69351855D01*
X122564214Y-69833947D02*
X121674196Y-69833947D01*
X132080000Y-69215000D02*
X123183161Y-69215000D01*
X119454203Y-69351855D02*
X118956058Y-69850000D01*
X123183161Y-69215000D02*
X122564214Y-69833947D01*
X119173956Y-66040000D02*
X128905000Y-66040000D01*
X118972111Y-66241845D02*
X119173956Y-66040000D01*
X115380009Y-66241845D02*
X116307110Y-65314744D01*
X116307110Y-65314744D02*
X117154992Y-65314744D01*
X117154992Y-65314744D02*
X118082093Y-66241845D01*
X113562890Y-65314744D02*
X114489991Y-66241845D01*
X118082093Y-66241845D02*
X118972111Y-66241845D01*
X114489991Y-66241845D02*
X115380009Y-66241845D01*
X111342898Y-65314744D02*
X113562890Y-65314744D01*
X130175000Y-60325000D02*
X142240000Y-60325000D01*
X122747366Y-71755000D02*
X122564214Y-71571848D01*
X124616158Y-71755000D02*
X122747366Y-71755000D01*
X126293093Y-71241637D02*
X125129521Y-71241637D01*
X132080000Y-71755000D02*
X126806456Y-71755000D01*
X125129521Y-71241637D02*
X124616158Y-71755000D01*
X120856044Y-72390000D02*
X109855000Y-72390000D01*
X121674196Y-71571848D02*
X120856044Y-72390000D01*
X122564214Y-71571848D02*
X121674196Y-71571848D01*
X126806456Y-71755000D02*
X126293093Y-71241637D01*
X147320000Y-94615000D02*
X144780000Y-94615000D01*
X140970000Y-98425000D02*
X113030000Y-98425000D01*
X144780000Y-94615000D02*
X140970000Y-98425000D01*
X132080000Y-74295000D02*
X130175000Y-74295000D01*
X120758949Y-66675000D02*
X120323154Y-67110795D01*
X130175000Y-66675000D02*
X120758949Y-66675000D01*
X109546846Y-70702898D02*
X118525871Y-70702898D01*
X130175000Y-57785000D02*
X142875000Y-57785000D01*
X132080000Y-76835000D02*
X129540000Y-76835000D01*
X122446051Y-68580000D02*
X122119205Y-68906846D01*
X129540000Y-68580000D02*
X122446051Y-68580000D01*
X147320000Y-89535000D02*
X141211399Y-95643601D01*
X141211399Y-95643601D02*
X107708601Y-95643601D01*
X109079858Y-79683154D02*
X108738623Y-79683154D01*
X108738623Y-79683154D02*
X107750795Y-79683154D01*
X111803011Y-76960001D02*
X109079858Y-79683154D01*
X120775001Y-76960001D02*
X111803011Y-76960001D01*
X122548161Y-78733161D02*
X120775001Y-76960001D01*
X122548161Y-78740000D02*
X122548161Y-78733161D01*
X123183161Y-79375000D02*
X122548161Y-78740000D01*
X132080000Y-79375000D02*
X123183161Y-79375000D01*
X146188630Y-86995000D02*
X147320000Y-86995000D01*
X140970000Y-87121165D02*
X146188630Y-86995000D01*
X139700000Y-88265000D02*
X140970000Y-87121165D01*
X106680000Y-88265000D02*
X139700000Y-88265000D01*
X117211653Y-80381653D02*
X112041397Y-80381653D01*
X131280001Y-82714999D02*
X119544999Y-82714999D01*
X112041397Y-80381653D02*
X111342898Y-79683154D01*
X119544999Y-82714999D02*
X117211653Y-80381653D01*
X132080000Y-81915000D02*
X131280001Y-82714999D01*
X128905000Y-86995000D02*
X106045000Y-86995000D01*
X147320000Y-84455000D02*
X146050000Y-85725000D01*
X146050000Y-85725000D02*
X130175000Y-85725000D01*
X130175000Y-85725000D02*
X128905000Y-86995000D01*
X132080000Y-84455000D02*
X122555000Y-84455000D01*
X122552366Y-84457634D02*
X122555000Y-84455000D01*
X122112218Y-84457634D02*
X122552366Y-84457634D01*
X118527102Y-79683154D02*
X122119205Y-79683154D01*
X146050000Y-80645000D02*
X125730000Y-80645000D01*
X147320000Y-81915000D02*
X146050000Y-80645000D01*
X132080000Y-86995000D02*
X131445000Y-87630000D01*
X131445000Y-87630000D02*
X104775000Y-87630000D01*
X146050000Y-78105000D02*
X127635000Y-78105000D01*
X147320000Y-79375000D02*
X146050000Y-78105000D01*
X132080000Y-89535000D02*
X116840000Y-89535000D01*
X147320000Y-76835000D02*
X144145000Y-76835000D01*
X142633601Y-75323601D02*
X127393601Y-75323601D01*
X144145000Y-76835000D02*
X142633601Y-75323601D01*
X126365000Y-74295000D02*
X123915256Y-74295000D01*
X127393601Y-75323601D02*
X126365000Y-74295000D01*
X132080000Y-92075000D02*
X114935000Y-92075000D01*
X147320000Y-74295000D02*
X144145000Y-74295000D01*
X124133154Y-70485000D02*
X123915256Y-70702898D01*
X144145000Y-70485000D02*
X124133154Y-70485000D01*
X120650000Y-94615000D02*
X132080000Y-94615000D01*
X123933949Y-72498949D02*
X122119205Y-72498949D01*
X125095000Y-73660000D02*
X123933949Y-72498949D01*
X126598950Y-73660000D02*
X125095000Y-73660000D01*
X127000000Y-73025000D02*
X126598950Y-73660000D01*
X146050000Y-73025000D02*
X127000000Y-73025000D01*
X147320000Y-71755000D02*
X146050000Y-73025000D01*
X123190000Y-97155000D02*
X132080000Y-97155000D01*
X119899213Y-68906846D02*
X118527102Y-68906846D01*
X120826314Y-67979745D02*
X119899213Y-68906846D01*
X146084745Y-67979745D02*
X120826314Y-67979745D01*
X147320000Y-69215000D02*
X146084745Y-67979745D01*
X132080000Y-99695000D02*
X125095000Y-99695000D01*
X118706170Y-65493812D02*
X118527102Y-65314744D01*
X145959744Y-65314744D02*
X147320000Y-66675000D01*
X118527102Y-65314744D02*
X145959744Y-65314744D01*
X132080000Y-102235000D02*
X114300000Y-102235000D01*
X146050000Y-62865000D02*
X146520001Y-63335001D01*
X146520001Y-63335001D02*
X147320000Y-64135000D01*
X120015000Y-62865000D02*
X146050000Y-62865000D01*
X132080000Y-104775000D02*
X116205000Y-104775000D01*
X147320000Y-61595000D02*
X144780000Y-61595000D01*
X144780000Y-88265000D02*
X139773785Y-93271215D01*
X139773785Y-93271215D02*
X107388785Y-93271215D01*
X132080000Y-107315000D02*
X117475000Y-107315000D01*
X147320000Y-59055000D02*
X143510000Y-59055000D01*
X143510000Y-83185000D02*
X121920000Y-83185000D01*
X113138949Y-81479205D02*
X114978834Y-81479205D01*
X117701986Y-84202357D02*
X120902643Y-84202357D01*
X114978834Y-81479205D02*
X117701986Y-84202357D01*
X120902643Y-84202357D02*
X121920000Y-83185000D01*
X108540662Y-80552104D02*
X108677896Y-80552104D01*
X105658883Y-83433883D02*
X108540662Y-80552104D01*
X117962478Y-79118530D02*
X118527102Y-79683154D01*
X108677896Y-80552104D02*
X110473947Y-78756053D01*
X110473947Y-78756053D02*
X117600001Y-78756053D01*
X117600001Y-78756053D02*
X117962478Y-79118530D01*
X107670132Y-77887102D02*
X103891117Y-81666117D01*
X109546846Y-77887102D02*
X107670132Y-77887102D01*
M02*
