G04 #@! TF.GenerationSoftware,KiCad,Pcbnew,(5.1.2-1)-1*
G04 #@! TF.CreationDate,2019-05-24T19:31:09+01:00*
G04 #@! TF.ProjectId,8840A_CPU_Programmer,38383430-415f-4435-9055-5f50726f6772,rev?*
G04 #@! TF.SameCoordinates,Original*
G04 #@! TF.FileFunction,Legend,Top*
G04 #@! TF.FilePolarity,Positive*
%FSLAX46Y46*%
G04 Gerber Fmt 4.6, Leading zero omitted, Abs format (unit mm)*
G04 Created by KiCad (PCBNEW (5.1.2-1)-1) date 2019-05-24 19:31:09*
%MOMM*%
%LPD*%
G04 APERTURE LIST*
%ADD10C,0.120000*%
%ADD11C,0.150000*%
%ADD12C,0.203200*%
%ADD13C,0.300000*%
G04 APERTURE END LIST*
D10*
X156210000Y-85725000D02*
X146685000Y-85725000D01*
X156210000Y-88265000D02*
X156210000Y-85725000D01*
X146685000Y-88265000D02*
X156210000Y-88265000D01*
X146685000Y-83185000D02*
X146685000Y-88265000D01*
X156150000Y-83125000D02*
X146685000Y-83185000D01*
D11*
X136779523Y-113117380D02*
X137112857Y-114117380D01*
X137446190Y-113117380D01*
X138160476Y-114069761D02*
X138065238Y-114117380D01*
X137874761Y-114117380D01*
X137779523Y-114069761D01*
X137731904Y-113974523D01*
X137731904Y-113593571D01*
X137779523Y-113498333D01*
X137874761Y-113450714D01*
X138065238Y-113450714D01*
X138160476Y-113498333D01*
X138208095Y-113593571D01*
X138208095Y-113688809D01*
X137731904Y-113784047D01*
X138636666Y-114117380D02*
X138636666Y-113450714D01*
X138636666Y-113641190D02*
X138684285Y-113545952D01*
X138731904Y-113498333D01*
X138827142Y-113450714D01*
X138922380Y-113450714D01*
X139208095Y-114069761D02*
X139303333Y-114117380D01*
X139493809Y-114117380D01*
X139589047Y-114069761D01*
X139636666Y-113974523D01*
X139636666Y-113926904D01*
X139589047Y-113831666D01*
X139493809Y-113784047D01*
X139350952Y-113784047D01*
X139255714Y-113736428D01*
X139208095Y-113641190D01*
X139208095Y-113593571D01*
X139255714Y-113498333D01*
X139350952Y-113450714D01*
X139493809Y-113450714D01*
X139589047Y-113498333D01*
X140065238Y-114117380D02*
X140065238Y-113450714D01*
X140065238Y-113117380D02*
X140017619Y-113165000D01*
X140065238Y-113212619D01*
X140112857Y-113165000D01*
X140065238Y-113117380D01*
X140065238Y-113212619D01*
X140684285Y-114117380D02*
X140589047Y-114069761D01*
X140541428Y-114022142D01*
X140493809Y-113926904D01*
X140493809Y-113641190D01*
X140541428Y-113545952D01*
X140589047Y-113498333D01*
X140684285Y-113450714D01*
X140827142Y-113450714D01*
X140922380Y-113498333D01*
X140970000Y-113545952D01*
X141017619Y-113641190D01*
X141017619Y-113926904D01*
X140970000Y-114022142D01*
X140922380Y-114069761D01*
X140827142Y-114117380D01*
X140684285Y-114117380D01*
X141446190Y-113450714D02*
X141446190Y-114117380D01*
X141446190Y-113545952D02*
X141493809Y-113498333D01*
X141589047Y-113450714D01*
X141731904Y-113450714D01*
X141827142Y-113498333D01*
X141874761Y-113593571D01*
X141874761Y-114117380D01*
X143636666Y-114117380D02*
X143065238Y-114117380D01*
X143350952Y-114117380D02*
X143350952Y-113117380D01*
X143255714Y-113260238D01*
X143160476Y-113355476D01*
X143065238Y-113403095D01*
X144065238Y-114022142D02*
X144112857Y-114069761D01*
X144065238Y-114117380D01*
X144017619Y-114069761D01*
X144065238Y-114022142D01*
X144065238Y-114117380D01*
X144731904Y-113117380D02*
X144827142Y-113117380D01*
X144922380Y-113165000D01*
X144970000Y-113212619D01*
X145017619Y-113307857D01*
X145065238Y-113498333D01*
X145065238Y-113736428D01*
X145017619Y-113926904D01*
X144970000Y-114022142D01*
X144922380Y-114069761D01*
X144827142Y-114117380D01*
X144731904Y-114117380D01*
X144636666Y-114069761D01*
X144589047Y-114022142D01*
X144541428Y-113926904D01*
X144493809Y-113736428D01*
X144493809Y-113498333D01*
X144541428Y-113307857D01*
X144589047Y-113212619D01*
X144636666Y-113165000D01*
X144731904Y-113117380D01*
D12*
X120015000Y-66675000D02*
G75*
G03X120015000Y-66675000I-635000J0D01*
G01*
X91440000Y-89535000D02*
X91440000Y-81280000D01*
X118745000Y-89535000D02*
X91440000Y-89535000D01*
X118745000Y-81280000D02*
X118745000Y-89535000D01*
X91440000Y-81280000D02*
X118745000Y-81280000D01*
D13*
X93197225Y-81966414D02*
X94197225Y-81966414D01*
X93197225Y-83466414D01*
X94197225Y-83466414D01*
X94982939Y-82609271D02*
X94840082Y-82537843D01*
X94768653Y-82466414D01*
X94697225Y-82323557D01*
X94697225Y-82252128D01*
X94768653Y-82109271D01*
X94840082Y-82037843D01*
X94982939Y-81966414D01*
X95268653Y-81966414D01*
X95411510Y-82037843D01*
X95482939Y-82109271D01*
X95554368Y-82252128D01*
X95554368Y-82323557D01*
X95482939Y-82466414D01*
X95411510Y-82537843D01*
X95268653Y-82609271D01*
X94982939Y-82609271D01*
X94840082Y-82680700D01*
X94768653Y-82752128D01*
X94697225Y-82894985D01*
X94697225Y-83180700D01*
X94768653Y-83323557D01*
X94840082Y-83394985D01*
X94982939Y-83466414D01*
X95268653Y-83466414D01*
X95411510Y-83394985D01*
X95482939Y-83323557D01*
X95554368Y-83180700D01*
X95554368Y-82894985D01*
X95482939Y-82752128D01*
X95411510Y-82680700D01*
X95268653Y-82609271D01*
X96840082Y-81966414D02*
X96554368Y-81966414D01*
X96411510Y-82037843D01*
X96340082Y-82109271D01*
X96197225Y-82323557D01*
X96125796Y-82609271D01*
X96125796Y-83180700D01*
X96197225Y-83323557D01*
X96268653Y-83394985D01*
X96411510Y-83466414D01*
X96697225Y-83466414D01*
X96840082Y-83394985D01*
X96911510Y-83323557D01*
X96982939Y-83180700D01*
X96982939Y-82823557D01*
X96911510Y-82680700D01*
X96840082Y-82609271D01*
X96697225Y-82537843D01*
X96411510Y-82537843D01*
X96268653Y-82609271D01*
X96197225Y-82680700D01*
X96125796Y-82823557D01*
X97625796Y-82680700D02*
X98125796Y-82680700D01*
X98340082Y-83466414D02*
X97625796Y-83466414D01*
X97625796Y-81966414D01*
X98340082Y-81966414D01*
X99625796Y-82466414D02*
X99625796Y-83466414D01*
X99268653Y-81894985D02*
X98911510Y-82966414D01*
X99840082Y-82966414D01*
X100697225Y-81966414D02*
X100840082Y-81966414D01*
X100982939Y-82037843D01*
X101054368Y-82109271D01*
X101125796Y-82252128D01*
X101197225Y-82537843D01*
X101197225Y-82894985D01*
X101125796Y-83180700D01*
X101054368Y-83323557D01*
X100982939Y-83394985D01*
X100840082Y-83466414D01*
X100697225Y-83466414D01*
X100554368Y-83394985D01*
X100482939Y-83323557D01*
X100411510Y-83180700D01*
X100340082Y-82894985D01*
X100340082Y-82537843D01*
X100411510Y-82252128D01*
X100482939Y-82109271D01*
X100554368Y-82037843D01*
X100697225Y-81966414D01*
X102982939Y-83466414D02*
X102982939Y-81966414D01*
X103554368Y-81966414D01*
X103697225Y-82037843D01*
X103768653Y-82109271D01*
X103840082Y-82252128D01*
X103840082Y-82466414D01*
X103768653Y-82609271D01*
X103697225Y-82680700D01*
X103554368Y-82752128D01*
X102982939Y-82752128D01*
X105197225Y-83466414D02*
X104482939Y-83466414D01*
X104482939Y-81966414D01*
X106554368Y-83323557D02*
X106482939Y-83394985D01*
X106268653Y-83466414D01*
X106125796Y-83466414D01*
X105911510Y-83394985D01*
X105768653Y-83252128D01*
X105697225Y-83109271D01*
X105625796Y-82823557D01*
X105625796Y-82609271D01*
X105697225Y-82323557D01*
X105768653Y-82180700D01*
X105911510Y-82037843D01*
X106125796Y-81966414D01*
X106268653Y-81966414D01*
X106482939Y-82037843D01*
X106554368Y-82109271D01*
X108054368Y-83323557D02*
X107982939Y-83394985D01*
X107768653Y-83466414D01*
X107625796Y-83466414D01*
X107411510Y-83394985D01*
X107268653Y-83252128D01*
X107197225Y-83109271D01*
X107125796Y-82823557D01*
X107125796Y-82609271D01*
X107197225Y-82323557D01*
X107268653Y-82180700D01*
X107411510Y-82037843D01*
X107625796Y-81966414D01*
X107768653Y-81966414D01*
X107982939Y-82037843D01*
X108054368Y-82109271D01*
X109340082Y-82466414D02*
X109340082Y-83466414D01*
X108982939Y-81894985D02*
X108625796Y-82966414D01*
X109554368Y-82966414D01*
X110768653Y-82466414D02*
X110768653Y-83466414D01*
X110411510Y-81894985D02*
X110054368Y-82966414D01*
X110982939Y-82966414D01*
X113554368Y-83466414D02*
X113054368Y-82752128D01*
X112697225Y-83466414D02*
X112697225Y-81966414D01*
X113268653Y-81966414D01*
X113411510Y-82037843D01*
X113482939Y-82109271D01*
X113554368Y-82252128D01*
X113554368Y-82466414D01*
X113482939Y-82609271D01*
X113411510Y-82680700D01*
X113268653Y-82752128D01*
X112697225Y-82752128D01*
X114482939Y-81966414D02*
X114768653Y-81966414D01*
X114911510Y-82037843D01*
X115054368Y-82180700D01*
X115125796Y-82466414D01*
X115125796Y-82966414D01*
X115054368Y-83252128D01*
X114911510Y-83394985D01*
X114768653Y-83466414D01*
X114482939Y-83466414D01*
X114340082Y-83394985D01*
X114197225Y-83252128D01*
X114125796Y-82966414D01*
X114125796Y-82466414D01*
X114197225Y-82180700D01*
X114340082Y-82037843D01*
X114482939Y-81966414D01*
X115768653Y-83466414D02*
X115768653Y-81966414D01*
X116268653Y-83037843D01*
X116768653Y-81966414D01*
X116768653Y-83466414D01*
X97840082Y-86016414D02*
X97840082Y-84516414D01*
X98411510Y-84516414D01*
X98554368Y-84587843D01*
X98625796Y-84659271D01*
X98697225Y-84802128D01*
X98697225Y-85016414D01*
X98625796Y-85159271D01*
X98554368Y-85230700D01*
X98411510Y-85302128D01*
X97840082Y-85302128D01*
X100197225Y-86016414D02*
X99697225Y-85302128D01*
X99340082Y-86016414D02*
X99340082Y-84516414D01*
X99911510Y-84516414D01*
X100054368Y-84587843D01*
X100125796Y-84659271D01*
X100197225Y-84802128D01*
X100197225Y-85016414D01*
X100125796Y-85159271D01*
X100054368Y-85230700D01*
X99911510Y-85302128D01*
X99340082Y-85302128D01*
X101125796Y-84516414D02*
X101411510Y-84516414D01*
X101554368Y-84587843D01*
X101697225Y-84730700D01*
X101768653Y-85016414D01*
X101768653Y-85516414D01*
X101697225Y-85802128D01*
X101554368Y-85944985D01*
X101411510Y-86016414D01*
X101125796Y-86016414D01*
X100982939Y-85944985D01*
X100840082Y-85802128D01*
X100768653Y-85516414D01*
X100768653Y-85016414D01*
X100840082Y-84730700D01*
X100982939Y-84587843D01*
X101125796Y-84516414D01*
X103197225Y-84587843D02*
X103054368Y-84516414D01*
X102840082Y-84516414D01*
X102625796Y-84587843D01*
X102482939Y-84730700D01*
X102411510Y-84873557D01*
X102340082Y-85159271D01*
X102340082Y-85373557D01*
X102411510Y-85659271D01*
X102482939Y-85802128D01*
X102625796Y-85944985D01*
X102840082Y-86016414D01*
X102982939Y-86016414D01*
X103197225Y-85944985D01*
X103268653Y-85873557D01*
X103268653Y-85373557D01*
X102982939Y-85373557D01*
X104768653Y-86016414D02*
X104268653Y-85302128D01*
X103911510Y-86016414D02*
X103911510Y-84516414D01*
X104482939Y-84516414D01*
X104625796Y-84587843D01*
X104697225Y-84659271D01*
X104768653Y-84802128D01*
X104768653Y-85016414D01*
X104697225Y-85159271D01*
X104625796Y-85230700D01*
X104482939Y-85302128D01*
X103911510Y-85302128D01*
X105340082Y-85587843D02*
X106054368Y-85587843D01*
X105197225Y-86016414D02*
X105697225Y-84516414D01*
X106197225Y-86016414D01*
X106697225Y-86016414D02*
X106697225Y-84516414D01*
X107197225Y-85587843D01*
X107697225Y-84516414D01*
X107697225Y-86016414D01*
X108411510Y-86016414D02*
X108411510Y-84516414D01*
X108911510Y-85587843D01*
X109411510Y-84516414D01*
X109411510Y-86016414D01*
X110125796Y-85230700D02*
X110625796Y-85230700D01*
X110840082Y-86016414D02*
X110125796Y-86016414D01*
X110125796Y-84516414D01*
X110840082Y-84516414D01*
X112340082Y-86016414D02*
X111840082Y-85302128D01*
X111482939Y-86016414D02*
X111482939Y-84516414D01*
X112054368Y-84516414D01*
X112197225Y-84587843D01*
X112268653Y-84659271D01*
X112340082Y-84802128D01*
X112340082Y-85016414D01*
X112268653Y-85159271D01*
X112197225Y-85230700D01*
X112054368Y-85302128D01*
X111482939Y-85302128D01*
X96661510Y-88566414D02*
X95947225Y-88566414D01*
X95947225Y-87066414D01*
X97732939Y-88494985D02*
X97590082Y-88566414D01*
X97304368Y-88566414D01*
X97161510Y-88494985D01*
X97090082Y-88352128D01*
X97090082Y-87780700D01*
X97161510Y-87637843D01*
X97304368Y-87566414D01*
X97590082Y-87566414D01*
X97732939Y-87637843D01*
X97804368Y-87780700D01*
X97804368Y-87923557D01*
X97090082Y-88066414D01*
X99018653Y-88494985D02*
X98875796Y-88566414D01*
X98590082Y-88566414D01*
X98447225Y-88494985D01*
X98375796Y-88352128D01*
X98375796Y-87780700D01*
X98447225Y-87637843D01*
X98590082Y-87566414D01*
X98875796Y-87566414D01*
X99018653Y-87637843D01*
X99090082Y-87780700D01*
X99090082Y-87923557D01*
X98375796Y-88066414D01*
X100875796Y-87780700D02*
X101375796Y-87780700D01*
X101590082Y-88566414D02*
X100875796Y-88566414D01*
X100875796Y-87066414D01*
X101590082Y-87066414D01*
X102161510Y-88494985D02*
X102304368Y-88566414D01*
X102590082Y-88566414D01*
X102732939Y-88494985D01*
X102804368Y-88352128D01*
X102804368Y-88280700D01*
X102732939Y-88137843D01*
X102590082Y-88066414D01*
X102375796Y-88066414D01*
X102232939Y-87994985D01*
X102161510Y-87852128D01*
X102161510Y-87780700D01*
X102232939Y-87637843D01*
X102375796Y-87566414D01*
X102590082Y-87566414D01*
X102732939Y-87637843D01*
X103375796Y-88494985D02*
X103518653Y-88566414D01*
X103804368Y-88566414D01*
X103947225Y-88494985D01*
X104018653Y-88352128D01*
X104018653Y-88280700D01*
X103947225Y-88137843D01*
X103804368Y-88066414D01*
X103590082Y-88066414D01*
X103447225Y-87994985D01*
X103375796Y-87852128D01*
X103375796Y-87780700D01*
X103447225Y-87637843D01*
X103590082Y-87566414D01*
X103804368Y-87566414D01*
X103947225Y-87637843D01*
X105232939Y-88494985D02*
X105090082Y-88566414D01*
X104804368Y-88566414D01*
X104661510Y-88494985D01*
X104590082Y-88352128D01*
X104590082Y-87780700D01*
X104661510Y-87637843D01*
X104804368Y-87566414D01*
X105090082Y-87566414D01*
X105232939Y-87637843D01*
X105304368Y-87780700D01*
X105304368Y-87923557D01*
X104590082Y-88066414D01*
X105947225Y-87566414D02*
X105947225Y-88566414D01*
X105947225Y-87709271D02*
X106018653Y-87637843D01*
X106161510Y-87566414D01*
X106375796Y-87566414D01*
X106518653Y-87637843D01*
X106590082Y-87780700D01*
X106590082Y-88566414D01*
X107375796Y-88494985D02*
X107375796Y-88566414D01*
X107304368Y-88709271D01*
X107232939Y-88780700D01*
X109090082Y-87209271D02*
X109161510Y-87137843D01*
X109304368Y-87066414D01*
X109661510Y-87066414D01*
X109804368Y-87137843D01*
X109875796Y-87209271D01*
X109947225Y-87352128D01*
X109947225Y-87494985D01*
X109875796Y-87709271D01*
X109018653Y-88566414D01*
X109947225Y-88566414D01*
X110875796Y-87066414D02*
X111018653Y-87066414D01*
X111161510Y-87137843D01*
X111232939Y-87209271D01*
X111304368Y-87352128D01*
X111375796Y-87637843D01*
X111375796Y-87994985D01*
X111304368Y-88280700D01*
X111232939Y-88423557D01*
X111161510Y-88494985D01*
X111018653Y-88566414D01*
X110875796Y-88566414D01*
X110732939Y-88494985D01*
X110661510Y-88423557D01*
X110590082Y-88280700D01*
X110518653Y-87994985D01*
X110518653Y-87637843D01*
X110590082Y-87352128D01*
X110661510Y-87209271D01*
X110732939Y-87137843D01*
X110875796Y-87066414D01*
X112804368Y-88566414D02*
X111947225Y-88566414D01*
X112375796Y-88566414D02*
X112375796Y-87066414D01*
X112232939Y-87280700D01*
X112090082Y-87423557D01*
X111947225Y-87494985D01*
X113518653Y-88566414D02*
X113804368Y-88566414D01*
X113947225Y-88494985D01*
X114018653Y-88423557D01*
X114161510Y-88209271D01*
X114232939Y-87923557D01*
X114232939Y-87352128D01*
X114161510Y-87209271D01*
X114090082Y-87137843D01*
X113947225Y-87066414D01*
X113661510Y-87066414D01*
X113518653Y-87137843D01*
X113447225Y-87209271D01*
X113375796Y-87352128D01*
X113375796Y-87709271D01*
X113447225Y-87852128D01*
X113518653Y-87923557D01*
X113661510Y-87994985D01*
X113947225Y-87994985D01*
X114090082Y-87923557D01*
X114161510Y-87852128D01*
X114232939Y-87709271D01*
D12*
X91092852Y-70095542D02*
X91164281Y-70024114D01*
X91307138Y-69952685D01*
X91664281Y-69952685D01*
X91807138Y-70024114D01*
X91878566Y-70095542D01*
X91949995Y-70238399D01*
X91949995Y-70381256D01*
X91878566Y-70595542D01*
X91021424Y-71452685D01*
X91949995Y-71452685D01*
X92449995Y-69952685D02*
X93449995Y-69952685D01*
X92807138Y-71452685D01*
X94664281Y-69952685D02*
X94378566Y-69952685D01*
X94235709Y-70024114D01*
X94164281Y-70095542D01*
X94021424Y-70309828D01*
X93949995Y-70595542D01*
X93949995Y-71166971D01*
X94021424Y-71309828D01*
X94092852Y-71381256D01*
X94235709Y-71452685D01*
X94521424Y-71452685D01*
X94664281Y-71381256D01*
X94735709Y-71309828D01*
X94807138Y-71166971D01*
X94807138Y-70809828D01*
X94735709Y-70666971D01*
X94664281Y-70595542D01*
X94521424Y-70524114D01*
X94235709Y-70524114D01*
X94092852Y-70595542D01*
X94021424Y-70666971D01*
X93949995Y-70809828D01*
X96092852Y-70452685D02*
X96092852Y-71452685D01*
X95735709Y-69881256D02*
X95378566Y-70952685D01*
X96307138Y-70952685D01*
X98021424Y-71452685D02*
X98021424Y-69952685D01*
X98592852Y-69952685D01*
X98735709Y-70024114D01*
X98807138Y-70095542D01*
X98878566Y-70238399D01*
X98878566Y-70452685D01*
X98807138Y-70595542D01*
X98735709Y-70666971D01*
X98592852Y-70738399D01*
X98021424Y-70738399D01*
X100378566Y-71452685D02*
X99878566Y-70738399D01*
X99521424Y-71452685D02*
X99521424Y-69952685D01*
X100092852Y-69952685D01*
X100235709Y-70024114D01*
X100307138Y-70095542D01*
X100378566Y-70238399D01*
X100378566Y-70452685D01*
X100307138Y-70595542D01*
X100235709Y-70666971D01*
X100092852Y-70738399D01*
X99521424Y-70738399D01*
X101307138Y-69952685D02*
X101592852Y-69952685D01*
X101735709Y-70024114D01*
X101878566Y-70166971D01*
X101949995Y-70452685D01*
X101949995Y-70952685D01*
X101878566Y-71238399D01*
X101735709Y-71381256D01*
X101592852Y-71452685D01*
X101307138Y-71452685D01*
X101164281Y-71381256D01*
X101021424Y-71238399D01*
X100949995Y-70952685D01*
X100949995Y-70452685D01*
X101021424Y-70166971D01*
X101164281Y-70024114D01*
X101307138Y-69952685D01*
X103378566Y-70024114D02*
X103235709Y-69952685D01*
X103021424Y-69952685D01*
X102807138Y-70024114D01*
X102664281Y-70166971D01*
X102592852Y-70309828D01*
X102521424Y-70595542D01*
X102521424Y-70809828D01*
X102592852Y-71095542D01*
X102664281Y-71238399D01*
X102807138Y-71381256D01*
X103021424Y-71452685D01*
X103164281Y-71452685D01*
X103378566Y-71381256D01*
X103449995Y-71309828D01*
X103449995Y-70809828D01*
X103164281Y-70809828D01*
X104949995Y-71452685D02*
X104449995Y-70738399D01*
X104092852Y-71452685D02*
X104092852Y-69952685D01*
X104664281Y-69952685D01*
X104807138Y-70024114D01*
X104878566Y-70095542D01*
X104949995Y-70238399D01*
X104949995Y-70452685D01*
X104878566Y-70595542D01*
X104807138Y-70666971D01*
X104664281Y-70738399D01*
X104092852Y-70738399D01*
X105521424Y-71024114D02*
X106235709Y-71024114D01*
X105378566Y-71452685D02*
X105878566Y-69952685D01*
X106378566Y-71452685D01*
X106878566Y-71452685D02*
X106878566Y-69952685D01*
X107378566Y-71024114D01*
X107878566Y-69952685D01*
X107878566Y-71452685D01*
X108592852Y-71452685D02*
X108592852Y-69952685D01*
X109092852Y-71024114D01*
X109592852Y-69952685D01*
X109592852Y-71452685D01*
X110307138Y-71452685D02*
X110307138Y-69952685D01*
X111021424Y-71452685D02*
X111021424Y-69952685D01*
X111878566Y-71452685D01*
X111878566Y-69952685D01*
X113378566Y-70024114D02*
X113235709Y-69952685D01*
X113021424Y-69952685D01*
X112807138Y-70024114D01*
X112664281Y-70166971D01*
X112592852Y-70309828D01*
X112521424Y-70595542D01*
X112521424Y-70809828D01*
X112592852Y-71095542D01*
X112664281Y-71238399D01*
X112807138Y-71381256D01*
X113021424Y-71452685D01*
X113164281Y-71452685D01*
X113378566Y-71381256D01*
X113449995Y-71309828D01*
X113449995Y-70809828D01*
X113164281Y-70809828D01*
X98307138Y-73834456D02*
X98521424Y-73905885D01*
X98878566Y-73905885D01*
X99021424Y-73834456D01*
X99092852Y-73763028D01*
X99164281Y-73620171D01*
X99164281Y-73477314D01*
X99092852Y-73334456D01*
X99021424Y-73263028D01*
X98878566Y-73191599D01*
X98592852Y-73120171D01*
X98449995Y-73048742D01*
X98378566Y-72977314D01*
X98307138Y-72834456D01*
X98307138Y-72691599D01*
X98378566Y-72548742D01*
X98449995Y-72477314D01*
X98592852Y-72405885D01*
X98949995Y-72405885D01*
X99164281Y-72477314D01*
X100092852Y-72405885D02*
X100378566Y-72405885D01*
X100521424Y-72477314D01*
X100664281Y-72620171D01*
X100735709Y-72905885D01*
X100735709Y-73405885D01*
X100664281Y-73691599D01*
X100521424Y-73834456D01*
X100378566Y-73905885D01*
X100092852Y-73905885D01*
X99949995Y-73834456D01*
X99807138Y-73691599D01*
X99735709Y-73405885D01*
X99735709Y-72905885D01*
X99807138Y-72620171D01*
X99949995Y-72477314D01*
X100092852Y-72405885D01*
X102235709Y-73763028D02*
X102164281Y-73834456D01*
X101949995Y-73905885D01*
X101807138Y-73905885D01*
X101592852Y-73834456D01*
X101449995Y-73691599D01*
X101378566Y-73548742D01*
X101307138Y-73263028D01*
X101307138Y-73048742D01*
X101378566Y-72763028D01*
X101449995Y-72620171D01*
X101592852Y-72477314D01*
X101807138Y-72405885D01*
X101949995Y-72405885D01*
X102164281Y-72477314D01*
X102235709Y-72548742D01*
X102878566Y-73905885D02*
X102878566Y-72405885D01*
X103735709Y-73905885D02*
X103092852Y-73048742D01*
X103735709Y-72405885D02*
X102878566Y-73263028D01*
X104378566Y-73120171D02*
X104878566Y-73120171D01*
X105092852Y-73905885D02*
X104378566Y-73905885D01*
X104378566Y-72405885D01*
X105092852Y-72405885D01*
X105521424Y-72405885D02*
X106378566Y-72405885D01*
X105949995Y-73905885D02*
X105949995Y-72405885D01*
X151873857Y-83693000D02*
X151728714Y-83620428D01*
X151511000Y-83620428D01*
X151293285Y-83693000D01*
X151148142Y-83838142D01*
X151075571Y-83983285D01*
X151003000Y-84273571D01*
X151003000Y-84491285D01*
X151075571Y-84781571D01*
X151148142Y-84926714D01*
X151293285Y-85071857D01*
X151511000Y-85144428D01*
X151656142Y-85144428D01*
X151873857Y-85071857D01*
X151946428Y-84999285D01*
X151946428Y-84491285D01*
X151656142Y-84491285D01*
X152599571Y-85144428D02*
X152599571Y-83620428D01*
X153470428Y-85144428D01*
X153470428Y-83620428D01*
X154196142Y-85144428D02*
X154196142Y-83620428D01*
X154559000Y-83620428D01*
X154776714Y-83693000D01*
X154921857Y-83838142D01*
X154994428Y-83983285D01*
X155067000Y-84273571D01*
X155067000Y-84491285D01*
X154994428Y-84781571D01*
X154921857Y-84926714D01*
X154776714Y-85071857D01*
X154559000Y-85144428D01*
X154196142Y-85144428D01*
X147356285Y-87103857D02*
X148517428Y-87103857D01*
X147936857Y-87684428D02*
X147936857Y-86523285D01*
X150041428Y-87684428D02*
X149170571Y-87684428D01*
X149606000Y-87684428D02*
X149606000Y-86160428D01*
X149460857Y-86378142D01*
X149315714Y-86523285D01*
X149170571Y-86595857D01*
X150622000Y-86305571D02*
X150694571Y-86233000D01*
X150839714Y-86160428D01*
X151202571Y-86160428D01*
X151347714Y-86233000D01*
X151420285Y-86305571D01*
X151492857Y-86450714D01*
X151492857Y-86595857D01*
X151420285Y-86813571D01*
X150549428Y-87684428D01*
X151492857Y-87684428D01*
X152146000Y-87539285D02*
X152218571Y-87611857D01*
X152146000Y-87684428D01*
X152073428Y-87611857D01*
X152146000Y-87539285D01*
X152146000Y-87684428D01*
X153597428Y-86160428D02*
X152871714Y-86160428D01*
X152799142Y-86886142D01*
X152871714Y-86813571D01*
X153016857Y-86741000D01*
X153379714Y-86741000D01*
X153524857Y-86813571D01*
X153597428Y-86886142D01*
X153670000Y-87031285D01*
X153670000Y-87394142D01*
X153597428Y-87539285D01*
X153524857Y-87611857D01*
X153379714Y-87684428D01*
X153016857Y-87684428D01*
X152871714Y-87611857D01*
X152799142Y-87539285D01*
X154105428Y-86160428D02*
X154613428Y-87684428D01*
X155121428Y-86160428D01*
D10*
X140065000Y-75505000D02*
G75*
G02X138065000Y-75505000I-1000000J0D01*
G01*
X138065000Y-75505000D02*
X136415000Y-75505000D01*
X136415000Y-75505000D02*
X136415000Y-95945000D01*
X136415000Y-95945000D02*
X141715000Y-95945000D01*
X141715000Y-95945000D02*
X141715000Y-75505000D01*
X141715000Y-75505000D02*
X140065000Y-75505000D01*
X143090000Y-106565000D02*
X143090000Y-105565000D01*
X141390000Y-105565000D02*
X141390000Y-106565000D01*
X120710000Y-72755000D02*
G75*
G02X120710000Y-70755000I0J1000000D01*
G01*
X120710000Y-70755000D02*
X120710000Y-65295000D01*
X120710000Y-65295000D02*
X85030000Y-65295000D01*
X85030000Y-65295000D02*
X85030000Y-78215000D01*
X85030000Y-78215000D02*
X120710000Y-78215000D01*
X120710000Y-78215000D02*
X120710000Y-72755000D01*
D11*
X97155000Y-90170000D02*
X93345000Y-93980000D01*
X93345000Y-93980000D02*
X93345000Y-113030000D01*
X93345000Y-113030000D02*
X116205000Y-113030000D01*
X116205000Y-113030000D02*
X116205000Y-90170000D01*
X116205000Y-90170000D02*
X97155000Y-90170000D01*
D10*
X130565000Y-109820000D02*
X130565000Y-108620000D01*
X132325000Y-108620000D02*
X132325000Y-109820000D01*
X128025000Y-104105000D02*
X128025000Y-102905000D01*
X129785000Y-102905000D02*
X129785000Y-104105000D01*
X144535000Y-106725000D02*
X144535000Y-105525000D01*
X146295000Y-105525000D02*
X146295000Y-106725000D01*
X156455000Y-97270000D02*
X156455000Y-98470000D01*
X154695000Y-98470000D02*
X154695000Y-97270000D01*
X152645000Y-97270000D02*
X152645000Y-98470000D01*
X150885000Y-98470000D02*
X150885000Y-97270000D01*
X158810000Y-83125000D02*
X156150000Y-83125000D01*
X158810000Y-85725000D02*
X158810000Y-83125000D01*
X156150000Y-85725000D02*
X156150000Y-83125000D01*
X158810000Y-85725000D02*
X156150000Y-85725000D01*
X158810000Y-86995000D02*
X158810000Y-88325000D01*
X158810000Y-88325000D02*
X157480000Y-88325000D01*
X156635000Y-105890000D02*
X154515000Y-105890000D01*
X154515000Y-105890000D02*
X154515000Y-110010000D01*
X154515000Y-110010000D02*
X156635000Y-110010000D01*
X156635000Y-110010000D02*
X156635000Y-105890000D01*
X155575000Y-103850000D02*
X155575000Y-105890000D01*
X155575000Y-112050000D02*
X155575000Y-110010000D01*
X156635000Y-106550000D02*
X154515000Y-106550000D01*
X151555000Y-105890000D02*
X149435000Y-105890000D01*
X149435000Y-105890000D02*
X149435000Y-110010000D01*
X149435000Y-110010000D02*
X151555000Y-110010000D01*
X151555000Y-110010000D02*
X151555000Y-105890000D01*
X150495000Y-103850000D02*
X150495000Y-105890000D01*
X150495000Y-112050000D02*
X150495000Y-110010000D01*
X151555000Y-106550000D02*
X149435000Y-106550000D01*
X123610000Y-98540000D02*
X123610000Y-99540000D01*
X125310000Y-99540000D02*
X125310000Y-98540000D01*
D11*
X138303095Y-73957380D02*
X138303095Y-74766904D01*
X138350714Y-74862142D01*
X138398333Y-74909761D01*
X138493571Y-74957380D01*
X138684047Y-74957380D01*
X138779285Y-74909761D01*
X138826904Y-74862142D01*
X138874523Y-74766904D01*
X138874523Y-73957380D01*
X139779285Y-74290714D02*
X139779285Y-74957380D01*
X139541190Y-73909761D02*
X139303095Y-74624047D01*
X139922142Y-74624047D01*
X144347142Y-106231666D02*
X144394761Y-106279285D01*
X144442380Y-106422142D01*
X144442380Y-106517380D01*
X144394761Y-106660238D01*
X144299523Y-106755476D01*
X144204285Y-106803095D01*
X144013809Y-106850714D01*
X143870952Y-106850714D01*
X143680476Y-106803095D01*
X143585238Y-106755476D01*
X143490000Y-106660238D01*
X143442380Y-106517380D01*
X143442380Y-106422142D01*
X143490000Y-106279285D01*
X143537619Y-106231666D01*
X144442380Y-105279285D02*
X144442380Y-105850714D01*
X144442380Y-105565000D02*
X143442380Y-105565000D01*
X143585238Y-105660238D01*
X143680476Y-105755476D01*
X143728095Y-105850714D01*
X104648095Y-100417380D02*
X104648095Y-101226904D01*
X104695714Y-101322142D01*
X104743333Y-101369761D01*
X104838571Y-101417380D01*
X105029047Y-101417380D01*
X105124285Y-101369761D01*
X105171904Y-101322142D01*
X105219523Y-101226904D01*
X105219523Y-100417380D01*
X105600476Y-100417380D02*
X106219523Y-100417380D01*
X105886190Y-100798333D01*
X106029047Y-100798333D01*
X106124285Y-100845952D01*
X106171904Y-100893571D01*
X106219523Y-100988809D01*
X106219523Y-101226904D01*
X106171904Y-101322142D01*
X106124285Y-101369761D01*
X106029047Y-101417380D01*
X105743333Y-101417380D01*
X105648095Y-101369761D01*
X105600476Y-101322142D01*
X133597380Y-109386666D02*
X133121190Y-109720000D01*
X133597380Y-109958095D02*
X132597380Y-109958095D01*
X132597380Y-109577142D01*
X132645000Y-109481904D01*
X132692619Y-109434285D01*
X132787857Y-109386666D01*
X132930714Y-109386666D01*
X133025952Y-109434285D01*
X133073571Y-109481904D01*
X133121190Y-109577142D01*
X133121190Y-109958095D01*
X132597380Y-108481904D02*
X132597380Y-108958095D01*
X133073571Y-109005714D01*
X133025952Y-108958095D01*
X132978333Y-108862857D01*
X132978333Y-108624761D01*
X133025952Y-108529523D01*
X133073571Y-108481904D01*
X133168809Y-108434285D01*
X133406904Y-108434285D01*
X133502142Y-108481904D01*
X133549761Y-108529523D01*
X133597380Y-108624761D01*
X133597380Y-108862857D01*
X133549761Y-108958095D01*
X133502142Y-109005714D01*
X131057380Y-103671666D02*
X130581190Y-104005000D01*
X131057380Y-104243095D02*
X130057380Y-104243095D01*
X130057380Y-103862142D01*
X130105000Y-103766904D01*
X130152619Y-103719285D01*
X130247857Y-103671666D01*
X130390714Y-103671666D01*
X130485952Y-103719285D01*
X130533571Y-103766904D01*
X130581190Y-103862142D01*
X130581190Y-104243095D01*
X130390714Y-102814523D02*
X131057380Y-102814523D01*
X130009761Y-103052619D02*
X130724047Y-103290714D01*
X130724047Y-102671666D01*
X147567380Y-106291666D02*
X147091190Y-106625000D01*
X147567380Y-106863095D02*
X146567380Y-106863095D01*
X146567380Y-106482142D01*
X146615000Y-106386904D01*
X146662619Y-106339285D01*
X146757857Y-106291666D01*
X146900714Y-106291666D01*
X146995952Y-106339285D01*
X147043571Y-106386904D01*
X147091190Y-106482142D01*
X147091190Y-106863095D01*
X146567380Y-105958333D02*
X146567380Y-105339285D01*
X146948333Y-105672619D01*
X146948333Y-105529761D01*
X146995952Y-105434523D01*
X147043571Y-105386904D01*
X147138809Y-105339285D01*
X147376904Y-105339285D01*
X147472142Y-105386904D01*
X147519761Y-105434523D01*
X147567380Y-105529761D01*
X147567380Y-105815476D01*
X147519761Y-105910714D01*
X147472142Y-105958333D01*
X154327380Y-98036666D02*
X153851190Y-98370000D01*
X154327380Y-98608095D02*
X153327380Y-98608095D01*
X153327380Y-98227142D01*
X153375000Y-98131904D01*
X153422619Y-98084285D01*
X153517857Y-98036666D01*
X153660714Y-98036666D01*
X153755952Y-98084285D01*
X153803571Y-98131904D01*
X153851190Y-98227142D01*
X153851190Y-98608095D01*
X153422619Y-97655714D02*
X153375000Y-97608095D01*
X153327380Y-97512857D01*
X153327380Y-97274761D01*
X153375000Y-97179523D01*
X153422619Y-97131904D01*
X153517857Y-97084285D01*
X153613095Y-97084285D01*
X153755952Y-97131904D01*
X154327380Y-97703333D01*
X154327380Y-97084285D01*
X150517380Y-98036666D02*
X150041190Y-98370000D01*
X150517380Y-98608095D02*
X149517380Y-98608095D01*
X149517380Y-98227142D01*
X149565000Y-98131904D01*
X149612619Y-98084285D01*
X149707857Y-98036666D01*
X149850714Y-98036666D01*
X149945952Y-98084285D01*
X149993571Y-98131904D01*
X150041190Y-98227142D01*
X150041190Y-98608095D01*
X150517380Y-97084285D02*
X150517380Y-97655714D01*
X150517380Y-97370000D02*
X149517380Y-97370000D01*
X149660238Y-97465238D01*
X149755476Y-97560476D01*
X149803095Y-97655714D01*
X157146666Y-88777380D02*
X157146666Y-89491666D01*
X157099047Y-89634523D01*
X157003809Y-89729761D01*
X156860952Y-89777380D01*
X156765714Y-89777380D01*
X158146666Y-89777380D02*
X157575238Y-89777380D01*
X157860952Y-89777380D02*
X157860952Y-88777380D01*
X157765714Y-88920238D01*
X157670476Y-89015476D01*
X157575238Y-89063095D01*
X158087380Y-108688095D02*
X157087380Y-108688095D01*
X157087380Y-108450000D01*
X157135000Y-108307142D01*
X157230238Y-108211904D01*
X157325476Y-108164285D01*
X157515952Y-108116666D01*
X157658809Y-108116666D01*
X157849285Y-108164285D01*
X157944523Y-108211904D01*
X158039761Y-108307142D01*
X158087380Y-108450000D01*
X158087380Y-108688095D01*
X157182619Y-107735714D02*
X157135000Y-107688095D01*
X157087380Y-107592857D01*
X157087380Y-107354761D01*
X157135000Y-107259523D01*
X157182619Y-107211904D01*
X157277857Y-107164285D01*
X157373095Y-107164285D01*
X157515952Y-107211904D01*
X158087380Y-107783333D01*
X158087380Y-107164285D01*
X153007380Y-108688095D02*
X152007380Y-108688095D01*
X152007380Y-108450000D01*
X152055000Y-108307142D01*
X152150238Y-108211904D01*
X152245476Y-108164285D01*
X152435952Y-108116666D01*
X152578809Y-108116666D01*
X152769285Y-108164285D01*
X152864523Y-108211904D01*
X152959761Y-108307142D01*
X153007380Y-108450000D01*
X153007380Y-108688095D01*
X153007380Y-107164285D02*
X153007380Y-107735714D01*
X153007380Y-107450000D02*
X152007380Y-107450000D01*
X152150238Y-107545238D01*
X152245476Y-107640476D01*
X152293095Y-107735714D01*
X123067142Y-99206666D02*
X123114761Y-99254285D01*
X123162380Y-99397142D01*
X123162380Y-99492380D01*
X123114761Y-99635238D01*
X123019523Y-99730476D01*
X122924285Y-99778095D01*
X122733809Y-99825714D01*
X122590952Y-99825714D01*
X122400476Y-99778095D01*
X122305238Y-99730476D01*
X122210000Y-99635238D01*
X122162380Y-99492380D01*
X122162380Y-99397142D01*
X122210000Y-99254285D01*
X122257619Y-99206666D01*
X122257619Y-98825714D02*
X122210000Y-98778095D01*
X122162380Y-98682857D01*
X122162380Y-98444761D01*
X122210000Y-98349523D01*
X122257619Y-98301904D01*
X122352857Y-98254285D01*
X122448095Y-98254285D01*
X122590952Y-98301904D01*
X123162380Y-98873333D01*
X123162380Y-98254285D01*
M02*
