G04 #@! TF.GenerationSoftware,KiCad,Pcbnew,(5.1.2-1)-1*
G04 #@! TF.CreationDate,2019-05-24T19:31:09+01:00*
G04 #@! TF.ProjectId,8840A_CPU_Programmer,38383430-415f-4435-9055-5f50726f6772,rev?*
G04 #@! TF.SameCoordinates,Original*
G04 #@! TF.FileFunction,Copper,L2,Bot*
G04 #@! TF.FilePolarity,Positive*
%FSLAX46Y46*%
G04 Gerber Fmt 4.6, Leading zero omitted, Abs format (unit mm)*
G04 Created by KiCad (PCBNEW (5.1.2-1)-1) date 2019-05-24 19:31:09*
%MOMM*%
%LPD*%
G04 APERTURE LIST*
%ADD10R,1.600000X1.600000*%
%ADD11O,1.600000X1.600000*%
%ADD12R,1.397000X1.397000*%
%ADD13C,1.397000*%
%ADD14R,1.700000X1.700000*%
%ADD15O,1.700000X1.700000*%
%ADD16C,0.800000*%
%ADD17C,0.250000*%
%ADD18C,0.254000*%
G04 APERTURE END LIST*
D10*
X135255000Y-76835000D03*
D11*
X142875000Y-94615000D03*
X135255000Y-79375000D03*
X142875000Y-92075000D03*
X135255000Y-81915000D03*
X142875000Y-89535000D03*
X135255000Y-84455000D03*
X142875000Y-86995000D03*
X135255000Y-86995000D03*
X142875000Y-84455000D03*
X135255000Y-89535000D03*
X142875000Y-81915000D03*
X135255000Y-92075000D03*
X142875000Y-79375000D03*
X135255000Y-94615000D03*
X142875000Y-76835000D03*
D10*
X119380000Y-64135000D03*
D11*
X86360000Y-79375000D03*
X116840000Y-64135000D03*
X88900000Y-79375000D03*
X114300000Y-64135000D03*
X91440000Y-79375000D03*
X111760000Y-64135000D03*
X93980000Y-79375000D03*
X109220000Y-64135000D03*
X96520000Y-79375000D03*
X106680000Y-64135000D03*
X99060000Y-79375000D03*
X104140000Y-64135000D03*
X101600000Y-79375000D03*
X101600000Y-64135000D03*
X104140000Y-79375000D03*
X99060000Y-64135000D03*
X106680000Y-79375000D03*
X96520000Y-64135000D03*
X109220000Y-79375000D03*
X93980000Y-64135000D03*
X111760000Y-79375000D03*
X91440000Y-64135000D03*
X114300000Y-79375000D03*
X88900000Y-64135000D03*
X116840000Y-79375000D03*
X86360000Y-64135000D03*
X119380000Y-79375000D03*
D12*
X106045000Y-95250000D03*
D13*
X103505000Y-92710000D03*
X103505000Y-95250000D03*
X100965000Y-92710000D03*
X100965000Y-95250000D03*
X98425000Y-92710000D03*
X95885000Y-95250000D03*
X98425000Y-95250000D03*
X95885000Y-97790000D03*
X98425000Y-97790000D03*
X95885000Y-100330000D03*
X98425000Y-100330000D03*
X95885000Y-102870000D03*
X98425000Y-102870000D03*
X95885000Y-105410000D03*
X98425000Y-105410000D03*
X95885000Y-107950000D03*
X98425000Y-110490000D03*
X98425000Y-107950000D03*
X100965000Y-110490000D03*
X100965000Y-107950000D03*
X103505000Y-110490000D03*
X103505000Y-107950000D03*
X106045000Y-110490000D03*
X106045000Y-107950000D03*
X108585000Y-110490000D03*
X108585000Y-107950000D03*
X111125000Y-110490000D03*
X113665000Y-107950000D03*
X111125000Y-107950000D03*
X113665000Y-105410000D03*
X111125000Y-105410000D03*
X113665000Y-102870000D03*
X111125000Y-102870000D03*
X113665000Y-100330000D03*
X111125000Y-100330000D03*
X113665000Y-97790000D03*
X111125000Y-97790000D03*
X113665000Y-95250000D03*
X111125000Y-92710000D03*
X111125000Y-95250000D03*
X108585000Y-92710000D03*
X108585000Y-95250000D03*
X106045000Y-92710000D03*
D14*
X157480000Y-86995000D03*
D15*
X157480000Y-84455000D03*
D10*
X155575000Y-102870000D03*
D11*
X155575000Y-113030000D03*
D10*
X150495000Y-102870000D03*
D11*
X150495000Y-113030000D03*
D16*
X145415000Y-87630000D03*
X145415000Y-92075000D03*
X124460000Y-90805000D03*
X85090000Y-89535000D03*
X131445000Y-89535000D03*
X124460000Y-105410000D03*
X128905000Y-76835000D03*
X128905000Y-107950000D03*
X130175000Y-75565000D03*
X127000000Y-110490000D03*
X92710000Y-92710000D03*
X90170000Y-95250000D03*
X87630000Y-93980000D03*
X86360000Y-97790000D03*
X88900000Y-99060000D03*
X91440000Y-104140000D03*
X99695000Y-82550000D03*
X96520000Y-82550000D03*
X97790000Y-68580000D03*
X122555000Y-113030000D03*
X115570000Y-69850000D03*
X115570000Y-106680000D03*
X121285000Y-111760000D03*
X128905000Y-109220000D03*
X107315000Y-96520000D03*
X118110000Y-99060000D03*
X118110000Y-81280000D03*
X116840000Y-95250000D03*
X110490000Y-71120000D03*
X127000000Y-93980000D03*
X127000000Y-74295000D03*
X99060000Y-73660000D03*
X105410000Y-67310000D03*
X119380000Y-104140000D03*
X103505000Y-104140000D03*
D17*
X145415000Y-87630000D02*
X145415000Y-92075000D01*
X103505000Y-89535000D02*
X103505000Y-92710000D01*
X85090000Y-89535000D02*
X103505000Y-89535000D01*
X124460000Y-90805000D02*
X124460000Y-89535000D01*
X103505000Y-89535000D02*
X124460000Y-89535000D01*
X142875000Y-84455000D02*
X153035000Y-84455000D01*
X103505000Y-92710000D02*
X106045000Y-95250000D01*
X124460000Y-89535000D02*
X131445000Y-89535000D01*
X142875000Y-81915000D02*
X142875000Y-84455000D01*
X157480000Y-84455000D02*
X153035000Y-84455000D01*
X124460000Y-105410000D02*
X113665000Y-105410000D01*
X128905000Y-76835000D02*
X104140000Y-76835000D01*
X104140000Y-76835000D02*
X104140000Y-79375000D01*
X113665000Y-107950000D02*
X128905000Y-107950000D01*
X130175000Y-75565000D02*
X99695000Y-75565000D01*
X99060000Y-76200000D02*
X99060000Y-79375000D01*
X99695000Y-75565000D02*
X99060000Y-76200000D01*
X111125000Y-110490000D02*
X127000000Y-110490000D01*
X92710000Y-92710000D02*
X98425000Y-92710000D01*
X90170000Y-95250000D02*
X95885000Y-95250000D01*
X97155000Y-93980000D02*
X98425000Y-95250000D01*
X87630000Y-93980000D02*
X97155000Y-93980000D01*
X86360000Y-97790000D02*
X95885000Y-97790000D01*
X97155000Y-99060000D02*
X98425000Y-97790000D01*
X88900000Y-99060000D02*
X97155000Y-99060000D01*
X97155000Y-104140000D02*
X98425000Y-102870000D01*
X91440000Y-104140000D02*
X97155000Y-104140000D01*
X99695000Y-82550000D02*
X96520000Y-82550000D01*
X106680000Y-68580000D02*
X106680000Y-64135000D01*
X97790000Y-68580000D02*
X106680000Y-68580000D01*
X100965000Y-113030000D02*
X98425000Y-110490000D01*
X122555000Y-113030000D02*
X100965000Y-113030000D01*
X109220000Y-69850000D02*
X109220000Y-64135000D01*
X115570000Y-69850000D02*
X109220000Y-69850000D01*
X98425000Y-107950000D02*
X99695000Y-106680000D01*
X99695000Y-106680000D02*
X115570000Y-106680000D01*
X103787172Y-111760000D02*
X121285000Y-111760000D01*
X103505000Y-111477828D02*
X103787172Y-111760000D01*
X103505000Y-110490000D02*
X103505000Y-111477828D01*
X112395000Y-109220000D02*
X128905000Y-109220000D01*
X111125000Y-107950000D02*
X112395000Y-109220000D01*
X128905000Y-109220000D02*
X136525000Y-109220000D01*
X136525000Y-109220000D02*
X137795000Y-107950000D01*
X136305000Y-76835000D02*
X135255000Y-76835000D01*
X137795000Y-78325000D02*
X136305000Y-76835000D01*
X137795000Y-81915000D02*
X137795000Y-78325000D01*
X135255000Y-81915000D02*
X137795000Y-81915000D01*
X137795000Y-107950000D02*
X137795000Y-81915000D01*
X112395000Y-96520000D02*
X113665000Y-97790000D01*
X112395000Y-96520000D02*
X107315000Y-96520000D01*
X112395000Y-99060000D02*
X118110000Y-99060000D01*
X111125000Y-97790000D02*
X112395000Y-99060000D01*
X118110000Y-81280000D02*
X101600000Y-81280000D01*
X101600000Y-81280000D02*
X101600000Y-79375000D01*
X113665000Y-95250000D02*
X116840000Y-95250000D01*
X96520000Y-71120000D02*
X110490000Y-71120000D01*
X96520000Y-64135000D02*
X96520000Y-71120000D01*
X111125000Y-95250000D02*
X112395000Y-93980000D01*
X112395000Y-93980000D02*
X127000000Y-93980000D01*
X99060000Y-73660000D02*
X99695000Y-74295000D01*
X99695000Y-74295000D02*
X127000000Y-74295000D01*
X105410000Y-67310000D02*
X101600000Y-67310000D01*
X101600000Y-67310000D02*
X101600000Y-64135000D01*
X119380000Y-104140000D02*
X103505000Y-104140000D01*
X119380000Y-79375000D02*
X128905000Y-79375000D01*
X128905000Y-79375000D02*
X133350000Y-74930000D01*
X138430000Y-74930000D02*
X142875000Y-79375000D01*
X133350000Y-74930000D02*
X138430000Y-74930000D01*
D18*
G36*
X84968091Y-63785960D02*
G01*
X85089376Y-64008000D01*
X86233000Y-64008000D01*
X86233000Y-63988000D01*
X86487000Y-63988000D01*
X86487000Y-64008000D01*
X86507000Y-64008000D01*
X86507000Y-64262000D01*
X86487000Y-64262000D01*
X86487000Y-65404915D01*
X86709039Y-65526904D01*
X86843087Y-65486246D01*
X87097420Y-65366037D01*
X87323414Y-65198519D01*
X87512385Y-64990131D01*
X87627421Y-64798318D01*
X87701068Y-64936101D01*
X87880392Y-65154608D01*
X88098899Y-65333932D01*
X88348192Y-65467182D01*
X88618691Y-65549236D01*
X88829508Y-65570000D01*
X88970492Y-65570000D01*
X89181309Y-65549236D01*
X89451808Y-65467182D01*
X89701101Y-65333932D01*
X89919608Y-65154608D01*
X90098932Y-64936101D01*
X90170000Y-64803142D01*
X90241068Y-64936101D01*
X90420392Y-65154608D01*
X90638899Y-65333932D01*
X90888192Y-65467182D01*
X91158691Y-65549236D01*
X91369508Y-65570000D01*
X91510492Y-65570000D01*
X91721309Y-65549236D01*
X91991808Y-65467182D01*
X92241101Y-65333932D01*
X92459608Y-65154608D01*
X92638932Y-64936101D01*
X92710000Y-64803142D01*
X92781068Y-64936101D01*
X92960392Y-65154608D01*
X93178899Y-65333932D01*
X93428192Y-65467182D01*
X93698691Y-65549236D01*
X93909508Y-65570000D01*
X94050492Y-65570000D01*
X94261309Y-65549236D01*
X94531808Y-65467182D01*
X94781101Y-65333932D01*
X94999608Y-65154608D01*
X95178932Y-64936101D01*
X95250000Y-64803142D01*
X95321068Y-64936101D01*
X95500392Y-65154608D01*
X95718899Y-65333932D01*
X95760000Y-65355901D01*
X95760001Y-71082657D01*
X95756323Y-71120000D01*
X95770997Y-71268986D01*
X95814454Y-71412247D01*
X95885026Y-71544276D01*
X95979999Y-71660001D01*
X96095724Y-71754974D01*
X96227753Y-71825546D01*
X96371014Y-71869003D01*
X96482667Y-71880000D01*
X96520000Y-71883677D01*
X96557333Y-71880000D01*
X109786289Y-71880000D01*
X109830226Y-71923937D01*
X109999744Y-72037205D01*
X110188102Y-72115226D01*
X110388061Y-72155000D01*
X110591939Y-72155000D01*
X110791898Y-72115226D01*
X110980256Y-72037205D01*
X111149774Y-71923937D01*
X111293937Y-71779774D01*
X111407205Y-71610256D01*
X111485226Y-71421898D01*
X111525000Y-71221939D01*
X111525000Y-71018061D01*
X111485226Y-70818102D01*
X111407205Y-70629744D01*
X111394013Y-70610000D01*
X114866289Y-70610000D01*
X114910226Y-70653937D01*
X115079744Y-70767205D01*
X115268102Y-70845226D01*
X115468061Y-70885000D01*
X115671939Y-70885000D01*
X115871898Y-70845226D01*
X116060256Y-70767205D01*
X116229774Y-70653937D01*
X116373937Y-70509774D01*
X116487205Y-70340256D01*
X116565226Y-70151898D01*
X116605000Y-69951939D01*
X116605000Y-69748061D01*
X116565226Y-69548102D01*
X116487205Y-69359744D01*
X116373937Y-69190226D01*
X116229774Y-69046063D01*
X116060256Y-68932795D01*
X115871898Y-68854774D01*
X115671939Y-68815000D01*
X115468061Y-68815000D01*
X115268102Y-68854774D01*
X115079744Y-68932795D01*
X114910226Y-69046063D01*
X114866289Y-69090000D01*
X109980000Y-69090000D01*
X109980000Y-65355901D01*
X110021101Y-65333932D01*
X110239608Y-65154608D01*
X110418932Y-64936101D01*
X110490000Y-64803142D01*
X110561068Y-64936101D01*
X110740392Y-65154608D01*
X110958899Y-65333932D01*
X111208192Y-65467182D01*
X111478691Y-65549236D01*
X111689508Y-65570000D01*
X111830492Y-65570000D01*
X112041309Y-65549236D01*
X112311808Y-65467182D01*
X112561101Y-65333932D01*
X112779608Y-65154608D01*
X112958932Y-64936101D01*
X113030000Y-64803142D01*
X113101068Y-64936101D01*
X113280392Y-65154608D01*
X113498899Y-65333932D01*
X113748192Y-65467182D01*
X114018691Y-65549236D01*
X114229508Y-65570000D01*
X114370492Y-65570000D01*
X114581309Y-65549236D01*
X114851808Y-65467182D01*
X115101101Y-65333932D01*
X115319608Y-65154608D01*
X115498932Y-64936101D01*
X115570000Y-64803142D01*
X115641068Y-64936101D01*
X115820392Y-65154608D01*
X116038899Y-65333932D01*
X116288192Y-65467182D01*
X116558691Y-65549236D01*
X116769508Y-65570000D01*
X116910492Y-65570000D01*
X117121309Y-65549236D01*
X117391808Y-65467182D01*
X117641101Y-65333932D01*
X117859608Y-65154608D01*
X117952419Y-65041518D01*
X117954188Y-65059482D01*
X117990498Y-65179180D01*
X118049463Y-65289494D01*
X118128815Y-65386185D01*
X118225506Y-65465537D01*
X118335820Y-65524502D01*
X118455518Y-65560812D01*
X118580000Y-65573072D01*
X120180000Y-65573072D01*
X120304482Y-65560812D01*
X120424180Y-65524502D01*
X120534494Y-65465537D01*
X120625000Y-65391261D01*
X120625001Y-72992571D01*
X120621807Y-73025000D01*
X120634550Y-73154383D01*
X120672290Y-73278793D01*
X120733575Y-73393450D01*
X120816052Y-73493948D01*
X120866074Y-73535000D01*
X100090413Y-73535000D01*
X100055226Y-73358102D01*
X99977205Y-73169744D01*
X99863937Y-73000226D01*
X99719774Y-72856063D01*
X99550256Y-72742795D01*
X99361898Y-72664774D01*
X99161939Y-72625000D01*
X98958061Y-72625000D01*
X98758102Y-72664774D01*
X98569744Y-72742795D01*
X98400226Y-72856063D01*
X98256063Y-73000226D01*
X98142795Y-73169744D01*
X98064774Y-73358102D01*
X98025000Y-73558061D01*
X98025000Y-73761939D01*
X98064774Y-73961898D01*
X98142795Y-74150256D01*
X98256063Y-74319774D01*
X98400226Y-74463937D01*
X98569744Y-74577205D01*
X98758102Y-74655226D01*
X98958061Y-74695000D01*
X99020198Y-74695000D01*
X99131200Y-74806002D01*
X99154999Y-74835001D01*
X99183997Y-74858799D01*
X99270724Y-74929974D01*
X99270773Y-74930000D01*
X99270724Y-74930026D01*
X99154999Y-75024999D01*
X99131200Y-75053998D01*
X98549002Y-75636197D01*
X98519999Y-75659999D01*
X98464871Y-75727174D01*
X98425026Y-75775724D01*
X98381451Y-75857247D01*
X98354454Y-75907754D01*
X98310997Y-76051015D01*
X98300000Y-76162668D01*
X98300000Y-76162678D01*
X98296324Y-76200000D01*
X98300000Y-76237323D01*
X98300001Y-78154099D01*
X98258899Y-78176068D01*
X98040392Y-78355392D01*
X97861068Y-78573899D01*
X97790000Y-78706858D01*
X97718932Y-78573899D01*
X97539608Y-78355392D01*
X97321101Y-78176068D01*
X97071808Y-78042818D01*
X96801309Y-77960764D01*
X96590492Y-77940000D01*
X96449508Y-77940000D01*
X96238691Y-77960764D01*
X95968192Y-78042818D01*
X95718899Y-78176068D01*
X95500392Y-78355392D01*
X95321068Y-78573899D01*
X95250000Y-78706858D01*
X95178932Y-78573899D01*
X94999608Y-78355392D01*
X94781101Y-78176068D01*
X94531808Y-78042818D01*
X94261309Y-77960764D01*
X94050492Y-77940000D01*
X93909508Y-77940000D01*
X93698691Y-77960764D01*
X93428192Y-78042818D01*
X93178899Y-78176068D01*
X92960392Y-78355392D01*
X92781068Y-78573899D01*
X92710000Y-78706858D01*
X92638932Y-78573899D01*
X92459608Y-78355392D01*
X92241101Y-78176068D01*
X91991808Y-78042818D01*
X91721309Y-77960764D01*
X91510492Y-77940000D01*
X91369508Y-77940000D01*
X91158691Y-77960764D01*
X90888192Y-78042818D01*
X90638899Y-78176068D01*
X90420392Y-78355392D01*
X90241068Y-78573899D01*
X90170000Y-78706858D01*
X90098932Y-78573899D01*
X89919608Y-78355392D01*
X89701101Y-78176068D01*
X89451808Y-78042818D01*
X89181309Y-77960764D01*
X88970492Y-77940000D01*
X88829508Y-77940000D01*
X88618691Y-77960764D01*
X88348192Y-78042818D01*
X88098899Y-78176068D01*
X87880392Y-78355392D01*
X87701068Y-78573899D01*
X87630000Y-78706858D01*
X87558932Y-78573899D01*
X87379608Y-78355392D01*
X87161101Y-78176068D01*
X86911808Y-78042818D01*
X86641309Y-77960764D01*
X86430492Y-77940000D01*
X86289508Y-77940000D01*
X86078691Y-77960764D01*
X85808192Y-78042818D01*
X85558899Y-78176068D01*
X85340392Y-78355392D01*
X85161068Y-78573899D01*
X85027818Y-78823192D01*
X84945764Y-79093691D01*
X84918057Y-79375000D01*
X84945764Y-79656309D01*
X85027818Y-79926808D01*
X85161068Y-80176101D01*
X85340392Y-80394608D01*
X85558899Y-80573932D01*
X85808192Y-80707182D01*
X86078691Y-80789236D01*
X86289508Y-80810000D01*
X86430492Y-80810000D01*
X86641309Y-80789236D01*
X86911808Y-80707182D01*
X87161101Y-80573932D01*
X87379608Y-80394608D01*
X87558932Y-80176101D01*
X87630000Y-80043142D01*
X87701068Y-80176101D01*
X87880392Y-80394608D01*
X88098899Y-80573932D01*
X88348192Y-80707182D01*
X88618691Y-80789236D01*
X88829508Y-80810000D01*
X88970492Y-80810000D01*
X89181309Y-80789236D01*
X89451808Y-80707182D01*
X89701101Y-80573932D01*
X89919608Y-80394608D01*
X90098932Y-80176101D01*
X90170000Y-80043142D01*
X90241068Y-80176101D01*
X90420392Y-80394608D01*
X90638899Y-80573932D01*
X90888192Y-80707182D01*
X91158691Y-80789236D01*
X91369508Y-80810000D01*
X91510492Y-80810000D01*
X91721309Y-80789236D01*
X91991808Y-80707182D01*
X92241101Y-80573932D01*
X92459608Y-80394608D01*
X92638932Y-80176101D01*
X92710000Y-80043142D01*
X92781068Y-80176101D01*
X92960392Y-80394608D01*
X93178899Y-80573932D01*
X93428192Y-80707182D01*
X93698691Y-80789236D01*
X93909508Y-80810000D01*
X94050492Y-80810000D01*
X94261309Y-80789236D01*
X94531808Y-80707182D01*
X94781101Y-80573932D01*
X94999608Y-80394608D01*
X95178932Y-80176101D01*
X95250000Y-80043142D01*
X95321068Y-80176101D01*
X95500392Y-80394608D01*
X95718899Y-80573932D01*
X95968192Y-80707182D01*
X96238691Y-80789236D01*
X96449508Y-80810000D01*
X96590492Y-80810000D01*
X96801309Y-80789236D01*
X97071808Y-80707182D01*
X97321101Y-80573932D01*
X97539608Y-80394608D01*
X97718932Y-80176101D01*
X97790000Y-80043142D01*
X97861068Y-80176101D01*
X98040392Y-80394608D01*
X98258899Y-80573932D01*
X98508192Y-80707182D01*
X98778691Y-80789236D01*
X98989508Y-80810000D01*
X99130492Y-80810000D01*
X99341309Y-80789236D01*
X99611808Y-80707182D01*
X99861101Y-80573932D01*
X100079608Y-80394608D01*
X100258932Y-80176101D01*
X100330000Y-80043142D01*
X100401068Y-80176101D01*
X100580392Y-80394608D01*
X100798899Y-80573932D01*
X100840000Y-80595901D01*
X100840000Y-81242667D01*
X100836323Y-81280000D01*
X100850997Y-81428986D01*
X100894454Y-81572247D01*
X100965026Y-81704276D01*
X101035378Y-81790000D01*
X101059999Y-81820001D01*
X101175724Y-81914974D01*
X101307753Y-81985546D01*
X101451014Y-82029003D01*
X101600000Y-82043677D01*
X101637333Y-82040000D01*
X117406289Y-82040000D01*
X117450226Y-82083937D01*
X117619744Y-82197205D01*
X117808102Y-82275226D01*
X118008061Y-82315000D01*
X118211939Y-82315000D01*
X118411898Y-82275226D01*
X118600256Y-82197205D01*
X118769774Y-82083937D01*
X118913937Y-81939774D01*
X119027205Y-81770256D01*
X119105226Y-81581898D01*
X119145000Y-81381939D01*
X119145000Y-81178061D01*
X119105226Y-80978102D01*
X119027205Y-80789744D01*
X119008607Y-80761910D01*
X119098691Y-80789236D01*
X119309508Y-80810000D01*
X119450492Y-80810000D01*
X119661309Y-80789236D01*
X119931808Y-80707182D01*
X120181101Y-80573932D01*
X120399608Y-80394608D01*
X120578932Y-80176101D01*
X120600901Y-80135000D01*
X128867678Y-80135000D01*
X128905000Y-80138676D01*
X128942322Y-80135000D01*
X128942333Y-80135000D01*
X129053986Y-80124003D01*
X129197247Y-80080546D01*
X129329276Y-80009974D01*
X129445001Y-79915001D01*
X129468804Y-79885997D01*
X133664802Y-75690000D01*
X133919388Y-75690000D01*
X133865498Y-75790820D01*
X133829188Y-75910518D01*
X133816928Y-76035000D01*
X133816928Y-77635000D01*
X133829188Y-77759482D01*
X133865498Y-77879180D01*
X133924463Y-77989494D01*
X134003815Y-78086185D01*
X134100506Y-78165537D01*
X134210820Y-78224502D01*
X134330518Y-78260812D01*
X134348482Y-78262581D01*
X134235392Y-78355392D01*
X134056068Y-78573899D01*
X133922818Y-78823192D01*
X133840764Y-79093691D01*
X133813057Y-79375000D01*
X133840764Y-79656309D01*
X133922818Y-79926808D01*
X134056068Y-80176101D01*
X134235392Y-80394608D01*
X134453899Y-80573932D01*
X134586858Y-80645000D01*
X134453899Y-80716068D01*
X134235392Y-80895392D01*
X134056068Y-81113899D01*
X133922818Y-81363192D01*
X133840764Y-81633691D01*
X133813057Y-81915000D01*
X133840764Y-82196309D01*
X133922818Y-82466808D01*
X134056068Y-82716101D01*
X134235392Y-82934608D01*
X134453899Y-83113932D01*
X134591682Y-83187579D01*
X134399869Y-83302615D01*
X134191481Y-83491586D01*
X134023963Y-83717580D01*
X133903754Y-83971913D01*
X133863096Y-84105961D01*
X133985085Y-84328000D01*
X135128000Y-84328000D01*
X135128000Y-84308000D01*
X135382000Y-84308000D01*
X135382000Y-84328000D01*
X136524915Y-84328000D01*
X136646904Y-84105961D01*
X136606246Y-83971913D01*
X136486037Y-83717580D01*
X136318519Y-83491586D01*
X136110131Y-83302615D01*
X135918318Y-83187579D01*
X136056101Y-83113932D01*
X136274608Y-82934608D01*
X136453932Y-82716101D01*
X136475901Y-82675000D01*
X137035001Y-82675000D01*
X137035000Y-107635198D01*
X136210199Y-108460000D01*
X129809013Y-108460000D01*
X129822205Y-108440256D01*
X129900226Y-108251898D01*
X129940000Y-108051939D01*
X129940000Y-107848061D01*
X129900226Y-107648102D01*
X129822205Y-107459744D01*
X129708937Y-107290226D01*
X129564774Y-107146063D01*
X129395256Y-107032795D01*
X129206898Y-106954774D01*
X129006939Y-106915000D01*
X128803061Y-106915000D01*
X128603102Y-106954774D01*
X128414744Y-107032795D01*
X128245226Y-107146063D01*
X128201289Y-107190000D01*
X116474013Y-107190000D01*
X116487205Y-107170256D01*
X116565226Y-106981898D01*
X116605000Y-106781939D01*
X116605000Y-106578061D01*
X116565226Y-106378102D01*
X116487205Y-106189744D01*
X116474013Y-106170000D01*
X123756289Y-106170000D01*
X123800226Y-106213937D01*
X123969744Y-106327205D01*
X124158102Y-106405226D01*
X124358061Y-106445000D01*
X124561939Y-106445000D01*
X124761898Y-106405226D01*
X124950256Y-106327205D01*
X125119774Y-106213937D01*
X125263937Y-106069774D01*
X125377205Y-105900256D01*
X125455226Y-105711898D01*
X125495000Y-105511939D01*
X125495000Y-105308061D01*
X125455226Y-105108102D01*
X125377205Y-104919744D01*
X125263937Y-104750226D01*
X125119774Y-104606063D01*
X124950256Y-104492795D01*
X124761898Y-104414774D01*
X124561939Y-104375000D01*
X124358061Y-104375000D01*
X124158102Y-104414774D01*
X123969744Y-104492795D01*
X123800226Y-104606063D01*
X123756289Y-104650000D01*
X120284013Y-104650000D01*
X120297205Y-104630256D01*
X120375226Y-104441898D01*
X120415000Y-104241939D01*
X120415000Y-104038061D01*
X120375226Y-103838102D01*
X120297205Y-103649744D01*
X120183937Y-103480226D01*
X120039774Y-103336063D01*
X119870256Y-103222795D01*
X119681898Y-103144774D01*
X119481939Y-103105000D01*
X119278061Y-103105000D01*
X119078102Y-103144774D01*
X118889744Y-103222795D01*
X118720226Y-103336063D01*
X118676289Y-103380000D01*
X114897121Y-103380000D01*
X114947254Y-103258968D01*
X114998500Y-103001338D01*
X114998500Y-102738662D01*
X114947254Y-102481032D01*
X114846732Y-102238351D01*
X114700797Y-102019943D01*
X114515057Y-101834203D01*
X114296649Y-101688268D01*
X114083552Y-101600000D01*
X114296649Y-101511732D01*
X114515057Y-101365797D01*
X114700797Y-101180057D01*
X114846732Y-100961649D01*
X114947254Y-100718968D01*
X114998500Y-100461338D01*
X114998500Y-100198662D01*
X114947254Y-99941032D01*
X114897121Y-99820000D01*
X117406289Y-99820000D01*
X117450226Y-99863937D01*
X117619744Y-99977205D01*
X117808102Y-100055226D01*
X118008061Y-100095000D01*
X118211939Y-100095000D01*
X118411898Y-100055226D01*
X118600256Y-99977205D01*
X118769774Y-99863937D01*
X118913937Y-99719774D01*
X119027205Y-99550256D01*
X119105226Y-99361898D01*
X119145000Y-99161939D01*
X119145000Y-98958061D01*
X119105226Y-98758102D01*
X119027205Y-98569744D01*
X118913937Y-98400226D01*
X118769774Y-98256063D01*
X118600256Y-98142795D01*
X118411898Y-98064774D01*
X118211939Y-98025000D01*
X118008061Y-98025000D01*
X117808102Y-98064774D01*
X117619744Y-98142795D01*
X117450226Y-98256063D01*
X117406289Y-98300000D01*
X114897121Y-98300000D01*
X114947254Y-98178968D01*
X114998500Y-97921338D01*
X114998500Y-97658662D01*
X114947254Y-97401032D01*
X114846732Y-97158351D01*
X114700797Y-96939943D01*
X114515057Y-96754203D01*
X114296649Y-96608268D01*
X114083552Y-96520000D01*
X114296649Y-96431732D01*
X114515057Y-96285797D01*
X114700797Y-96100057D01*
X114760971Y-96010000D01*
X116136289Y-96010000D01*
X116180226Y-96053937D01*
X116349744Y-96167205D01*
X116538102Y-96245226D01*
X116738061Y-96285000D01*
X116941939Y-96285000D01*
X117141898Y-96245226D01*
X117330256Y-96167205D01*
X117499774Y-96053937D01*
X117643937Y-95909774D01*
X117757205Y-95740256D01*
X117835226Y-95551898D01*
X117875000Y-95351939D01*
X117875000Y-95148061D01*
X117835226Y-94948102D01*
X117757205Y-94759744D01*
X117744013Y-94740000D01*
X126296289Y-94740000D01*
X126340226Y-94783937D01*
X126509744Y-94897205D01*
X126698102Y-94975226D01*
X126898061Y-95015000D01*
X127101939Y-95015000D01*
X127301898Y-94975226D01*
X127490256Y-94897205D01*
X127659774Y-94783937D01*
X127803937Y-94639774D01*
X127917205Y-94470256D01*
X127995226Y-94281898D01*
X128035000Y-94081939D01*
X128035000Y-93878061D01*
X127995226Y-93678102D01*
X127917205Y-93489744D01*
X127803937Y-93320226D01*
X127659774Y-93176063D01*
X127490256Y-93062795D01*
X127301898Y-92984774D01*
X127101939Y-92945000D01*
X126898061Y-92945000D01*
X126698102Y-92984774D01*
X126509744Y-93062795D01*
X126340226Y-93176063D01*
X126296289Y-93220000D01*
X112432322Y-93220000D01*
X112394999Y-93216324D01*
X112357676Y-93220000D01*
X112357667Y-93220000D01*
X112357098Y-93220056D01*
X112407254Y-93098968D01*
X112458500Y-92841338D01*
X112458500Y-92578662D01*
X112407254Y-92321032D01*
X112306732Y-92078351D01*
X112160797Y-91859943D01*
X111975057Y-91674203D01*
X111756649Y-91528268D01*
X111513968Y-91427746D01*
X111256338Y-91376500D01*
X110993662Y-91376500D01*
X110736032Y-91427746D01*
X110493351Y-91528268D01*
X110274943Y-91674203D01*
X110089203Y-91859943D01*
X109943268Y-92078351D01*
X109855000Y-92291448D01*
X109766732Y-92078351D01*
X109620797Y-91859943D01*
X109435057Y-91674203D01*
X109216649Y-91528268D01*
X108973968Y-91427746D01*
X108716338Y-91376500D01*
X108453662Y-91376500D01*
X108196032Y-91427746D01*
X107953351Y-91528268D01*
X107734943Y-91674203D01*
X107549203Y-91859943D01*
X107403268Y-92078351D01*
X107315000Y-92291448D01*
X107226732Y-92078351D01*
X107080797Y-91859943D01*
X106895057Y-91674203D01*
X106676649Y-91528268D01*
X106433968Y-91427746D01*
X106176338Y-91376500D01*
X105913662Y-91376500D01*
X105656032Y-91427746D01*
X105413351Y-91528268D01*
X105194943Y-91674203D01*
X105009203Y-91859943D01*
X104863268Y-92078351D01*
X104773293Y-92295570D01*
X104712514Y-92129158D01*
X104658812Y-92028686D01*
X104425197Y-91969408D01*
X103684605Y-92710000D01*
X104425197Y-93450592D01*
X104658812Y-93391314D01*
X104769559Y-93153125D01*
X104775342Y-93129378D01*
X104863268Y-93341649D01*
X105009203Y-93560057D01*
X105194943Y-93745797D01*
X105413351Y-93891732D01*
X105467911Y-93914332D01*
X105346500Y-93913428D01*
X105222018Y-93925688D01*
X105102320Y-93961998D01*
X104992006Y-94020963D01*
X104895315Y-94100315D01*
X104815963Y-94197006D01*
X104756998Y-94307320D01*
X104720688Y-94427018D01*
X104708428Y-94551500D01*
X104709332Y-94672911D01*
X104686732Y-94618351D01*
X104540797Y-94399943D01*
X104355057Y-94214203D01*
X104136649Y-94068268D01*
X103919430Y-93978293D01*
X104085842Y-93917514D01*
X104186314Y-93863812D01*
X104245592Y-93630197D01*
X103505000Y-92889605D01*
X102764408Y-93630197D01*
X102823686Y-93863812D01*
X103061875Y-93974559D01*
X103085622Y-93980342D01*
X102873351Y-94068268D01*
X102654943Y-94214203D01*
X102469203Y-94399943D01*
X102323268Y-94618351D01*
X102235000Y-94831448D01*
X102146732Y-94618351D01*
X102000797Y-94399943D01*
X101815057Y-94214203D01*
X101596649Y-94068268D01*
X101383552Y-93980000D01*
X101596649Y-93891732D01*
X101815057Y-93745797D01*
X102000797Y-93560057D01*
X102146732Y-93341649D01*
X102236707Y-93124430D01*
X102297486Y-93290842D01*
X102351188Y-93391314D01*
X102584803Y-93450592D01*
X103325395Y-92710000D01*
X102584803Y-91969408D01*
X102351188Y-92028686D01*
X102240441Y-92266875D01*
X102234658Y-92290622D01*
X102146732Y-92078351D01*
X102000797Y-91859943D01*
X101930657Y-91789803D01*
X102764408Y-91789803D01*
X103505000Y-92530395D01*
X104245592Y-91789803D01*
X104186314Y-91556188D01*
X103948125Y-91445441D01*
X103692907Y-91383289D01*
X103430467Y-91372124D01*
X103170893Y-91412371D01*
X102924158Y-91502486D01*
X102823686Y-91556188D01*
X102764408Y-91789803D01*
X101930657Y-91789803D01*
X101815057Y-91674203D01*
X101596649Y-91528268D01*
X101353968Y-91427746D01*
X101096338Y-91376500D01*
X100833662Y-91376500D01*
X100576032Y-91427746D01*
X100333351Y-91528268D01*
X100114943Y-91674203D01*
X99929203Y-91859943D01*
X99783268Y-92078351D01*
X99695000Y-92291448D01*
X99606732Y-92078351D01*
X99460797Y-91859943D01*
X99275057Y-91674203D01*
X99056649Y-91528268D01*
X98813968Y-91427746D01*
X98556338Y-91376500D01*
X98293662Y-91376500D01*
X98036032Y-91427746D01*
X97793351Y-91528268D01*
X97574943Y-91674203D01*
X97389203Y-91859943D01*
X97329029Y-91950000D01*
X93413711Y-91950000D01*
X93369774Y-91906063D01*
X93200256Y-91792795D01*
X93011898Y-91714774D01*
X92811939Y-91675000D01*
X92608061Y-91675000D01*
X92408102Y-91714774D01*
X92219744Y-91792795D01*
X92050226Y-91906063D01*
X91906063Y-92050226D01*
X91792795Y-92219744D01*
X91714774Y-92408102D01*
X91675000Y-92608061D01*
X91675000Y-92811939D01*
X91714774Y-93011898D01*
X91792795Y-93200256D01*
X91805987Y-93220000D01*
X88333711Y-93220000D01*
X88289774Y-93176063D01*
X88120256Y-93062795D01*
X87931898Y-92984774D01*
X87731939Y-92945000D01*
X87528061Y-92945000D01*
X87328102Y-92984774D01*
X87139744Y-93062795D01*
X86970226Y-93176063D01*
X86826063Y-93320226D01*
X86712795Y-93489744D01*
X86634774Y-93678102D01*
X86595000Y-93878061D01*
X86595000Y-94081939D01*
X86634774Y-94281898D01*
X86712795Y-94470256D01*
X86826063Y-94639774D01*
X86970226Y-94783937D01*
X87139744Y-94897205D01*
X87328102Y-94975226D01*
X87528061Y-95015000D01*
X87731939Y-95015000D01*
X87931898Y-94975226D01*
X88120256Y-94897205D01*
X88289774Y-94783937D01*
X88333711Y-94740000D01*
X89265987Y-94740000D01*
X89252795Y-94759744D01*
X89174774Y-94948102D01*
X89135000Y-95148061D01*
X89135000Y-95351939D01*
X89174774Y-95551898D01*
X89252795Y-95740256D01*
X89366063Y-95909774D01*
X89510226Y-96053937D01*
X89679744Y-96167205D01*
X89868102Y-96245226D01*
X90068061Y-96285000D01*
X90271939Y-96285000D01*
X90471898Y-96245226D01*
X90660256Y-96167205D01*
X90829774Y-96053937D01*
X90873711Y-96010000D01*
X94789029Y-96010000D01*
X94849203Y-96100057D01*
X95034943Y-96285797D01*
X95253351Y-96431732D01*
X95466448Y-96520000D01*
X95253351Y-96608268D01*
X95034943Y-96754203D01*
X94849203Y-96939943D01*
X94789029Y-97030000D01*
X87063711Y-97030000D01*
X87019774Y-96986063D01*
X86850256Y-96872795D01*
X86661898Y-96794774D01*
X86461939Y-96755000D01*
X86258061Y-96755000D01*
X86058102Y-96794774D01*
X85869744Y-96872795D01*
X85700226Y-96986063D01*
X85556063Y-97130226D01*
X85442795Y-97299744D01*
X85364774Y-97488102D01*
X85325000Y-97688061D01*
X85325000Y-97891939D01*
X85364774Y-98091898D01*
X85442795Y-98280256D01*
X85556063Y-98449774D01*
X85700226Y-98593937D01*
X85869744Y-98707205D01*
X86058102Y-98785226D01*
X86258061Y-98825000D01*
X86461939Y-98825000D01*
X86661898Y-98785226D01*
X86850256Y-98707205D01*
X87019774Y-98593937D01*
X87063711Y-98550000D01*
X87995987Y-98550000D01*
X87982795Y-98569744D01*
X87904774Y-98758102D01*
X87865000Y-98958061D01*
X87865000Y-99161939D01*
X87904774Y-99361898D01*
X87982795Y-99550256D01*
X88096063Y-99719774D01*
X88240226Y-99863937D01*
X88409744Y-99977205D01*
X88598102Y-100055226D01*
X88798061Y-100095000D01*
X89001939Y-100095000D01*
X89201898Y-100055226D01*
X89390256Y-99977205D01*
X89559774Y-99863937D01*
X89603711Y-99820000D01*
X94652879Y-99820000D01*
X94602746Y-99941032D01*
X94551500Y-100198662D01*
X94551500Y-100461338D01*
X94602746Y-100718968D01*
X94703268Y-100961649D01*
X94849203Y-101180057D01*
X95034943Y-101365797D01*
X95253351Y-101511732D01*
X95466448Y-101600000D01*
X95253351Y-101688268D01*
X95034943Y-101834203D01*
X94849203Y-102019943D01*
X94703268Y-102238351D01*
X94602746Y-102481032D01*
X94551500Y-102738662D01*
X94551500Y-103001338D01*
X94602746Y-103258968D01*
X94652879Y-103380000D01*
X92143711Y-103380000D01*
X92099774Y-103336063D01*
X91930256Y-103222795D01*
X91741898Y-103144774D01*
X91541939Y-103105000D01*
X91338061Y-103105000D01*
X91138102Y-103144774D01*
X90949744Y-103222795D01*
X90780226Y-103336063D01*
X90636063Y-103480226D01*
X90522795Y-103649744D01*
X90444774Y-103838102D01*
X90405000Y-104038061D01*
X90405000Y-104241939D01*
X90444774Y-104441898D01*
X90522795Y-104630256D01*
X90636063Y-104799774D01*
X90780226Y-104943937D01*
X90949744Y-105057205D01*
X91138102Y-105135226D01*
X91338061Y-105175000D01*
X91541939Y-105175000D01*
X91741898Y-105135226D01*
X91930256Y-105057205D01*
X92099774Y-104943937D01*
X92143711Y-104900000D01*
X94652879Y-104900000D01*
X94602746Y-105021032D01*
X94551500Y-105278662D01*
X94551500Y-105541338D01*
X94602746Y-105798968D01*
X94703268Y-106041649D01*
X94849203Y-106260057D01*
X95034943Y-106445797D01*
X95253351Y-106591732D01*
X95466448Y-106680000D01*
X95253351Y-106768268D01*
X95034943Y-106914203D01*
X94849203Y-107099943D01*
X94703268Y-107318351D01*
X94602746Y-107561032D01*
X94551500Y-107818662D01*
X94551500Y-108081338D01*
X94602746Y-108338968D01*
X94703268Y-108581649D01*
X94849203Y-108800057D01*
X95034943Y-108985797D01*
X95253351Y-109131732D01*
X95496032Y-109232254D01*
X95753662Y-109283500D01*
X96016338Y-109283500D01*
X96273968Y-109232254D01*
X96516649Y-109131732D01*
X96735057Y-108985797D01*
X96920797Y-108800057D01*
X97066732Y-108581649D01*
X97155000Y-108368552D01*
X97243268Y-108581649D01*
X97389203Y-108800057D01*
X97574943Y-108985797D01*
X97793351Y-109131732D01*
X98006448Y-109220000D01*
X97793351Y-109308268D01*
X97574943Y-109454203D01*
X97389203Y-109639943D01*
X97243268Y-109858351D01*
X97142746Y-110101032D01*
X97091500Y-110358662D01*
X97091500Y-110621338D01*
X97142746Y-110878968D01*
X97243268Y-111121649D01*
X97389203Y-111340057D01*
X97574943Y-111525797D01*
X97793351Y-111671732D01*
X98036032Y-111772254D01*
X98293662Y-111823500D01*
X98556338Y-111823500D01*
X98662568Y-111802369D01*
X100401205Y-113541008D01*
X100424999Y-113570001D01*
X100453992Y-113593795D01*
X100453996Y-113593799D01*
X100515022Y-113643881D01*
X100540724Y-113664974D01*
X100672753Y-113735546D01*
X100816014Y-113779003D01*
X100927667Y-113790000D01*
X100927676Y-113790000D01*
X100964999Y-113793676D01*
X101002322Y-113790000D01*
X121851289Y-113790000D01*
X121895226Y-113833937D01*
X122064744Y-113947205D01*
X122253102Y-114025226D01*
X122453061Y-114065000D01*
X122656939Y-114065000D01*
X122856898Y-114025226D01*
X123045256Y-113947205D01*
X123214774Y-113833937D01*
X123358937Y-113689774D01*
X123472205Y-113520256D01*
X123530699Y-113379040D01*
X149103091Y-113379040D01*
X149197930Y-113643881D01*
X149342615Y-113885131D01*
X149531586Y-114093519D01*
X149757580Y-114261037D01*
X150011913Y-114381246D01*
X150145961Y-114421904D01*
X150368000Y-114299915D01*
X150368000Y-113157000D01*
X150622000Y-113157000D01*
X150622000Y-114299915D01*
X150844039Y-114421904D01*
X150978087Y-114381246D01*
X151232420Y-114261037D01*
X151458414Y-114093519D01*
X151647385Y-113885131D01*
X151792070Y-113643881D01*
X151886909Y-113379040D01*
X154183091Y-113379040D01*
X154277930Y-113643881D01*
X154422615Y-113885131D01*
X154611586Y-114093519D01*
X154837580Y-114261037D01*
X155091913Y-114381246D01*
X155225961Y-114421904D01*
X155448000Y-114299915D01*
X155448000Y-113157000D01*
X155702000Y-113157000D01*
X155702000Y-114299915D01*
X155924039Y-114421904D01*
X156058087Y-114381246D01*
X156312420Y-114261037D01*
X156538414Y-114093519D01*
X156727385Y-113885131D01*
X156872070Y-113643881D01*
X156966909Y-113379040D01*
X156845624Y-113157000D01*
X155702000Y-113157000D01*
X155448000Y-113157000D01*
X154304376Y-113157000D01*
X154183091Y-113379040D01*
X151886909Y-113379040D01*
X151765624Y-113157000D01*
X150622000Y-113157000D01*
X150368000Y-113157000D01*
X149224376Y-113157000D01*
X149103091Y-113379040D01*
X123530699Y-113379040D01*
X123550226Y-113331898D01*
X123590000Y-113131939D01*
X123590000Y-112928061D01*
X123550226Y-112728102D01*
X123530700Y-112680960D01*
X149103091Y-112680960D01*
X149224376Y-112903000D01*
X150368000Y-112903000D01*
X150368000Y-111760085D01*
X150622000Y-111760085D01*
X150622000Y-112903000D01*
X151765624Y-112903000D01*
X151886909Y-112680960D01*
X154183091Y-112680960D01*
X154304376Y-112903000D01*
X155448000Y-112903000D01*
X155448000Y-111760085D01*
X155702000Y-111760085D01*
X155702000Y-112903000D01*
X156845624Y-112903000D01*
X156966909Y-112680960D01*
X156872070Y-112416119D01*
X156727385Y-112174869D01*
X156538414Y-111966481D01*
X156312420Y-111798963D01*
X156058087Y-111678754D01*
X155924039Y-111638096D01*
X155702000Y-111760085D01*
X155448000Y-111760085D01*
X155225961Y-111638096D01*
X155091913Y-111678754D01*
X154837580Y-111798963D01*
X154611586Y-111966481D01*
X154422615Y-112174869D01*
X154277930Y-112416119D01*
X154183091Y-112680960D01*
X151886909Y-112680960D01*
X151792070Y-112416119D01*
X151647385Y-112174869D01*
X151458414Y-111966481D01*
X151232420Y-111798963D01*
X150978087Y-111678754D01*
X150844039Y-111638096D01*
X150622000Y-111760085D01*
X150368000Y-111760085D01*
X150145961Y-111638096D01*
X150011913Y-111678754D01*
X149757580Y-111798963D01*
X149531586Y-111966481D01*
X149342615Y-112174869D01*
X149197930Y-112416119D01*
X149103091Y-112680960D01*
X123530700Y-112680960D01*
X123472205Y-112539744D01*
X123358937Y-112370226D01*
X123214774Y-112226063D01*
X123045256Y-112112795D01*
X122856898Y-112034774D01*
X122656939Y-111995000D01*
X122453061Y-111995000D01*
X122286961Y-112028039D01*
X122320000Y-111861939D01*
X122320000Y-111658061D01*
X122280226Y-111458102D01*
X122202205Y-111269744D01*
X122189013Y-111250000D01*
X126296289Y-111250000D01*
X126340226Y-111293937D01*
X126509744Y-111407205D01*
X126698102Y-111485226D01*
X126898061Y-111525000D01*
X127101939Y-111525000D01*
X127301898Y-111485226D01*
X127490256Y-111407205D01*
X127659774Y-111293937D01*
X127803937Y-111149774D01*
X127917205Y-110980256D01*
X127995226Y-110791898D01*
X128035000Y-110591939D01*
X128035000Y-110388061D01*
X127995226Y-110188102D01*
X127917205Y-109999744D01*
X127904013Y-109980000D01*
X128201289Y-109980000D01*
X128245226Y-110023937D01*
X128414744Y-110137205D01*
X128603102Y-110215226D01*
X128803061Y-110255000D01*
X129006939Y-110255000D01*
X129206898Y-110215226D01*
X129395256Y-110137205D01*
X129564774Y-110023937D01*
X129608711Y-109980000D01*
X136487678Y-109980000D01*
X136525000Y-109983676D01*
X136562322Y-109980000D01*
X136562333Y-109980000D01*
X136673986Y-109969003D01*
X136817247Y-109925546D01*
X136949276Y-109854974D01*
X137065001Y-109760001D01*
X137088804Y-109730997D01*
X138306004Y-108513798D01*
X138335001Y-108490001D01*
X138429974Y-108374276D01*
X138500546Y-108242247D01*
X138544003Y-108098986D01*
X138555000Y-107987333D01*
X138555000Y-107987324D01*
X138558676Y-107950001D01*
X138555000Y-107912678D01*
X138555000Y-102070000D01*
X149056928Y-102070000D01*
X149056928Y-103670000D01*
X149069188Y-103794482D01*
X149105498Y-103914180D01*
X149164463Y-104024494D01*
X149243815Y-104121185D01*
X149340506Y-104200537D01*
X149450820Y-104259502D01*
X149570518Y-104295812D01*
X149695000Y-104308072D01*
X151295000Y-104308072D01*
X151419482Y-104295812D01*
X151539180Y-104259502D01*
X151649494Y-104200537D01*
X151746185Y-104121185D01*
X151825537Y-104024494D01*
X151884502Y-103914180D01*
X151920812Y-103794482D01*
X151933072Y-103670000D01*
X151933072Y-102070000D01*
X154136928Y-102070000D01*
X154136928Y-103670000D01*
X154149188Y-103794482D01*
X154185498Y-103914180D01*
X154244463Y-104024494D01*
X154323815Y-104121185D01*
X154420506Y-104200537D01*
X154530820Y-104259502D01*
X154650518Y-104295812D01*
X154775000Y-104308072D01*
X156375000Y-104308072D01*
X156499482Y-104295812D01*
X156619180Y-104259502D01*
X156729494Y-104200537D01*
X156826185Y-104121185D01*
X156905537Y-104024494D01*
X156964502Y-103914180D01*
X157000812Y-103794482D01*
X157013072Y-103670000D01*
X157013072Y-102070000D01*
X157000812Y-101945518D01*
X156964502Y-101825820D01*
X156905537Y-101715506D01*
X156826185Y-101618815D01*
X156729494Y-101539463D01*
X156619180Y-101480498D01*
X156499482Y-101444188D01*
X156375000Y-101431928D01*
X154775000Y-101431928D01*
X154650518Y-101444188D01*
X154530820Y-101480498D01*
X154420506Y-101539463D01*
X154323815Y-101618815D01*
X154244463Y-101715506D01*
X154185498Y-101825820D01*
X154149188Y-101945518D01*
X154136928Y-102070000D01*
X151933072Y-102070000D01*
X151920812Y-101945518D01*
X151884502Y-101825820D01*
X151825537Y-101715506D01*
X151746185Y-101618815D01*
X151649494Y-101539463D01*
X151539180Y-101480498D01*
X151419482Y-101444188D01*
X151295000Y-101431928D01*
X149695000Y-101431928D01*
X149570518Y-101444188D01*
X149450820Y-101480498D01*
X149340506Y-101539463D01*
X149243815Y-101618815D01*
X149164463Y-101715506D01*
X149105498Y-101825820D01*
X149069188Y-101945518D01*
X149056928Y-102070000D01*
X138555000Y-102070000D01*
X138555000Y-86995000D01*
X141433057Y-86995000D01*
X141460764Y-87276309D01*
X141542818Y-87546808D01*
X141676068Y-87796101D01*
X141855392Y-88014608D01*
X142073899Y-88193932D01*
X142206858Y-88265000D01*
X142073899Y-88336068D01*
X141855392Y-88515392D01*
X141676068Y-88733899D01*
X141542818Y-88983192D01*
X141460764Y-89253691D01*
X141433057Y-89535000D01*
X141460764Y-89816309D01*
X141542818Y-90086808D01*
X141676068Y-90336101D01*
X141855392Y-90554608D01*
X142073899Y-90733932D01*
X142206858Y-90805000D01*
X142073899Y-90876068D01*
X141855392Y-91055392D01*
X141676068Y-91273899D01*
X141542818Y-91523192D01*
X141460764Y-91793691D01*
X141433057Y-92075000D01*
X141460764Y-92356309D01*
X141542818Y-92626808D01*
X141676068Y-92876101D01*
X141855392Y-93094608D01*
X142073899Y-93273932D01*
X142206858Y-93345000D01*
X142073899Y-93416068D01*
X141855392Y-93595392D01*
X141676068Y-93813899D01*
X141542818Y-94063192D01*
X141460764Y-94333691D01*
X141433057Y-94615000D01*
X141460764Y-94896309D01*
X141542818Y-95166808D01*
X141676068Y-95416101D01*
X141855392Y-95634608D01*
X142073899Y-95813932D01*
X142323192Y-95947182D01*
X142593691Y-96029236D01*
X142804508Y-96050000D01*
X142945492Y-96050000D01*
X143156309Y-96029236D01*
X143426808Y-95947182D01*
X143676101Y-95813932D01*
X143894608Y-95634608D01*
X144073932Y-95416101D01*
X144207182Y-95166808D01*
X144289236Y-94896309D01*
X144316943Y-94615000D01*
X144289236Y-94333691D01*
X144207182Y-94063192D01*
X144073932Y-93813899D01*
X143894608Y-93595392D01*
X143676101Y-93416068D01*
X143543142Y-93345000D01*
X143676101Y-93273932D01*
X143894608Y-93094608D01*
X144073932Y-92876101D01*
X144207182Y-92626808D01*
X144289236Y-92356309D01*
X144316943Y-92075000D01*
X144289236Y-91793691D01*
X144207182Y-91523192D01*
X144073932Y-91273899D01*
X143894608Y-91055392D01*
X143676101Y-90876068D01*
X143543142Y-90805000D01*
X143676101Y-90733932D01*
X143894608Y-90554608D01*
X144073932Y-90336101D01*
X144207182Y-90086808D01*
X144289236Y-89816309D01*
X144316943Y-89535000D01*
X144289236Y-89253691D01*
X144207182Y-88983192D01*
X144073932Y-88733899D01*
X143894608Y-88515392D01*
X143676101Y-88336068D01*
X143543142Y-88265000D01*
X143676101Y-88193932D01*
X143894608Y-88014608D01*
X144073932Y-87796101D01*
X144207182Y-87546808D01*
X144212868Y-87528061D01*
X144380000Y-87528061D01*
X144380000Y-87731939D01*
X144419774Y-87931898D01*
X144497795Y-88120256D01*
X144611063Y-88289774D01*
X144655000Y-88333711D01*
X144655001Y-91371288D01*
X144611063Y-91415226D01*
X144497795Y-91584744D01*
X144419774Y-91773102D01*
X144380000Y-91973061D01*
X144380000Y-92176939D01*
X144419774Y-92376898D01*
X144497795Y-92565256D01*
X144611063Y-92734774D01*
X144755226Y-92878937D01*
X144924744Y-92992205D01*
X145113102Y-93070226D01*
X145313061Y-93110000D01*
X145516939Y-93110000D01*
X145716898Y-93070226D01*
X145905256Y-92992205D01*
X146074774Y-92878937D01*
X146218937Y-92734774D01*
X146332205Y-92565256D01*
X146410226Y-92376898D01*
X146450000Y-92176939D01*
X146450000Y-91973061D01*
X146410226Y-91773102D01*
X146332205Y-91584744D01*
X146218937Y-91415226D01*
X146175000Y-91371289D01*
X146175000Y-88333711D01*
X146218937Y-88289774D01*
X146332205Y-88120256D01*
X146410226Y-87931898D01*
X146450000Y-87731939D01*
X146450000Y-87528061D01*
X146410226Y-87328102D01*
X146332205Y-87139744D01*
X146218937Y-86970226D01*
X146074774Y-86826063D01*
X145905256Y-86712795D01*
X145716898Y-86634774D01*
X145516939Y-86595000D01*
X145313061Y-86595000D01*
X145113102Y-86634774D01*
X144924744Y-86712795D01*
X144755226Y-86826063D01*
X144611063Y-86970226D01*
X144497795Y-87139744D01*
X144419774Y-87328102D01*
X144380000Y-87528061D01*
X144212868Y-87528061D01*
X144289236Y-87276309D01*
X144316943Y-86995000D01*
X144289236Y-86713691D01*
X144207182Y-86443192D01*
X144073932Y-86193899D01*
X144033802Y-86145000D01*
X155991928Y-86145000D01*
X155991928Y-87845000D01*
X156004188Y-87969482D01*
X156040498Y-88089180D01*
X156099463Y-88199494D01*
X156178815Y-88296185D01*
X156275506Y-88375537D01*
X156385820Y-88434502D01*
X156505518Y-88470812D01*
X156630000Y-88483072D01*
X158330000Y-88483072D01*
X158454482Y-88470812D01*
X158574180Y-88434502D01*
X158684494Y-88375537D01*
X158781185Y-88296185D01*
X158860537Y-88199494D01*
X158919502Y-88089180D01*
X158955812Y-87969482D01*
X158968072Y-87845000D01*
X158968072Y-86145000D01*
X158955812Y-86020518D01*
X158919502Y-85900820D01*
X158860537Y-85790506D01*
X158781185Y-85693815D01*
X158684494Y-85614463D01*
X158574180Y-85555498D01*
X158493534Y-85531034D01*
X158577588Y-85455269D01*
X158751641Y-85221920D01*
X158876825Y-84959099D01*
X158921476Y-84811890D01*
X158800155Y-84582000D01*
X157607000Y-84582000D01*
X157607000Y-84602000D01*
X157353000Y-84602000D01*
X157353000Y-84582000D01*
X156159845Y-84582000D01*
X156038524Y-84811890D01*
X156083175Y-84959099D01*
X156208359Y-85221920D01*
X156382412Y-85455269D01*
X156466466Y-85531034D01*
X156385820Y-85555498D01*
X156275506Y-85614463D01*
X156178815Y-85693815D01*
X156099463Y-85790506D01*
X156040498Y-85900820D01*
X156004188Y-86020518D01*
X155991928Y-86145000D01*
X144033802Y-86145000D01*
X143894608Y-85975392D01*
X143676101Y-85796068D01*
X143538318Y-85722421D01*
X143730131Y-85607385D01*
X143938519Y-85418414D01*
X144106037Y-85192420D01*
X144226246Y-84938087D01*
X144266904Y-84804039D01*
X144144915Y-84582000D01*
X143002000Y-84582000D01*
X143002000Y-84602000D01*
X142748000Y-84602000D01*
X142748000Y-84582000D01*
X141605085Y-84582000D01*
X141483096Y-84804039D01*
X141523754Y-84938087D01*
X141643963Y-85192420D01*
X141811481Y-85418414D01*
X142019869Y-85607385D01*
X142211682Y-85722421D01*
X142073899Y-85796068D01*
X141855392Y-85975392D01*
X141676068Y-86193899D01*
X141542818Y-86443192D01*
X141460764Y-86713691D01*
X141433057Y-86995000D01*
X138555000Y-86995000D01*
X138555000Y-82264039D01*
X141483096Y-82264039D01*
X141523754Y-82398087D01*
X141643963Y-82652420D01*
X141811481Y-82878414D01*
X142019869Y-83067385D01*
X142215982Y-83185000D01*
X142019869Y-83302615D01*
X141811481Y-83491586D01*
X141643963Y-83717580D01*
X141523754Y-83971913D01*
X141483096Y-84105961D01*
X141605085Y-84328000D01*
X142748000Y-84328000D01*
X142748000Y-82042000D01*
X143002000Y-82042000D01*
X143002000Y-84328000D01*
X144144915Y-84328000D01*
X144266904Y-84105961D01*
X144264523Y-84098110D01*
X156038524Y-84098110D01*
X156159845Y-84328000D01*
X157353000Y-84328000D01*
X157353000Y-83134186D01*
X157607000Y-83134186D01*
X157607000Y-84328000D01*
X158800155Y-84328000D01*
X158921476Y-84098110D01*
X158876825Y-83950901D01*
X158751641Y-83688080D01*
X158577588Y-83454731D01*
X158361355Y-83259822D01*
X158111252Y-83110843D01*
X157836891Y-83013519D01*
X157607000Y-83134186D01*
X157353000Y-83134186D01*
X157123109Y-83013519D01*
X156848748Y-83110843D01*
X156598645Y-83259822D01*
X156382412Y-83454731D01*
X156208359Y-83688080D01*
X156083175Y-83950901D01*
X156038524Y-84098110D01*
X144264523Y-84098110D01*
X144226246Y-83971913D01*
X144106037Y-83717580D01*
X143938519Y-83491586D01*
X143730131Y-83302615D01*
X143534018Y-83185000D01*
X143730131Y-83067385D01*
X143938519Y-82878414D01*
X144106037Y-82652420D01*
X144226246Y-82398087D01*
X144266904Y-82264039D01*
X144144915Y-82042000D01*
X143002000Y-82042000D01*
X142748000Y-82042000D01*
X141605085Y-82042000D01*
X141483096Y-82264039D01*
X138555000Y-82264039D01*
X138555000Y-81952332D01*
X138558677Y-81915000D01*
X138555000Y-81877667D01*
X138555000Y-78362322D01*
X138558676Y-78324999D01*
X138555000Y-78287676D01*
X138555000Y-78287667D01*
X138544003Y-78176014D01*
X138500546Y-78032753D01*
X138429974Y-77900724D01*
X138335001Y-77784999D01*
X138306003Y-77761201D01*
X136868804Y-76324003D01*
X136845001Y-76294999D01*
X136729276Y-76200026D01*
X136693072Y-76180674D01*
X136693072Y-76035000D01*
X136680812Y-75910518D01*
X136644502Y-75790820D01*
X136590612Y-75690000D01*
X138115199Y-75690000D01*
X141474292Y-79049094D01*
X141460764Y-79093691D01*
X141433057Y-79375000D01*
X141460764Y-79656309D01*
X141542818Y-79926808D01*
X141676068Y-80176101D01*
X141855392Y-80394608D01*
X142073899Y-80573932D01*
X142211682Y-80647579D01*
X142019869Y-80762615D01*
X141811481Y-80951586D01*
X141643963Y-81177580D01*
X141523754Y-81431913D01*
X141483096Y-81565961D01*
X141605085Y-81788000D01*
X142748000Y-81788000D01*
X142748000Y-81768000D01*
X143002000Y-81768000D01*
X143002000Y-81788000D01*
X144144915Y-81788000D01*
X144266904Y-81565961D01*
X144226246Y-81431913D01*
X144106037Y-81177580D01*
X143938519Y-80951586D01*
X143730131Y-80762615D01*
X143538318Y-80647579D01*
X143676101Y-80573932D01*
X143894608Y-80394608D01*
X144073932Y-80176101D01*
X144207182Y-79926808D01*
X144289236Y-79656309D01*
X144316943Y-79375000D01*
X144289236Y-79093691D01*
X144207182Y-78823192D01*
X144073932Y-78573899D01*
X143894608Y-78355392D01*
X143676101Y-78176068D01*
X143543142Y-78105000D01*
X143676101Y-78033932D01*
X143894608Y-77854608D01*
X144073932Y-77636101D01*
X144207182Y-77386808D01*
X144289236Y-77116309D01*
X144316943Y-76835000D01*
X144289236Y-76553691D01*
X144207182Y-76283192D01*
X144073932Y-76033899D01*
X143894608Y-75815392D01*
X143676101Y-75636068D01*
X143426808Y-75502818D01*
X143156309Y-75420764D01*
X142945492Y-75400000D01*
X142804508Y-75400000D01*
X142593691Y-75420764D01*
X142323192Y-75502818D01*
X142073899Y-75636068D01*
X141855392Y-75815392D01*
X141676068Y-76033899D01*
X141542818Y-76283192D01*
X141460764Y-76553691D01*
X141433057Y-76835000D01*
X141435598Y-76860796D01*
X138993804Y-74419003D01*
X138970001Y-74389999D01*
X138854276Y-74295026D01*
X138722247Y-74224454D01*
X138578986Y-74180997D01*
X138467333Y-74170000D01*
X138467322Y-74170000D01*
X138430000Y-74166324D01*
X138392678Y-74170000D01*
X133387322Y-74170000D01*
X133349999Y-74166324D01*
X133312676Y-74170000D01*
X133312667Y-74170000D01*
X133201014Y-74180997D01*
X133057753Y-74224454D01*
X132925724Y-74295026D01*
X132809999Y-74389999D01*
X132786201Y-74418997D01*
X128590199Y-78615000D01*
X120600901Y-78615000D01*
X120578932Y-78573899D01*
X120399608Y-78355392D01*
X120181101Y-78176068D01*
X119931808Y-78042818D01*
X119661309Y-77960764D01*
X119450492Y-77940000D01*
X119309508Y-77940000D01*
X119098691Y-77960764D01*
X118828192Y-78042818D01*
X118578899Y-78176068D01*
X118360392Y-78355392D01*
X118181068Y-78573899D01*
X118110000Y-78706858D01*
X118038932Y-78573899D01*
X117859608Y-78355392D01*
X117641101Y-78176068D01*
X117391808Y-78042818D01*
X117121309Y-77960764D01*
X116910492Y-77940000D01*
X116769508Y-77940000D01*
X116558691Y-77960764D01*
X116288192Y-78042818D01*
X116038899Y-78176068D01*
X115820392Y-78355392D01*
X115641068Y-78573899D01*
X115570000Y-78706858D01*
X115498932Y-78573899D01*
X115319608Y-78355392D01*
X115101101Y-78176068D01*
X114851808Y-78042818D01*
X114581309Y-77960764D01*
X114370492Y-77940000D01*
X114229508Y-77940000D01*
X114018691Y-77960764D01*
X113748192Y-78042818D01*
X113498899Y-78176068D01*
X113280392Y-78355392D01*
X113101068Y-78573899D01*
X113030000Y-78706858D01*
X112958932Y-78573899D01*
X112779608Y-78355392D01*
X112561101Y-78176068D01*
X112311808Y-78042818D01*
X112041309Y-77960764D01*
X111830492Y-77940000D01*
X111689508Y-77940000D01*
X111478691Y-77960764D01*
X111208192Y-78042818D01*
X110958899Y-78176068D01*
X110740392Y-78355392D01*
X110561068Y-78573899D01*
X110490000Y-78706858D01*
X110418932Y-78573899D01*
X110239608Y-78355392D01*
X110021101Y-78176068D01*
X109771808Y-78042818D01*
X109501309Y-77960764D01*
X109290492Y-77940000D01*
X109149508Y-77940000D01*
X108938691Y-77960764D01*
X108668192Y-78042818D01*
X108418899Y-78176068D01*
X108200392Y-78355392D01*
X108021068Y-78573899D01*
X107950000Y-78706858D01*
X107878932Y-78573899D01*
X107699608Y-78355392D01*
X107481101Y-78176068D01*
X107231808Y-78042818D01*
X106961309Y-77960764D01*
X106750492Y-77940000D01*
X106609508Y-77940000D01*
X106398691Y-77960764D01*
X106128192Y-78042818D01*
X105878899Y-78176068D01*
X105660392Y-78355392D01*
X105481068Y-78573899D01*
X105410000Y-78706858D01*
X105338932Y-78573899D01*
X105159608Y-78355392D01*
X104941101Y-78176068D01*
X104900000Y-78154099D01*
X104900000Y-77595000D01*
X128201289Y-77595000D01*
X128245226Y-77638937D01*
X128414744Y-77752205D01*
X128603102Y-77830226D01*
X128803061Y-77870000D01*
X129006939Y-77870000D01*
X129206898Y-77830226D01*
X129395256Y-77752205D01*
X129564774Y-77638937D01*
X129708937Y-77494774D01*
X129822205Y-77325256D01*
X129900226Y-77136898D01*
X129940000Y-76936939D01*
X129940000Y-76733061D01*
X129906961Y-76566961D01*
X130073061Y-76600000D01*
X130276939Y-76600000D01*
X130476898Y-76560226D01*
X130665256Y-76482205D01*
X130834774Y-76368937D01*
X130978937Y-76224774D01*
X131092205Y-76055256D01*
X131170226Y-75866898D01*
X131210000Y-75666939D01*
X131210000Y-75463061D01*
X131170226Y-75263102D01*
X131092205Y-75074744D01*
X130978937Y-74905226D01*
X130834774Y-74761063D01*
X130665256Y-74647795D01*
X130476898Y-74569774D01*
X130276939Y-74530000D01*
X130073061Y-74530000D01*
X129873102Y-74569774D01*
X129684744Y-74647795D01*
X129515226Y-74761063D01*
X129471289Y-74805000D01*
X127904013Y-74805000D01*
X127917205Y-74785256D01*
X127995226Y-74596898D01*
X128035000Y-74396939D01*
X128035000Y-74193061D01*
X127995226Y-73993102D01*
X127917205Y-73804744D01*
X127837195Y-73685000D01*
X159995000Y-73685000D01*
X159995001Y-80612572D01*
X159995000Y-80612582D01*
X159995001Y-114910000D01*
X84480000Y-114910000D01*
X84480000Y-86995000D01*
X133813057Y-86995000D01*
X133840764Y-87276309D01*
X133922818Y-87546808D01*
X134056068Y-87796101D01*
X134235392Y-88014608D01*
X134453899Y-88193932D01*
X134586858Y-88265000D01*
X134453899Y-88336068D01*
X134235392Y-88515392D01*
X134056068Y-88733899D01*
X133922818Y-88983192D01*
X133840764Y-89253691D01*
X133813057Y-89535000D01*
X133840764Y-89816309D01*
X133922818Y-90086808D01*
X134056068Y-90336101D01*
X134235392Y-90554608D01*
X134453899Y-90733932D01*
X134586858Y-90805000D01*
X134453899Y-90876068D01*
X134235392Y-91055392D01*
X134056068Y-91273899D01*
X133922818Y-91523192D01*
X133840764Y-91793691D01*
X133813057Y-92075000D01*
X133840764Y-92356309D01*
X133922818Y-92626808D01*
X134056068Y-92876101D01*
X134235392Y-93094608D01*
X134453899Y-93273932D01*
X134586858Y-93345000D01*
X134453899Y-93416068D01*
X134235392Y-93595392D01*
X134056068Y-93813899D01*
X133922818Y-94063192D01*
X133840764Y-94333691D01*
X133813057Y-94615000D01*
X133840764Y-94896309D01*
X133922818Y-95166808D01*
X134056068Y-95416101D01*
X134235392Y-95634608D01*
X134453899Y-95813932D01*
X134703192Y-95947182D01*
X134973691Y-96029236D01*
X135184508Y-96050000D01*
X135325492Y-96050000D01*
X135536309Y-96029236D01*
X135806808Y-95947182D01*
X136056101Y-95813932D01*
X136274608Y-95634608D01*
X136453932Y-95416101D01*
X136587182Y-95166808D01*
X136669236Y-94896309D01*
X136696943Y-94615000D01*
X136669236Y-94333691D01*
X136587182Y-94063192D01*
X136453932Y-93813899D01*
X136274608Y-93595392D01*
X136056101Y-93416068D01*
X135923142Y-93345000D01*
X136056101Y-93273932D01*
X136274608Y-93094608D01*
X136453932Y-92876101D01*
X136587182Y-92626808D01*
X136669236Y-92356309D01*
X136696943Y-92075000D01*
X136669236Y-91793691D01*
X136587182Y-91523192D01*
X136453932Y-91273899D01*
X136274608Y-91055392D01*
X136056101Y-90876068D01*
X135923142Y-90805000D01*
X136056101Y-90733932D01*
X136274608Y-90554608D01*
X136453932Y-90336101D01*
X136587182Y-90086808D01*
X136669236Y-89816309D01*
X136696943Y-89535000D01*
X136669236Y-89253691D01*
X136587182Y-88983192D01*
X136453932Y-88733899D01*
X136274608Y-88515392D01*
X136056101Y-88336068D01*
X135923142Y-88265000D01*
X136056101Y-88193932D01*
X136274608Y-88014608D01*
X136453932Y-87796101D01*
X136587182Y-87546808D01*
X136669236Y-87276309D01*
X136696943Y-86995000D01*
X136669236Y-86713691D01*
X136587182Y-86443192D01*
X136453932Y-86193899D01*
X136274608Y-85975392D01*
X136056101Y-85796068D01*
X135918318Y-85722421D01*
X136110131Y-85607385D01*
X136318519Y-85418414D01*
X136486037Y-85192420D01*
X136606246Y-84938087D01*
X136646904Y-84804039D01*
X136524915Y-84582000D01*
X135382000Y-84582000D01*
X135382000Y-84602000D01*
X135128000Y-84602000D01*
X135128000Y-84582000D01*
X133985085Y-84582000D01*
X133863096Y-84804039D01*
X133903754Y-84938087D01*
X134023963Y-85192420D01*
X134191481Y-85418414D01*
X134399869Y-85607385D01*
X134591682Y-85722421D01*
X134453899Y-85796068D01*
X134235392Y-85975392D01*
X134056068Y-86193899D01*
X133922818Y-86443192D01*
X133840764Y-86713691D01*
X133813057Y-86995000D01*
X84480000Y-86995000D01*
X84480000Y-82448061D01*
X95485000Y-82448061D01*
X95485000Y-82651939D01*
X95524774Y-82851898D01*
X95602795Y-83040256D01*
X95716063Y-83209774D01*
X95860226Y-83353937D01*
X96029744Y-83467205D01*
X96218102Y-83545226D01*
X96418061Y-83585000D01*
X96621939Y-83585000D01*
X96821898Y-83545226D01*
X97010256Y-83467205D01*
X97179774Y-83353937D01*
X97223711Y-83310000D01*
X98991289Y-83310000D01*
X99035226Y-83353937D01*
X99204744Y-83467205D01*
X99393102Y-83545226D01*
X99593061Y-83585000D01*
X99796939Y-83585000D01*
X99996898Y-83545226D01*
X100185256Y-83467205D01*
X100354774Y-83353937D01*
X100498937Y-83209774D01*
X100612205Y-83040256D01*
X100690226Y-82851898D01*
X100730000Y-82651939D01*
X100730000Y-82448061D01*
X100690226Y-82248102D01*
X100612205Y-82059744D01*
X100498937Y-81890226D01*
X100354774Y-81746063D01*
X100185256Y-81632795D01*
X99996898Y-81554774D01*
X99796939Y-81515000D01*
X99593061Y-81515000D01*
X99393102Y-81554774D01*
X99204744Y-81632795D01*
X99035226Y-81746063D01*
X98991289Y-81790000D01*
X97223711Y-81790000D01*
X97179774Y-81746063D01*
X97010256Y-81632795D01*
X96821898Y-81554774D01*
X96621939Y-81515000D01*
X96418061Y-81515000D01*
X96218102Y-81554774D01*
X96029744Y-81632795D01*
X95860226Y-81746063D01*
X95716063Y-81890226D01*
X95602795Y-82059744D01*
X95524774Y-82248102D01*
X95485000Y-82448061D01*
X84480000Y-82448061D01*
X84480000Y-64484040D01*
X84968091Y-64484040D01*
X85062930Y-64748881D01*
X85207615Y-64990131D01*
X85396586Y-65198519D01*
X85622580Y-65366037D01*
X85876913Y-65486246D01*
X86010961Y-65526904D01*
X86233000Y-65404915D01*
X86233000Y-64262000D01*
X85089376Y-64262000D01*
X84968091Y-64484040D01*
X84480000Y-64484040D01*
X84480000Y-63525000D01*
X85061540Y-63525000D01*
X84968091Y-63785960D01*
X84968091Y-63785960D01*
G37*
X84968091Y-63785960D02*
X85089376Y-64008000D01*
X86233000Y-64008000D01*
X86233000Y-63988000D01*
X86487000Y-63988000D01*
X86487000Y-64008000D01*
X86507000Y-64008000D01*
X86507000Y-64262000D01*
X86487000Y-64262000D01*
X86487000Y-65404915D01*
X86709039Y-65526904D01*
X86843087Y-65486246D01*
X87097420Y-65366037D01*
X87323414Y-65198519D01*
X87512385Y-64990131D01*
X87627421Y-64798318D01*
X87701068Y-64936101D01*
X87880392Y-65154608D01*
X88098899Y-65333932D01*
X88348192Y-65467182D01*
X88618691Y-65549236D01*
X88829508Y-65570000D01*
X88970492Y-65570000D01*
X89181309Y-65549236D01*
X89451808Y-65467182D01*
X89701101Y-65333932D01*
X89919608Y-65154608D01*
X90098932Y-64936101D01*
X90170000Y-64803142D01*
X90241068Y-64936101D01*
X90420392Y-65154608D01*
X90638899Y-65333932D01*
X90888192Y-65467182D01*
X91158691Y-65549236D01*
X91369508Y-65570000D01*
X91510492Y-65570000D01*
X91721309Y-65549236D01*
X91991808Y-65467182D01*
X92241101Y-65333932D01*
X92459608Y-65154608D01*
X92638932Y-64936101D01*
X92710000Y-64803142D01*
X92781068Y-64936101D01*
X92960392Y-65154608D01*
X93178899Y-65333932D01*
X93428192Y-65467182D01*
X93698691Y-65549236D01*
X93909508Y-65570000D01*
X94050492Y-65570000D01*
X94261309Y-65549236D01*
X94531808Y-65467182D01*
X94781101Y-65333932D01*
X94999608Y-65154608D01*
X95178932Y-64936101D01*
X95250000Y-64803142D01*
X95321068Y-64936101D01*
X95500392Y-65154608D01*
X95718899Y-65333932D01*
X95760000Y-65355901D01*
X95760001Y-71082657D01*
X95756323Y-71120000D01*
X95770997Y-71268986D01*
X95814454Y-71412247D01*
X95885026Y-71544276D01*
X95979999Y-71660001D01*
X96095724Y-71754974D01*
X96227753Y-71825546D01*
X96371014Y-71869003D01*
X96482667Y-71880000D01*
X96520000Y-71883677D01*
X96557333Y-71880000D01*
X109786289Y-71880000D01*
X109830226Y-71923937D01*
X109999744Y-72037205D01*
X110188102Y-72115226D01*
X110388061Y-72155000D01*
X110591939Y-72155000D01*
X110791898Y-72115226D01*
X110980256Y-72037205D01*
X111149774Y-71923937D01*
X111293937Y-71779774D01*
X111407205Y-71610256D01*
X111485226Y-71421898D01*
X111525000Y-71221939D01*
X111525000Y-71018061D01*
X111485226Y-70818102D01*
X111407205Y-70629744D01*
X111394013Y-70610000D01*
X114866289Y-70610000D01*
X114910226Y-70653937D01*
X115079744Y-70767205D01*
X115268102Y-70845226D01*
X115468061Y-70885000D01*
X115671939Y-70885000D01*
X115871898Y-70845226D01*
X116060256Y-70767205D01*
X116229774Y-70653937D01*
X116373937Y-70509774D01*
X116487205Y-70340256D01*
X116565226Y-70151898D01*
X116605000Y-69951939D01*
X116605000Y-69748061D01*
X116565226Y-69548102D01*
X116487205Y-69359744D01*
X116373937Y-69190226D01*
X116229774Y-69046063D01*
X116060256Y-68932795D01*
X115871898Y-68854774D01*
X115671939Y-68815000D01*
X115468061Y-68815000D01*
X115268102Y-68854774D01*
X115079744Y-68932795D01*
X114910226Y-69046063D01*
X114866289Y-69090000D01*
X109980000Y-69090000D01*
X109980000Y-65355901D01*
X110021101Y-65333932D01*
X110239608Y-65154608D01*
X110418932Y-64936101D01*
X110490000Y-64803142D01*
X110561068Y-64936101D01*
X110740392Y-65154608D01*
X110958899Y-65333932D01*
X111208192Y-65467182D01*
X111478691Y-65549236D01*
X111689508Y-65570000D01*
X111830492Y-65570000D01*
X112041309Y-65549236D01*
X112311808Y-65467182D01*
X112561101Y-65333932D01*
X112779608Y-65154608D01*
X112958932Y-64936101D01*
X113030000Y-64803142D01*
X113101068Y-64936101D01*
X113280392Y-65154608D01*
X113498899Y-65333932D01*
X113748192Y-65467182D01*
X114018691Y-65549236D01*
X114229508Y-65570000D01*
X114370492Y-65570000D01*
X114581309Y-65549236D01*
X114851808Y-65467182D01*
X115101101Y-65333932D01*
X115319608Y-65154608D01*
X115498932Y-64936101D01*
X115570000Y-64803142D01*
X115641068Y-64936101D01*
X115820392Y-65154608D01*
X116038899Y-65333932D01*
X116288192Y-65467182D01*
X116558691Y-65549236D01*
X116769508Y-65570000D01*
X116910492Y-65570000D01*
X117121309Y-65549236D01*
X117391808Y-65467182D01*
X117641101Y-65333932D01*
X117859608Y-65154608D01*
X117952419Y-65041518D01*
X117954188Y-65059482D01*
X117990498Y-65179180D01*
X118049463Y-65289494D01*
X118128815Y-65386185D01*
X118225506Y-65465537D01*
X118335820Y-65524502D01*
X118455518Y-65560812D01*
X118580000Y-65573072D01*
X120180000Y-65573072D01*
X120304482Y-65560812D01*
X120424180Y-65524502D01*
X120534494Y-65465537D01*
X120625000Y-65391261D01*
X120625001Y-72992571D01*
X120621807Y-73025000D01*
X120634550Y-73154383D01*
X120672290Y-73278793D01*
X120733575Y-73393450D01*
X120816052Y-73493948D01*
X120866074Y-73535000D01*
X100090413Y-73535000D01*
X100055226Y-73358102D01*
X99977205Y-73169744D01*
X99863937Y-73000226D01*
X99719774Y-72856063D01*
X99550256Y-72742795D01*
X99361898Y-72664774D01*
X99161939Y-72625000D01*
X98958061Y-72625000D01*
X98758102Y-72664774D01*
X98569744Y-72742795D01*
X98400226Y-72856063D01*
X98256063Y-73000226D01*
X98142795Y-73169744D01*
X98064774Y-73358102D01*
X98025000Y-73558061D01*
X98025000Y-73761939D01*
X98064774Y-73961898D01*
X98142795Y-74150256D01*
X98256063Y-74319774D01*
X98400226Y-74463937D01*
X98569744Y-74577205D01*
X98758102Y-74655226D01*
X98958061Y-74695000D01*
X99020198Y-74695000D01*
X99131200Y-74806002D01*
X99154999Y-74835001D01*
X99183997Y-74858799D01*
X99270724Y-74929974D01*
X99270773Y-74930000D01*
X99270724Y-74930026D01*
X99154999Y-75024999D01*
X99131200Y-75053998D01*
X98549002Y-75636197D01*
X98519999Y-75659999D01*
X98464871Y-75727174D01*
X98425026Y-75775724D01*
X98381451Y-75857247D01*
X98354454Y-75907754D01*
X98310997Y-76051015D01*
X98300000Y-76162668D01*
X98300000Y-76162678D01*
X98296324Y-76200000D01*
X98300000Y-76237323D01*
X98300001Y-78154099D01*
X98258899Y-78176068D01*
X98040392Y-78355392D01*
X97861068Y-78573899D01*
X97790000Y-78706858D01*
X97718932Y-78573899D01*
X97539608Y-78355392D01*
X97321101Y-78176068D01*
X97071808Y-78042818D01*
X96801309Y-77960764D01*
X96590492Y-77940000D01*
X96449508Y-77940000D01*
X96238691Y-77960764D01*
X95968192Y-78042818D01*
X95718899Y-78176068D01*
X95500392Y-78355392D01*
X95321068Y-78573899D01*
X95250000Y-78706858D01*
X95178932Y-78573899D01*
X94999608Y-78355392D01*
X94781101Y-78176068D01*
X94531808Y-78042818D01*
X94261309Y-77960764D01*
X94050492Y-77940000D01*
X93909508Y-77940000D01*
X93698691Y-77960764D01*
X93428192Y-78042818D01*
X93178899Y-78176068D01*
X92960392Y-78355392D01*
X92781068Y-78573899D01*
X92710000Y-78706858D01*
X92638932Y-78573899D01*
X92459608Y-78355392D01*
X92241101Y-78176068D01*
X91991808Y-78042818D01*
X91721309Y-77960764D01*
X91510492Y-77940000D01*
X91369508Y-77940000D01*
X91158691Y-77960764D01*
X90888192Y-78042818D01*
X90638899Y-78176068D01*
X90420392Y-78355392D01*
X90241068Y-78573899D01*
X90170000Y-78706858D01*
X90098932Y-78573899D01*
X89919608Y-78355392D01*
X89701101Y-78176068D01*
X89451808Y-78042818D01*
X89181309Y-77960764D01*
X88970492Y-77940000D01*
X88829508Y-77940000D01*
X88618691Y-77960764D01*
X88348192Y-78042818D01*
X88098899Y-78176068D01*
X87880392Y-78355392D01*
X87701068Y-78573899D01*
X87630000Y-78706858D01*
X87558932Y-78573899D01*
X87379608Y-78355392D01*
X87161101Y-78176068D01*
X86911808Y-78042818D01*
X86641309Y-77960764D01*
X86430492Y-77940000D01*
X86289508Y-77940000D01*
X86078691Y-77960764D01*
X85808192Y-78042818D01*
X85558899Y-78176068D01*
X85340392Y-78355392D01*
X85161068Y-78573899D01*
X85027818Y-78823192D01*
X84945764Y-79093691D01*
X84918057Y-79375000D01*
X84945764Y-79656309D01*
X85027818Y-79926808D01*
X85161068Y-80176101D01*
X85340392Y-80394608D01*
X85558899Y-80573932D01*
X85808192Y-80707182D01*
X86078691Y-80789236D01*
X86289508Y-80810000D01*
X86430492Y-80810000D01*
X86641309Y-80789236D01*
X86911808Y-80707182D01*
X87161101Y-80573932D01*
X87379608Y-80394608D01*
X87558932Y-80176101D01*
X87630000Y-80043142D01*
X87701068Y-80176101D01*
X87880392Y-80394608D01*
X88098899Y-80573932D01*
X88348192Y-80707182D01*
X88618691Y-80789236D01*
X88829508Y-80810000D01*
X88970492Y-80810000D01*
X89181309Y-80789236D01*
X89451808Y-80707182D01*
X89701101Y-80573932D01*
X89919608Y-80394608D01*
X90098932Y-80176101D01*
X90170000Y-80043142D01*
X90241068Y-80176101D01*
X90420392Y-80394608D01*
X90638899Y-80573932D01*
X90888192Y-80707182D01*
X91158691Y-80789236D01*
X91369508Y-80810000D01*
X91510492Y-80810000D01*
X91721309Y-80789236D01*
X91991808Y-80707182D01*
X92241101Y-80573932D01*
X92459608Y-80394608D01*
X92638932Y-80176101D01*
X92710000Y-80043142D01*
X92781068Y-80176101D01*
X92960392Y-80394608D01*
X93178899Y-80573932D01*
X93428192Y-80707182D01*
X93698691Y-80789236D01*
X93909508Y-80810000D01*
X94050492Y-80810000D01*
X94261309Y-80789236D01*
X94531808Y-80707182D01*
X94781101Y-80573932D01*
X94999608Y-80394608D01*
X95178932Y-80176101D01*
X95250000Y-80043142D01*
X95321068Y-80176101D01*
X95500392Y-80394608D01*
X95718899Y-80573932D01*
X95968192Y-80707182D01*
X96238691Y-80789236D01*
X96449508Y-80810000D01*
X96590492Y-80810000D01*
X96801309Y-80789236D01*
X97071808Y-80707182D01*
X97321101Y-80573932D01*
X97539608Y-80394608D01*
X97718932Y-80176101D01*
X97790000Y-80043142D01*
X97861068Y-80176101D01*
X98040392Y-80394608D01*
X98258899Y-80573932D01*
X98508192Y-80707182D01*
X98778691Y-80789236D01*
X98989508Y-80810000D01*
X99130492Y-80810000D01*
X99341309Y-80789236D01*
X99611808Y-80707182D01*
X99861101Y-80573932D01*
X100079608Y-80394608D01*
X100258932Y-80176101D01*
X100330000Y-80043142D01*
X100401068Y-80176101D01*
X100580392Y-80394608D01*
X100798899Y-80573932D01*
X100840000Y-80595901D01*
X100840000Y-81242667D01*
X100836323Y-81280000D01*
X100850997Y-81428986D01*
X100894454Y-81572247D01*
X100965026Y-81704276D01*
X101035378Y-81790000D01*
X101059999Y-81820001D01*
X101175724Y-81914974D01*
X101307753Y-81985546D01*
X101451014Y-82029003D01*
X101600000Y-82043677D01*
X101637333Y-82040000D01*
X117406289Y-82040000D01*
X117450226Y-82083937D01*
X117619744Y-82197205D01*
X117808102Y-82275226D01*
X118008061Y-82315000D01*
X118211939Y-82315000D01*
X118411898Y-82275226D01*
X118600256Y-82197205D01*
X118769774Y-82083937D01*
X118913937Y-81939774D01*
X119027205Y-81770256D01*
X119105226Y-81581898D01*
X119145000Y-81381939D01*
X119145000Y-81178061D01*
X119105226Y-80978102D01*
X119027205Y-80789744D01*
X119008607Y-80761910D01*
X119098691Y-80789236D01*
X119309508Y-80810000D01*
X119450492Y-80810000D01*
X119661309Y-80789236D01*
X119931808Y-80707182D01*
X120181101Y-80573932D01*
X120399608Y-80394608D01*
X120578932Y-80176101D01*
X120600901Y-80135000D01*
X128867678Y-80135000D01*
X128905000Y-80138676D01*
X128942322Y-80135000D01*
X128942333Y-80135000D01*
X129053986Y-80124003D01*
X129197247Y-80080546D01*
X129329276Y-80009974D01*
X129445001Y-79915001D01*
X129468804Y-79885997D01*
X133664802Y-75690000D01*
X133919388Y-75690000D01*
X133865498Y-75790820D01*
X133829188Y-75910518D01*
X133816928Y-76035000D01*
X133816928Y-77635000D01*
X133829188Y-77759482D01*
X133865498Y-77879180D01*
X133924463Y-77989494D01*
X134003815Y-78086185D01*
X134100506Y-78165537D01*
X134210820Y-78224502D01*
X134330518Y-78260812D01*
X134348482Y-78262581D01*
X134235392Y-78355392D01*
X134056068Y-78573899D01*
X133922818Y-78823192D01*
X133840764Y-79093691D01*
X133813057Y-79375000D01*
X133840764Y-79656309D01*
X133922818Y-79926808D01*
X134056068Y-80176101D01*
X134235392Y-80394608D01*
X134453899Y-80573932D01*
X134586858Y-80645000D01*
X134453899Y-80716068D01*
X134235392Y-80895392D01*
X134056068Y-81113899D01*
X133922818Y-81363192D01*
X133840764Y-81633691D01*
X133813057Y-81915000D01*
X133840764Y-82196309D01*
X133922818Y-82466808D01*
X134056068Y-82716101D01*
X134235392Y-82934608D01*
X134453899Y-83113932D01*
X134591682Y-83187579D01*
X134399869Y-83302615D01*
X134191481Y-83491586D01*
X134023963Y-83717580D01*
X133903754Y-83971913D01*
X133863096Y-84105961D01*
X133985085Y-84328000D01*
X135128000Y-84328000D01*
X135128000Y-84308000D01*
X135382000Y-84308000D01*
X135382000Y-84328000D01*
X136524915Y-84328000D01*
X136646904Y-84105961D01*
X136606246Y-83971913D01*
X136486037Y-83717580D01*
X136318519Y-83491586D01*
X136110131Y-83302615D01*
X135918318Y-83187579D01*
X136056101Y-83113932D01*
X136274608Y-82934608D01*
X136453932Y-82716101D01*
X136475901Y-82675000D01*
X137035001Y-82675000D01*
X137035000Y-107635198D01*
X136210199Y-108460000D01*
X129809013Y-108460000D01*
X129822205Y-108440256D01*
X129900226Y-108251898D01*
X129940000Y-108051939D01*
X129940000Y-107848061D01*
X129900226Y-107648102D01*
X129822205Y-107459744D01*
X129708937Y-107290226D01*
X129564774Y-107146063D01*
X129395256Y-107032795D01*
X129206898Y-106954774D01*
X129006939Y-106915000D01*
X128803061Y-106915000D01*
X128603102Y-106954774D01*
X128414744Y-107032795D01*
X128245226Y-107146063D01*
X128201289Y-107190000D01*
X116474013Y-107190000D01*
X116487205Y-107170256D01*
X116565226Y-106981898D01*
X116605000Y-106781939D01*
X116605000Y-106578061D01*
X116565226Y-106378102D01*
X116487205Y-106189744D01*
X116474013Y-106170000D01*
X123756289Y-106170000D01*
X123800226Y-106213937D01*
X123969744Y-106327205D01*
X124158102Y-106405226D01*
X124358061Y-106445000D01*
X124561939Y-106445000D01*
X124761898Y-106405226D01*
X124950256Y-106327205D01*
X125119774Y-106213937D01*
X125263937Y-106069774D01*
X125377205Y-105900256D01*
X125455226Y-105711898D01*
X125495000Y-105511939D01*
X125495000Y-105308061D01*
X125455226Y-105108102D01*
X125377205Y-104919744D01*
X125263937Y-104750226D01*
X125119774Y-104606063D01*
X124950256Y-104492795D01*
X124761898Y-104414774D01*
X124561939Y-104375000D01*
X124358061Y-104375000D01*
X124158102Y-104414774D01*
X123969744Y-104492795D01*
X123800226Y-104606063D01*
X123756289Y-104650000D01*
X120284013Y-104650000D01*
X120297205Y-104630256D01*
X120375226Y-104441898D01*
X120415000Y-104241939D01*
X120415000Y-104038061D01*
X120375226Y-103838102D01*
X120297205Y-103649744D01*
X120183937Y-103480226D01*
X120039774Y-103336063D01*
X119870256Y-103222795D01*
X119681898Y-103144774D01*
X119481939Y-103105000D01*
X119278061Y-103105000D01*
X119078102Y-103144774D01*
X118889744Y-103222795D01*
X118720226Y-103336063D01*
X118676289Y-103380000D01*
X114897121Y-103380000D01*
X114947254Y-103258968D01*
X114998500Y-103001338D01*
X114998500Y-102738662D01*
X114947254Y-102481032D01*
X114846732Y-102238351D01*
X114700797Y-102019943D01*
X114515057Y-101834203D01*
X114296649Y-101688268D01*
X114083552Y-101600000D01*
X114296649Y-101511732D01*
X114515057Y-101365797D01*
X114700797Y-101180057D01*
X114846732Y-100961649D01*
X114947254Y-100718968D01*
X114998500Y-100461338D01*
X114998500Y-100198662D01*
X114947254Y-99941032D01*
X114897121Y-99820000D01*
X117406289Y-99820000D01*
X117450226Y-99863937D01*
X117619744Y-99977205D01*
X117808102Y-100055226D01*
X118008061Y-100095000D01*
X118211939Y-100095000D01*
X118411898Y-100055226D01*
X118600256Y-99977205D01*
X118769774Y-99863937D01*
X118913937Y-99719774D01*
X119027205Y-99550256D01*
X119105226Y-99361898D01*
X119145000Y-99161939D01*
X119145000Y-98958061D01*
X119105226Y-98758102D01*
X119027205Y-98569744D01*
X118913937Y-98400226D01*
X118769774Y-98256063D01*
X118600256Y-98142795D01*
X118411898Y-98064774D01*
X118211939Y-98025000D01*
X118008061Y-98025000D01*
X117808102Y-98064774D01*
X117619744Y-98142795D01*
X117450226Y-98256063D01*
X117406289Y-98300000D01*
X114897121Y-98300000D01*
X114947254Y-98178968D01*
X114998500Y-97921338D01*
X114998500Y-97658662D01*
X114947254Y-97401032D01*
X114846732Y-97158351D01*
X114700797Y-96939943D01*
X114515057Y-96754203D01*
X114296649Y-96608268D01*
X114083552Y-96520000D01*
X114296649Y-96431732D01*
X114515057Y-96285797D01*
X114700797Y-96100057D01*
X114760971Y-96010000D01*
X116136289Y-96010000D01*
X116180226Y-96053937D01*
X116349744Y-96167205D01*
X116538102Y-96245226D01*
X116738061Y-96285000D01*
X116941939Y-96285000D01*
X117141898Y-96245226D01*
X117330256Y-96167205D01*
X117499774Y-96053937D01*
X117643937Y-95909774D01*
X117757205Y-95740256D01*
X117835226Y-95551898D01*
X117875000Y-95351939D01*
X117875000Y-95148061D01*
X117835226Y-94948102D01*
X117757205Y-94759744D01*
X117744013Y-94740000D01*
X126296289Y-94740000D01*
X126340226Y-94783937D01*
X126509744Y-94897205D01*
X126698102Y-94975226D01*
X126898061Y-95015000D01*
X127101939Y-95015000D01*
X127301898Y-94975226D01*
X127490256Y-94897205D01*
X127659774Y-94783937D01*
X127803937Y-94639774D01*
X127917205Y-94470256D01*
X127995226Y-94281898D01*
X128035000Y-94081939D01*
X128035000Y-93878061D01*
X127995226Y-93678102D01*
X127917205Y-93489744D01*
X127803937Y-93320226D01*
X127659774Y-93176063D01*
X127490256Y-93062795D01*
X127301898Y-92984774D01*
X127101939Y-92945000D01*
X126898061Y-92945000D01*
X126698102Y-92984774D01*
X126509744Y-93062795D01*
X126340226Y-93176063D01*
X126296289Y-93220000D01*
X112432322Y-93220000D01*
X112394999Y-93216324D01*
X112357676Y-93220000D01*
X112357667Y-93220000D01*
X112357098Y-93220056D01*
X112407254Y-93098968D01*
X112458500Y-92841338D01*
X112458500Y-92578662D01*
X112407254Y-92321032D01*
X112306732Y-92078351D01*
X112160797Y-91859943D01*
X111975057Y-91674203D01*
X111756649Y-91528268D01*
X111513968Y-91427746D01*
X111256338Y-91376500D01*
X110993662Y-91376500D01*
X110736032Y-91427746D01*
X110493351Y-91528268D01*
X110274943Y-91674203D01*
X110089203Y-91859943D01*
X109943268Y-92078351D01*
X109855000Y-92291448D01*
X109766732Y-92078351D01*
X109620797Y-91859943D01*
X109435057Y-91674203D01*
X109216649Y-91528268D01*
X108973968Y-91427746D01*
X108716338Y-91376500D01*
X108453662Y-91376500D01*
X108196032Y-91427746D01*
X107953351Y-91528268D01*
X107734943Y-91674203D01*
X107549203Y-91859943D01*
X107403268Y-92078351D01*
X107315000Y-92291448D01*
X107226732Y-92078351D01*
X107080797Y-91859943D01*
X106895057Y-91674203D01*
X106676649Y-91528268D01*
X106433968Y-91427746D01*
X106176338Y-91376500D01*
X105913662Y-91376500D01*
X105656032Y-91427746D01*
X105413351Y-91528268D01*
X105194943Y-91674203D01*
X105009203Y-91859943D01*
X104863268Y-92078351D01*
X104773293Y-92295570D01*
X104712514Y-92129158D01*
X104658812Y-92028686D01*
X104425197Y-91969408D01*
X103684605Y-92710000D01*
X104425197Y-93450592D01*
X104658812Y-93391314D01*
X104769559Y-93153125D01*
X104775342Y-93129378D01*
X104863268Y-93341649D01*
X105009203Y-93560057D01*
X105194943Y-93745797D01*
X105413351Y-93891732D01*
X105467911Y-93914332D01*
X105346500Y-93913428D01*
X105222018Y-93925688D01*
X105102320Y-93961998D01*
X104992006Y-94020963D01*
X104895315Y-94100315D01*
X104815963Y-94197006D01*
X104756998Y-94307320D01*
X104720688Y-94427018D01*
X104708428Y-94551500D01*
X104709332Y-94672911D01*
X104686732Y-94618351D01*
X104540797Y-94399943D01*
X104355057Y-94214203D01*
X104136649Y-94068268D01*
X103919430Y-93978293D01*
X104085842Y-93917514D01*
X104186314Y-93863812D01*
X104245592Y-93630197D01*
X103505000Y-92889605D01*
X102764408Y-93630197D01*
X102823686Y-93863812D01*
X103061875Y-93974559D01*
X103085622Y-93980342D01*
X102873351Y-94068268D01*
X102654943Y-94214203D01*
X102469203Y-94399943D01*
X102323268Y-94618351D01*
X102235000Y-94831448D01*
X102146732Y-94618351D01*
X102000797Y-94399943D01*
X101815057Y-94214203D01*
X101596649Y-94068268D01*
X101383552Y-93980000D01*
X101596649Y-93891732D01*
X101815057Y-93745797D01*
X102000797Y-93560057D01*
X102146732Y-93341649D01*
X102236707Y-93124430D01*
X102297486Y-93290842D01*
X102351188Y-93391314D01*
X102584803Y-93450592D01*
X103325395Y-92710000D01*
X102584803Y-91969408D01*
X102351188Y-92028686D01*
X102240441Y-92266875D01*
X102234658Y-92290622D01*
X102146732Y-92078351D01*
X102000797Y-91859943D01*
X101930657Y-91789803D01*
X102764408Y-91789803D01*
X103505000Y-92530395D01*
X104245592Y-91789803D01*
X104186314Y-91556188D01*
X103948125Y-91445441D01*
X103692907Y-91383289D01*
X103430467Y-91372124D01*
X103170893Y-91412371D01*
X102924158Y-91502486D01*
X102823686Y-91556188D01*
X102764408Y-91789803D01*
X101930657Y-91789803D01*
X101815057Y-91674203D01*
X101596649Y-91528268D01*
X101353968Y-91427746D01*
X101096338Y-91376500D01*
X100833662Y-91376500D01*
X100576032Y-91427746D01*
X100333351Y-91528268D01*
X100114943Y-91674203D01*
X99929203Y-91859943D01*
X99783268Y-92078351D01*
X99695000Y-92291448D01*
X99606732Y-92078351D01*
X99460797Y-91859943D01*
X99275057Y-91674203D01*
X99056649Y-91528268D01*
X98813968Y-91427746D01*
X98556338Y-91376500D01*
X98293662Y-91376500D01*
X98036032Y-91427746D01*
X97793351Y-91528268D01*
X97574943Y-91674203D01*
X97389203Y-91859943D01*
X97329029Y-91950000D01*
X93413711Y-91950000D01*
X93369774Y-91906063D01*
X93200256Y-91792795D01*
X93011898Y-91714774D01*
X92811939Y-91675000D01*
X92608061Y-91675000D01*
X92408102Y-91714774D01*
X92219744Y-91792795D01*
X92050226Y-91906063D01*
X91906063Y-92050226D01*
X91792795Y-92219744D01*
X91714774Y-92408102D01*
X91675000Y-92608061D01*
X91675000Y-92811939D01*
X91714774Y-93011898D01*
X91792795Y-93200256D01*
X91805987Y-93220000D01*
X88333711Y-93220000D01*
X88289774Y-93176063D01*
X88120256Y-93062795D01*
X87931898Y-92984774D01*
X87731939Y-92945000D01*
X87528061Y-92945000D01*
X87328102Y-92984774D01*
X87139744Y-93062795D01*
X86970226Y-93176063D01*
X86826063Y-93320226D01*
X86712795Y-93489744D01*
X86634774Y-93678102D01*
X86595000Y-93878061D01*
X86595000Y-94081939D01*
X86634774Y-94281898D01*
X86712795Y-94470256D01*
X86826063Y-94639774D01*
X86970226Y-94783937D01*
X87139744Y-94897205D01*
X87328102Y-94975226D01*
X87528061Y-95015000D01*
X87731939Y-95015000D01*
X87931898Y-94975226D01*
X88120256Y-94897205D01*
X88289774Y-94783937D01*
X88333711Y-94740000D01*
X89265987Y-94740000D01*
X89252795Y-94759744D01*
X89174774Y-94948102D01*
X89135000Y-95148061D01*
X89135000Y-95351939D01*
X89174774Y-95551898D01*
X89252795Y-95740256D01*
X89366063Y-95909774D01*
X89510226Y-96053937D01*
X89679744Y-96167205D01*
X89868102Y-96245226D01*
X90068061Y-96285000D01*
X90271939Y-96285000D01*
X90471898Y-96245226D01*
X90660256Y-96167205D01*
X90829774Y-96053937D01*
X90873711Y-96010000D01*
X94789029Y-96010000D01*
X94849203Y-96100057D01*
X95034943Y-96285797D01*
X95253351Y-96431732D01*
X95466448Y-96520000D01*
X95253351Y-96608268D01*
X95034943Y-96754203D01*
X94849203Y-96939943D01*
X94789029Y-97030000D01*
X87063711Y-97030000D01*
X87019774Y-96986063D01*
X86850256Y-96872795D01*
X86661898Y-96794774D01*
X86461939Y-96755000D01*
X86258061Y-96755000D01*
X86058102Y-96794774D01*
X85869744Y-96872795D01*
X85700226Y-96986063D01*
X85556063Y-97130226D01*
X85442795Y-97299744D01*
X85364774Y-97488102D01*
X85325000Y-97688061D01*
X85325000Y-97891939D01*
X85364774Y-98091898D01*
X85442795Y-98280256D01*
X85556063Y-98449774D01*
X85700226Y-98593937D01*
X85869744Y-98707205D01*
X86058102Y-98785226D01*
X86258061Y-98825000D01*
X86461939Y-98825000D01*
X86661898Y-98785226D01*
X86850256Y-98707205D01*
X87019774Y-98593937D01*
X87063711Y-98550000D01*
X87995987Y-98550000D01*
X87982795Y-98569744D01*
X87904774Y-98758102D01*
X87865000Y-98958061D01*
X87865000Y-99161939D01*
X87904774Y-99361898D01*
X87982795Y-99550256D01*
X88096063Y-99719774D01*
X88240226Y-99863937D01*
X88409744Y-99977205D01*
X88598102Y-100055226D01*
X88798061Y-100095000D01*
X89001939Y-100095000D01*
X89201898Y-100055226D01*
X89390256Y-99977205D01*
X89559774Y-99863937D01*
X89603711Y-99820000D01*
X94652879Y-99820000D01*
X94602746Y-99941032D01*
X94551500Y-100198662D01*
X94551500Y-100461338D01*
X94602746Y-100718968D01*
X94703268Y-100961649D01*
X94849203Y-101180057D01*
X95034943Y-101365797D01*
X95253351Y-101511732D01*
X95466448Y-101600000D01*
X95253351Y-101688268D01*
X95034943Y-101834203D01*
X94849203Y-102019943D01*
X94703268Y-102238351D01*
X94602746Y-102481032D01*
X94551500Y-102738662D01*
X94551500Y-103001338D01*
X94602746Y-103258968D01*
X94652879Y-103380000D01*
X92143711Y-103380000D01*
X92099774Y-103336063D01*
X91930256Y-103222795D01*
X91741898Y-103144774D01*
X91541939Y-103105000D01*
X91338061Y-103105000D01*
X91138102Y-103144774D01*
X90949744Y-103222795D01*
X90780226Y-103336063D01*
X90636063Y-103480226D01*
X90522795Y-103649744D01*
X90444774Y-103838102D01*
X90405000Y-104038061D01*
X90405000Y-104241939D01*
X90444774Y-104441898D01*
X90522795Y-104630256D01*
X90636063Y-104799774D01*
X90780226Y-104943937D01*
X90949744Y-105057205D01*
X91138102Y-105135226D01*
X91338061Y-105175000D01*
X91541939Y-105175000D01*
X91741898Y-105135226D01*
X91930256Y-105057205D01*
X92099774Y-104943937D01*
X92143711Y-104900000D01*
X94652879Y-104900000D01*
X94602746Y-105021032D01*
X94551500Y-105278662D01*
X94551500Y-105541338D01*
X94602746Y-105798968D01*
X94703268Y-106041649D01*
X94849203Y-106260057D01*
X95034943Y-106445797D01*
X95253351Y-106591732D01*
X95466448Y-106680000D01*
X95253351Y-106768268D01*
X95034943Y-106914203D01*
X94849203Y-107099943D01*
X94703268Y-107318351D01*
X94602746Y-107561032D01*
X94551500Y-107818662D01*
X94551500Y-108081338D01*
X94602746Y-108338968D01*
X94703268Y-108581649D01*
X94849203Y-108800057D01*
X95034943Y-108985797D01*
X95253351Y-109131732D01*
X95496032Y-109232254D01*
X95753662Y-109283500D01*
X96016338Y-109283500D01*
X96273968Y-109232254D01*
X96516649Y-109131732D01*
X96735057Y-108985797D01*
X96920797Y-108800057D01*
X97066732Y-108581649D01*
X97155000Y-108368552D01*
X97243268Y-108581649D01*
X97389203Y-108800057D01*
X97574943Y-108985797D01*
X97793351Y-109131732D01*
X98006448Y-109220000D01*
X97793351Y-109308268D01*
X97574943Y-109454203D01*
X97389203Y-109639943D01*
X97243268Y-109858351D01*
X97142746Y-110101032D01*
X97091500Y-110358662D01*
X97091500Y-110621338D01*
X97142746Y-110878968D01*
X97243268Y-111121649D01*
X97389203Y-111340057D01*
X97574943Y-111525797D01*
X97793351Y-111671732D01*
X98036032Y-111772254D01*
X98293662Y-111823500D01*
X98556338Y-111823500D01*
X98662568Y-111802369D01*
X100401205Y-113541008D01*
X100424999Y-113570001D01*
X100453992Y-113593795D01*
X100453996Y-113593799D01*
X100515022Y-113643881D01*
X100540724Y-113664974D01*
X100672753Y-113735546D01*
X100816014Y-113779003D01*
X100927667Y-113790000D01*
X100927676Y-113790000D01*
X100964999Y-113793676D01*
X101002322Y-113790000D01*
X121851289Y-113790000D01*
X121895226Y-113833937D01*
X122064744Y-113947205D01*
X122253102Y-114025226D01*
X122453061Y-114065000D01*
X122656939Y-114065000D01*
X122856898Y-114025226D01*
X123045256Y-113947205D01*
X123214774Y-113833937D01*
X123358937Y-113689774D01*
X123472205Y-113520256D01*
X123530699Y-113379040D01*
X149103091Y-113379040D01*
X149197930Y-113643881D01*
X149342615Y-113885131D01*
X149531586Y-114093519D01*
X149757580Y-114261037D01*
X150011913Y-114381246D01*
X150145961Y-114421904D01*
X150368000Y-114299915D01*
X150368000Y-113157000D01*
X150622000Y-113157000D01*
X150622000Y-114299915D01*
X150844039Y-114421904D01*
X150978087Y-114381246D01*
X151232420Y-114261037D01*
X151458414Y-114093519D01*
X151647385Y-113885131D01*
X151792070Y-113643881D01*
X151886909Y-113379040D01*
X154183091Y-113379040D01*
X154277930Y-113643881D01*
X154422615Y-113885131D01*
X154611586Y-114093519D01*
X154837580Y-114261037D01*
X155091913Y-114381246D01*
X155225961Y-114421904D01*
X155448000Y-114299915D01*
X155448000Y-113157000D01*
X155702000Y-113157000D01*
X155702000Y-114299915D01*
X155924039Y-114421904D01*
X156058087Y-114381246D01*
X156312420Y-114261037D01*
X156538414Y-114093519D01*
X156727385Y-113885131D01*
X156872070Y-113643881D01*
X156966909Y-113379040D01*
X156845624Y-113157000D01*
X155702000Y-113157000D01*
X155448000Y-113157000D01*
X154304376Y-113157000D01*
X154183091Y-113379040D01*
X151886909Y-113379040D01*
X151765624Y-113157000D01*
X150622000Y-113157000D01*
X150368000Y-113157000D01*
X149224376Y-113157000D01*
X149103091Y-113379040D01*
X123530699Y-113379040D01*
X123550226Y-113331898D01*
X123590000Y-113131939D01*
X123590000Y-112928061D01*
X123550226Y-112728102D01*
X123530700Y-112680960D01*
X149103091Y-112680960D01*
X149224376Y-112903000D01*
X150368000Y-112903000D01*
X150368000Y-111760085D01*
X150622000Y-111760085D01*
X150622000Y-112903000D01*
X151765624Y-112903000D01*
X151886909Y-112680960D01*
X154183091Y-112680960D01*
X154304376Y-112903000D01*
X155448000Y-112903000D01*
X155448000Y-111760085D01*
X155702000Y-111760085D01*
X155702000Y-112903000D01*
X156845624Y-112903000D01*
X156966909Y-112680960D01*
X156872070Y-112416119D01*
X156727385Y-112174869D01*
X156538414Y-111966481D01*
X156312420Y-111798963D01*
X156058087Y-111678754D01*
X155924039Y-111638096D01*
X155702000Y-111760085D01*
X155448000Y-111760085D01*
X155225961Y-111638096D01*
X155091913Y-111678754D01*
X154837580Y-111798963D01*
X154611586Y-111966481D01*
X154422615Y-112174869D01*
X154277930Y-112416119D01*
X154183091Y-112680960D01*
X151886909Y-112680960D01*
X151792070Y-112416119D01*
X151647385Y-112174869D01*
X151458414Y-111966481D01*
X151232420Y-111798963D01*
X150978087Y-111678754D01*
X150844039Y-111638096D01*
X150622000Y-111760085D01*
X150368000Y-111760085D01*
X150145961Y-111638096D01*
X150011913Y-111678754D01*
X149757580Y-111798963D01*
X149531586Y-111966481D01*
X149342615Y-112174869D01*
X149197930Y-112416119D01*
X149103091Y-112680960D01*
X123530700Y-112680960D01*
X123472205Y-112539744D01*
X123358937Y-112370226D01*
X123214774Y-112226063D01*
X123045256Y-112112795D01*
X122856898Y-112034774D01*
X122656939Y-111995000D01*
X122453061Y-111995000D01*
X122286961Y-112028039D01*
X122320000Y-111861939D01*
X122320000Y-111658061D01*
X122280226Y-111458102D01*
X122202205Y-111269744D01*
X122189013Y-111250000D01*
X126296289Y-111250000D01*
X126340226Y-111293937D01*
X126509744Y-111407205D01*
X126698102Y-111485226D01*
X126898061Y-111525000D01*
X127101939Y-111525000D01*
X127301898Y-111485226D01*
X127490256Y-111407205D01*
X127659774Y-111293937D01*
X127803937Y-111149774D01*
X127917205Y-110980256D01*
X127995226Y-110791898D01*
X128035000Y-110591939D01*
X128035000Y-110388061D01*
X127995226Y-110188102D01*
X127917205Y-109999744D01*
X127904013Y-109980000D01*
X128201289Y-109980000D01*
X128245226Y-110023937D01*
X128414744Y-110137205D01*
X128603102Y-110215226D01*
X128803061Y-110255000D01*
X129006939Y-110255000D01*
X129206898Y-110215226D01*
X129395256Y-110137205D01*
X129564774Y-110023937D01*
X129608711Y-109980000D01*
X136487678Y-109980000D01*
X136525000Y-109983676D01*
X136562322Y-109980000D01*
X136562333Y-109980000D01*
X136673986Y-109969003D01*
X136817247Y-109925546D01*
X136949276Y-109854974D01*
X137065001Y-109760001D01*
X137088804Y-109730997D01*
X138306004Y-108513798D01*
X138335001Y-108490001D01*
X138429974Y-108374276D01*
X138500546Y-108242247D01*
X138544003Y-108098986D01*
X138555000Y-107987333D01*
X138555000Y-107987324D01*
X138558676Y-107950001D01*
X138555000Y-107912678D01*
X138555000Y-102070000D01*
X149056928Y-102070000D01*
X149056928Y-103670000D01*
X149069188Y-103794482D01*
X149105498Y-103914180D01*
X149164463Y-104024494D01*
X149243815Y-104121185D01*
X149340506Y-104200537D01*
X149450820Y-104259502D01*
X149570518Y-104295812D01*
X149695000Y-104308072D01*
X151295000Y-104308072D01*
X151419482Y-104295812D01*
X151539180Y-104259502D01*
X151649494Y-104200537D01*
X151746185Y-104121185D01*
X151825537Y-104024494D01*
X151884502Y-103914180D01*
X151920812Y-103794482D01*
X151933072Y-103670000D01*
X151933072Y-102070000D01*
X154136928Y-102070000D01*
X154136928Y-103670000D01*
X154149188Y-103794482D01*
X154185498Y-103914180D01*
X154244463Y-104024494D01*
X154323815Y-104121185D01*
X154420506Y-104200537D01*
X154530820Y-104259502D01*
X154650518Y-104295812D01*
X154775000Y-104308072D01*
X156375000Y-104308072D01*
X156499482Y-104295812D01*
X156619180Y-104259502D01*
X156729494Y-104200537D01*
X156826185Y-104121185D01*
X156905537Y-104024494D01*
X156964502Y-103914180D01*
X157000812Y-103794482D01*
X157013072Y-103670000D01*
X157013072Y-102070000D01*
X157000812Y-101945518D01*
X156964502Y-101825820D01*
X156905537Y-101715506D01*
X156826185Y-101618815D01*
X156729494Y-101539463D01*
X156619180Y-101480498D01*
X156499482Y-101444188D01*
X156375000Y-101431928D01*
X154775000Y-101431928D01*
X154650518Y-101444188D01*
X154530820Y-101480498D01*
X154420506Y-101539463D01*
X154323815Y-101618815D01*
X154244463Y-101715506D01*
X154185498Y-101825820D01*
X154149188Y-101945518D01*
X154136928Y-102070000D01*
X151933072Y-102070000D01*
X151920812Y-101945518D01*
X151884502Y-101825820D01*
X151825537Y-101715506D01*
X151746185Y-101618815D01*
X151649494Y-101539463D01*
X151539180Y-101480498D01*
X151419482Y-101444188D01*
X151295000Y-101431928D01*
X149695000Y-101431928D01*
X149570518Y-101444188D01*
X149450820Y-101480498D01*
X149340506Y-101539463D01*
X149243815Y-101618815D01*
X149164463Y-101715506D01*
X149105498Y-101825820D01*
X149069188Y-101945518D01*
X149056928Y-102070000D01*
X138555000Y-102070000D01*
X138555000Y-86995000D01*
X141433057Y-86995000D01*
X141460764Y-87276309D01*
X141542818Y-87546808D01*
X141676068Y-87796101D01*
X141855392Y-88014608D01*
X142073899Y-88193932D01*
X142206858Y-88265000D01*
X142073899Y-88336068D01*
X141855392Y-88515392D01*
X141676068Y-88733899D01*
X141542818Y-88983192D01*
X141460764Y-89253691D01*
X141433057Y-89535000D01*
X141460764Y-89816309D01*
X141542818Y-90086808D01*
X141676068Y-90336101D01*
X141855392Y-90554608D01*
X142073899Y-90733932D01*
X142206858Y-90805000D01*
X142073899Y-90876068D01*
X141855392Y-91055392D01*
X141676068Y-91273899D01*
X141542818Y-91523192D01*
X141460764Y-91793691D01*
X141433057Y-92075000D01*
X141460764Y-92356309D01*
X141542818Y-92626808D01*
X141676068Y-92876101D01*
X141855392Y-93094608D01*
X142073899Y-93273932D01*
X142206858Y-93345000D01*
X142073899Y-93416068D01*
X141855392Y-93595392D01*
X141676068Y-93813899D01*
X141542818Y-94063192D01*
X141460764Y-94333691D01*
X141433057Y-94615000D01*
X141460764Y-94896309D01*
X141542818Y-95166808D01*
X141676068Y-95416101D01*
X141855392Y-95634608D01*
X142073899Y-95813932D01*
X142323192Y-95947182D01*
X142593691Y-96029236D01*
X142804508Y-96050000D01*
X142945492Y-96050000D01*
X143156309Y-96029236D01*
X143426808Y-95947182D01*
X143676101Y-95813932D01*
X143894608Y-95634608D01*
X144073932Y-95416101D01*
X144207182Y-95166808D01*
X144289236Y-94896309D01*
X144316943Y-94615000D01*
X144289236Y-94333691D01*
X144207182Y-94063192D01*
X144073932Y-93813899D01*
X143894608Y-93595392D01*
X143676101Y-93416068D01*
X143543142Y-93345000D01*
X143676101Y-93273932D01*
X143894608Y-93094608D01*
X144073932Y-92876101D01*
X144207182Y-92626808D01*
X144289236Y-92356309D01*
X144316943Y-92075000D01*
X144289236Y-91793691D01*
X144207182Y-91523192D01*
X144073932Y-91273899D01*
X143894608Y-91055392D01*
X143676101Y-90876068D01*
X143543142Y-90805000D01*
X143676101Y-90733932D01*
X143894608Y-90554608D01*
X144073932Y-90336101D01*
X144207182Y-90086808D01*
X144289236Y-89816309D01*
X144316943Y-89535000D01*
X144289236Y-89253691D01*
X144207182Y-88983192D01*
X144073932Y-88733899D01*
X143894608Y-88515392D01*
X143676101Y-88336068D01*
X143543142Y-88265000D01*
X143676101Y-88193932D01*
X143894608Y-88014608D01*
X144073932Y-87796101D01*
X144207182Y-87546808D01*
X144212868Y-87528061D01*
X144380000Y-87528061D01*
X144380000Y-87731939D01*
X144419774Y-87931898D01*
X144497795Y-88120256D01*
X144611063Y-88289774D01*
X144655000Y-88333711D01*
X144655001Y-91371288D01*
X144611063Y-91415226D01*
X144497795Y-91584744D01*
X144419774Y-91773102D01*
X144380000Y-91973061D01*
X144380000Y-92176939D01*
X144419774Y-92376898D01*
X144497795Y-92565256D01*
X144611063Y-92734774D01*
X144755226Y-92878937D01*
X144924744Y-92992205D01*
X145113102Y-93070226D01*
X145313061Y-93110000D01*
X145516939Y-93110000D01*
X145716898Y-93070226D01*
X145905256Y-92992205D01*
X146074774Y-92878937D01*
X146218937Y-92734774D01*
X146332205Y-92565256D01*
X146410226Y-92376898D01*
X146450000Y-92176939D01*
X146450000Y-91973061D01*
X146410226Y-91773102D01*
X146332205Y-91584744D01*
X146218937Y-91415226D01*
X146175000Y-91371289D01*
X146175000Y-88333711D01*
X146218937Y-88289774D01*
X146332205Y-88120256D01*
X146410226Y-87931898D01*
X146450000Y-87731939D01*
X146450000Y-87528061D01*
X146410226Y-87328102D01*
X146332205Y-87139744D01*
X146218937Y-86970226D01*
X146074774Y-86826063D01*
X145905256Y-86712795D01*
X145716898Y-86634774D01*
X145516939Y-86595000D01*
X145313061Y-86595000D01*
X145113102Y-86634774D01*
X144924744Y-86712795D01*
X144755226Y-86826063D01*
X144611063Y-86970226D01*
X144497795Y-87139744D01*
X144419774Y-87328102D01*
X144380000Y-87528061D01*
X144212868Y-87528061D01*
X144289236Y-87276309D01*
X144316943Y-86995000D01*
X144289236Y-86713691D01*
X144207182Y-86443192D01*
X144073932Y-86193899D01*
X144033802Y-86145000D01*
X155991928Y-86145000D01*
X155991928Y-87845000D01*
X156004188Y-87969482D01*
X156040498Y-88089180D01*
X156099463Y-88199494D01*
X156178815Y-88296185D01*
X156275506Y-88375537D01*
X156385820Y-88434502D01*
X156505518Y-88470812D01*
X156630000Y-88483072D01*
X158330000Y-88483072D01*
X158454482Y-88470812D01*
X158574180Y-88434502D01*
X158684494Y-88375537D01*
X158781185Y-88296185D01*
X158860537Y-88199494D01*
X158919502Y-88089180D01*
X158955812Y-87969482D01*
X158968072Y-87845000D01*
X158968072Y-86145000D01*
X158955812Y-86020518D01*
X158919502Y-85900820D01*
X158860537Y-85790506D01*
X158781185Y-85693815D01*
X158684494Y-85614463D01*
X158574180Y-85555498D01*
X158493534Y-85531034D01*
X158577588Y-85455269D01*
X158751641Y-85221920D01*
X158876825Y-84959099D01*
X158921476Y-84811890D01*
X158800155Y-84582000D01*
X157607000Y-84582000D01*
X157607000Y-84602000D01*
X157353000Y-84602000D01*
X157353000Y-84582000D01*
X156159845Y-84582000D01*
X156038524Y-84811890D01*
X156083175Y-84959099D01*
X156208359Y-85221920D01*
X156382412Y-85455269D01*
X156466466Y-85531034D01*
X156385820Y-85555498D01*
X156275506Y-85614463D01*
X156178815Y-85693815D01*
X156099463Y-85790506D01*
X156040498Y-85900820D01*
X156004188Y-86020518D01*
X155991928Y-86145000D01*
X144033802Y-86145000D01*
X143894608Y-85975392D01*
X143676101Y-85796068D01*
X143538318Y-85722421D01*
X143730131Y-85607385D01*
X143938519Y-85418414D01*
X144106037Y-85192420D01*
X144226246Y-84938087D01*
X144266904Y-84804039D01*
X144144915Y-84582000D01*
X143002000Y-84582000D01*
X143002000Y-84602000D01*
X142748000Y-84602000D01*
X142748000Y-84582000D01*
X141605085Y-84582000D01*
X141483096Y-84804039D01*
X141523754Y-84938087D01*
X141643963Y-85192420D01*
X141811481Y-85418414D01*
X142019869Y-85607385D01*
X142211682Y-85722421D01*
X142073899Y-85796068D01*
X141855392Y-85975392D01*
X141676068Y-86193899D01*
X141542818Y-86443192D01*
X141460764Y-86713691D01*
X141433057Y-86995000D01*
X138555000Y-86995000D01*
X138555000Y-82264039D01*
X141483096Y-82264039D01*
X141523754Y-82398087D01*
X141643963Y-82652420D01*
X141811481Y-82878414D01*
X142019869Y-83067385D01*
X142215982Y-83185000D01*
X142019869Y-83302615D01*
X141811481Y-83491586D01*
X141643963Y-83717580D01*
X141523754Y-83971913D01*
X141483096Y-84105961D01*
X141605085Y-84328000D01*
X142748000Y-84328000D01*
X142748000Y-82042000D01*
X143002000Y-82042000D01*
X143002000Y-84328000D01*
X144144915Y-84328000D01*
X144266904Y-84105961D01*
X144264523Y-84098110D01*
X156038524Y-84098110D01*
X156159845Y-84328000D01*
X157353000Y-84328000D01*
X157353000Y-83134186D01*
X157607000Y-83134186D01*
X157607000Y-84328000D01*
X158800155Y-84328000D01*
X158921476Y-84098110D01*
X158876825Y-83950901D01*
X158751641Y-83688080D01*
X158577588Y-83454731D01*
X158361355Y-83259822D01*
X158111252Y-83110843D01*
X157836891Y-83013519D01*
X157607000Y-83134186D01*
X157353000Y-83134186D01*
X157123109Y-83013519D01*
X156848748Y-83110843D01*
X156598645Y-83259822D01*
X156382412Y-83454731D01*
X156208359Y-83688080D01*
X156083175Y-83950901D01*
X156038524Y-84098110D01*
X144264523Y-84098110D01*
X144226246Y-83971913D01*
X144106037Y-83717580D01*
X143938519Y-83491586D01*
X143730131Y-83302615D01*
X143534018Y-83185000D01*
X143730131Y-83067385D01*
X143938519Y-82878414D01*
X144106037Y-82652420D01*
X144226246Y-82398087D01*
X144266904Y-82264039D01*
X144144915Y-82042000D01*
X143002000Y-82042000D01*
X142748000Y-82042000D01*
X141605085Y-82042000D01*
X141483096Y-82264039D01*
X138555000Y-82264039D01*
X138555000Y-81952332D01*
X138558677Y-81915000D01*
X138555000Y-81877667D01*
X138555000Y-78362322D01*
X138558676Y-78324999D01*
X138555000Y-78287676D01*
X138555000Y-78287667D01*
X138544003Y-78176014D01*
X138500546Y-78032753D01*
X138429974Y-77900724D01*
X138335001Y-77784999D01*
X138306003Y-77761201D01*
X136868804Y-76324003D01*
X136845001Y-76294999D01*
X136729276Y-76200026D01*
X136693072Y-76180674D01*
X136693072Y-76035000D01*
X136680812Y-75910518D01*
X136644502Y-75790820D01*
X136590612Y-75690000D01*
X138115199Y-75690000D01*
X141474292Y-79049094D01*
X141460764Y-79093691D01*
X141433057Y-79375000D01*
X141460764Y-79656309D01*
X141542818Y-79926808D01*
X141676068Y-80176101D01*
X141855392Y-80394608D01*
X142073899Y-80573932D01*
X142211682Y-80647579D01*
X142019869Y-80762615D01*
X141811481Y-80951586D01*
X141643963Y-81177580D01*
X141523754Y-81431913D01*
X141483096Y-81565961D01*
X141605085Y-81788000D01*
X142748000Y-81788000D01*
X142748000Y-81768000D01*
X143002000Y-81768000D01*
X143002000Y-81788000D01*
X144144915Y-81788000D01*
X144266904Y-81565961D01*
X144226246Y-81431913D01*
X144106037Y-81177580D01*
X143938519Y-80951586D01*
X143730131Y-80762615D01*
X143538318Y-80647579D01*
X143676101Y-80573932D01*
X143894608Y-80394608D01*
X144073932Y-80176101D01*
X144207182Y-79926808D01*
X144289236Y-79656309D01*
X144316943Y-79375000D01*
X144289236Y-79093691D01*
X144207182Y-78823192D01*
X144073932Y-78573899D01*
X143894608Y-78355392D01*
X143676101Y-78176068D01*
X143543142Y-78105000D01*
X143676101Y-78033932D01*
X143894608Y-77854608D01*
X144073932Y-77636101D01*
X144207182Y-77386808D01*
X144289236Y-77116309D01*
X144316943Y-76835000D01*
X144289236Y-76553691D01*
X144207182Y-76283192D01*
X144073932Y-76033899D01*
X143894608Y-75815392D01*
X143676101Y-75636068D01*
X143426808Y-75502818D01*
X143156309Y-75420764D01*
X142945492Y-75400000D01*
X142804508Y-75400000D01*
X142593691Y-75420764D01*
X142323192Y-75502818D01*
X142073899Y-75636068D01*
X141855392Y-75815392D01*
X141676068Y-76033899D01*
X141542818Y-76283192D01*
X141460764Y-76553691D01*
X141433057Y-76835000D01*
X141435598Y-76860796D01*
X138993804Y-74419003D01*
X138970001Y-74389999D01*
X138854276Y-74295026D01*
X138722247Y-74224454D01*
X138578986Y-74180997D01*
X138467333Y-74170000D01*
X138467322Y-74170000D01*
X138430000Y-74166324D01*
X138392678Y-74170000D01*
X133387322Y-74170000D01*
X133349999Y-74166324D01*
X133312676Y-74170000D01*
X133312667Y-74170000D01*
X133201014Y-74180997D01*
X133057753Y-74224454D01*
X132925724Y-74295026D01*
X132809999Y-74389999D01*
X132786201Y-74418997D01*
X128590199Y-78615000D01*
X120600901Y-78615000D01*
X120578932Y-78573899D01*
X120399608Y-78355392D01*
X120181101Y-78176068D01*
X119931808Y-78042818D01*
X119661309Y-77960764D01*
X119450492Y-77940000D01*
X119309508Y-77940000D01*
X119098691Y-77960764D01*
X118828192Y-78042818D01*
X118578899Y-78176068D01*
X118360392Y-78355392D01*
X118181068Y-78573899D01*
X118110000Y-78706858D01*
X118038932Y-78573899D01*
X117859608Y-78355392D01*
X117641101Y-78176068D01*
X117391808Y-78042818D01*
X117121309Y-77960764D01*
X116910492Y-77940000D01*
X116769508Y-77940000D01*
X116558691Y-77960764D01*
X116288192Y-78042818D01*
X116038899Y-78176068D01*
X115820392Y-78355392D01*
X115641068Y-78573899D01*
X115570000Y-78706858D01*
X115498932Y-78573899D01*
X115319608Y-78355392D01*
X115101101Y-78176068D01*
X114851808Y-78042818D01*
X114581309Y-77960764D01*
X114370492Y-77940000D01*
X114229508Y-77940000D01*
X114018691Y-77960764D01*
X113748192Y-78042818D01*
X113498899Y-78176068D01*
X113280392Y-78355392D01*
X113101068Y-78573899D01*
X113030000Y-78706858D01*
X112958932Y-78573899D01*
X112779608Y-78355392D01*
X112561101Y-78176068D01*
X112311808Y-78042818D01*
X112041309Y-77960764D01*
X111830492Y-77940000D01*
X111689508Y-77940000D01*
X111478691Y-77960764D01*
X111208192Y-78042818D01*
X110958899Y-78176068D01*
X110740392Y-78355392D01*
X110561068Y-78573899D01*
X110490000Y-78706858D01*
X110418932Y-78573899D01*
X110239608Y-78355392D01*
X110021101Y-78176068D01*
X109771808Y-78042818D01*
X109501309Y-77960764D01*
X109290492Y-77940000D01*
X109149508Y-77940000D01*
X108938691Y-77960764D01*
X108668192Y-78042818D01*
X108418899Y-78176068D01*
X108200392Y-78355392D01*
X108021068Y-78573899D01*
X107950000Y-78706858D01*
X107878932Y-78573899D01*
X107699608Y-78355392D01*
X107481101Y-78176068D01*
X107231808Y-78042818D01*
X106961309Y-77960764D01*
X106750492Y-77940000D01*
X106609508Y-77940000D01*
X106398691Y-77960764D01*
X106128192Y-78042818D01*
X105878899Y-78176068D01*
X105660392Y-78355392D01*
X105481068Y-78573899D01*
X105410000Y-78706858D01*
X105338932Y-78573899D01*
X105159608Y-78355392D01*
X104941101Y-78176068D01*
X104900000Y-78154099D01*
X104900000Y-77595000D01*
X128201289Y-77595000D01*
X128245226Y-77638937D01*
X128414744Y-77752205D01*
X128603102Y-77830226D01*
X128803061Y-77870000D01*
X129006939Y-77870000D01*
X129206898Y-77830226D01*
X129395256Y-77752205D01*
X129564774Y-77638937D01*
X129708937Y-77494774D01*
X129822205Y-77325256D01*
X129900226Y-77136898D01*
X129940000Y-76936939D01*
X129940000Y-76733061D01*
X129906961Y-76566961D01*
X130073061Y-76600000D01*
X130276939Y-76600000D01*
X130476898Y-76560226D01*
X130665256Y-76482205D01*
X130834774Y-76368937D01*
X130978937Y-76224774D01*
X131092205Y-76055256D01*
X131170226Y-75866898D01*
X131210000Y-75666939D01*
X131210000Y-75463061D01*
X131170226Y-75263102D01*
X131092205Y-75074744D01*
X130978937Y-74905226D01*
X130834774Y-74761063D01*
X130665256Y-74647795D01*
X130476898Y-74569774D01*
X130276939Y-74530000D01*
X130073061Y-74530000D01*
X129873102Y-74569774D01*
X129684744Y-74647795D01*
X129515226Y-74761063D01*
X129471289Y-74805000D01*
X127904013Y-74805000D01*
X127917205Y-74785256D01*
X127995226Y-74596898D01*
X128035000Y-74396939D01*
X128035000Y-74193061D01*
X127995226Y-73993102D01*
X127917205Y-73804744D01*
X127837195Y-73685000D01*
X159995000Y-73685000D01*
X159995001Y-80612572D01*
X159995000Y-80612582D01*
X159995001Y-114910000D01*
X84480000Y-114910000D01*
X84480000Y-86995000D01*
X133813057Y-86995000D01*
X133840764Y-87276309D01*
X133922818Y-87546808D01*
X134056068Y-87796101D01*
X134235392Y-88014608D01*
X134453899Y-88193932D01*
X134586858Y-88265000D01*
X134453899Y-88336068D01*
X134235392Y-88515392D01*
X134056068Y-88733899D01*
X133922818Y-88983192D01*
X133840764Y-89253691D01*
X133813057Y-89535000D01*
X133840764Y-89816309D01*
X133922818Y-90086808D01*
X134056068Y-90336101D01*
X134235392Y-90554608D01*
X134453899Y-90733932D01*
X134586858Y-90805000D01*
X134453899Y-90876068D01*
X134235392Y-91055392D01*
X134056068Y-91273899D01*
X133922818Y-91523192D01*
X133840764Y-91793691D01*
X133813057Y-92075000D01*
X133840764Y-92356309D01*
X133922818Y-92626808D01*
X134056068Y-92876101D01*
X134235392Y-93094608D01*
X134453899Y-93273932D01*
X134586858Y-93345000D01*
X134453899Y-93416068D01*
X134235392Y-93595392D01*
X134056068Y-93813899D01*
X133922818Y-94063192D01*
X133840764Y-94333691D01*
X133813057Y-94615000D01*
X133840764Y-94896309D01*
X133922818Y-95166808D01*
X134056068Y-95416101D01*
X134235392Y-95634608D01*
X134453899Y-95813932D01*
X134703192Y-95947182D01*
X134973691Y-96029236D01*
X135184508Y-96050000D01*
X135325492Y-96050000D01*
X135536309Y-96029236D01*
X135806808Y-95947182D01*
X136056101Y-95813932D01*
X136274608Y-95634608D01*
X136453932Y-95416101D01*
X136587182Y-95166808D01*
X136669236Y-94896309D01*
X136696943Y-94615000D01*
X136669236Y-94333691D01*
X136587182Y-94063192D01*
X136453932Y-93813899D01*
X136274608Y-93595392D01*
X136056101Y-93416068D01*
X135923142Y-93345000D01*
X136056101Y-93273932D01*
X136274608Y-93094608D01*
X136453932Y-92876101D01*
X136587182Y-92626808D01*
X136669236Y-92356309D01*
X136696943Y-92075000D01*
X136669236Y-91793691D01*
X136587182Y-91523192D01*
X136453932Y-91273899D01*
X136274608Y-91055392D01*
X136056101Y-90876068D01*
X135923142Y-90805000D01*
X136056101Y-90733932D01*
X136274608Y-90554608D01*
X136453932Y-90336101D01*
X136587182Y-90086808D01*
X136669236Y-89816309D01*
X136696943Y-89535000D01*
X136669236Y-89253691D01*
X136587182Y-88983192D01*
X136453932Y-88733899D01*
X136274608Y-88515392D01*
X136056101Y-88336068D01*
X135923142Y-88265000D01*
X136056101Y-88193932D01*
X136274608Y-88014608D01*
X136453932Y-87796101D01*
X136587182Y-87546808D01*
X136669236Y-87276309D01*
X136696943Y-86995000D01*
X136669236Y-86713691D01*
X136587182Y-86443192D01*
X136453932Y-86193899D01*
X136274608Y-85975392D01*
X136056101Y-85796068D01*
X135918318Y-85722421D01*
X136110131Y-85607385D01*
X136318519Y-85418414D01*
X136486037Y-85192420D01*
X136606246Y-84938087D01*
X136646904Y-84804039D01*
X136524915Y-84582000D01*
X135382000Y-84582000D01*
X135382000Y-84602000D01*
X135128000Y-84602000D01*
X135128000Y-84582000D01*
X133985085Y-84582000D01*
X133863096Y-84804039D01*
X133903754Y-84938087D01*
X134023963Y-85192420D01*
X134191481Y-85418414D01*
X134399869Y-85607385D01*
X134591682Y-85722421D01*
X134453899Y-85796068D01*
X134235392Y-85975392D01*
X134056068Y-86193899D01*
X133922818Y-86443192D01*
X133840764Y-86713691D01*
X133813057Y-86995000D01*
X84480000Y-86995000D01*
X84480000Y-82448061D01*
X95485000Y-82448061D01*
X95485000Y-82651939D01*
X95524774Y-82851898D01*
X95602795Y-83040256D01*
X95716063Y-83209774D01*
X95860226Y-83353937D01*
X96029744Y-83467205D01*
X96218102Y-83545226D01*
X96418061Y-83585000D01*
X96621939Y-83585000D01*
X96821898Y-83545226D01*
X97010256Y-83467205D01*
X97179774Y-83353937D01*
X97223711Y-83310000D01*
X98991289Y-83310000D01*
X99035226Y-83353937D01*
X99204744Y-83467205D01*
X99393102Y-83545226D01*
X99593061Y-83585000D01*
X99796939Y-83585000D01*
X99996898Y-83545226D01*
X100185256Y-83467205D01*
X100354774Y-83353937D01*
X100498937Y-83209774D01*
X100612205Y-83040256D01*
X100690226Y-82851898D01*
X100730000Y-82651939D01*
X100730000Y-82448061D01*
X100690226Y-82248102D01*
X100612205Y-82059744D01*
X100498937Y-81890226D01*
X100354774Y-81746063D01*
X100185256Y-81632795D01*
X99996898Y-81554774D01*
X99796939Y-81515000D01*
X99593061Y-81515000D01*
X99393102Y-81554774D01*
X99204744Y-81632795D01*
X99035226Y-81746063D01*
X98991289Y-81790000D01*
X97223711Y-81790000D01*
X97179774Y-81746063D01*
X97010256Y-81632795D01*
X96821898Y-81554774D01*
X96621939Y-81515000D01*
X96418061Y-81515000D01*
X96218102Y-81554774D01*
X96029744Y-81632795D01*
X95860226Y-81746063D01*
X95716063Y-81890226D01*
X95602795Y-82059744D01*
X95524774Y-82248102D01*
X95485000Y-82448061D01*
X84480000Y-82448061D01*
X84480000Y-64484040D01*
X84968091Y-64484040D01*
X85062930Y-64748881D01*
X85207615Y-64990131D01*
X85396586Y-65198519D01*
X85622580Y-65366037D01*
X85876913Y-65486246D01*
X86010961Y-65526904D01*
X86233000Y-65404915D01*
X86233000Y-64262000D01*
X85089376Y-64262000D01*
X84968091Y-64484040D01*
X84480000Y-64484040D01*
X84480000Y-63525000D01*
X85061540Y-63525000D01*
X84968091Y-63785960D01*
G36*
X106172000Y-95123000D02*
G01*
X106192000Y-95123000D01*
X106192000Y-95377000D01*
X106172000Y-95377000D01*
X106172000Y-96424750D01*
X106280000Y-96532750D01*
X106280000Y-96621939D01*
X106319774Y-96821898D01*
X106397795Y-97010256D01*
X106511063Y-97179774D01*
X106655226Y-97323937D01*
X106824744Y-97437205D01*
X107013102Y-97515226D01*
X107213061Y-97555000D01*
X107416939Y-97555000D01*
X107616898Y-97515226D01*
X107805256Y-97437205D01*
X107974774Y-97323937D01*
X108018711Y-97280000D01*
X109892879Y-97280000D01*
X109842746Y-97401032D01*
X109791500Y-97658662D01*
X109791500Y-97921338D01*
X109842746Y-98178968D01*
X109943268Y-98421649D01*
X110089203Y-98640057D01*
X110274943Y-98825797D01*
X110493351Y-98971732D01*
X110706448Y-99060000D01*
X110493351Y-99148268D01*
X110274943Y-99294203D01*
X110089203Y-99479943D01*
X109943268Y-99698351D01*
X109842746Y-99941032D01*
X109791500Y-100198662D01*
X109791500Y-100461338D01*
X109842746Y-100718968D01*
X109943268Y-100961649D01*
X110089203Y-101180057D01*
X110274943Y-101365797D01*
X110493351Y-101511732D01*
X110706448Y-101600000D01*
X110493351Y-101688268D01*
X110274943Y-101834203D01*
X110089203Y-102019943D01*
X109943268Y-102238351D01*
X109842746Y-102481032D01*
X109791500Y-102738662D01*
X109791500Y-103001338D01*
X109842746Y-103258968D01*
X109892879Y-103380000D01*
X104208711Y-103380000D01*
X104164774Y-103336063D01*
X103995256Y-103222795D01*
X103806898Y-103144774D01*
X103606939Y-103105000D01*
X103403061Y-103105000D01*
X103203102Y-103144774D01*
X103014744Y-103222795D01*
X102845226Y-103336063D01*
X102701063Y-103480226D01*
X102587795Y-103649744D01*
X102509774Y-103838102D01*
X102470000Y-104038061D01*
X102470000Y-104241939D01*
X102509774Y-104441898D01*
X102587795Y-104630256D01*
X102701063Y-104799774D01*
X102845226Y-104943937D01*
X103014744Y-105057205D01*
X103203102Y-105135226D01*
X103403061Y-105175000D01*
X103606939Y-105175000D01*
X103806898Y-105135226D01*
X103995256Y-105057205D01*
X104164774Y-104943937D01*
X104208711Y-104900000D01*
X109892879Y-104900000D01*
X109842746Y-105021032D01*
X109791500Y-105278662D01*
X109791500Y-105541338D01*
X109842746Y-105798968D01*
X109892879Y-105920000D01*
X99732322Y-105920000D01*
X99694999Y-105916324D01*
X99657676Y-105920000D01*
X99657667Y-105920000D01*
X99657098Y-105920056D01*
X99707254Y-105798968D01*
X99758500Y-105541338D01*
X99758500Y-105278662D01*
X99707254Y-105021032D01*
X99606732Y-104778351D01*
X99460797Y-104559943D01*
X99275057Y-104374203D01*
X99056649Y-104228268D01*
X98843552Y-104140000D01*
X99056649Y-104051732D01*
X99275057Y-103905797D01*
X99460797Y-103720057D01*
X99606732Y-103501649D01*
X99707254Y-103258968D01*
X99758500Y-103001338D01*
X99758500Y-102738662D01*
X99707254Y-102481032D01*
X99606732Y-102238351D01*
X99460797Y-102019943D01*
X99275057Y-101834203D01*
X99056649Y-101688268D01*
X98843552Y-101600000D01*
X99056649Y-101511732D01*
X99275057Y-101365797D01*
X99460797Y-101180057D01*
X99606732Y-100961649D01*
X99707254Y-100718968D01*
X99758500Y-100461338D01*
X99758500Y-100198662D01*
X99707254Y-99941032D01*
X99606732Y-99698351D01*
X99460797Y-99479943D01*
X99275057Y-99294203D01*
X99056649Y-99148268D01*
X98843552Y-99060000D01*
X99056649Y-98971732D01*
X99275057Y-98825797D01*
X99460797Y-98640057D01*
X99606732Y-98421649D01*
X99707254Y-98178968D01*
X99758500Y-97921338D01*
X99758500Y-97658662D01*
X99707254Y-97401032D01*
X99606732Y-97158351D01*
X99460797Y-96939943D01*
X99275057Y-96754203D01*
X99056649Y-96608268D01*
X98843552Y-96520000D01*
X99056649Y-96431732D01*
X99275057Y-96285797D01*
X99460797Y-96100057D01*
X99606732Y-95881649D01*
X99695000Y-95668552D01*
X99783268Y-95881649D01*
X99929203Y-96100057D01*
X100114943Y-96285797D01*
X100333351Y-96431732D01*
X100576032Y-96532254D01*
X100833662Y-96583500D01*
X101096338Y-96583500D01*
X101353968Y-96532254D01*
X101596649Y-96431732D01*
X101815057Y-96285797D01*
X102000797Y-96100057D01*
X102146732Y-95881649D01*
X102235000Y-95668552D01*
X102323268Y-95881649D01*
X102469203Y-96100057D01*
X102654943Y-96285797D01*
X102873351Y-96431732D01*
X103116032Y-96532254D01*
X103373662Y-96583500D01*
X103636338Y-96583500D01*
X103893968Y-96532254D01*
X104136649Y-96431732D01*
X104355057Y-96285797D01*
X104540797Y-96100057D01*
X104686732Y-95881649D01*
X104709332Y-95827089D01*
X104708428Y-95948500D01*
X104720688Y-96072982D01*
X104756998Y-96192680D01*
X104815963Y-96302994D01*
X104895315Y-96399685D01*
X104992006Y-96479037D01*
X105102320Y-96538002D01*
X105222018Y-96574312D01*
X105346500Y-96586572D01*
X105759250Y-96583500D01*
X105918000Y-96424750D01*
X105918000Y-95377000D01*
X105898000Y-95377000D01*
X105898000Y-95123000D01*
X105918000Y-95123000D01*
X105918000Y-95103000D01*
X106172000Y-95103000D01*
X106172000Y-95123000D01*
X106172000Y-95123000D01*
G37*
X106172000Y-95123000D02*
X106192000Y-95123000D01*
X106192000Y-95377000D01*
X106172000Y-95377000D01*
X106172000Y-96424750D01*
X106280000Y-96532750D01*
X106280000Y-96621939D01*
X106319774Y-96821898D01*
X106397795Y-97010256D01*
X106511063Y-97179774D01*
X106655226Y-97323937D01*
X106824744Y-97437205D01*
X107013102Y-97515226D01*
X107213061Y-97555000D01*
X107416939Y-97555000D01*
X107616898Y-97515226D01*
X107805256Y-97437205D01*
X107974774Y-97323937D01*
X108018711Y-97280000D01*
X109892879Y-97280000D01*
X109842746Y-97401032D01*
X109791500Y-97658662D01*
X109791500Y-97921338D01*
X109842746Y-98178968D01*
X109943268Y-98421649D01*
X110089203Y-98640057D01*
X110274943Y-98825797D01*
X110493351Y-98971732D01*
X110706448Y-99060000D01*
X110493351Y-99148268D01*
X110274943Y-99294203D01*
X110089203Y-99479943D01*
X109943268Y-99698351D01*
X109842746Y-99941032D01*
X109791500Y-100198662D01*
X109791500Y-100461338D01*
X109842746Y-100718968D01*
X109943268Y-100961649D01*
X110089203Y-101180057D01*
X110274943Y-101365797D01*
X110493351Y-101511732D01*
X110706448Y-101600000D01*
X110493351Y-101688268D01*
X110274943Y-101834203D01*
X110089203Y-102019943D01*
X109943268Y-102238351D01*
X109842746Y-102481032D01*
X109791500Y-102738662D01*
X109791500Y-103001338D01*
X109842746Y-103258968D01*
X109892879Y-103380000D01*
X104208711Y-103380000D01*
X104164774Y-103336063D01*
X103995256Y-103222795D01*
X103806898Y-103144774D01*
X103606939Y-103105000D01*
X103403061Y-103105000D01*
X103203102Y-103144774D01*
X103014744Y-103222795D01*
X102845226Y-103336063D01*
X102701063Y-103480226D01*
X102587795Y-103649744D01*
X102509774Y-103838102D01*
X102470000Y-104038061D01*
X102470000Y-104241939D01*
X102509774Y-104441898D01*
X102587795Y-104630256D01*
X102701063Y-104799774D01*
X102845226Y-104943937D01*
X103014744Y-105057205D01*
X103203102Y-105135226D01*
X103403061Y-105175000D01*
X103606939Y-105175000D01*
X103806898Y-105135226D01*
X103995256Y-105057205D01*
X104164774Y-104943937D01*
X104208711Y-104900000D01*
X109892879Y-104900000D01*
X109842746Y-105021032D01*
X109791500Y-105278662D01*
X109791500Y-105541338D01*
X109842746Y-105798968D01*
X109892879Y-105920000D01*
X99732322Y-105920000D01*
X99694999Y-105916324D01*
X99657676Y-105920000D01*
X99657667Y-105920000D01*
X99657098Y-105920056D01*
X99707254Y-105798968D01*
X99758500Y-105541338D01*
X99758500Y-105278662D01*
X99707254Y-105021032D01*
X99606732Y-104778351D01*
X99460797Y-104559943D01*
X99275057Y-104374203D01*
X99056649Y-104228268D01*
X98843552Y-104140000D01*
X99056649Y-104051732D01*
X99275057Y-103905797D01*
X99460797Y-103720057D01*
X99606732Y-103501649D01*
X99707254Y-103258968D01*
X99758500Y-103001338D01*
X99758500Y-102738662D01*
X99707254Y-102481032D01*
X99606732Y-102238351D01*
X99460797Y-102019943D01*
X99275057Y-101834203D01*
X99056649Y-101688268D01*
X98843552Y-101600000D01*
X99056649Y-101511732D01*
X99275057Y-101365797D01*
X99460797Y-101180057D01*
X99606732Y-100961649D01*
X99707254Y-100718968D01*
X99758500Y-100461338D01*
X99758500Y-100198662D01*
X99707254Y-99941032D01*
X99606732Y-99698351D01*
X99460797Y-99479943D01*
X99275057Y-99294203D01*
X99056649Y-99148268D01*
X98843552Y-99060000D01*
X99056649Y-98971732D01*
X99275057Y-98825797D01*
X99460797Y-98640057D01*
X99606732Y-98421649D01*
X99707254Y-98178968D01*
X99758500Y-97921338D01*
X99758500Y-97658662D01*
X99707254Y-97401032D01*
X99606732Y-97158351D01*
X99460797Y-96939943D01*
X99275057Y-96754203D01*
X99056649Y-96608268D01*
X98843552Y-96520000D01*
X99056649Y-96431732D01*
X99275057Y-96285797D01*
X99460797Y-96100057D01*
X99606732Y-95881649D01*
X99695000Y-95668552D01*
X99783268Y-95881649D01*
X99929203Y-96100057D01*
X100114943Y-96285797D01*
X100333351Y-96431732D01*
X100576032Y-96532254D01*
X100833662Y-96583500D01*
X101096338Y-96583500D01*
X101353968Y-96532254D01*
X101596649Y-96431732D01*
X101815057Y-96285797D01*
X102000797Y-96100057D01*
X102146732Y-95881649D01*
X102235000Y-95668552D01*
X102323268Y-95881649D01*
X102469203Y-96100057D01*
X102654943Y-96285797D01*
X102873351Y-96431732D01*
X103116032Y-96532254D01*
X103373662Y-96583500D01*
X103636338Y-96583500D01*
X103893968Y-96532254D01*
X104136649Y-96431732D01*
X104355057Y-96285797D01*
X104540797Y-96100057D01*
X104686732Y-95881649D01*
X104709332Y-95827089D01*
X104708428Y-95948500D01*
X104720688Y-96072982D01*
X104756998Y-96192680D01*
X104815963Y-96302994D01*
X104895315Y-96399685D01*
X104992006Y-96479037D01*
X105102320Y-96538002D01*
X105222018Y-96574312D01*
X105346500Y-96586572D01*
X105759250Y-96583500D01*
X105918000Y-96424750D01*
X105918000Y-95377000D01*
X105898000Y-95377000D01*
X105898000Y-95123000D01*
X105918000Y-95123000D01*
X105918000Y-95103000D01*
X106172000Y-95103000D01*
X106172000Y-95123000D01*
M02*
