G04 #@! TF.GenerationSoftware,KiCad,Pcbnew,(5.1.2-1)-1*
G04 #@! TF.CreationDate,2019-05-24T19:31:09+01:00*
G04 #@! TF.ProjectId,8840A_CPU_Programmer,38383430-415f-4435-9055-5f50726f6772,rev?*
G04 #@! TF.SameCoordinates,Original*
G04 #@! TF.FileFunction,Copper,L1,Top*
G04 #@! TF.FilePolarity,Positive*
%FSLAX46Y46*%
G04 Gerber Fmt 4.6, Leading zero omitted, Abs format (unit mm)*
G04 Created by KiCad (PCBNEW (5.1.2-1)-1) date 2019-05-24 19:31:09*
%MOMM*%
%LPD*%
G04 APERTURE LIST*
%ADD10R,1.600000X1.600000*%
%ADD11O,1.600000X1.600000*%
%ADD12R,1.250000X1.500000*%
%ADD13R,1.397000X1.397000*%
%ADD14C,1.397000*%
%ADD15R,1.300000X1.500000*%
%ADD16R,1.700000X1.700000*%
%ADD17O,1.700000X1.700000*%
%ADD18C,0.800000*%
%ADD19C,0.250000*%
%ADD20C,0.254000*%
G04 APERTURE END LIST*
D10*
X135255000Y-76835000D03*
D11*
X142875000Y-94615000D03*
X135255000Y-79375000D03*
X142875000Y-92075000D03*
X135255000Y-81915000D03*
X142875000Y-89535000D03*
X135255000Y-84455000D03*
X142875000Y-86995000D03*
X135255000Y-86995000D03*
X142875000Y-84455000D03*
X135255000Y-89535000D03*
X142875000Y-81915000D03*
X135255000Y-92075000D03*
X142875000Y-79375000D03*
X135255000Y-94615000D03*
X142875000Y-76835000D03*
D12*
X142240000Y-104815000D03*
X142240000Y-107315000D03*
D10*
X119380000Y-64135000D03*
D11*
X86360000Y-79375000D03*
X116840000Y-64135000D03*
X88900000Y-79375000D03*
X114300000Y-64135000D03*
X91440000Y-79375000D03*
X111760000Y-64135000D03*
X93980000Y-79375000D03*
X109220000Y-64135000D03*
X96520000Y-79375000D03*
X106680000Y-64135000D03*
X99060000Y-79375000D03*
X104140000Y-64135000D03*
X101600000Y-79375000D03*
X101600000Y-64135000D03*
X104140000Y-79375000D03*
X99060000Y-64135000D03*
X106680000Y-79375000D03*
X96520000Y-64135000D03*
X109220000Y-79375000D03*
X93980000Y-64135000D03*
X111760000Y-79375000D03*
X91440000Y-64135000D03*
X114300000Y-79375000D03*
X88900000Y-64135000D03*
X116840000Y-79375000D03*
X86360000Y-64135000D03*
X119380000Y-79375000D03*
D13*
X106045000Y-95250000D03*
D14*
X103505000Y-92710000D03*
X103505000Y-95250000D03*
X100965000Y-92710000D03*
X100965000Y-95250000D03*
X98425000Y-92710000D03*
X95885000Y-95250000D03*
X98425000Y-95250000D03*
X95885000Y-97790000D03*
X98425000Y-97790000D03*
X95885000Y-100330000D03*
X98425000Y-100330000D03*
X95885000Y-102870000D03*
X98425000Y-102870000D03*
X95885000Y-105410000D03*
X98425000Y-105410000D03*
X95885000Y-107950000D03*
X98425000Y-110490000D03*
X98425000Y-107950000D03*
X100965000Y-110490000D03*
X100965000Y-107950000D03*
X103505000Y-110490000D03*
X103505000Y-107950000D03*
X106045000Y-110490000D03*
X106045000Y-107950000D03*
X108585000Y-110490000D03*
X108585000Y-107950000D03*
X111125000Y-110490000D03*
X113665000Y-107950000D03*
X111125000Y-107950000D03*
X113665000Y-105410000D03*
X111125000Y-105410000D03*
X113665000Y-102870000D03*
X111125000Y-102870000D03*
X113665000Y-100330000D03*
X111125000Y-100330000D03*
X113665000Y-97790000D03*
X111125000Y-97790000D03*
X113665000Y-95250000D03*
X111125000Y-92710000D03*
X111125000Y-95250000D03*
X108585000Y-92710000D03*
X108585000Y-95250000D03*
X106045000Y-92710000D03*
D15*
X131445000Y-107870000D03*
X131445000Y-110570000D03*
X128905000Y-102155000D03*
X128905000Y-104855000D03*
X145415000Y-104775000D03*
X145415000Y-107475000D03*
X155575000Y-99220000D03*
X155575000Y-96520000D03*
X151765000Y-99220000D03*
X151765000Y-96520000D03*
D16*
X157480000Y-86995000D03*
D17*
X157480000Y-84455000D03*
D10*
X155575000Y-102870000D03*
D11*
X155575000Y-113030000D03*
D10*
X150495000Y-102870000D03*
D11*
X150495000Y-113030000D03*
D12*
X124460000Y-100290000D03*
X124460000Y-97790000D03*
D18*
X145415000Y-87630000D03*
X145415000Y-92075000D03*
X124460000Y-90805000D03*
X85090000Y-89535000D03*
X131445000Y-89535000D03*
X124460000Y-105410000D03*
X128905000Y-76835000D03*
X128905000Y-107950000D03*
X130175000Y-75565000D03*
X127000000Y-110490000D03*
X92710000Y-92710000D03*
X90170000Y-95250000D03*
X87630000Y-93980000D03*
X86360000Y-97790000D03*
X88900000Y-99060000D03*
X91440000Y-104140000D03*
X99695000Y-82550000D03*
X96520000Y-82550000D03*
X97790000Y-68580000D03*
X122555000Y-113030000D03*
X115570000Y-69850000D03*
X115570000Y-106680000D03*
X121285000Y-111760000D03*
X128905000Y-109220000D03*
X107315000Y-96520000D03*
X118110000Y-99060000D03*
X118110000Y-81280000D03*
X116840000Y-95250000D03*
X110490000Y-71120000D03*
X127000000Y-93980000D03*
X127000000Y-74295000D03*
X99060000Y-73660000D03*
X105410000Y-67310000D03*
X119380000Y-104140000D03*
X103505000Y-104140000D03*
D19*
X142280000Y-104775000D02*
X142240000Y-104815000D01*
X145415000Y-104775000D02*
X142280000Y-104775000D01*
X145415000Y-92075000D02*
X142875000Y-89535000D01*
X145415000Y-97155000D02*
X145415000Y-92075000D01*
X142240000Y-100330000D02*
X145415000Y-97155000D01*
X142240000Y-104815000D02*
X142240000Y-100330000D01*
X142875000Y-76835000D02*
X144145000Y-76835000D01*
X145415000Y-78105000D02*
X145415000Y-87630000D01*
X144145000Y-76835000D02*
X145415000Y-78105000D01*
X124460000Y-97790000D02*
X124460000Y-90805000D01*
X155575000Y-113030000D02*
X150495000Y-113030000D01*
X142240000Y-107440000D02*
X142240000Y-107315000D01*
X147830000Y-113030000D02*
X142240000Y-107440000D01*
X150495000Y-113030000D02*
X147830000Y-113030000D01*
X142240000Y-107315000D02*
X140335000Y-107315000D01*
X140335000Y-107315000D02*
X139700000Y-106680000D01*
X139700000Y-87630000D02*
X142875000Y-84455000D01*
X139700000Y-106680000D02*
X139700000Y-87630000D01*
X85090000Y-65405000D02*
X85090000Y-89535000D01*
X86360000Y-64135000D02*
X85090000Y-65405000D01*
X142875000Y-84455000D02*
X135255000Y-84455000D01*
X135255000Y-84455000D02*
X132080000Y-84455000D01*
X131445000Y-85090000D02*
X131445000Y-89535000D01*
X132080000Y-84455000D02*
X131445000Y-85090000D01*
X124460000Y-105410000D02*
X124460000Y-100290000D01*
X125770000Y-100290000D02*
X124460000Y-100290000D01*
X125770000Y-79335000D02*
X125770000Y-100290000D01*
X119380000Y-72390000D02*
X125770000Y-79335000D01*
X119380000Y-64135000D02*
X119380000Y-72390000D01*
X151765000Y-102650000D02*
X151545000Y-102870000D01*
X151545000Y-102870000D02*
X150495000Y-102870000D01*
X151765000Y-99220000D02*
X151765000Y-102650000D01*
X151765000Y-99220000D02*
X148750000Y-99220000D01*
X148750000Y-99220000D02*
X147320000Y-97790000D01*
X147320000Y-91440000D02*
X142875000Y-86995000D01*
X147320000Y-97790000D02*
X147320000Y-91440000D01*
X155575000Y-99220000D02*
X155575000Y-102870000D01*
X155575000Y-103920000D02*
X155575000Y-102870000D01*
X152020000Y-107475000D02*
X155575000Y-103920000D01*
X145415000Y-107475000D02*
X152020000Y-107475000D01*
X155575000Y-96520000D02*
X151765000Y-96520000D01*
X152665000Y-96520000D02*
X151765000Y-96520000D01*
X156380000Y-86995000D02*
X155575000Y-87800000D01*
X157480000Y-86995000D02*
X156380000Y-86995000D01*
X155575000Y-87800000D02*
X155575000Y-96520000D01*
X128905000Y-102155000D02*
X128905000Y-76835000D01*
X128905000Y-107950000D02*
X128905000Y-104855000D01*
X131445000Y-107870000D02*
X131445000Y-99060000D01*
X130175000Y-97790000D02*
X130175000Y-75565000D01*
X131445000Y-99060000D02*
X130175000Y-97790000D01*
X131365000Y-110490000D02*
X131445000Y-110570000D01*
X127000000Y-110490000D02*
X131365000Y-110490000D01*
X100965000Y-95250000D02*
X102235000Y-93980000D01*
X102235000Y-93980000D02*
X102235000Y-82550000D01*
X103340001Y-64934999D02*
X104140000Y-64135000D01*
X103014999Y-81770001D02*
X103014999Y-65260001D01*
X103014999Y-65260001D02*
X103340001Y-64934999D01*
X102235000Y-82550000D02*
X103014999Y-81770001D01*
X92710000Y-65405000D02*
X93980000Y-64135000D01*
X92710000Y-92710000D02*
X92710000Y-65405000D01*
X90170000Y-65405000D02*
X91440000Y-64135000D01*
X90170000Y-95250000D02*
X90170000Y-65405000D01*
X87630000Y-65405000D02*
X87630000Y-93980000D01*
X88900000Y-64135000D02*
X87630000Y-65405000D01*
X86360000Y-79375000D02*
X86360000Y-97790000D01*
X88900000Y-99060000D02*
X88900000Y-79375000D01*
X91440000Y-104140000D02*
X91440000Y-79375000D01*
X93980000Y-103505000D02*
X95885000Y-105410000D01*
X93980000Y-79375000D02*
X93980000Y-103505000D01*
X99695000Y-104140000D02*
X99695000Y-82550000D01*
X98425000Y-105410000D02*
X99695000Y-104140000D01*
X96520000Y-82550000D02*
X96520000Y-78740000D01*
X97155000Y-84455000D02*
X97155000Y-106680000D01*
X97155000Y-106680000D02*
X95885000Y-107950000D01*
X97790000Y-83820000D02*
X97155000Y-84455000D01*
X97790000Y-68580000D02*
X97790000Y-83820000D01*
X122555000Y-77470000D02*
X122555000Y-113030000D01*
X115570000Y-69850000D02*
X122555000Y-77470000D01*
X111760000Y-73025000D02*
X111760000Y-64135000D01*
X115570000Y-76835000D02*
X111760000Y-73025000D01*
X115570000Y-106680000D02*
X115570000Y-76835000D01*
X114300000Y-70485000D02*
X114300000Y-64135000D01*
X121285000Y-78105000D02*
X114300000Y-70485000D01*
X121285000Y-111760000D02*
X121285000Y-78105000D01*
X112148501Y-104386499D02*
X111125000Y-105410000D01*
X112148501Y-80894871D02*
X112148501Y-104386499D01*
X111760000Y-80506370D02*
X112148501Y-80894871D01*
X111760000Y-79375000D02*
X111760000Y-80506370D01*
X111125000Y-100330000D02*
X109855000Y-99060000D01*
X109855000Y-99060000D02*
X109855000Y-82550000D01*
X109220000Y-81915000D02*
X109220000Y-79375000D01*
X109855000Y-82550000D02*
X109220000Y-81915000D01*
X107315000Y-96520000D02*
X107315000Y-82550000D01*
X106680000Y-81915000D02*
X106680000Y-79375000D01*
X107315000Y-82550000D02*
X106680000Y-81915000D01*
X118110000Y-99060000D02*
X118110000Y-81280000D01*
X116840000Y-79375000D02*
X116840000Y-95250000D01*
X111125000Y-82550000D02*
X110490000Y-81915000D01*
X110490000Y-81915000D02*
X110490000Y-71120000D01*
X111125000Y-92710000D02*
X111125000Y-82550000D01*
X127000000Y-93980000D02*
X127000000Y-74295000D01*
X99060000Y-64135000D02*
X99060000Y-73660000D01*
X105410000Y-91087172D02*
X105410000Y-67310000D01*
X106045000Y-91722172D02*
X105410000Y-91087172D01*
X106045000Y-92710000D02*
X106045000Y-91722172D01*
X119380000Y-79375000D02*
X119380000Y-104140000D01*
X103505000Y-104140000D02*
X103505000Y-107950000D01*
X103505000Y-107950000D02*
X106045000Y-110490000D01*
D20*
G36*
X84968091Y-63785960D02*
G01*
X85089376Y-64008000D01*
X86233000Y-64008000D01*
X86233000Y-63988000D01*
X86487000Y-63988000D01*
X86487000Y-64008000D01*
X86507000Y-64008000D01*
X86507000Y-64262000D01*
X86487000Y-64262000D01*
X86487000Y-65404915D01*
X86709039Y-65526904D01*
X86843087Y-65486246D01*
X86870000Y-65473526D01*
X86870000Y-78030136D01*
X86641309Y-77960764D01*
X86430492Y-77940000D01*
X86289508Y-77940000D01*
X86078691Y-77960764D01*
X85808192Y-78042818D01*
X85558899Y-78176068D01*
X85340392Y-78355392D01*
X85161068Y-78573899D01*
X85027818Y-78823192D01*
X84945764Y-79093691D01*
X84918057Y-79375000D01*
X84945764Y-79656309D01*
X85027818Y-79926808D01*
X85161068Y-80176101D01*
X85340392Y-80394608D01*
X85558899Y-80573932D01*
X85600000Y-80595901D01*
X85600001Y-97086288D01*
X85556063Y-97130226D01*
X85442795Y-97299744D01*
X85364774Y-97488102D01*
X85325000Y-97688061D01*
X85325000Y-97891939D01*
X85364774Y-98091898D01*
X85442795Y-98280256D01*
X85556063Y-98449774D01*
X85700226Y-98593937D01*
X85869744Y-98707205D01*
X86058102Y-98785226D01*
X86258061Y-98825000D01*
X86461939Y-98825000D01*
X86661898Y-98785226D01*
X86850256Y-98707205D01*
X87019774Y-98593937D01*
X87163937Y-98449774D01*
X87277205Y-98280256D01*
X87355226Y-98091898D01*
X87395000Y-97891939D01*
X87395000Y-97688061D01*
X87355226Y-97488102D01*
X87277205Y-97299744D01*
X87163937Y-97130226D01*
X87120000Y-97086289D01*
X87120000Y-94884013D01*
X87139744Y-94897205D01*
X87328102Y-94975226D01*
X87528061Y-95015000D01*
X87731939Y-95015000D01*
X87931898Y-94975226D01*
X88120256Y-94897205D01*
X88140000Y-94884012D01*
X88140000Y-98356289D01*
X88096063Y-98400226D01*
X87982795Y-98569744D01*
X87904774Y-98758102D01*
X87865000Y-98958061D01*
X87865000Y-99161939D01*
X87904774Y-99361898D01*
X87982795Y-99550256D01*
X88096063Y-99719774D01*
X88240226Y-99863937D01*
X88409744Y-99977205D01*
X88598102Y-100055226D01*
X88798061Y-100095000D01*
X89001939Y-100095000D01*
X89201898Y-100055226D01*
X89390256Y-99977205D01*
X89559774Y-99863937D01*
X89703937Y-99719774D01*
X89817205Y-99550256D01*
X89895226Y-99361898D01*
X89935000Y-99161939D01*
X89935000Y-98958061D01*
X89895226Y-98758102D01*
X89817205Y-98569744D01*
X89703937Y-98400226D01*
X89660000Y-98356289D01*
X89660000Y-96154013D01*
X89679744Y-96167205D01*
X89868102Y-96245226D01*
X90068061Y-96285000D01*
X90271939Y-96285000D01*
X90471898Y-96245226D01*
X90660256Y-96167205D01*
X90680000Y-96154012D01*
X90680000Y-103436289D01*
X90636063Y-103480226D01*
X90522795Y-103649744D01*
X90444774Y-103838102D01*
X90405000Y-104038061D01*
X90405000Y-104241939D01*
X90444774Y-104441898D01*
X90522795Y-104630256D01*
X90636063Y-104799774D01*
X90780226Y-104943937D01*
X90949744Y-105057205D01*
X91138102Y-105135226D01*
X91338061Y-105175000D01*
X91541939Y-105175000D01*
X91741898Y-105135226D01*
X91930256Y-105057205D01*
X92099774Y-104943937D01*
X92243937Y-104799774D01*
X92357205Y-104630256D01*
X92435226Y-104441898D01*
X92475000Y-104241939D01*
X92475000Y-104038061D01*
X92435226Y-103838102D01*
X92357205Y-103649744D01*
X92243937Y-103480226D01*
X92200000Y-103436289D01*
X92200000Y-93614013D01*
X92219744Y-93627205D01*
X92408102Y-93705226D01*
X92608061Y-93745000D01*
X92811939Y-93745000D01*
X93011898Y-93705226D01*
X93200256Y-93627205D01*
X93220001Y-93614012D01*
X93220001Y-103467667D01*
X93216324Y-103505000D01*
X93220001Y-103542333D01*
X93227553Y-103619003D01*
X93230998Y-103653985D01*
X93274454Y-103797246D01*
X93345026Y-103929276D01*
X93412361Y-104011323D01*
X93440000Y-104045001D01*
X93468998Y-104068799D01*
X94572631Y-105172432D01*
X94551500Y-105278662D01*
X94551500Y-105541338D01*
X94602746Y-105798968D01*
X94703268Y-106041649D01*
X94849203Y-106260057D01*
X95034943Y-106445797D01*
X95253351Y-106591732D01*
X95466448Y-106680000D01*
X95253351Y-106768268D01*
X95034943Y-106914203D01*
X94849203Y-107099943D01*
X94703268Y-107318351D01*
X94602746Y-107561032D01*
X94551500Y-107818662D01*
X94551500Y-108081338D01*
X94602746Y-108338968D01*
X94703268Y-108581649D01*
X94849203Y-108800057D01*
X95034943Y-108985797D01*
X95253351Y-109131732D01*
X95496032Y-109232254D01*
X95753662Y-109283500D01*
X96016338Y-109283500D01*
X96273968Y-109232254D01*
X96516649Y-109131732D01*
X96735057Y-108985797D01*
X96920797Y-108800057D01*
X97066732Y-108581649D01*
X97155000Y-108368552D01*
X97243268Y-108581649D01*
X97389203Y-108800057D01*
X97574943Y-108985797D01*
X97793351Y-109131732D01*
X98006448Y-109220000D01*
X97793351Y-109308268D01*
X97574943Y-109454203D01*
X97389203Y-109639943D01*
X97243268Y-109858351D01*
X97142746Y-110101032D01*
X97091500Y-110358662D01*
X97091500Y-110621338D01*
X97142746Y-110878968D01*
X97243268Y-111121649D01*
X97389203Y-111340057D01*
X97574943Y-111525797D01*
X97793351Y-111671732D01*
X98036032Y-111772254D01*
X98293662Y-111823500D01*
X98556338Y-111823500D01*
X98813968Y-111772254D01*
X99056649Y-111671732D01*
X99275057Y-111525797D01*
X99460797Y-111340057D01*
X99606732Y-111121649D01*
X99695000Y-110908552D01*
X99783268Y-111121649D01*
X99929203Y-111340057D01*
X100114943Y-111525797D01*
X100333351Y-111671732D01*
X100576032Y-111772254D01*
X100833662Y-111823500D01*
X101096338Y-111823500D01*
X101353968Y-111772254D01*
X101596649Y-111671732D01*
X101815057Y-111525797D01*
X102000797Y-111340057D01*
X102146732Y-111121649D01*
X102235000Y-110908552D01*
X102323268Y-111121649D01*
X102469203Y-111340057D01*
X102654943Y-111525797D01*
X102873351Y-111671732D01*
X103116032Y-111772254D01*
X103373662Y-111823500D01*
X103636338Y-111823500D01*
X103893968Y-111772254D01*
X104136649Y-111671732D01*
X104355057Y-111525797D01*
X104540797Y-111340057D01*
X104686732Y-111121649D01*
X104775000Y-110908552D01*
X104863268Y-111121649D01*
X105009203Y-111340057D01*
X105194943Y-111525797D01*
X105413351Y-111671732D01*
X105656032Y-111772254D01*
X105913662Y-111823500D01*
X106176338Y-111823500D01*
X106433968Y-111772254D01*
X106676649Y-111671732D01*
X106895057Y-111525797D01*
X107080797Y-111340057D01*
X107226732Y-111121649D01*
X107315000Y-110908552D01*
X107403268Y-111121649D01*
X107549203Y-111340057D01*
X107734943Y-111525797D01*
X107953351Y-111671732D01*
X108196032Y-111772254D01*
X108453662Y-111823500D01*
X108716338Y-111823500D01*
X108973968Y-111772254D01*
X109216649Y-111671732D01*
X109435057Y-111525797D01*
X109620797Y-111340057D01*
X109766732Y-111121649D01*
X109855000Y-110908552D01*
X109943268Y-111121649D01*
X110089203Y-111340057D01*
X110274943Y-111525797D01*
X110493351Y-111671732D01*
X110736032Y-111772254D01*
X110993662Y-111823500D01*
X111256338Y-111823500D01*
X111513968Y-111772254D01*
X111756649Y-111671732D01*
X111975057Y-111525797D01*
X112160797Y-111340057D01*
X112306732Y-111121649D01*
X112407254Y-110878968D01*
X112458500Y-110621338D01*
X112458500Y-110358662D01*
X112407254Y-110101032D01*
X112306732Y-109858351D01*
X112160797Y-109639943D01*
X111975057Y-109454203D01*
X111756649Y-109308268D01*
X111543552Y-109220000D01*
X111756649Y-109131732D01*
X111975057Y-108985797D01*
X112160797Y-108800057D01*
X112306732Y-108581649D01*
X112395000Y-108368552D01*
X112483268Y-108581649D01*
X112629203Y-108800057D01*
X112814943Y-108985797D01*
X113033351Y-109131732D01*
X113276032Y-109232254D01*
X113533662Y-109283500D01*
X113796338Y-109283500D01*
X114053968Y-109232254D01*
X114296649Y-109131732D01*
X114515057Y-108985797D01*
X114700797Y-108800057D01*
X114846732Y-108581649D01*
X114947254Y-108338968D01*
X114998500Y-108081338D01*
X114998500Y-107818662D01*
X114947254Y-107561032D01*
X114917270Y-107488643D01*
X115079744Y-107597205D01*
X115268102Y-107675226D01*
X115468061Y-107715000D01*
X115671939Y-107715000D01*
X115871898Y-107675226D01*
X116060256Y-107597205D01*
X116229774Y-107483937D01*
X116373937Y-107339774D01*
X116487205Y-107170256D01*
X116565226Y-106981898D01*
X116605000Y-106781939D01*
X116605000Y-106578061D01*
X116565226Y-106378102D01*
X116487205Y-106189744D01*
X116373937Y-106020226D01*
X116330000Y-105976289D01*
X116330000Y-96154013D01*
X116349744Y-96167205D01*
X116538102Y-96245226D01*
X116738061Y-96285000D01*
X116941939Y-96285000D01*
X117141898Y-96245226D01*
X117330256Y-96167205D01*
X117350000Y-96154012D01*
X117350000Y-98356289D01*
X117306063Y-98400226D01*
X117192795Y-98569744D01*
X117114774Y-98758102D01*
X117075000Y-98958061D01*
X117075000Y-99161939D01*
X117114774Y-99361898D01*
X117192795Y-99550256D01*
X117306063Y-99719774D01*
X117450226Y-99863937D01*
X117619744Y-99977205D01*
X117808102Y-100055226D01*
X118008061Y-100095000D01*
X118211939Y-100095000D01*
X118411898Y-100055226D01*
X118600256Y-99977205D01*
X118620001Y-99964012D01*
X118620001Y-103436288D01*
X118576063Y-103480226D01*
X118462795Y-103649744D01*
X118384774Y-103838102D01*
X118345000Y-104038061D01*
X118345000Y-104241939D01*
X118384774Y-104441898D01*
X118462795Y-104630256D01*
X118576063Y-104799774D01*
X118720226Y-104943937D01*
X118889744Y-105057205D01*
X119078102Y-105135226D01*
X119278061Y-105175000D01*
X119481939Y-105175000D01*
X119681898Y-105135226D01*
X119870256Y-105057205D01*
X120039774Y-104943937D01*
X120183937Y-104799774D01*
X120297205Y-104630256D01*
X120375226Y-104441898D01*
X120415000Y-104241939D01*
X120415000Y-104038061D01*
X120375226Y-103838102D01*
X120297205Y-103649744D01*
X120183937Y-103480226D01*
X120140000Y-103436289D01*
X120140000Y-80595901D01*
X120181101Y-80573932D01*
X120399608Y-80394608D01*
X120525001Y-80241816D01*
X120525000Y-111056289D01*
X120481063Y-111100226D01*
X120367795Y-111269744D01*
X120289774Y-111458102D01*
X120250000Y-111658061D01*
X120250000Y-111861939D01*
X120289774Y-112061898D01*
X120367795Y-112250256D01*
X120481063Y-112419774D01*
X120625226Y-112563937D01*
X120794744Y-112677205D01*
X120983102Y-112755226D01*
X121183061Y-112795000D01*
X121386939Y-112795000D01*
X121553039Y-112761961D01*
X121520000Y-112928061D01*
X121520000Y-113131939D01*
X121559774Y-113331898D01*
X121637795Y-113520256D01*
X121751063Y-113689774D01*
X121895226Y-113833937D01*
X122064744Y-113947205D01*
X122253102Y-114025226D01*
X122453061Y-114065000D01*
X122656939Y-114065000D01*
X122856898Y-114025226D01*
X123045256Y-113947205D01*
X123214774Y-113833937D01*
X123358937Y-113689774D01*
X123472205Y-113520256D01*
X123530699Y-113379040D01*
X149103091Y-113379040D01*
X149197930Y-113643881D01*
X149342615Y-113885131D01*
X149531586Y-114093519D01*
X149757580Y-114261037D01*
X150011913Y-114381246D01*
X150145961Y-114421904D01*
X150368000Y-114299915D01*
X150368000Y-113157000D01*
X150622000Y-113157000D01*
X150622000Y-114299915D01*
X150844039Y-114421904D01*
X150978087Y-114381246D01*
X151232420Y-114261037D01*
X151458414Y-114093519D01*
X151647385Y-113885131D01*
X151792070Y-113643881D01*
X151886909Y-113379040D01*
X154183091Y-113379040D01*
X154277930Y-113643881D01*
X154422615Y-113885131D01*
X154611586Y-114093519D01*
X154837580Y-114261037D01*
X155091913Y-114381246D01*
X155225961Y-114421904D01*
X155448000Y-114299915D01*
X155448000Y-113157000D01*
X155702000Y-113157000D01*
X155702000Y-114299915D01*
X155924039Y-114421904D01*
X156058087Y-114381246D01*
X156312420Y-114261037D01*
X156538414Y-114093519D01*
X156727385Y-113885131D01*
X156872070Y-113643881D01*
X156966909Y-113379040D01*
X156845624Y-113157000D01*
X155702000Y-113157000D01*
X155448000Y-113157000D01*
X154304376Y-113157000D01*
X154183091Y-113379040D01*
X151886909Y-113379040D01*
X151765624Y-113157000D01*
X150622000Y-113157000D01*
X150368000Y-113157000D01*
X149224376Y-113157000D01*
X149103091Y-113379040D01*
X123530699Y-113379040D01*
X123550226Y-113331898D01*
X123590000Y-113131939D01*
X123590000Y-112928061D01*
X123550226Y-112728102D01*
X123530700Y-112680960D01*
X149103091Y-112680960D01*
X149224376Y-112903000D01*
X150368000Y-112903000D01*
X150368000Y-111760085D01*
X150622000Y-111760085D01*
X150622000Y-112903000D01*
X151765624Y-112903000D01*
X151886909Y-112680960D01*
X154183091Y-112680960D01*
X154304376Y-112903000D01*
X155448000Y-112903000D01*
X155448000Y-111760085D01*
X155702000Y-111760085D01*
X155702000Y-112903000D01*
X156845624Y-112903000D01*
X156966909Y-112680960D01*
X156872070Y-112416119D01*
X156727385Y-112174869D01*
X156538414Y-111966481D01*
X156312420Y-111798963D01*
X156058087Y-111678754D01*
X155924039Y-111638096D01*
X155702000Y-111760085D01*
X155448000Y-111760085D01*
X155225961Y-111638096D01*
X155091913Y-111678754D01*
X154837580Y-111798963D01*
X154611586Y-111966481D01*
X154422615Y-112174869D01*
X154277930Y-112416119D01*
X154183091Y-112680960D01*
X151886909Y-112680960D01*
X151792070Y-112416119D01*
X151647385Y-112174869D01*
X151458414Y-111966481D01*
X151232420Y-111798963D01*
X150978087Y-111678754D01*
X150844039Y-111638096D01*
X150622000Y-111760085D01*
X150368000Y-111760085D01*
X150145961Y-111638096D01*
X150011913Y-111678754D01*
X149757580Y-111798963D01*
X149531586Y-111966481D01*
X149342615Y-112174869D01*
X149197930Y-112416119D01*
X149103091Y-112680960D01*
X123530700Y-112680960D01*
X123472205Y-112539744D01*
X123358937Y-112370226D01*
X123315000Y-112326289D01*
X123315000Y-110388061D01*
X125965000Y-110388061D01*
X125965000Y-110591939D01*
X126004774Y-110791898D01*
X126082795Y-110980256D01*
X126196063Y-111149774D01*
X126340226Y-111293937D01*
X126509744Y-111407205D01*
X126698102Y-111485226D01*
X126898061Y-111525000D01*
X127101939Y-111525000D01*
X127301898Y-111485226D01*
X127490256Y-111407205D01*
X127659774Y-111293937D01*
X127703711Y-111250000D01*
X130156928Y-111250000D01*
X130156928Y-111320000D01*
X130169188Y-111444482D01*
X130205498Y-111564180D01*
X130264463Y-111674494D01*
X130343815Y-111771185D01*
X130440506Y-111850537D01*
X130550820Y-111909502D01*
X130670518Y-111945812D01*
X130795000Y-111958072D01*
X132095000Y-111958072D01*
X132219482Y-111945812D01*
X132339180Y-111909502D01*
X132449494Y-111850537D01*
X132546185Y-111771185D01*
X132625537Y-111674494D01*
X132684502Y-111564180D01*
X132720812Y-111444482D01*
X132733072Y-111320000D01*
X132733072Y-109820000D01*
X132720812Y-109695518D01*
X132684502Y-109575820D01*
X132625537Y-109465506D01*
X132546185Y-109368815D01*
X132449494Y-109289463D01*
X132339180Y-109230498D01*
X132304573Y-109220000D01*
X132339180Y-109209502D01*
X132449494Y-109150537D01*
X132546185Y-109071185D01*
X132625537Y-108974494D01*
X132684502Y-108864180D01*
X132720812Y-108744482D01*
X132733072Y-108620000D01*
X132733072Y-108065000D01*
X140976928Y-108065000D01*
X140989188Y-108189482D01*
X141025498Y-108309180D01*
X141084463Y-108419494D01*
X141163815Y-108516185D01*
X141260506Y-108595537D01*
X141370820Y-108654502D01*
X141490518Y-108690812D01*
X141615000Y-108703072D01*
X141954250Y-108700000D01*
X142113000Y-108541250D01*
X142113000Y-107442000D01*
X142367000Y-107442000D01*
X142367000Y-108541250D01*
X142525750Y-108700000D01*
X142865000Y-108703072D01*
X142989482Y-108690812D01*
X143109180Y-108654502D01*
X143219494Y-108595537D01*
X143316185Y-108516185D01*
X143395537Y-108419494D01*
X143454502Y-108309180D01*
X143490812Y-108189482D01*
X143503072Y-108065000D01*
X143500000Y-107600750D01*
X143341250Y-107442000D01*
X142367000Y-107442000D01*
X142113000Y-107442000D01*
X141138750Y-107442000D01*
X140980000Y-107600750D01*
X140976928Y-108065000D01*
X132733072Y-108065000D01*
X132733072Y-107120000D01*
X132720812Y-106995518D01*
X132684502Y-106875820D01*
X132625537Y-106765506D01*
X132546185Y-106668815D01*
X132449494Y-106589463D01*
X132339180Y-106530498D01*
X132219482Y-106494188D01*
X132205000Y-106492762D01*
X132205000Y-104065000D01*
X140976928Y-104065000D01*
X140976928Y-105565000D01*
X140989188Y-105689482D01*
X141025498Y-105809180D01*
X141084463Y-105919494D01*
X141163815Y-106016185D01*
X141223296Y-106065000D01*
X141163815Y-106113815D01*
X141084463Y-106210506D01*
X141025498Y-106320820D01*
X140989188Y-106440518D01*
X140976928Y-106565000D01*
X140980000Y-107029250D01*
X141138750Y-107188000D01*
X142113000Y-107188000D01*
X142113000Y-107168000D01*
X142367000Y-107168000D01*
X142367000Y-107188000D01*
X143341250Y-107188000D01*
X143500000Y-107029250D01*
X143503072Y-106565000D01*
X143490812Y-106440518D01*
X143454502Y-106320820D01*
X143395537Y-106210506D01*
X143316185Y-106113815D01*
X143256704Y-106065000D01*
X143316185Y-106016185D01*
X143395537Y-105919494D01*
X143454502Y-105809180D01*
X143490812Y-105689482D01*
X143503072Y-105565000D01*
X143503072Y-105535000D01*
X144127913Y-105535000D01*
X144139188Y-105649482D01*
X144175498Y-105769180D01*
X144234463Y-105879494D01*
X144313815Y-105976185D01*
X144410506Y-106055537D01*
X144520820Y-106114502D01*
X144555427Y-106125000D01*
X144520820Y-106135498D01*
X144410506Y-106194463D01*
X144313815Y-106273815D01*
X144234463Y-106370506D01*
X144175498Y-106480820D01*
X144139188Y-106600518D01*
X144126928Y-106725000D01*
X144126928Y-108225000D01*
X144139188Y-108349482D01*
X144175498Y-108469180D01*
X144234463Y-108579494D01*
X144313815Y-108676185D01*
X144410506Y-108755537D01*
X144520820Y-108814502D01*
X144640518Y-108850812D01*
X144765000Y-108863072D01*
X146065000Y-108863072D01*
X146189482Y-108850812D01*
X146309180Y-108814502D01*
X146419494Y-108755537D01*
X146516185Y-108676185D01*
X146595537Y-108579494D01*
X146654502Y-108469180D01*
X146690812Y-108349482D01*
X146702087Y-108235000D01*
X151982678Y-108235000D01*
X152020000Y-108238676D01*
X152057322Y-108235000D01*
X152057333Y-108235000D01*
X152168986Y-108224003D01*
X152312247Y-108180546D01*
X152444276Y-108109974D01*
X152560001Y-108015001D01*
X152583804Y-107985997D01*
X156086004Y-104483798D01*
X156115001Y-104460001D01*
X156209974Y-104344276D01*
X156229326Y-104308072D01*
X156375000Y-104308072D01*
X156499482Y-104295812D01*
X156619180Y-104259502D01*
X156729494Y-104200537D01*
X156826185Y-104121185D01*
X156905537Y-104024494D01*
X156964502Y-103914180D01*
X157000812Y-103794482D01*
X157013072Y-103670000D01*
X157013072Y-102070000D01*
X157000812Y-101945518D01*
X156964502Y-101825820D01*
X156905537Y-101715506D01*
X156826185Y-101618815D01*
X156729494Y-101539463D01*
X156619180Y-101480498D01*
X156499482Y-101444188D01*
X156375000Y-101431928D01*
X156335000Y-101431928D01*
X156335000Y-100597238D01*
X156349482Y-100595812D01*
X156469180Y-100559502D01*
X156579494Y-100500537D01*
X156676185Y-100421185D01*
X156755537Y-100324494D01*
X156814502Y-100214180D01*
X156850812Y-100094482D01*
X156863072Y-99970000D01*
X156863072Y-98470000D01*
X156850812Y-98345518D01*
X156814502Y-98225820D01*
X156755537Y-98115506D01*
X156676185Y-98018815D01*
X156579494Y-97939463D01*
X156469180Y-97880498D01*
X156434573Y-97870000D01*
X156469180Y-97859502D01*
X156579494Y-97800537D01*
X156676185Y-97721185D01*
X156755537Y-97624494D01*
X156814502Y-97514180D01*
X156850812Y-97394482D01*
X156863072Y-97270000D01*
X156863072Y-95770000D01*
X156850812Y-95645518D01*
X156814502Y-95525820D01*
X156755537Y-95415506D01*
X156676185Y-95318815D01*
X156579494Y-95239463D01*
X156469180Y-95180498D01*
X156349482Y-95144188D01*
X156335000Y-95142762D01*
X156335000Y-88407338D01*
X156385820Y-88434502D01*
X156505518Y-88470812D01*
X156630000Y-88483072D01*
X158330000Y-88483072D01*
X158454482Y-88470812D01*
X158574180Y-88434502D01*
X158684494Y-88375537D01*
X158781185Y-88296185D01*
X158860537Y-88199494D01*
X158919502Y-88089180D01*
X158955812Y-87969482D01*
X158968072Y-87845000D01*
X158968072Y-86145000D01*
X158955812Y-86020518D01*
X158919502Y-85900820D01*
X158860537Y-85790506D01*
X158781185Y-85693815D01*
X158684494Y-85614463D01*
X158574180Y-85555498D01*
X158493534Y-85531034D01*
X158577588Y-85455269D01*
X158751641Y-85221920D01*
X158876825Y-84959099D01*
X158921476Y-84811890D01*
X158800155Y-84582000D01*
X157607000Y-84582000D01*
X157607000Y-84602000D01*
X157353000Y-84602000D01*
X157353000Y-84582000D01*
X156159845Y-84582000D01*
X156038524Y-84811890D01*
X156083175Y-84959099D01*
X156208359Y-85221920D01*
X156382412Y-85455269D01*
X156466466Y-85531034D01*
X156385820Y-85555498D01*
X156275506Y-85614463D01*
X156178815Y-85693815D01*
X156099463Y-85790506D01*
X156040498Y-85900820D01*
X156004188Y-86020518D01*
X155991928Y-86145000D01*
X155991928Y-86340674D01*
X155955723Y-86360026D01*
X155872083Y-86428668D01*
X155839999Y-86454999D01*
X155816201Y-86483998D01*
X155064002Y-87236197D01*
X155034999Y-87259999D01*
X154979871Y-87327174D01*
X154940026Y-87375724D01*
X154870390Y-87506002D01*
X154869454Y-87507754D01*
X154825997Y-87651015D01*
X154815000Y-87762668D01*
X154815000Y-87762678D01*
X154811324Y-87800000D01*
X154815000Y-87837322D01*
X154815001Y-95142762D01*
X154800518Y-95144188D01*
X154680820Y-95180498D01*
X154570506Y-95239463D01*
X154473815Y-95318815D01*
X154394463Y-95415506D01*
X154335498Y-95525820D01*
X154299188Y-95645518D01*
X154287913Y-95760000D01*
X153052087Y-95760000D01*
X153040812Y-95645518D01*
X153004502Y-95525820D01*
X152945537Y-95415506D01*
X152866185Y-95318815D01*
X152769494Y-95239463D01*
X152659180Y-95180498D01*
X152539482Y-95144188D01*
X152415000Y-95131928D01*
X151115000Y-95131928D01*
X150990518Y-95144188D01*
X150870820Y-95180498D01*
X150760506Y-95239463D01*
X150663815Y-95318815D01*
X150584463Y-95415506D01*
X150525498Y-95525820D01*
X150489188Y-95645518D01*
X150476928Y-95770000D01*
X150476928Y-97270000D01*
X150489188Y-97394482D01*
X150525498Y-97514180D01*
X150584463Y-97624494D01*
X150663815Y-97721185D01*
X150760506Y-97800537D01*
X150870820Y-97859502D01*
X150905427Y-97870000D01*
X150870820Y-97880498D01*
X150760506Y-97939463D01*
X150663815Y-98018815D01*
X150584463Y-98115506D01*
X150525498Y-98225820D01*
X150489188Y-98345518D01*
X150477913Y-98460000D01*
X149064803Y-98460000D01*
X148080000Y-97475199D01*
X148080000Y-91477322D01*
X148083676Y-91439999D01*
X148080000Y-91402676D01*
X148080000Y-91402667D01*
X148069003Y-91291014D01*
X148025546Y-91147753D01*
X147954974Y-91015724D01*
X147860001Y-90899999D01*
X147831003Y-90876201D01*
X145602736Y-88647934D01*
X145716898Y-88625226D01*
X145905256Y-88547205D01*
X146074774Y-88433937D01*
X146218937Y-88289774D01*
X146332205Y-88120256D01*
X146410226Y-87931898D01*
X146450000Y-87731939D01*
X146450000Y-87528061D01*
X146410226Y-87328102D01*
X146332205Y-87139744D01*
X146218937Y-86970226D01*
X146175000Y-86926289D01*
X146175000Y-84098110D01*
X156038524Y-84098110D01*
X156159845Y-84328000D01*
X157353000Y-84328000D01*
X157353000Y-83134186D01*
X157607000Y-83134186D01*
X157607000Y-84328000D01*
X158800155Y-84328000D01*
X158921476Y-84098110D01*
X158876825Y-83950901D01*
X158751641Y-83688080D01*
X158577588Y-83454731D01*
X158361355Y-83259822D01*
X158111252Y-83110843D01*
X157836891Y-83013519D01*
X157607000Y-83134186D01*
X157353000Y-83134186D01*
X157123109Y-83013519D01*
X156848748Y-83110843D01*
X156598645Y-83259822D01*
X156382412Y-83454731D01*
X156208359Y-83688080D01*
X156083175Y-83950901D01*
X156038524Y-84098110D01*
X146175000Y-84098110D01*
X146175000Y-78142322D01*
X146178676Y-78104999D01*
X146175000Y-78067676D01*
X146175000Y-78067667D01*
X146164003Y-77956014D01*
X146120546Y-77812753D01*
X146049974Y-77680724D01*
X145955001Y-77564999D01*
X145926004Y-77541202D01*
X144708804Y-76324003D01*
X144685001Y-76294999D01*
X144569276Y-76200026D01*
X144437247Y-76129454D01*
X144293986Y-76085997D01*
X144182333Y-76075000D01*
X144182322Y-76075000D01*
X144145000Y-76071324D01*
X144107678Y-76075000D01*
X144095901Y-76075000D01*
X144073932Y-76033899D01*
X143894608Y-75815392D01*
X143676101Y-75636068D01*
X143426808Y-75502818D01*
X143156309Y-75420764D01*
X142945492Y-75400000D01*
X142804508Y-75400000D01*
X142593691Y-75420764D01*
X142323192Y-75502818D01*
X142073899Y-75636068D01*
X141855392Y-75815392D01*
X141676068Y-76033899D01*
X141542818Y-76283192D01*
X141460764Y-76553691D01*
X141433057Y-76835000D01*
X141460764Y-77116309D01*
X141542818Y-77386808D01*
X141676068Y-77636101D01*
X141855392Y-77854608D01*
X142073899Y-78033932D01*
X142206858Y-78105000D01*
X142073899Y-78176068D01*
X141855392Y-78355392D01*
X141676068Y-78573899D01*
X141542818Y-78823192D01*
X141460764Y-79093691D01*
X141433057Y-79375000D01*
X141460764Y-79656309D01*
X141542818Y-79926808D01*
X141676068Y-80176101D01*
X141855392Y-80394608D01*
X142073899Y-80573932D01*
X142211682Y-80647579D01*
X142019869Y-80762615D01*
X141811481Y-80951586D01*
X141643963Y-81177580D01*
X141523754Y-81431913D01*
X141483096Y-81565961D01*
X141605085Y-81788000D01*
X142748000Y-81788000D01*
X142748000Y-81768000D01*
X143002000Y-81768000D01*
X143002000Y-81788000D01*
X144144915Y-81788000D01*
X144266904Y-81565961D01*
X144226246Y-81431913D01*
X144106037Y-81177580D01*
X143938519Y-80951586D01*
X143730131Y-80762615D01*
X143538318Y-80647579D01*
X143676101Y-80573932D01*
X143894608Y-80394608D01*
X144073932Y-80176101D01*
X144207182Y-79926808D01*
X144289236Y-79656309D01*
X144316943Y-79375000D01*
X144289236Y-79093691D01*
X144207182Y-78823192D01*
X144073932Y-78573899D01*
X143894608Y-78355392D01*
X143676101Y-78176068D01*
X143543142Y-78105000D01*
X143676101Y-78033932D01*
X143894608Y-77854608D01*
X143982595Y-77747396D01*
X144655000Y-78419802D01*
X144655001Y-86926288D01*
X144611063Y-86970226D01*
X144497795Y-87139744D01*
X144419774Y-87328102D01*
X144397066Y-87442265D01*
X144275708Y-87320906D01*
X144289236Y-87276309D01*
X144316943Y-86995000D01*
X144289236Y-86713691D01*
X144207182Y-86443192D01*
X144073932Y-86193899D01*
X143894608Y-85975392D01*
X143676101Y-85796068D01*
X143538318Y-85722421D01*
X143730131Y-85607385D01*
X143938519Y-85418414D01*
X144106037Y-85192420D01*
X144226246Y-84938087D01*
X144266904Y-84804039D01*
X144144915Y-84582000D01*
X143002000Y-84582000D01*
X143002000Y-84602000D01*
X142748000Y-84602000D01*
X142748000Y-84582000D01*
X141605085Y-84582000D01*
X141483096Y-84804039D01*
X141523754Y-84938087D01*
X141643963Y-85192420D01*
X141811481Y-85418414D01*
X142019869Y-85607385D01*
X142211682Y-85722421D01*
X142073899Y-85796068D01*
X141855392Y-85975392D01*
X141676068Y-86193899D01*
X141542818Y-86443192D01*
X141460764Y-86713691D01*
X141433057Y-86995000D01*
X141460764Y-87276309D01*
X141542818Y-87546808D01*
X141676068Y-87796101D01*
X141855392Y-88014608D01*
X142073899Y-88193932D01*
X142206858Y-88265000D01*
X142073899Y-88336068D01*
X141855392Y-88515392D01*
X141676068Y-88733899D01*
X141542818Y-88983192D01*
X141460764Y-89253691D01*
X141433057Y-89535000D01*
X141460764Y-89816309D01*
X141542818Y-90086808D01*
X141676068Y-90336101D01*
X141855392Y-90554608D01*
X142073899Y-90733932D01*
X142206858Y-90805000D01*
X142073899Y-90876068D01*
X141855392Y-91055392D01*
X141676068Y-91273899D01*
X141542818Y-91523192D01*
X141460764Y-91793691D01*
X141433057Y-92075000D01*
X141460764Y-92356309D01*
X141542818Y-92626808D01*
X141676068Y-92876101D01*
X141855392Y-93094608D01*
X142073899Y-93273932D01*
X142206858Y-93345000D01*
X142073899Y-93416068D01*
X141855392Y-93595392D01*
X141676068Y-93813899D01*
X141542818Y-94063192D01*
X141460764Y-94333691D01*
X141433057Y-94615000D01*
X141460764Y-94896309D01*
X141542818Y-95166808D01*
X141676068Y-95416101D01*
X141855392Y-95634608D01*
X142073899Y-95813932D01*
X142323192Y-95947182D01*
X142593691Y-96029236D01*
X142804508Y-96050000D01*
X142945492Y-96050000D01*
X143156309Y-96029236D01*
X143426808Y-95947182D01*
X143676101Y-95813932D01*
X143894608Y-95634608D01*
X144073932Y-95416101D01*
X144207182Y-95166808D01*
X144289236Y-94896309D01*
X144316943Y-94615000D01*
X144289236Y-94333691D01*
X144207182Y-94063192D01*
X144073932Y-93813899D01*
X143894608Y-93595392D01*
X143676101Y-93416068D01*
X143543142Y-93345000D01*
X143676101Y-93273932D01*
X143894608Y-93094608D01*
X144073932Y-92876101D01*
X144207182Y-92626808D01*
X144289236Y-92356309D01*
X144316943Y-92075000D01*
X144314402Y-92049205D01*
X144380000Y-92114803D01*
X144380000Y-92176939D01*
X144419774Y-92376898D01*
X144497795Y-92565256D01*
X144611063Y-92734774D01*
X144655001Y-92778712D01*
X144655000Y-96840198D01*
X141728998Y-99766201D01*
X141700000Y-99789999D01*
X141676202Y-99818997D01*
X141676201Y-99818998D01*
X141605026Y-99905724D01*
X141534454Y-100037754D01*
X141504180Y-100137558D01*
X141490999Y-100181013D01*
X141490998Y-100181015D01*
X141476324Y-100330000D01*
X141480001Y-100367332D01*
X141480000Y-103442379D01*
X141370820Y-103475498D01*
X141260506Y-103534463D01*
X141163815Y-103613815D01*
X141084463Y-103710506D01*
X141025498Y-103820820D01*
X140989188Y-103940518D01*
X140976928Y-104065000D01*
X132205000Y-104065000D01*
X132205000Y-99097322D01*
X132208676Y-99059999D01*
X132205000Y-99022676D01*
X132205000Y-99022667D01*
X132194003Y-98911014D01*
X132150546Y-98767753D01*
X132079974Y-98635724D01*
X131985001Y-98519999D01*
X131956003Y-98496201D01*
X130935000Y-97475199D01*
X130935000Y-86995000D01*
X133813057Y-86995000D01*
X133840764Y-87276309D01*
X133922818Y-87546808D01*
X134056068Y-87796101D01*
X134235392Y-88014608D01*
X134453899Y-88193932D01*
X134586858Y-88265000D01*
X134453899Y-88336068D01*
X134235392Y-88515392D01*
X134056068Y-88733899D01*
X133922818Y-88983192D01*
X133840764Y-89253691D01*
X133813057Y-89535000D01*
X133840764Y-89816309D01*
X133922818Y-90086808D01*
X134056068Y-90336101D01*
X134235392Y-90554608D01*
X134453899Y-90733932D01*
X134586858Y-90805000D01*
X134453899Y-90876068D01*
X134235392Y-91055392D01*
X134056068Y-91273899D01*
X133922818Y-91523192D01*
X133840764Y-91793691D01*
X133813057Y-92075000D01*
X133840764Y-92356309D01*
X133922818Y-92626808D01*
X134056068Y-92876101D01*
X134235392Y-93094608D01*
X134453899Y-93273932D01*
X134586858Y-93345000D01*
X134453899Y-93416068D01*
X134235392Y-93595392D01*
X134056068Y-93813899D01*
X133922818Y-94063192D01*
X133840764Y-94333691D01*
X133813057Y-94615000D01*
X133840764Y-94896309D01*
X133922818Y-95166808D01*
X134056068Y-95416101D01*
X134235392Y-95634608D01*
X134453899Y-95813932D01*
X134703192Y-95947182D01*
X134973691Y-96029236D01*
X135184508Y-96050000D01*
X135325492Y-96050000D01*
X135536309Y-96029236D01*
X135806808Y-95947182D01*
X136056101Y-95813932D01*
X136274608Y-95634608D01*
X136453932Y-95416101D01*
X136587182Y-95166808D01*
X136669236Y-94896309D01*
X136696943Y-94615000D01*
X136669236Y-94333691D01*
X136587182Y-94063192D01*
X136453932Y-93813899D01*
X136274608Y-93595392D01*
X136056101Y-93416068D01*
X135923142Y-93345000D01*
X136056101Y-93273932D01*
X136274608Y-93094608D01*
X136453932Y-92876101D01*
X136587182Y-92626808D01*
X136669236Y-92356309D01*
X136696943Y-92075000D01*
X136669236Y-91793691D01*
X136587182Y-91523192D01*
X136453932Y-91273899D01*
X136274608Y-91055392D01*
X136056101Y-90876068D01*
X135923142Y-90805000D01*
X136056101Y-90733932D01*
X136274608Y-90554608D01*
X136453932Y-90336101D01*
X136587182Y-90086808D01*
X136669236Y-89816309D01*
X136696943Y-89535000D01*
X136669236Y-89253691D01*
X136587182Y-88983192D01*
X136453932Y-88733899D01*
X136274608Y-88515392D01*
X136056101Y-88336068D01*
X135923142Y-88265000D01*
X136056101Y-88193932D01*
X136274608Y-88014608D01*
X136453932Y-87796101D01*
X136587182Y-87546808D01*
X136669236Y-87276309D01*
X136696943Y-86995000D01*
X136669236Y-86713691D01*
X136587182Y-86443192D01*
X136453932Y-86193899D01*
X136274608Y-85975392D01*
X136056101Y-85796068D01*
X135918318Y-85722421D01*
X136110131Y-85607385D01*
X136318519Y-85418414D01*
X136486037Y-85192420D01*
X136606246Y-84938087D01*
X136646904Y-84804039D01*
X136524915Y-84582000D01*
X135382000Y-84582000D01*
X135382000Y-84602000D01*
X135128000Y-84602000D01*
X135128000Y-84582000D01*
X133985085Y-84582000D01*
X133863096Y-84804039D01*
X133903754Y-84938087D01*
X134023963Y-85192420D01*
X134191481Y-85418414D01*
X134399869Y-85607385D01*
X134591682Y-85722421D01*
X134453899Y-85796068D01*
X134235392Y-85975392D01*
X134056068Y-86193899D01*
X133922818Y-86443192D01*
X133840764Y-86713691D01*
X133813057Y-86995000D01*
X130935000Y-86995000D01*
X130935000Y-79375000D01*
X133813057Y-79375000D01*
X133840764Y-79656309D01*
X133922818Y-79926808D01*
X134056068Y-80176101D01*
X134235392Y-80394608D01*
X134453899Y-80573932D01*
X134586858Y-80645000D01*
X134453899Y-80716068D01*
X134235392Y-80895392D01*
X134056068Y-81113899D01*
X133922818Y-81363192D01*
X133840764Y-81633691D01*
X133813057Y-81915000D01*
X133840764Y-82196309D01*
X133922818Y-82466808D01*
X134056068Y-82716101D01*
X134235392Y-82934608D01*
X134453899Y-83113932D01*
X134591682Y-83187579D01*
X134399869Y-83302615D01*
X134191481Y-83491586D01*
X134023963Y-83717580D01*
X133903754Y-83971913D01*
X133863096Y-84105961D01*
X133985085Y-84328000D01*
X135128000Y-84328000D01*
X135128000Y-84308000D01*
X135382000Y-84308000D01*
X135382000Y-84328000D01*
X136524915Y-84328000D01*
X136646904Y-84105961D01*
X136606246Y-83971913D01*
X136486037Y-83717580D01*
X136318519Y-83491586D01*
X136110131Y-83302615D01*
X135918318Y-83187579D01*
X136056101Y-83113932D01*
X136274608Y-82934608D01*
X136453932Y-82716101D01*
X136587182Y-82466808D01*
X136648690Y-82264039D01*
X141483096Y-82264039D01*
X141523754Y-82398087D01*
X141643963Y-82652420D01*
X141811481Y-82878414D01*
X142019869Y-83067385D01*
X142215982Y-83185000D01*
X142019869Y-83302615D01*
X141811481Y-83491586D01*
X141643963Y-83717580D01*
X141523754Y-83971913D01*
X141483096Y-84105961D01*
X141605085Y-84328000D01*
X142748000Y-84328000D01*
X142748000Y-82042000D01*
X143002000Y-82042000D01*
X143002000Y-84328000D01*
X144144915Y-84328000D01*
X144266904Y-84105961D01*
X144226246Y-83971913D01*
X144106037Y-83717580D01*
X143938519Y-83491586D01*
X143730131Y-83302615D01*
X143534018Y-83185000D01*
X143730131Y-83067385D01*
X143938519Y-82878414D01*
X144106037Y-82652420D01*
X144226246Y-82398087D01*
X144266904Y-82264039D01*
X144144915Y-82042000D01*
X143002000Y-82042000D01*
X142748000Y-82042000D01*
X141605085Y-82042000D01*
X141483096Y-82264039D01*
X136648690Y-82264039D01*
X136669236Y-82196309D01*
X136696943Y-81915000D01*
X136669236Y-81633691D01*
X136587182Y-81363192D01*
X136453932Y-81113899D01*
X136274608Y-80895392D01*
X136056101Y-80716068D01*
X135923142Y-80645000D01*
X136056101Y-80573932D01*
X136274608Y-80394608D01*
X136453932Y-80176101D01*
X136587182Y-79926808D01*
X136669236Y-79656309D01*
X136696943Y-79375000D01*
X136669236Y-79093691D01*
X136587182Y-78823192D01*
X136453932Y-78573899D01*
X136274608Y-78355392D01*
X136161518Y-78262581D01*
X136179482Y-78260812D01*
X136299180Y-78224502D01*
X136409494Y-78165537D01*
X136506185Y-78086185D01*
X136585537Y-77989494D01*
X136644502Y-77879180D01*
X136680812Y-77759482D01*
X136693072Y-77635000D01*
X136693072Y-76035000D01*
X136680812Y-75910518D01*
X136644502Y-75790820D01*
X136585537Y-75680506D01*
X136506185Y-75583815D01*
X136409494Y-75504463D01*
X136299180Y-75445498D01*
X136179482Y-75409188D01*
X136055000Y-75396928D01*
X134455000Y-75396928D01*
X134330518Y-75409188D01*
X134210820Y-75445498D01*
X134100506Y-75504463D01*
X134003815Y-75583815D01*
X133924463Y-75680506D01*
X133865498Y-75790820D01*
X133829188Y-75910518D01*
X133816928Y-76035000D01*
X133816928Y-77635000D01*
X133829188Y-77759482D01*
X133865498Y-77879180D01*
X133924463Y-77989494D01*
X134003815Y-78086185D01*
X134100506Y-78165537D01*
X134210820Y-78224502D01*
X134330518Y-78260812D01*
X134348482Y-78262581D01*
X134235392Y-78355392D01*
X134056068Y-78573899D01*
X133922818Y-78823192D01*
X133840764Y-79093691D01*
X133813057Y-79375000D01*
X130935000Y-79375000D01*
X130935000Y-76268711D01*
X130978937Y-76224774D01*
X131092205Y-76055256D01*
X131170226Y-75866898D01*
X131210000Y-75666939D01*
X131210000Y-75463061D01*
X131170226Y-75263102D01*
X131092205Y-75074744D01*
X130978937Y-74905226D01*
X130834774Y-74761063D01*
X130665256Y-74647795D01*
X130476898Y-74569774D01*
X130276939Y-74530000D01*
X130073061Y-74530000D01*
X129873102Y-74569774D01*
X129684744Y-74647795D01*
X129515226Y-74761063D01*
X129371063Y-74905226D01*
X129257795Y-75074744D01*
X129179774Y-75263102D01*
X129140000Y-75463061D01*
X129140000Y-75666939D01*
X129173039Y-75833039D01*
X129006939Y-75800000D01*
X128803061Y-75800000D01*
X128603102Y-75839774D01*
X128414744Y-75917795D01*
X128245226Y-76031063D01*
X128101063Y-76175226D01*
X127987795Y-76344744D01*
X127909774Y-76533102D01*
X127870000Y-76733061D01*
X127870000Y-76936939D01*
X127909774Y-77136898D01*
X127987795Y-77325256D01*
X128101063Y-77494774D01*
X128145001Y-77538712D01*
X128145000Y-100777762D01*
X128130518Y-100779188D01*
X128010820Y-100815498D01*
X127900506Y-100874463D01*
X127803815Y-100953815D01*
X127724463Y-101050506D01*
X127665498Y-101160820D01*
X127629188Y-101280518D01*
X127616928Y-101405000D01*
X127616928Y-102905000D01*
X127629188Y-103029482D01*
X127665498Y-103149180D01*
X127724463Y-103259494D01*
X127803815Y-103356185D01*
X127900506Y-103435537D01*
X128010820Y-103494502D01*
X128045427Y-103505000D01*
X128010820Y-103515498D01*
X127900506Y-103574463D01*
X127803815Y-103653815D01*
X127724463Y-103750506D01*
X127665498Y-103860820D01*
X127629188Y-103980518D01*
X127616928Y-104105000D01*
X127616928Y-105605000D01*
X127629188Y-105729482D01*
X127665498Y-105849180D01*
X127724463Y-105959494D01*
X127803815Y-106056185D01*
X127900506Y-106135537D01*
X128010820Y-106194502D01*
X128130518Y-106230812D01*
X128145001Y-106232238D01*
X128145000Y-107246289D01*
X128101063Y-107290226D01*
X127987795Y-107459744D01*
X127909774Y-107648102D01*
X127870000Y-107848061D01*
X127870000Y-108051939D01*
X127909774Y-108251898D01*
X127987795Y-108440256D01*
X128084510Y-108585000D01*
X127987795Y-108729744D01*
X127909774Y-108918102D01*
X127870000Y-109118061D01*
X127870000Y-109321939D01*
X127909774Y-109521898D01*
X127987795Y-109710256D01*
X128000987Y-109730000D01*
X127703711Y-109730000D01*
X127659774Y-109686063D01*
X127490256Y-109572795D01*
X127301898Y-109494774D01*
X127101939Y-109455000D01*
X126898061Y-109455000D01*
X126698102Y-109494774D01*
X126509744Y-109572795D01*
X126340226Y-109686063D01*
X126196063Y-109830226D01*
X126082795Y-109999744D01*
X126004774Y-110188102D01*
X125965000Y-110388061D01*
X123315000Y-110388061D01*
X123315000Y-101407333D01*
X123383815Y-101491185D01*
X123480506Y-101570537D01*
X123590820Y-101629502D01*
X123700001Y-101662622D01*
X123700000Y-104706289D01*
X123656063Y-104750226D01*
X123542795Y-104919744D01*
X123464774Y-105108102D01*
X123425000Y-105308061D01*
X123425000Y-105511939D01*
X123464774Y-105711898D01*
X123542795Y-105900256D01*
X123656063Y-106069774D01*
X123800226Y-106213937D01*
X123969744Y-106327205D01*
X124158102Y-106405226D01*
X124358061Y-106445000D01*
X124561939Y-106445000D01*
X124761898Y-106405226D01*
X124950256Y-106327205D01*
X125119774Y-106213937D01*
X125263937Y-106069774D01*
X125377205Y-105900256D01*
X125455226Y-105711898D01*
X125495000Y-105511939D01*
X125495000Y-105308061D01*
X125455226Y-105108102D01*
X125377205Y-104919744D01*
X125263937Y-104750226D01*
X125220000Y-104706289D01*
X125220000Y-101662621D01*
X125329180Y-101629502D01*
X125439494Y-101570537D01*
X125536185Y-101491185D01*
X125615537Y-101394494D01*
X125674502Y-101284180D01*
X125710812Y-101164482D01*
X125722087Y-101050000D01*
X125732667Y-101050000D01*
X125770000Y-101053677D01*
X125918986Y-101039003D01*
X126062247Y-100995546D01*
X126194276Y-100924974D01*
X126310001Y-100830001D01*
X126404974Y-100714276D01*
X126475546Y-100582247D01*
X126519003Y-100438986D01*
X126530000Y-100327333D01*
X126533677Y-100290000D01*
X126530000Y-100252667D01*
X126530000Y-94905595D01*
X126698102Y-94975226D01*
X126898061Y-95015000D01*
X127101939Y-95015000D01*
X127301898Y-94975226D01*
X127490256Y-94897205D01*
X127659774Y-94783937D01*
X127803937Y-94639774D01*
X127917205Y-94470256D01*
X127995226Y-94281898D01*
X128035000Y-94081939D01*
X128035000Y-93878061D01*
X127995226Y-93678102D01*
X127917205Y-93489744D01*
X127803937Y-93320226D01*
X127760000Y-93276289D01*
X127760000Y-74998711D01*
X127803937Y-74954774D01*
X127917205Y-74785256D01*
X127995226Y-74596898D01*
X128035000Y-74396939D01*
X128035000Y-74193061D01*
X127995226Y-73993102D01*
X127917205Y-73804744D01*
X127837195Y-73685000D01*
X159995000Y-73685000D01*
X159995001Y-80612572D01*
X159995000Y-80612582D01*
X159995001Y-114910000D01*
X84480000Y-114910000D01*
X84480000Y-64484040D01*
X84968091Y-64484040D01*
X85062930Y-64748881D01*
X85207615Y-64990131D01*
X85396586Y-65198519D01*
X85622580Y-65366037D01*
X85876913Y-65486246D01*
X86010961Y-65526904D01*
X86233000Y-65404915D01*
X86233000Y-64262000D01*
X85089376Y-64262000D01*
X84968091Y-64484040D01*
X84480000Y-64484040D01*
X84480000Y-63525000D01*
X85061540Y-63525000D01*
X84968091Y-63785960D01*
X84968091Y-63785960D01*
G37*
X84968091Y-63785960D02*
X85089376Y-64008000D01*
X86233000Y-64008000D01*
X86233000Y-63988000D01*
X86487000Y-63988000D01*
X86487000Y-64008000D01*
X86507000Y-64008000D01*
X86507000Y-64262000D01*
X86487000Y-64262000D01*
X86487000Y-65404915D01*
X86709039Y-65526904D01*
X86843087Y-65486246D01*
X86870000Y-65473526D01*
X86870000Y-78030136D01*
X86641309Y-77960764D01*
X86430492Y-77940000D01*
X86289508Y-77940000D01*
X86078691Y-77960764D01*
X85808192Y-78042818D01*
X85558899Y-78176068D01*
X85340392Y-78355392D01*
X85161068Y-78573899D01*
X85027818Y-78823192D01*
X84945764Y-79093691D01*
X84918057Y-79375000D01*
X84945764Y-79656309D01*
X85027818Y-79926808D01*
X85161068Y-80176101D01*
X85340392Y-80394608D01*
X85558899Y-80573932D01*
X85600000Y-80595901D01*
X85600001Y-97086288D01*
X85556063Y-97130226D01*
X85442795Y-97299744D01*
X85364774Y-97488102D01*
X85325000Y-97688061D01*
X85325000Y-97891939D01*
X85364774Y-98091898D01*
X85442795Y-98280256D01*
X85556063Y-98449774D01*
X85700226Y-98593937D01*
X85869744Y-98707205D01*
X86058102Y-98785226D01*
X86258061Y-98825000D01*
X86461939Y-98825000D01*
X86661898Y-98785226D01*
X86850256Y-98707205D01*
X87019774Y-98593937D01*
X87163937Y-98449774D01*
X87277205Y-98280256D01*
X87355226Y-98091898D01*
X87395000Y-97891939D01*
X87395000Y-97688061D01*
X87355226Y-97488102D01*
X87277205Y-97299744D01*
X87163937Y-97130226D01*
X87120000Y-97086289D01*
X87120000Y-94884013D01*
X87139744Y-94897205D01*
X87328102Y-94975226D01*
X87528061Y-95015000D01*
X87731939Y-95015000D01*
X87931898Y-94975226D01*
X88120256Y-94897205D01*
X88140000Y-94884012D01*
X88140000Y-98356289D01*
X88096063Y-98400226D01*
X87982795Y-98569744D01*
X87904774Y-98758102D01*
X87865000Y-98958061D01*
X87865000Y-99161939D01*
X87904774Y-99361898D01*
X87982795Y-99550256D01*
X88096063Y-99719774D01*
X88240226Y-99863937D01*
X88409744Y-99977205D01*
X88598102Y-100055226D01*
X88798061Y-100095000D01*
X89001939Y-100095000D01*
X89201898Y-100055226D01*
X89390256Y-99977205D01*
X89559774Y-99863937D01*
X89703937Y-99719774D01*
X89817205Y-99550256D01*
X89895226Y-99361898D01*
X89935000Y-99161939D01*
X89935000Y-98958061D01*
X89895226Y-98758102D01*
X89817205Y-98569744D01*
X89703937Y-98400226D01*
X89660000Y-98356289D01*
X89660000Y-96154013D01*
X89679744Y-96167205D01*
X89868102Y-96245226D01*
X90068061Y-96285000D01*
X90271939Y-96285000D01*
X90471898Y-96245226D01*
X90660256Y-96167205D01*
X90680000Y-96154012D01*
X90680000Y-103436289D01*
X90636063Y-103480226D01*
X90522795Y-103649744D01*
X90444774Y-103838102D01*
X90405000Y-104038061D01*
X90405000Y-104241939D01*
X90444774Y-104441898D01*
X90522795Y-104630256D01*
X90636063Y-104799774D01*
X90780226Y-104943937D01*
X90949744Y-105057205D01*
X91138102Y-105135226D01*
X91338061Y-105175000D01*
X91541939Y-105175000D01*
X91741898Y-105135226D01*
X91930256Y-105057205D01*
X92099774Y-104943937D01*
X92243937Y-104799774D01*
X92357205Y-104630256D01*
X92435226Y-104441898D01*
X92475000Y-104241939D01*
X92475000Y-104038061D01*
X92435226Y-103838102D01*
X92357205Y-103649744D01*
X92243937Y-103480226D01*
X92200000Y-103436289D01*
X92200000Y-93614013D01*
X92219744Y-93627205D01*
X92408102Y-93705226D01*
X92608061Y-93745000D01*
X92811939Y-93745000D01*
X93011898Y-93705226D01*
X93200256Y-93627205D01*
X93220001Y-93614012D01*
X93220001Y-103467667D01*
X93216324Y-103505000D01*
X93220001Y-103542333D01*
X93227553Y-103619003D01*
X93230998Y-103653985D01*
X93274454Y-103797246D01*
X93345026Y-103929276D01*
X93412361Y-104011323D01*
X93440000Y-104045001D01*
X93468998Y-104068799D01*
X94572631Y-105172432D01*
X94551500Y-105278662D01*
X94551500Y-105541338D01*
X94602746Y-105798968D01*
X94703268Y-106041649D01*
X94849203Y-106260057D01*
X95034943Y-106445797D01*
X95253351Y-106591732D01*
X95466448Y-106680000D01*
X95253351Y-106768268D01*
X95034943Y-106914203D01*
X94849203Y-107099943D01*
X94703268Y-107318351D01*
X94602746Y-107561032D01*
X94551500Y-107818662D01*
X94551500Y-108081338D01*
X94602746Y-108338968D01*
X94703268Y-108581649D01*
X94849203Y-108800057D01*
X95034943Y-108985797D01*
X95253351Y-109131732D01*
X95496032Y-109232254D01*
X95753662Y-109283500D01*
X96016338Y-109283500D01*
X96273968Y-109232254D01*
X96516649Y-109131732D01*
X96735057Y-108985797D01*
X96920797Y-108800057D01*
X97066732Y-108581649D01*
X97155000Y-108368552D01*
X97243268Y-108581649D01*
X97389203Y-108800057D01*
X97574943Y-108985797D01*
X97793351Y-109131732D01*
X98006448Y-109220000D01*
X97793351Y-109308268D01*
X97574943Y-109454203D01*
X97389203Y-109639943D01*
X97243268Y-109858351D01*
X97142746Y-110101032D01*
X97091500Y-110358662D01*
X97091500Y-110621338D01*
X97142746Y-110878968D01*
X97243268Y-111121649D01*
X97389203Y-111340057D01*
X97574943Y-111525797D01*
X97793351Y-111671732D01*
X98036032Y-111772254D01*
X98293662Y-111823500D01*
X98556338Y-111823500D01*
X98813968Y-111772254D01*
X99056649Y-111671732D01*
X99275057Y-111525797D01*
X99460797Y-111340057D01*
X99606732Y-111121649D01*
X99695000Y-110908552D01*
X99783268Y-111121649D01*
X99929203Y-111340057D01*
X100114943Y-111525797D01*
X100333351Y-111671732D01*
X100576032Y-111772254D01*
X100833662Y-111823500D01*
X101096338Y-111823500D01*
X101353968Y-111772254D01*
X101596649Y-111671732D01*
X101815057Y-111525797D01*
X102000797Y-111340057D01*
X102146732Y-111121649D01*
X102235000Y-110908552D01*
X102323268Y-111121649D01*
X102469203Y-111340057D01*
X102654943Y-111525797D01*
X102873351Y-111671732D01*
X103116032Y-111772254D01*
X103373662Y-111823500D01*
X103636338Y-111823500D01*
X103893968Y-111772254D01*
X104136649Y-111671732D01*
X104355057Y-111525797D01*
X104540797Y-111340057D01*
X104686732Y-111121649D01*
X104775000Y-110908552D01*
X104863268Y-111121649D01*
X105009203Y-111340057D01*
X105194943Y-111525797D01*
X105413351Y-111671732D01*
X105656032Y-111772254D01*
X105913662Y-111823500D01*
X106176338Y-111823500D01*
X106433968Y-111772254D01*
X106676649Y-111671732D01*
X106895057Y-111525797D01*
X107080797Y-111340057D01*
X107226732Y-111121649D01*
X107315000Y-110908552D01*
X107403268Y-111121649D01*
X107549203Y-111340057D01*
X107734943Y-111525797D01*
X107953351Y-111671732D01*
X108196032Y-111772254D01*
X108453662Y-111823500D01*
X108716338Y-111823500D01*
X108973968Y-111772254D01*
X109216649Y-111671732D01*
X109435057Y-111525797D01*
X109620797Y-111340057D01*
X109766732Y-111121649D01*
X109855000Y-110908552D01*
X109943268Y-111121649D01*
X110089203Y-111340057D01*
X110274943Y-111525797D01*
X110493351Y-111671732D01*
X110736032Y-111772254D01*
X110993662Y-111823500D01*
X111256338Y-111823500D01*
X111513968Y-111772254D01*
X111756649Y-111671732D01*
X111975057Y-111525797D01*
X112160797Y-111340057D01*
X112306732Y-111121649D01*
X112407254Y-110878968D01*
X112458500Y-110621338D01*
X112458500Y-110358662D01*
X112407254Y-110101032D01*
X112306732Y-109858351D01*
X112160797Y-109639943D01*
X111975057Y-109454203D01*
X111756649Y-109308268D01*
X111543552Y-109220000D01*
X111756649Y-109131732D01*
X111975057Y-108985797D01*
X112160797Y-108800057D01*
X112306732Y-108581649D01*
X112395000Y-108368552D01*
X112483268Y-108581649D01*
X112629203Y-108800057D01*
X112814943Y-108985797D01*
X113033351Y-109131732D01*
X113276032Y-109232254D01*
X113533662Y-109283500D01*
X113796338Y-109283500D01*
X114053968Y-109232254D01*
X114296649Y-109131732D01*
X114515057Y-108985797D01*
X114700797Y-108800057D01*
X114846732Y-108581649D01*
X114947254Y-108338968D01*
X114998500Y-108081338D01*
X114998500Y-107818662D01*
X114947254Y-107561032D01*
X114917270Y-107488643D01*
X115079744Y-107597205D01*
X115268102Y-107675226D01*
X115468061Y-107715000D01*
X115671939Y-107715000D01*
X115871898Y-107675226D01*
X116060256Y-107597205D01*
X116229774Y-107483937D01*
X116373937Y-107339774D01*
X116487205Y-107170256D01*
X116565226Y-106981898D01*
X116605000Y-106781939D01*
X116605000Y-106578061D01*
X116565226Y-106378102D01*
X116487205Y-106189744D01*
X116373937Y-106020226D01*
X116330000Y-105976289D01*
X116330000Y-96154013D01*
X116349744Y-96167205D01*
X116538102Y-96245226D01*
X116738061Y-96285000D01*
X116941939Y-96285000D01*
X117141898Y-96245226D01*
X117330256Y-96167205D01*
X117350000Y-96154012D01*
X117350000Y-98356289D01*
X117306063Y-98400226D01*
X117192795Y-98569744D01*
X117114774Y-98758102D01*
X117075000Y-98958061D01*
X117075000Y-99161939D01*
X117114774Y-99361898D01*
X117192795Y-99550256D01*
X117306063Y-99719774D01*
X117450226Y-99863937D01*
X117619744Y-99977205D01*
X117808102Y-100055226D01*
X118008061Y-100095000D01*
X118211939Y-100095000D01*
X118411898Y-100055226D01*
X118600256Y-99977205D01*
X118620001Y-99964012D01*
X118620001Y-103436288D01*
X118576063Y-103480226D01*
X118462795Y-103649744D01*
X118384774Y-103838102D01*
X118345000Y-104038061D01*
X118345000Y-104241939D01*
X118384774Y-104441898D01*
X118462795Y-104630256D01*
X118576063Y-104799774D01*
X118720226Y-104943937D01*
X118889744Y-105057205D01*
X119078102Y-105135226D01*
X119278061Y-105175000D01*
X119481939Y-105175000D01*
X119681898Y-105135226D01*
X119870256Y-105057205D01*
X120039774Y-104943937D01*
X120183937Y-104799774D01*
X120297205Y-104630256D01*
X120375226Y-104441898D01*
X120415000Y-104241939D01*
X120415000Y-104038061D01*
X120375226Y-103838102D01*
X120297205Y-103649744D01*
X120183937Y-103480226D01*
X120140000Y-103436289D01*
X120140000Y-80595901D01*
X120181101Y-80573932D01*
X120399608Y-80394608D01*
X120525001Y-80241816D01*
X120525000Y-111056289D01*
X120481063Y-111100226D01*
X120367795Y-111269744D01*
X120289774Y-111458102D01*
X120250000Y-111658061D01*
X120250000Y-111861939D01*
X120289774Y-112061898D01*
X120367795Y-112250256D01*
X120481063Y-112419774D01*
X120625226Y-112563937D01*
X120794744Y-112677205D01*
X120983102Y-112755226D01*
X121183061Y-112795000D01*
X121386939Y-112795000D01*
X121553039Y-112761961D01*
X121520000Y-112928061D01*
X121520000Y-113131939D01*
X121559774Y-113331898D01*
X121637795Y-113520256D01*
X121751063Y-113689774D01*
X121895226Y-113833937D01*
X122064744Y-113947205D01*
X122253102Y-114025226D01*
X122453061Y-114065000D01*
X122656939Y-114065000D01*
X122856898Y-114025226D01*
X123045256Y-113947205D01*
X123214774Y-113833937D01*
X123358937Y-113689774D01*
X123472205Y-113520256D01*
X123530699Y-113379040D01*
X149103091Y-113379040D01*
X149197930Y-113643881D01*
X149342615Y-113885131D01*
X149531586Y-114093519D01*
X149757580Y-114261037D01*
X150011913Y-114381246D01*
X150145961Y-114421904D01*
X150368000Y-114299915D01*
X150368000Y-113157000D01*
X150622000Y-113157000D01*
X150622000Y-114299915D01*
X150844039Y-114421904D01*
X150978087Y-114381246D01*
X151232420Y-114261037D01*
X151458414Y-114093519D01*
X151647385Y-113885131D01*
X151792070Y-113643881D01*
X151886909Y-113379040D01*
X154183091Y-113379040D01*
X154277930Y-113643881D01*
X154422615Y-113885131D01*
X154611586Y-114093519D01*
X154837580Y-114261037D01*
X155091913Y-114381246D01*
X155225961Y-114421904D01*
X155448000Y-114299915D01*
X155448000Y-113157000D01*
X155702000Y-113157000D01*
X155702000Y-114299915D01*
X155924039Y-114421904D01*
X156058087Y-114381246D01*
X156312420Y-114261037D01*
X156538414Y-114093519D01*
X156727385Y-113885131D01*
X156872070Y-113643881D01*
X156966909Y-113379040D01*
X156845624Y-113157000D01*
X155702000Y-113157000D01*
X155448000Y-113157000D01*
X154304376Y-113157000D01*
X154183091Y-113379040D01*
X151886909Y-113379040D01*
X151765624Y-113157000D01*
X150622000Y-113157000D01*
X150368000Y-113157000D01*
X149224376Y-113157000D01*
X149103091Y-113379040D01*
X123530699Y-113379040D01*
X123550226Y-113331898D01*
X123590000Y-113131939D01*
X123590000Y-112928061D01*
X123550226Y-112728102D01*
X123530700Y-112680960D01*
X149103091Y-112680960D01*
X149224376Y-112903000D01*
X150368000Y-112903000D01*
X150368000Y-111760085D01*
X150622000Y-111760085D01*
X150622000Y-112903000D01*
X151765624Y-112903000D01*
X151886909Y-112680960D01*
X154183091Y-112680960D01*
X154304376Y-112903000D01*
X155448000Y-112903000D01*
X155448000Y-111760085D01*
X155702000Y-111760085D01*
X155702000Y-112903000D01*
X156845624Y-112903000D01*
X156966909Y-112680960D01*
X156872070Y-112416119D01*
X156727385Y-112174869D01*
X156538414Y-111966481D01*
X156312420Y-111798963D01*
X156058087Y-111678754D01*
X155924039Y-111638096D01*
X155702000Y-111760085D01*
X155448000Y-111760085D01*
X155225961Y-111638096D01*
X155091913Y-111678754D01*
X154837580Y-111798963D01*
X154611586Y-111966481D01*
X154422615Y-112174869D01*
X154277930Y-112416119D01*
X154183091Y-112680960D01*
X151886909Y-112680960D01*
X151792070Y-112416119D01*
X151647385Y-112174869D01*
X151458414Y-111966481D01*
X151232420Y-111798963D01*
X150978087Y-111678754D01*
X150844039Y-111638096D01*
X150622000Y-111760085D01*
X150368000Y-111760085D01*
X150145961Y-111638096D01*
X150011913Y-111678754D01*
X149757580Y-111798963D01*
X149531586Y-111966481D01*
X149342615Y-112174869D01*
X149197930Y-112416119D01*
X149103091Y-112680960D01*
X123530700Y-112680960D01*
X123472205Y-112539744D01*
X123358937Y-112370226D01*
X123315000Y-112326289D01*
X123315000Y-110388061D01*
X125965000Y-110388061D01*
X125965000Y-110591939D01*
X126004774Y-110791898D01*
X126082795Y-110980256D01*
X126196063Y-111149774D01*
X126340226Y-111293937D01*
X126509744Y-111407205D01*
X126698102Y-111485226D01*
X126898061Y-111525000D01*
X127101939Y-111525000D01*
X127301898Y-111485226D01*
X127490256Y-111407205D01*
X127659774Y-111293937D01*
X127703711Y-111250000D01*
X130156928Y-111250000D01*
X130156928Y-111320000D01*
X130169188Y-111444482D01*
X130205498Y-111564180D01*
X130264463Y-111674494D01*
X130343815Y-111771185D01*
X130440506Y-111850537D01*
X130550820Y-111909502D01*
X130670518Y-111945812D01*
X130795000Y-111958072D01*
X132095000Y-111958072D01*
X132219482Y-111945812D01*
X132339180Y-111909502D01*
X132449494Y-111850537D01*
X132546185Y-111771185D01*
X132625537Y-111674494D01*
X132684502Y-111564180D01*
X132720812Y-111444482D01*
X132733072Y-111320000D01*
X132733072Y-109820000D01*
X132720812Y-109695518D01*
X132684502Y-109575820D01*
X132625537Y-109465506D01*
X132546185Y-109368815D01*
X132449494Y-109289463D01*
X132339180Y-109230498D01*
X132304573Y-109220000D01*
X132339180Y-109209502D01*
X132449494Y-109150537D01*
X132546185Y-109071185D01*
X132625537Y-108974494D01*
X132684502Y-108864180D01*
X132720812Y-108744482D01*
X132733072Y-108620000D01*
X132733072Y-108065000D01*
X140976928Y-108065000D01*
X140989188Y-108189482D01*
X141025498Y-108309180D01*
X141084463Y-108419494D01*
X141163815Y-108516185D01*
X141260506Y-108595537D01*
X141370820Y-108654502D01*
X141490518Y-108690812D01*
X141615000Y-108703072D01*
X141954250Y-108700000D01*
X142113000Y-108541250D01*
X142113000Y-107442000D01*
X142367000Y-107442000D01*
X142367000Y-108541250D01*
X142525750Y-108700000D01*
X142865000Y-108703072D01*
X142989482Y-108690812D01*
X143109180Y-108654502D01*
X143219494Y-108595537D01*
X143316185Y-108516185D01*
X143395537Y-108419494D01*
X143454502Y-108309180D01*
X143490812Y-108189482D01*
X143503072Y-108065000D01*
X143500000Y-107600750D01*
X143341250Y-107442000D01*
X142367000Y-107442000D01*
X142113000Y-107442000D01*
X141138750Y-107442000D01*
X140980000Y-107600750D01*
X140976928Y-108065000D01*
X132733072Y-108065000D01*
X132733072Y-107120000D01*
X132720812Y-106995518D01*
X132684502Y-106875820D01*
X132625537Y-106765506D01*
X132546185Y-106668815D01*
X132449494Y-106589463D01*
X132339180Y-106530498D01*
X132219482Y-106494188D01*
X132205000Y-106492762D01*
X132205000Y-104065000D01*
X140976928Y-104065000D01*
X140976928Y-105565000D01*
X140989188Y-105689482D01*
X141025498Y-105809180D01*
X141084463Y-105919494D01*
X141163815Y-106016185D01*
X141223296Y-106065000D01*
X141163815Y-106113815D01*
X141084463Y-106210506D01*
X141025498Y-106320820D01*
X140989188Y-106440518D01*
X140976928Y-106565000D01*
X140980000Y-107029250D01*
X141138750Y-107188000D01*
X142113000Y-107188000D01*
X142113000Y-107168000D01*
X142367000Y-107168000D01*
X142367000Y-107188000D01*
X143341250Y-107188000D01*
X143500000Y-107029250D01*
X143503072Y-106565000D01*
X143490812Y-106440518D01*
X143454502Y-106320820D01*
X143395537Y-106210506D01*
X143316185Y-106113815D01*
X143256704Y-106065000D01*
X143316185Y-106016185D01*
X143395537Y-105919494D01*
X143454502Y-105809180D01*
X143490812Y-105689482D01*
X143503072Y-105565000D01*
X143503072Y-105535000D01*
X144127913Y-105535000D01*
X144139188Y-105649482D01*
X144175498Y-105769180D01*
X144234463Y-105879494D01*
X144313815Y-105976185D01*
X144410506Y-106055537D01*
X144520820Y-106114502D01*
X144555427Y-106125000D01*
X144520820Y-106135498D01*
X144410506Y-106194463D01*
X144313815Y-106273815D01*
X144234463Y-106370506D01*
X144175498Y-106480820D01*
X144139188Y-106600518D01*
X144126928Y-106725000D01*
X144126928Y-108225000D01*
X144139188Y-108349482D01*
X144175498Y-108469180D01*
X144234463Y-108579494D01*
X144313815Y-108676185D01*
X144410506Y-108755537D01*
X144520820Y-108814502D01*
X144640518Y-108850812D01*
X144765000Y-108863072D01*
X146065000Y-108863072D01*
X146189482Y-108850812D01*
X146309180Y-108814502D01*
X146419494Y-108755537D01*
X146516185Y-108676185D01*
X146595537Y-108579494D01*
X146654502Y-108469180D01*
X146690812Y-108349482D01*
X146702087Y-108235000D01*
X151982678Y-108235000D01*
X152020000Y-108238676D01*
X152057322Y-108235000D01*
X152057333Y-108235000D01*
X152168986Y-108224003D01*
X152312247Y-108180546D01*
X152444276Y-108109974D01*
X152560001Y-108015001D01*
X152583804Y-107985997D01*
X156086004Y-104483798D01*
X156115001Y-104460001D01*
X156209974Y-104344276D01*
X156229326Y-104308072D01*
X156375000Y-104308072D01*
X156499482Y-104295812D01*
X156619180Y-104259502D01*
X156729494Y-104200537D01*
X156826185Y-104121185D01*
X156905537Y-104024494D01*
X156964502Y-103914180D01*
X157000812Y-103794482D01*
X157013072Y-103670000D01*
X157013072Y-102070000D01*
X157000812Y-101945518D01*
X156964502Y-101825820D01*
X156905537Y-101715506D01*
X156826185Y-101618815D01*
X156729494Y-101539463D01*
X156619180Y-101480498D01*
X156499482Y-101444188D01*
X156375000Y-101431928D01*
X156335000Y-101431928D01*
X156335000Y-100597238D01*
X156349482Y-100595812D01*
X156469180Y-100559502D01*
X156579494Y-100500537D01*
X156676185Y-100421185D01*
X156755537Y-100324494D01*
X156814502Y-100214180D01*
X156850812Y-100094482D01*
X156863072Y-99970000D01*
X156863072Y-98470000D01*
X156850812Y-98345518D01*
X156814502Y-98225820D01*
X156755537Y-98115506D01*
X156676185Y-98018815D01*
X156579494Y-97939463D01*
X156469180Y-97880498D01*
X156434573Y-97870000D01*
X156469180Y-97859502D01*
X156579494Y-97800537D01*
X156676185Y-97721185D01*
X156755537Y-97624494D01*
X156814502Y-97514180D01*
X156850812Y-97394482D01*
X156863072Y-97270000D01*
X156863072Y-95770000D01*
X156850812Y-95645518D01*
X156814502Y-95525820D01*
X156755537Y-95415506D01*
X156676185Y-95318815D01*
X156579494Y-95239463D01*
X156469180Y-95180498D01*
X156349482Y-95144188D01*
X156335000Y-95142762D01*
X156335000Y-88407338D01*
X156385820Y-88434502D01*
X156505518Y-88470812D01*
X156630000Y-88483072D01*
X158330000Y-88483072D01*
X158454482Y-88470812D01*
X158574180Y-88434502D01*
X158684494Y-88375537D01*
X158781185Y-88296185D01*
X158860537Y-88199494D01*
X158919502Y-88089180D01*
X158955812Y-87969482D01*
X158968072Y-87845000D01*
X158968072Y-86145000D01*
X158955812Y-86020518D01*
X158919502Y-85900820D01*
X158860537Y-85790506D01*
X158781185Y-85693815D01*
X158684494Y-85614463D01*
X158574180Y-85555498D01*
X158493534Y-85531034D01*
X158577588Y-85455269D01*
X158751641Y-85221920D01*
X158876825Y-84959099D01*
X158921476Y-84811890D01*
X158800155Y-84582000D01*
X157607000Y-84582000D01*
X157607000Y-84602000D01*
X157353000Y-84602000D01*
X157353000Y-84582000D01*
X156159845Y-84582000D01*
X156038524Y-84811890D01*
X156083175Y-84959099D01*
X156208359Y-85221920D01*
X156382412Y-85455269D01*
X156466466Y-85531034D01*
X156385820Y-85555498D01*
X156275506Y-85614463D01*
X156178815Y-85693815D01*
X156099463Y-85790506D01*
X156040498Y-85900820D01*
X156004188Y-86020518D01*
X155991928Y-86145000D01*
X155991928Y-86340674D01*
X155955723Y-86360026D01*
X155872083Y-86428668D01*
X155839999Y-86454999D01*
X155816201Y-86483998D01*
X155064002Y-87236197D01*
X155034999Y-87259999D01*
X154979871Y-87327174D01*
X154940026Y-87375724D01*
X154870390Y-87506002D01*
X154869454Y-87507754D01*
X154825997Y-87651015D01*
X154815000Y-87762668D01*
X154815000Y-87762678D01*
X154811324Y-87800000D01*
X154815000Y-87837322D01*
X154815001Y-95142762D01*
X154800518Y-95144188D01*
X154680820Y-95180498D01*
X154570506Y-95239463D01*
X154473815Y-95318815D01*
X154394463Y-95415506D01*
X154335498Y-95525820D01*
X154299188Y-95645518D01*
X154287913Y-95760000D01*
X153052087Y-95760000D01*
X153040812Y-95645518D01*
X153004502Y-95525820D01*
X152945537Y-95415506D01*
X152866185Y-95318815D01*
X152769494Y-95239463D01*
X152659180Y-95180498D01*
X152539482Y-95144188D01*
X152415000Y-95131928D01*
X151115000Y-95131928D01*
X150990518Y-95144188D01*
X150870820Y-95180498D01*
X150760506Y-95239463D01*
X150663815Y-95318815D01*
X150584463Y-95415506D01*
X150525498Y-95525820D01*
X150489188Y-95645518D01*
X150476928Y-95770000D01*
X150476928Y-97270000D01*
X150489188Y-97394482D01*
X150525498Y-97514180D01*
X150584463Y-97624494D01*
X150663815Y-97721185D01*
X150760506Y-97800537D01*
X150870820Y-97859502D01*
X150905427Y-97870000D01*
X150870820Y-97880498D01*
X150760506Y-97939463D01*
X150663815Y-98018815D01*
X150584463Y-98115506D01*
X150525498Y-98225820D01*
X150489188Y-98345518D01*
X150477913Y-98460000D01*
X149064803Y-98460000D01*
X148080000Y-97475199D01*
X148080000Y-91477322D01*
X148083676Y-91439999D01*
X148080000Y-91402676D01*
X148080000Y-91402667D01*
X148069003Y-91291014D01*
X148025546Y-91147753D01*
X147954974Y-91015724D01*
X147860001Y-90899999D01*
X147831003Y-90876201D01*
X145602736Y-88647934D01*
X145716898Y-88625226D01*
X145905256Y-88547205D01*
X146074774Y-88433937D01*
X146218937Y-88289774D01*
X146332205Y-88120256D01*
X146410226Y-87931898D01*
X146450000Y-87731939D01*
X146450000Y-87528061D01*
X146410226Y-87328102D01*
X146332205Y-87139744D01*
X146218937Y-86970226D01*
X146175000Y-86926289D01*
X146175000Y-84098110D01*
X156038524Y-84098110D01*
X156159845Y-84328000D01*
X157353000Y-84328000D01*
X157353000Y-83134186D01*
X157607000Y-83134186D01*
X157607000Y-84328000D01*
X158800155Y-84328000D01*
X158921476Y-84098110D01*
X158876825Y-83950901D01*
X158751641Y-83688080D01*
X158577588Y-83454731D01*
X158361355Y-83259822D01*
X158111252Y-83110843D01*
X157836891Y-83013519D01*
X157607000Y-83134186D01*
X157353000Y-83134186D01*
X157123109Y-83013519D01*
X156848748Y-83110843D01*
X156598645Y-83259822D01*
X156382412Y-83454731D01*
X156208359Y-83688080D01*
X156083175Y-83950901D01*
X156038524Y-84098110D01*
X146175000Y-84098110D01*
X146175000Y-78142322D01*
X146178676Y-78104999D01*
X146175000Y-78067676D01*
X146175000Y-78067667D01*
X146164003Y-77956014D01*
X146120546Y-77812753D01*
X146049974Y-77680724D01*
X145955001Y-77564999D01*
X145926004Y-77541202D01*
X144708804Y-76324003D01*
X144685001Y-76294999D01*
X144569276Y-76200026D01*
X144437247Y-76129454D01*
X144293986Y-76085997D01*
X144182333Y-76075000D01*
X144182322Y-76075000D01*
X144145000Y-76071324D01*
X144107678Y-76075000D01*
X144095901Y-76075000D01*
X144073932Y-76033899D01*
X143894608Y-75815392D01*
X143676101Y-75636068D01*
X143426808Y-75502818D01*
X143156309Y-75420764D01*
X142945492Y-75400000D01*
X142804508Y-75400000D01*
X142593691Y-75420764D01*
X142323192Y-75502818D01*
X142073899Y-75636068D01*
X141855392Y-75815392D01*
X141676068Y-76033899D01*
X141542818Y-76283192D01*
X141460764Y-76553691D01*
X141433057Y-76835000D01*
X141460764Y-77116309D01*
X141542818Y-77386808D01*
X141676068Y-77636101D01*
X141855392Y-77854608D01*
X142073899Y-78033932D01*
X142206858Y-78105000D01*
X142073899Y-78176068D01*
X141855392Y-78355392D01*
X141676068Y-78573899D01*
X141542818Y-78823192D01*
X141460764Y-79093691D01*
X141433057Y-79375000D01*
X141460764Y-79656309D01*
X141542818Y-79926808D01*
X141676068Y-80176101D01*
X141855392Y-80394608D01*
X142073899Y-80573932D01*
X142211682Y-80647579D01*
X142019869Y-80762615D01*
X141811481Y-80951586D01*
X141643963Y-81177580D01*
X141523754Y-81431913D01*
X141483096Y-81565961D01*
X141605085Y-81788000D01*
X142748000Y-81788000D01*
X142748000Y-81768000D01*
X143002000Y-81768000D01*
X143002000Y-81788000D01*
X144144915Y-81788000D01*
X144266904Y-81565961D01*
X144226246Y-81431913D01*
X144106037Y-81177580D01*
X143938519Y-80951586D01*
X143730131Y-80762615D01*
X143538318Y-80647579D01*
X143676101Y-80573932D01*
X143894608Y-80394608D01*
X144073932Y-80176101D01*
X144207182Y-79926808D01*
X144289236Y-79656309D01*
X144316943Y-79375000D01*
X144289236Y-79093691D01*
X144207182Y-78823192D01*
X144073932Y-78573899D01*
X143894608Y-78355392D01*
X143676101Y-78176068D01*
X143543142Y-78105000D01*
X143676101Y-78033932D01*
X143894608Y-77854608D01*
X143982595Y-77747396D01*
X144655000Y-78419802D01*
X144655001Y-86926288D01*
X144611063Y-86970226D01*
X144497795Y-87139744D01*
X144419774Y-87328102D01*
X144397066Y-87442265D01*
X144275708Y-87320906D01*
X144289236Y-87276309D01*
X144316943Y-86995000D01*
X144289236Y-86713691D01*
X144207182Y-86443192D01*
X144073932Y-86193899D01*
X143894608Y-85975392D01*
X143676101Y-85796068D01*
X143538318Y-85722421D01*
X143730131Y-85607385D01*
X143938519Y-85418414D01*
X144106037Y-85192420D01*
X144226246Y-84938087D01*
X144266904Y-84804039D01*
X144144915Y-84582000D01*
X143002000Y-84582000D01*
X143002000Y-84602000D01*
X142748000Y-84602000D01*
X142748000Y-84582000D01*
X141605085Y-84582000D01*
X141483096Y-84804039D01*
X141523754Y-84938087D01*
X141643963Y-85192420D01*
X141811481Y-85418414D01*
X142019869Y-85607385D01*
X142211682Y-85722421D01*
X142073899Y-85796068D01*
X141855392Y-85975392D01*
X141676068Y-86193899D01*
X141542818Y-86443192D01*
X141460764Y-86713691D01*
X141433057Y-86995000D01*
X141460764Y-87276309D01*
X141542818Y-87546808D01*
X141676068Y-87796101D01*
X141855392Y-88014608D01*
X142073899Y-88193932D01*
X142206858Y-88265000D01*
X142073899Y-88336068D01*
X141855392Y-88515392D01*
X141676068Y-88733899D01*
X141542818Y-88983192D01*
X141460764Y-89253691D01*
X141433057Y-89535000D01*
X141460764Y-89816309D01*
X141542818Y-90086808D01*
X141676068Y-90336101D01*
X141855392Y-90554608D01*
X142073899Y-90733932D01*
X142206858Y-90805000D01*
X142073899Y-90876068D01*
X141855392Y-91055392D01*
X141676068Y-91273899D01*
X141542818Y-91523192D01*
X141460764Y-91793691D01*
X141433057Y-92075000D01*
X141460764Y-92356309D01*
X141542818Y-92626808D01*
X141676068Y-92876101D01*
X141855392Y-93094608D01*
X142073899Y-93273932D01*
X142206858Y-93345000D01*
X142073899Y-93416068D01*
X141855392Y-93595392D01*
X141676068Y-93813899D01*
X141542818Y-94063192D01*
X141460764Y-94333691D01*
X141433057Y-94615000D01*
X141460764Y-94896309D01*
X141542818Y-95166808D01*
X141676068Y-95416101D01*
X141855392Y-95634608D01*
X142073899Y-95813932D01*
X142323192Y-95947182D01*
X142593691Y-96029236D01*
X142804508Y-96050000D01*
X142945492Y-96050000D01*
X143156309Y-96029236D01*
X143426808Y-95947182D01*
X143676101Y-95813932D01*
X143894608Y-95634608D01*
X144073932Y-95416101D01*
X144207182Y-95166808D01*
X144289236Y-94896309D01*
X144316943Y-94615000D01*
X144289236Y-94333691D01*
X144207182Y-94063192D01*
X144073932Y-93813899D01*
X143894608Y-93595392D01*
X143676101Y-93416068D01*
X143543142Y-93345000D01*
X143676101Y-93273932D01*
X143894608Y-93094608D01*
X144073932Y-92876101D01*
X144207182Y-92626808D01*
X144289236Y-92356309D01*
X144316943Y-92075000D01*
X144314402Y-92049205D01*
X144380000Y-92114803D01*
X144380000Y-92176939D01*
X144419774Y-92376898D01*
X144497795Y-92565256D01*
X144611063Y-92734774D01*
X144655001Y-92778712D01*
X144655000Y-96840198D01*
X141728998Y-99766201D01*
X141700000Y-99789999D01*
X141676202Y-99818997D01*
X141676201Y-99818998D01*
X141605026Y-99905724D01*
X141534454Y-100037754D01*
X141504180Y-100137558D01*
X141490999Y-100181013D01*
X141490998Y-100181015D01*
X141476324Y-100330000D01*
X141480001Y-100367332D01*
X141480000Y-103442379D01*
X141370820Y-103475498D01*
X141260506Y-103534463D01*
X141163815Y-103613815D01*
X141084463Y-103710506D01*
X141025498Y-103820820D01*
X140989188Y-103940518D01*
X140976928Y-104065000D01*
X132205000Y-104065000D01*
X132205000Y-99097322D01*
X132208676Y-99059999D01*
X132205000Y-99022676D01*
X132205000Y-99022667D01*
X132194003Y-98911014D01*
X132150546Y-98767753D01*
X132079974Y-98635724D01*
X131985001Y-98519999D01*
X131956003Y-98496201D01*
X130935000Y-97475199D01*
X130935000Y-86995000D01*
X133813057Y-86995000D01*
X133840764Y-87276309D01*
X133922818Y-87546808D01*
X134056068Y-87796101D01*
X134235392Y-88014608D01*
X134453899Y-88193932D01*
X134586858Y-88265000D01*
X134453899Y-88336068D01*
X134235392Y-88515392D01*
X134056068Y-88733899D01*
X133922818Y-88983192D01*
X133840764Y-89253691D01*
X133813057Y-89535000D01*
X133840764Y-89816309D01*
X133922818Y-90086808D01*
X134056068Y-90336101D01*
X134235392Y-90554608D01*
X134453899Y-90733932D01*
X134586858Y-90805000D01*
X134453899Y-90876068D01*
X134235392Y-91055392D01*
X134056068Y-91273899D01*
X133922818Y-91523192D01*
X133840764Y-91793691D01*
X133813057Y-92075000D01*
X133840764Y-92356309D01*
X133922818Y-92626808D01*
X134056068Y-92876101D01*
X134235392Y-93094608D01*
X134453899Y-93273932D01*
X134586858Y-93345000D01*
X134453899Y-93416068D01*
X134235392Y-93595392D01*
X134056068Y-93813899D01*
X133922818Y-94063192D01*
X133840764Y-94333691D01*
X133813057Y-94615000D01*
X133840764Y-94896309D01*
X133922818Y-95166808D01*
X134056068Y-95416101D01*
X134235392Y-95634608D01*
X134453899Y-95813932D01*
X134703192Y-95947182D01*
X134973691Y-96029236D01*
X135184508Y-96050000D01*
X135325492Y-96050000D01*
X135536309Y-96029236D01*
X135806808Y-95947182D01*
X136056101Y-95813932D01*
X136274608Y-95634608D01*
X136453932Y-95416101D01*
X136587182Y-95166808D01*
X136669236Y-94896309D01*
X136696943Y-94615000D01*
X136669236Y-94333691D01*
X136587182Y-94063192D01*
X136453932Y-93813899D01*
X136274608Y-93595392D01*
X136056101Y-93416068D01*
X135923142Y-93345000D01*
X136056101Y-93273932D01*
X136274608Y-93094608D01*
X136453932Y-92876101D01*
X136587182Y-92626808D01*
X136669236Y-92356309D01*
X136696943Y-92075000D01*
X136669236Y-91793691D01*
X136587182Y-91523192D01*
X136453932Y-91273899D01*
X136274608Y-91055392D01*
X136056101Y-90876068D01*
X135923142Y-90805000D01*
X136056101Y-90733932D01*
X136274608Y-90554608D01*
X136453932Y-90336101D01*
X136587182Y-90086808D01*
X136669236Y-89816309D01*
X136696943Y-89535000D01*
X136669236Y-89253691D01*
X136587182Y-88983192D01*
X136453932Y-88733899D01*
X136274608Y-88515392D01*
X136056101Y-88336068D01*
X135923142Y-88265000D01*
X136056101Y-88193932D01*
X136274608Y-88014608D01*
X136453932Y-87796101D01*
X136587182Y-87546808D01*
X136669236Y-87276309D01*
X136696943Y-86995000D01*
X136669236Y-86713691D01*
X136587182Y-86443192D01*
X136453932Y-86193899D01*
X136274608Y-85975392D01*
X136056101Y-85796068D01*
X135918318Y-85722421D01*
X136110131Y-85607385D01*
X136318519Y-85418414D01*
X136486037Y-85192420D01*
X136606246Y-84938087D01*
X136646904Y-84804039D01*
X136524915Y-84582000D01*
X135382000Y-84582000D01*
X135382000Y-84602000D01*
X135128000Y-84602000D01*
X135128000Y-84582000D01*
X133985085Y-84582000D01*
X133863096Y-84804039D01*
X133903754Y-84938087D01*
X134023963Y-85192420D01*
X134191481Y-85418414D01*
X134399869Y-85607385D01*
X134591682Y-85722421D01*
X134453899Y-85796068D01*
X134235392Y-85975392D01*
X134056068Y-86193899D01*
X133922818Y-86443192D01*
X133840764Y-86713691D01*
X133813057Y-86995000D01*
X130935000Y-86995000D01*
X130935000Y-79375000D01*
X133813057Y-79375000D01*
X133840764Y-79656309D01*
X133922818Y-79926808D01*
X134056068Y-80176101D01*
X134235392Y-80394608D01*
X134453899Y-80573932D01*
X134586858Y-80645000D01*
X134453899Y-80716068D01*
X134235392Y-80895392D01*
X134056068Y-81113899D01*
X133922818Y-81363192D01*
X133840764Y-81633691D01*
X133813057Y-81915000D01*
X133840764Y-82196309D01*
X133922818Y-82466808D01*
X134056068Y-82716101D01*
X134235392Y-82934608D01*
X134453899Y-83113932D01*
X134591682Y-83187579D01*
X134399869Y-83302615D01*
X134191481Y-83491586D01*
X134023963Y-83717580D01*
X133903754Y-83971913D01*
X133863096Y-84105961D01*
X133985085Y-84328000D01*
X135128000Y-84328000D01*
X135128000Y-84308000D01*
X135382000Y-84308000D01*
X135382000Y-84328000D01*
X136524915Y-84328000D01*
X136646904Y-84105961D01*
X136606246Y-83971913D01*
X136486037Y-83717580D01*
X136318519Y-83491586D01*
X136110131Y-83302615D01*
X135918318Y-83187579D01*
X136056101Y-83113932D01*
X136274608Y-82934608D01*
X136453932Y-82716101D01*
X136587182Y-82466808D01*
X136648690Y-82264039D01*
X141483096Y-82264039D01*
X141523754Y-82398087D01*
X141643963Y-82652420D01*
X141811481Y-82878414D01*
X142019869Y-83067385D01*
X142215982Y-83185000D01*
X142019869Y-83302615D01*
X141811481Y-83491586D01*
X141643963Y-83717580D01*
X141523754Y-83971913D01*
X141483096Y-84105961D01*
X141605085Y-84328000D01*
X142748000Y-84328000D01*
X142748000Y-82042000D01*
X143002000Y-82042000D01*
X143002000Y-84328000D01*
X144144915Y-84328000D01*
X144266904Y-84105961D01*
X144226246Y-83971913D01*
X144106037Y-83717580D01*
X143938519Y-83491586D01*
X143730131Y-83302615D01*
X143534018Y-83185000D01*
X143730131Y-83067385D01*
X143938519Y-82878414D01*
X144106037Y-82652420D01*
X144226246Y-82398087D01*
X144266904Y-82264039D01*
X144144915Y-82042000D01*
X143002000Y-82042000D01*
X142748000Y-82042000D01*
X141605085Y-82042000D01*
X141483096Y-82264039D01*
X136648690Y-82264039D01*
X136669236Y-82196309D01*
X136696943Y-81915000D01*
X136669236Y-81633691D01*
X136587182Y-81363192D01*
X136453932Y-81113899D01*
X136274608Y-80895392D01*
X136056101Y-80716068D01*
X135923142Y-80645000D01*
X136056101Y-80573932D01*
X136274608Y-80394608D01*
X136453932Y-80176101D01*
X136587182Y-79926808D01*
X136669236Y-79656309D01*
X136696943Y-79375000D01*
X136669236Y-79093691D01*
X136587182Y-78823192D01*
X136453932Y-78573899D01*
X136274608Y-78355392D01*
X136161518Y-78262581D01*
X136179482Y-78260812D01*
X136299180Y-78224502D01*
X136409494Y-78165537D01*
X136506185Y-78086185D01*
X136585537Y-77989494D01*
X136644502Y-77879180D01*
X136680812Y-77759482D01*
X136693072Y-77635000D01*
X136693072Y-76035000D01*
X136680812Y-75910518D01*
X136644502Y-75790820D01*
X136585537Y-75680506D01*
X136506185Y-75583815D01*
X136409494Y-75504463D01*
X136299180Y-75445498D01*
X136179482Y-75409188D01*
X136055000Y-75396928D01*
X134455000Y-75396928D01*
X134330518Y-75409188D01*
X134210820Y-75445498D01*
X134100506Y-75504463D01*
X134003815Y-75583815D01*
X133924463Y-75680506D01*
X133865498Y-75790820D01*
X133829188Y-75910518D01*
X133816928Y-76035000D01*
X133816928Y-77635000D01*
X133829188Y-77759482D01*
X133865498Y-77879180D01*
X133924463Y-77989494D01*
X134003815Y-78086185D01*
X134100506Y-78165537D01*
X134210820Y-78224502D01*
X134330518Y-78260812D01*
X134348482Y-78262581D01*
X134235392Y-78355392D01*
X134056068Y-78573899D01*
X133922818Y-78823192D01*
X133840764Y-79093691D01*
X133813057Y-79375000D01*
X130935000Y-79375000D01*
X130935000Y-76268711D01*
X130978937Y-76224774D01*
X131092205Y-76055256D01*
X131170226Y-75866898D01*
X131210000Y-75666939D01*
X131210000Y-75463061D01*
X131170226Y-75263102D01*
X131092205Y-75074744D01*
X130978937Y-74905226D01*
X130834774Y-74761063D01*
X130665256Y-74647795D01*
X130476898Y-74569774D01*
X130276939Y-74530000D01*
X130073061Y-74530000D01*
X129873102Y-74569774D01*
X129684744Y-74647795D01*
X129515226Y-74761063D01*
X129371063Y-74905226D01*
X129257795Y-75074744D01*
X129179774Y-75263102D01*
X129140000Y-75463061D01*
X129140000Y-75666939D01*
X129173039Y-75833039D01*
X129006939Y-75800000D01*
X128803061Y-75800000D01*
X128603102Y-75839774D01*
X128414744Y-75917795D01*
X128245226Y-76031063D01*
X128101063Y-76175226D01*
X127987795Y-76344744D01*
X127909774Y-76533102D01*
X127870000Y-76733061D01*
X127870000Y-76936939D01*
X127909774Y-77136898D01*
X127987795Y-77325256D01*
X128101063Y-77494774D01*
X128145001Y-77538712D01*
X128145000Y-100777762D01*
X128130518Y-100779188D01*
X128010820Y-100815498D01*
X127900506Y-100874463D01*
X127803815Y-100953815D01*
X127724463Y-101050506D01*
X127665498Y-101160820D01*
X127629188Y-101280518D01*
X127616928Y-101405000D01*
X127616928Y-102905000D01*
X127629188Y-103029482D01*
X127665498Y-103149180D01*
X127724463Y-103259494D01*
X127803815Y-103356185D01*
X127900506Y-103435537D01*
X128010820Y-103494502D01*
X128045427Y-103505000D01*
X128010820Y-103515498D01*
X127900506Y-103574463D01*
X127803815Y-103653815D01*
X127724463Y-103750506D01*
X127665498Y-103860820D01*
X127629188Y-103980518D01*
X127616928Y-104105000D01*
X127616928Y-105605000D01*
X127629188Y-105729482D01*
X127665498Y-105849180D01*
X127724463Y-105959494D01*
X127803815Y-106056185D01*
X127900506Y-106135537D01*
X128010820Y-106194502D01*
X128130518Y-106230812D01*
X128145001Y-106232238D01*
X128145000Y-107246289D01*
X128101063Y-107290226D01*
X127987795Y-107459744D01*
X127909774Y-107648102D01*
X127870000Y-107848061D01*
X127870000Y-108051939D01*
X127909774Y-108251898D01*
X127987795Y-108440256D01*
X128084510Y-108585000D01*
X127987795Y-108729744D01*
X127909774Y-108918102D01*
X127870000Y-109118061D01*
X127870000Y-109321939D01*
X127909774Y-109521898D01*
X127987795Y-109710256D01*
X128000987Y-109730000D01*
X127703711Y-109730000D01*
X127659774Y-109686063D01*
X127490256Y-109572795D01*
X127301898Y-109494774D01*
X127101939Y-109455000D01*
X126898061Y-109455000D01*
X126698102Y-109494774D01*
X126509744Y-109572795D01*
X126340226Y-109686063D01*
X126196063Y-109830226D01*
X126082795Y-109999744D01*
X126004774Y-110188102D01*
X125965000Y-110388061D01*
X123315000Y-110388061D01*
X123315000Y-101407333D01*
X123383815Y-101491185D01*
X123480506Y-101570537D01*
X123590820Y-101629502D01*
X123700001Y-101662622D01*
X123700000Y-104706289D01*
X123656063Y-104750226D01*
X123542795Y-104919744D01*
X123464774Y-105108102D01*
X123425000Y-105308061D01*
X123425000Y-105511939D01*
X123464774Y-105711898D01*
X123542795Y-105900256D01*
X123656063Y-106069774D01*
X123800226Y-106213937D01*
X123969744Y-106327205D01*
X124158102Y-106405226D01*
X124358061Y-106445000D01*
X124561939Y-106445000D01*
X124761898Y-106405226D01*
X124950256Y-106327205D01*
X125119774Y-106213937D01*
X125263937Y-106069774D01*
X125377205Y-105900256D01*
X125455226Y-105711898D01*
X125495000Y-105511939D01*
X125495000Y-105308061D01*
X125455226Y-105108102D01*
X125377205Y-104919744D01*
X125263937Y-104750226D01*
X125220000Y-104706289D01*
X125220000Y-101662621D01*
X125329180Y-101629502D01*
X125439494Y-101570537D01*
X125536185Y-101491185D01*
X125615537Y-101394494D01*
X125674502Y-101284180D01*
X125710812Y-101164482D01*
X125722087Y-101050000D01*
X125732667Y-101050000D01*
X125770000Y-101053677D01*
X125918986Y-101039003D01*
X126062247Y-100995546D01*
X126194276Y-100924974D01*
X126310001Y-100830001D01*
X126404974Y-100714276D01*
X126475546Y-100582247D01*
X126519003Y-100438986D01*
X126530000Y-100327333D01*
X126533677Y-100290000D01*
X126530000Y-100252667D01*
X126530000Y-94905595D01*
X126698102Y-94975226D01*
X126898061Y-95015000D01*
X127101939Y-95015000D01*
X127301898Y-94975226D01*
X127490256Y-94897205D01*
X127659774Y-94783937D01*
X127803937Y-94639774D01*
X127917205Y-94470256D01*
X127995226Y-94281898D01*
X128035000Y-94081939D01*
X128035000Y-93878061D01*
X127995226Y-93678102D01*
X127917205Y-93489744D01*
X127803937Y-93320226D01*
X127760000Y-93276289D01*
X127760000Y-74998711D01*
X127803937Y-74954774D01*
X127917205Y-74785256D01*
X127995226Y-74596898D01*
X128035000Y-74396939D01*
X128035000Y-74193061D01*
X127995226Y-73993102D01*
X127917205Y-73804744D01*
X127837195Y-73685000D01*
X159995000Y-73685000D01*
X159995001Y-80612572D01*
X159995000Y-80612582D01*
X159995001Y-114910000D01*
X84480000Y-114910000D01*
X84480000Y-64484040D01*
X84968091Y-64484040D01*
X85062930Y-64748881D01*
X85207615Y-64990131D01*
X85396586Y-65198519D01*
X85622580Y-65366037D01*
X85876913Y-65486246D01*
X86010961Y-65526904D01*
X86233000Y-65404915D01*
X86233000Y-64262000D01*
X85089376Y-64262000D01*
X84968091Y-64484040D01*
X84480000Y-64484040D01*
X84480000Y-63525000D01*
X85061540Y-63525000D01*
X84968091Y-63785960D01*
G36*
X106172000Y-95123000D02*
G01*
X106192000Y-95123000D01*
X106192000Y-95377000D01*
X106172000Y-95377000D01*
X106172000Y-96424750D01*
X106280000Y-96532750D01*
X106280000Y-96621939D01*
X106319774Y-96821898D01*
X106397795Y-97010256D01*
X106511063Y-97179774D01*
X106655226Y-97323937D01*
X106824744Y-97437205D01*
X107013102Y-97515226D01*
X107213061Y-97555000D01*
X107416939Y-97555000D01*
X107616898Y-97515226D01*
X107805256Y-97437205D01*
X107974774Y-97323937D01*
X108118937Y-97179774D01*
X108232205Y-97010256D01*
X108310226Y-96821898D01*
X108350000Y-96621939D01*
X108350000Y-96562880D01*
X108453662Y-96583500D01*
X108716338Y-96583500D01*
X108973968Y-96532254D01*
X109095000Y-96482121D01*
X109095000Y-99022678D01*
X109091324Y-99060000D01*
X109095000Y-99097322D01*
X109095000Y-99097332D01*
X109105997Y-99208985D01*
X109132338Y-99295820D01*
X109149454Y-99352246D01*
X109220026Y-99484276D01*
X109257551Y-99530000D01*
X109314999Y-99600001D01*
X109344003Y-99623804D01*
X109812631Y-100092432D01*
X109791500Y-100198662D01*
X109791500Y-100461338D01*
X109842746Y-100718968D01*
X109943268Y-100961649D01*
X110089203Y-101180057D01*
X110274943Y-101365797D01*
X110493351Y-101511732D01*
X110706448Y-101600000D01*
X110493351Y-101688268D01*
X110274943Y-101834203D01*
X110089203Y-102019943D01*
X109943268Y-102238351D01*
X109842746Y-102481032D01*
X109791500Y-102738662D01*
X109791500Y-103001338D01*
X109842746Y-103258968D01*
X109943268Y-103501649D01*
X110089203Y-103720057D01*
X110274943Y-103905797D01*
X110493351Y-104051732D01*
X110706448Y-104140000D01*
X110493351Y-104228268D01*
X110274943Y-104374203D01*
X110089203Y-104559943D01*
X109943268Y-104778351D01*
X109842746Y-105021032D01*
X109791500Y-105278662D01*
X109791500Y-105541338D01*
X109842746Y-105798968D01*
X109943268Y-106041649D01*
X110089203Y-106260057D01*
X110274943Y-106445797D01*
X110493351Y-106591732D01*
X110706448Y-106680000D01*
X110493351Y-106768268D01*
X110274943Y-106914203D01*
X110089203Y-107099943D01*
X109943268Y-107318351D01*
X109855000Y-107531448D01*
X109766732Y-107318351D01*
X109620797Y-107099943D01*
X109435057Y-106914203D01*
X109216649Y-106768268D01*
X108973968Y-106667746D01*
X108716338Y-106616500D01*
X108453662Y-106616500D01*
X108196032Y-106667746D01*
X107953351Y-106768268D01*
X107734943Y-106914203D01*
X107549203Y-107099943D01*
X107403268Y-107318351D01*
X107315000Y-107531448D01*
X107226732Y-107318351D01*
X107080797Y-107099943D01*
X106895057Y-106914203D01*
X106676649Y-106768268D01*
X106433968Y-106667746D01*
X106176338Y-106616500D01*
X105913662Y-106616500D01*
X105656032Y-106667746D01*
X105413351Y-106768268D01*
X105194943Y-106914203D01*
X105009203Y-107099943D01*
X104863268Y-107318351D01*
X104775000Y-107531448D01*
X104686732Y-107318351D01*
X104540797Y-107099943D01*
X104355057Y-106914203D01*
X104265000Y-106854029D01*
X104265000Y-104843711D01*
X104308937Y-104799774D01*
X104422205Y-104630256D01*
X104500226Y-104441898D01*
X104540000Y-104241939D01*
X104540000Y-104038061D01*
X104500226Y-103838102D01*
X104422205Y-103649744D01*
X104308937Y-103480226D01*
X104164774Y-103336063D01*
X103995256Y-103222795D01*
X103806898Y-103144774D01*
X103606939Y-103105000D01*
X103403061Y-103105000D01*
X103203102Y-103144774D01*
X103014744Y-103222795D01*
X102845226Y-103336063D01*
X102701063Y-103480226D01*
X102587795Y-103649744D01*
X102509774Y-103838102D01*
X102470000Y-104038061D01*
X102470000Y-104241939D01*
X102509774Y-104441898D01*
X102587795Y-104630256D01*
X102701063Y-104799774D01*
X102745000Y-104843711D01*
X102745001Y-106854029D01*
X102654943Y-106914203D01*
X102469203Y-107099943D01*
X102323268Y-107318351D01*
X102235000Y-107531448D01*
X102146732Y-107318351D01*
X102000797Y-107099943D01*
X101815057Y-106914203D01*
X101596649Y-106768268D01*
X101353968Y-106667746D01*
X101096338Y-106616500D01*
X100833662Y-106616500D01*
X100576032Y-106667746D01*
X100333351Y-106768268D01*
X100114943Y-106914203D01*
X99929203Y-107099943D01*
X99783268Y-107318351D01*
X99695000Y-107531448D01*
X99606732Y-107318351D01*
X99460797Y-107099943D01*
X99275057Y-106914203D01*
X99056649Y-106768268D01*
X98843552Y-106680000D01*
X99056649Y-106591732D01*
X99275057Y-106445797D01*
X99460797Y-106260057D01*
X99606732Y-106041649D01*
X99707254Y-105798968D01*
X99758500Y-105541338D01*
X99758500Y-105278662D01*
X99737369Y-105172432D01*
X100206004Y-104703798D01*
X100235001Y-104680001D01*
X100329974Y-104564276D01*
X100400546Y-104432247D01*
X100444003Y-104288986D01*
X100455000Y-104177333D01*
X100455000Y-104177324D01*
X100458676Y-104140001D01*
X100455000Y-104102678D01*
X100455000Y-96482121D01*
X100576032Y-96532254D01*
X100833662Y-96583500D01*
X101096338Y-96583500D01*
X101353968Y-96532254D01*
X101596649Y-96431732D01*
X101815057Y-96285797D01*
X102000797Y-96100057D01*
X102146732Y-95881649D01*
X102235000Y-95668552D01*
X102323268Y-95881649D01*
X102469203Y-96100057D01*
X102654943Y-96285797D01*
X102873351Y-96431732D01*
X103116032Y-96532254D01*
X103373662Y-96583500D01*
X103636338Y-96583500D01*
X103893968Y-96532254D01*
X104136649Y-96431732D01*
X104355057Y-96285797D01*
X104540797Y-96100057D01*
X104686732Y-95881649D01*
X104709332Y-95827089D01*
X104708428Y-95948500D01*
X104720688Y-96072982D01*
X104756998Y-96192680D01*
X104815963Y-96302994D01*
X104895315Y-96399685D01*
X104992006Y-96479037D01*
X105102320Y-96538002D01*
X105222018Y-96574312D01*
X105346500Y-96586572D01*
X105759250Y-96583500D01*
X105918000Y-96424750D01*
X105918000Y-95377000D01*
X105898000Y-95377000D01*
X105898000Y-95123000D01*
X105918000Y-95123000D01*
X105918000Y-95103000D01*
X106172000Y-95103000D01*
X106172000Y-95123000D01*
X106172000Y-95123000D01*
G37*
X106172000Y-95123000D02*
X106192000Y-95123000D01*
X106192000Y-95377000D01*
X106172000Y-95377000D01*
X106172000Y-96424750D01*
X106280000Y-96532750D01*
X106280000Y-96621939D01*
X106319774Y-96821898D01*
X106397795Y-97010256D01*
X106511063Y-97179774D01*
X106655226Y-97323937D01*
X106824744Y-97437205D01*
X107013102Y-97515226D01*
X107213061Y-97555000D01*
X107416939Y-97555000D01*
X107616898Y-97515226D01*
X107805256Y-97437205D01*
X107974774Y-97323937D01*
X108118937Y-97179774D01*
X108232205Y-97010256D01*
X108310226Y-96821898D01*
X108350000Y-96621939D01*
X108350000Y-96562880D01*
X108453662Y-96583500D01*
X108716338Y-96583500D01*
X108973968Y-96532254D01*
X109095000Y-96482121D01*
X109095000Y-99022678D01*
X109091324Y-99060000D01*
X109095000Y-99097322D01*
X109095000Y-99097332D01*
X109105997Y-99208985D01*
X109132338Y-99295820D01*
X109149454Y-99352246D01*
X109220026Y-99484276D01*
X109257551Y-99530000D01*
X109314999Y-99600001D01*
X109344003Y-99623804D01*
X109812631Y-100092432D01*
X109791500Y-100198662D01*
X109791500Y-100461338D01*
X109842746Y-100718968D01*
X109943268Y-100961649D01*
X110089203Y-101180057D01*
X110274943Y-101365797D01*
X110493351Y-101511732D01*
X110706448Y-101600000D01*
X110493351Y-101688268D01*
X110274943Y-101834203D01*
X110089203Y-102019943D01*
X109943268Y-102238351D01*
X109842746Y-102481032D01*
X109791500Y-102738662D01*
X109791500Y-103001338D01*
X109842746Y-103258968D01*
X109943268Y-103501649D01*
X110089203Y-103720057D01*
X110274943Y-103905797D01*
X110493351Y-104051732D01*
X110706448Y-104140000D01*
X110493351Y-104228268D01*
X110274943Y-104374203D01*
X110089203Y-104559943D01*
X109943268Y-104778351D01*
X109842746Y-105021032D01*
X109791500Y-105278662D01*
X109791500Y-105541338D01*
X109842746Y-105798968D01*
X109943268Y-106041649D01*
X110089203Y-106260057D01*
X110274943Y-106445797D01*
X110493351Y-106591732D01*
X110706448Y-106680000D01*
X110493351Y-106768268D01*
X110274943Y-106914203D01*
X110089203Y-107099943D01*
X109943268Y-107318351D01*
X109855000Y-107531448D01*
X109766732Y-107318351D01*
X109620797Y-107099943D01*
X109435057Y-106914203D01*
X109216649Y-106768268D01*
X108973968Y-106667746D01*
X108716338Y-106616500D01*
X108453662Y-106616500D01*
X108196032Y-106667746D01*
X107953351Y-106768268D01*
X107734943Y-106914203D01*
X107549203Y-107099943D01*
X107403268Y-107318351D01*
X107315000Y-107531448D01*
X107226732Y-107318351D01*
X107080797Y-107099943D01*
X106895057Y-106914203D01*
X106676649Y-106768268D01*
X106433968Y-106667746D01*
X106176338Y-106616500D01*
X105913662Y-106616500D01*
X105656032Y-106667746D01*
X105413351Y-106768268D01*
X105194943Y-106914203D01*
X105009203Y-107099943D01*
X104863268Y-107318351D01*
X104775000Y-107531448D01*
X104686732Y-107318351D01*
X104540797Y-107099943D01*
X104355057Y-106914203D01*
X104265000Y-106854029D01*
X104265000Y-104843711D01*
X104308937Y-104799774D01*
X104422205Y-104630256D01*
X104500226Y-104441898D01*
X104540000Y-104241939D01*
X104540000Y-104038061D01*
X104500226Y-103838102D01*
X104422205Y-103649744D01*
X104308937Y-103480226D01*
X104164774Y-103336063D01*
X103995256Y-103222795D01*
X103806898Y-103144774D01*
X103606939Y-103105000D01*
X103403061Y-103105000D01*
X103203102Y-103144774D01*
X103014744Y-103222795D01*
X102845226Y-103336063D01*
X102701063Y-103480226D01*
X102587795Y-103649744D01*
X102509774Y-103838102D01*
X102470000Y-104038061D01*
X102470000Y-104241939D01*
X102509774Y-104441898D01*
X102587795Y-104630256D01*
X102701063Y-104799774D01*
X102745000Y-104843711D01*
X102745001Y-106854029D01*
X102654943Y-106914203D01*
X102469203Y-107099943D01*
X102323268Y-107318351D01*
X102235000Y-107531448D01*
X102146732Y-107318351D01*
X102000797Y-107099943D01*
X101815057Y-106914203D01*
X101596649Y-106768268D01*
X101353968Y-106667746D01*
X101096338Y-106616500D01*
X100833662Y-106616500D01*
X100576032Y-106667746D01*
X100333351Y-106768268D01*
X100114943Y-106914203D01*
X99929203Y-107099943D01*
X99783268Y-107318351D01*
X99695000Y-107531448D01*
X99606732Y-107318351D01*
X99460797Y-107099943D01*
X99275057Y-106914203D01*
X99056649Y-106768268D01*
X98843552Y-106680000D01*
X99056649Y-106591732D01*
X99275057Y-106445797D01*
X99460797Y-106260057D01*
X99606732Y-106041649D01*
X99707254Y-105798968D01*
X99758500Y-105541338D01*
X99758500Y-105278662D01*
X99737369Y-105172432D01*
X100206004Y-104703798D01*
X100235001Y-104680001D01*
X100329974Y-104564276D01*
X100400546Y-104432247D01*
X100444003Y-104288986D01*
X100455000Y-104177333D01*
X100455000Y-104177324D01*
X100458676Y-104140001D01*
X100455000Y-104102678D01*
X100455000Y-96482121D01*
X100576032Y-96532254D01*
X100833662Y-96583500D01*
X101096338Y-96583500D01*
X101353968Y-96532254D01*
X101596649Y-96431732D01*
X101815057Y-96285797D01*
X102000797Y-96100057D01*
X102146732Y-95881649D01*
X102235000Y-95668552D01*
X102323268Y-95881649D01*
X102469203Y-96100057D01*
X102654943Y-96285797D01*
X102873351Y-96431732D01*
X103116032Y-96532254D01*
X103373662Y-96583500D01*
X103636338Y-96583500D01*
X103893968Y-96532254D01*
X104136649Y-96431732D01*
X104355057Y-96285797D01*
X104540797Y-96100057D01*
X104686732Y-95881649D01*
X104709332Y-95827089D01*
X104708428Y-95948500D01*
X104720688Y-96072982D01*
X104756998Y-96192680D01*
X104815963Y-96302994D01*
X104895315Y-96399685D01*
X104992006Y-96479037D01*
X105102320Y-96538002D01*
X105222018Y-96574312D01*
X105346500Y-96586572D01*
X105759250Y-96583500D01*
X105918000Y-96424750D01*
X105918000Y-95377000D01*
X105898000Y-95377000D01*
X105898000Y-95123000D01*
X105918000Y-95123000D01*
X105918000Y-95103000D01*
X106172000Y-95103000D01*
X106172000Y-95123000D01*
G36*
X125010000Y-79631439D02*
G01*
X125010001Y-96402607D01*
X124745750Y-96405000D01*
X124587000Y-96563750D01*
X124587000Y-97663000D01*
X124607000Y-97663000D01*
X124607000Y-97917000D01*
X124587000Y-97917000D01*
X124587000Y-97937000D01*
X124333000Y-97937000D01*
X124333000Y-97917000D01*
X124313000Y-97917000D01*
X124313000Y-97663000D01*
X124333000Y-97663000D01*
X124333000Y-96563750D01*
X124174250Y-96405000D01*
X123835000Y-96401928D01*
X123710518Y-96414188D01*
X123590820Y-96450498D01*
X123480506Y-96509463D01*
X123383815Y-96588815D01*
X123315000Y-96672667D01*
X123315000Y-77789221D01*
X125010000Y-79631439D01*
X125010000Y-79631439D01*
G37*
X125010000Y-79631439D02*
X125010001Y-96402607D01*
X124745750Y-96405000D01*
X124587000Y-96563750D01*
X124587000Y-97663000D01*
X124607000Y-97663000D01*
X124607000Y-97917000D01*
X124587000Y-97917000D01*
X124587000Y-97937000D01*
X124333000Y-97937000D01*
X124333000Y-97917000D01*
X124313000Y-97917000D01*
X124313000Y-97663000D01*
X124333000Y-97663000D01*
X124333000Y-96563750D01*
X124174250Y-96405000D01*
X123835000Y-96401928D01*
X123710518Y-96414188D01*
X123590820Y-96450498D01*
X123480506Y-96509463D01*
X123383815Y-96588815D01*
X123315000Y-96672667D01*
X123315000Y-77789221D01*
X125010000Y-79631439D01*
G36*
X104650000Y-91049850D02*
G01*
X104646324Y-91087172D01*
X104650000Y-91124494D01*
X104650000Y-91124504D01*
X104660997Y-91236157D01*
X104701432Y-91369454D01*
X104704454Y-91379418D01*
X104775026Y-91511448D01*
X104794354Y-91534999D01*
X104869999Y-91627173D01*
X104899002Y-91650975D01*
X105058586Y-91810560D01*
X105009203Y-91859943D01*
X104863268Y-92078351D01*
X104773293Y-92295570D01*
X104712514Y-92129158D01*
X104658812Y-92028686D01*
X104425197Y-91969408D01*
X103684605Y-92710000D01*
X104425197Y-93450592D01*
X104658812Y-93391314D01*
X104769559Y-93153125D01*
X104775342Y-93129378D01*
X104863268Y-93341649D01*
X105009203Y-93560057D01*
X105194943Y-93745797D01*
X105413351Y-93891732D01*
X105467911Y-93914332D01*
X105346500Y-93913428D01*
X105222018Y-93925688D01*
X105102320Y-93961998D01*
X104992006Y-94020963D01*
X104895315Y-94100315D01*
X104815963Y-94197006D01*
X104756998Y-94307320D01*
X104720688Y-94427018D01*
X104708428Y-94551500D01*
X104709332Y-94672911D01*
X104686732Y-94618351D01*
X104540797Y-94399943D01*
X104355057Y-94214203D01*
X104136649Y-94068268D01*
X103919430Y-93978293D01*
X104085842Y-93917514D01*
X104186314Y-93863812D01*
X104245592Y-93630197D01*
X103505000Y-92889605D01*
X103490858Y-92903748D01*
X103311253Y-92724143D01*
X103325395Y-92710000D01*
X103311253Y-92695858D01*
X103490858Y-92516253D01*
X103505000Y-92530395D01*
X104245592Y-91789803D01*
X104186314Y-91556188D01*
X103948125Y-91445441D01*
X103692907Y-91383289D01*
X103430467Y-91372124D01*
X103170893Y-91412371D01*
X102995000Y-91476612D01*
X102995000Y-82864801D01*
X103526003Y-82333799D01*
X103555000Y-82310002D01*
X103649973Y-82194277D01*
X103720545Y-82062248D01*
X103764002Y-81918987D01*
X103774999Y-81807334D01*
X103774999Y-81807325D01*
X103778675Y-81770002D01*
X103774999Y-81732679D01*
X103774999Y-80763849D01*
X103858691Y-80789236D01*
X104069508Y-80810000D01*
X104210492Y-80810000D01*
X104421309Y-80789236D01*
X104650000Y-80719864D01*
X104650000Y-91049850D01*
X104650000Y-91049850D01*
G37*
X104650000Y-91049850D02*
X104646324Y-91087172D01*
X104650000Y-91124494D01*
X104650000Y-91124504D01*
X104660997Y-91236157D01*
X104701432Y-91369454D01*
X104704454Y-91379418D01*
X104775026Y-91511448D01*
X104794354Y-91534999D01*
X104869999Y-91627173D01*
X104899002Y-91650975D01*
X105058586Y-91810560D01*
X105009203Y-91859943D01*
X104863268Y-92078351D01*
X104773293Y-92295570D01*
X104712514Y-92129158D01*
X104658812Y-92028686D01*
X104425197Y-91969408D01*
X103684605Y-92710000D01*
X104425197Y-93450592D01*
X104658812Y-93391314D01*
X104769559Y-93153125D01*
X104775342Y-93129378D01*
X104863268Y-93341649D01*
X105009203Y-93560057D01*
X105194943Y-93745797D01*
X105413351Y-93891732D01*
X105467911Y-93914332D01*
X105346500Y-93913428D01*
X105222018Y-93925688D01*
X105102320Y-93961998D01*
X104992006Y-94020963D01*
X104895315Y-94100315D01*
X104815963Y-94197006D01*
X104756998Y-94307320D01*
X104720688Y-94427018D01*
X104708428Y-94551500D01*
X104709332Y-94672911D01*
X104686732Y-94618351D01*
X104540797Y-94399943D01*
X104355057Y-94214203D01*
X104136649Y-94068268D01*
X103919430Y-93978293D01*
X104085842Y-93917514D01*
X104186314Y-93863812D01*
X104245592Y-93630197D01*
X103505000Y-92889605D01*
X103490858Y-92903748D01*
X103311253Y-92724143D01*
X103325395Y-92710000D01*
X103311253Y-92695858D01*
X103490858Y-92516253D01*
X103505000Y-92530395D01*
X104245592Y-91789803D01*
X104186314Y-91556188D01*
X103948125Y-91445441D01*
X103692907Y-91383289D01*
X103430467Y-91372124D01*
X103170893Y-91412371D01*
X102995000Y-91476612D01*
X102995000Y-82864801D01*
X103526003Y-82333799D01*
X103555000Y-82310002D01*
X103649973Y-82194277D01*
X103720545Y-82062248D01*
X103764002Y-81918987D01*
X103774999Y-81807334D01*
X103774999Y-81807325D01*
X103778675Y-81770002D01*
X103774999Y-81732679D01*
X103774999Y-80763849D01*
X103858691Y-80789236D01*
X104069508Y-80810000D01*
X104210492Y-80810000D01*
X104421309Y-80789236D01*
X104650000Y-80719864D01*
X104650000Y-91049850D01*
M02*
