M48
; DRILL file {KiCad (5.1.2-1)-1} date Friday, 24 May 2019 at 19:31:30
; FORMAT={-:-/ absolute / inch / decimal}
; #@! TF.CreationDate,2019-05-24T19:31:30+01:00
; #@! TF.GenerationSoftware,Kicad,Pcbnew,(5.1.2-1)-1
; #@! TF.FileFunction,Plated,1,2,PTH
FMAT,2
INCH
T1C0.0157
T2C0.0315
T3C0.0320
T4C0.0394
%
G90
G05
T1
X3.35Y-3.525
X3.4Y-3.85
X3.45Y-3.7
X3.5Y-3.9
X3.55Y-3.75
X3.6Y-4.1
X3.65Y-3.65
X3.8Y-3.25
X3.85Y-2.7
X3.9Y-2.9
X3.925Y-3.25
X4.075Y-4.1
X4.15Y-2.65
X4.225Y-3.8
X4.35Y-2.8
X4.55Y-2.75
X4.55Y-4.2
X4.6Y-3.75
X4.65Y-3.2
X4.65Y-3.9
X4.7Y-4.1
X4.775Y-4.4
X4.825Y-4.45
X4.9Y-3.575
X4.9Y-4.15
X5.0Y-2.925
X5.0Y-3.7
X5.0Y-4.35
X5.075Y-3.025
X5.075Y-4.25
X5.075Y-4.3
X5.125Y-2.975
X5.175Y-3.525
X5.725Y-3.45
X5.725Y-3.625
T2
X6.125Y-4.05
X6.125Y-4.45
X5.925Y-4.05
X5.925Y-4.45
X5.325Y-3.025
X5.325Y-3.125
X5.325Y-3.225
X5.325Y-3.325
X5.325Y-3.425
X5.325Y-3.525
X5.325Y-3.625
X5.325Y-3.725
X5.625Y-3.025
X5.625Y-3.125
X5.625Y-3.225
X5.625Y-3.325
X5.625Y-3.425
X5.625Y-3.525
X5.625Y-3.625
X5.625Y-3.725
X3.4Y-2.525
X3.4Y-3.125
X3.5Y-2.525
X3.5Y-3.125
X3.6Y-2.525
X3.6Y-3.125
X3.7Y-2.525
X3.7Y-3.125
X3.8Y-2.525
X3.8Y-3.125
X3.9Y-2.525
X3.9Y-3.125
X4.0Y-2.525
X4.0Y-3.125
X4.1Y-2.525
X4.1Y-3.125
X4.2Y-2.525
X4.2Y-3.125
X4.3Y-2.525
X4.3Y-3.125
X4.4Y-2.525
X4.4Y-3.125
X4.5Y-2.525
X4.5Y-3.125
X4.6Y-2.525
X4.6Y-3.125
X4.7Y-2.525
X4.7Y-3.125
T3
X3.775Y-3.75
X3.775Y-3.85
X3.775Y-3.95
X3.775Y-4.05
X3.775Y-4.15
X3.775Y-4.25
X3.875Y-3.65
X3.875Y-3.75
X3.875Y-3.85
X3.875Y-3.95
X3.875Y-4.05
X3.875Y-4.15
X3.875Y-4.25
X3.875Y-4.35
X3.975Y-3.65
X3.975Y-3.75
X3.975Y-4.25
X3.975Y-4.35
X4.075Y-3.65
X4.075Y-3.75
X4.075Y-4.25
X4.075Y-4.35
X4.175Y-3.65
X4.175Y-3.75
X4.175Y-4.25
X4.175Y-4.35
X4.275Y-3.65
X4.275Y-3.75
X4.275Y-4.25
X4.275Y-4.35
X4.375Y-3.65
X4.375Y-3.75
X4.375Y-3.85
X4.375Y-3.95
X4.375Y-4.05
X4.375Y-4.15
X4.375Y-4.25
X4.375Y-4.35
X4.475Y-3.75
X4.475Y-3.85
X4.475Y-3.95
X4.475Y-4.05
X4.475Y-4.15
X4.475Y-4.25
T4
X6.2Y-3.325
X6.2Y-3.425
T0
M30
